<svg width="1000" height="198" viewBox="0 0 1000 198" fill="none" xmlns="http://www.w3.org/2000/svg">
<path fill-rule="evenodd" clip-rule="evenodd" d="M974.795 150.604C975.4 157.497 980.914 166.272 990.467 166.272H996.057C998.223 166.272 1000 164.496 1000 162.328V39.3998H999.975C999.862 37.3289 998.151 35.6702 996.057 35.6702H978.737C976.643 35.6702 974.932 37.3289 974.817 39.3998H974.795V49.3884C964.184 36.3081 947.453 30.8789 930.676 30.8789C892.539 30.8789 861.625 61.8173 861.625 99.984C861.625 138.153 892.539 169.092 930.676 169.092V169.095C947.453 169.095 965.736 162.582 974.792 150.588L974.795 150.604V150.604ZM930.743 144.906C906.489 144.906 886.825 124.796 886.825 99.9842C886.825 75.1768 906.489 55.0653 930.743 55.0653C954.996 55.0653 974.657 75.1768 974.657 99.9842C974.657 124.796 954.996 144.906 930.743 144.906V144.906Z" fill="white"/>
<path fill-rule="evenodd" clip-rule="evenodd" d="M839.729 154.832L839.721 91.2218H839.723C839.723 55.3652 817.119 31.1758 781.075 31.1758C763.869 31.1758 749.764 41.1329 744.783 49.6863C743.706 42.9982 740.158 35.9681 729.155 35.9681H723.547C721.378 35.9681 719.606 37.7453 719.606 39.9139V150.912C719.606 150.915 719.606 150.924 719.606 150.929V162.852H719.628C719.742 164.92 721.455 166.581 723.549 166.581H740.869C741.134 166.581 741.394 166.549 741.645 166.5C741.76 166.478 741.867 166.433 741.978 166.401C742.107 166.361 742.241 166.331 742.363 166.281C742.518 166.217 742.657 166.131 742.801 166.051C742.871 166.008 742.944 165.977 743.012 165.932C743.185 165.821 743.344 165.687 743.497 165.549C743.522 165.524 743.552 165.507 743.577 165.484C743.749 165.318 743.906 165.134 744.046 164.943C744.047 164.94 744.047 164.94 744.047 164.94C744.481 164.344 744.744 163.626 744.787 162.852H744.809V90.2356C744.809 70.9781 760.41 55.3652 779.655 55.3652C798.898 55.3652 814.499 70.9781 814.499 90.2356L814.515 150.933L814.519 150.912C814.519 150.966 814.528 151.021 814.528 151.079V162.852H814.551C814.665 164.92 816.376 166.581 818.47 166.581H835.791C836.057 166.581 836.316 166.549 836.567 166.5C836.669 166.481 836.764 166.44 836.864 166.412C837.006 166.371 837.151 166.335 837.288 166.281C837.429 166.222 837.558 166.14 837.692 166.065C837.774 166.018 837.86 165.985 837.939 165.932C838.098 165.827 838.245 165.7 838.388 165.575C838.425 165.541 838.466 165.516 838.501 165.481C838.665 165.323 838.811 165.152 838.945 164.972C838.954 164.959 838.965 164.948 838.975 164.935C839.402 164.344 839.663 163.632 839.708 162.863C839.708 162.857 839.71 162.852 839.71 162.852H839.733V154.834L839.729 154.832" fill="white"/>
<path fill-rule="evenodd" clip-rule="evenodd" d="M659.351 150.604C659.957 157.497 665.471 166.272 675.023 166.272H680.613C682.78 166.272 684.553 164.496 684.553 162.328V39.3998H684.531C684.418 37.3289 682.705 35.6702 680.613 35.6702H663.293C661.199 35.6702 659.488 37.3289 659.371 39.3998H659.351V49.3884C648.738 36.3081 632.008 30.8789 615.23 30.8789C577.095 30.8789 546.181 61.8173 546.181 99.984C546.181 138.153 577.095 169.092 615.23 169.092V169.095C632.008 169.095 650.293 162.582 659.349 150.588L659.351 150.604V150.604ZM615.297 144.906C591.045 144.906 571.382 124.796 571.382 99.9842C571.382 75.1768 591.045 55.0653 615.297 55.0653C639.552 55.0653 659.211 75.1768 659.211 99.9842C659.211 124.796 639.552 144.906 615.297 144.906V144.906Z" fill="white"/>
<path fill-rule="evenodd" clip-rule="evenodd" d="M443.756 132.998C455.318 141.014 467.939 144.907 480.067 144.907C491.621 144.907 503.566 138.913 503.566 128.479C503.566 114.549 477.538 112.382 461.184 106.819C444.828 101.257 430.741 89.7585 430.741 71.1377C430.741 42.6449 456.109 30.877 479.786 30.877C494.788 30.877 510.267 35.8277 520.302 42.9197C523.758 45.5404 521.653 48.5493 521.653 48.5493L512.074 62.2413C510.997 63.7835 509.115 65.1158 506.412 63.4467C503.71 61.7786 494.231 55.0643 479.786 55.0643C465.34 55.0643 456.638 61.7408 456.638 70.0162C456.638 79.9398 467.948 83.0609 481.195 86.4433C504.28 92.6708 529.463 100.156 529.463 128.479C529.463 153.583 505.999 169.098 480.067 169.098C460.415 169.098 443.684 163.491 429.651 153.186C426.728 150.258 428.77 147.539 428.77 147.539L438.302 133.917C440.241 131.369 442.687 132.258 443.756 132.998" fill="white"/>
<path fill-rule="evenodd" clip-rule="evenodd" d="M377.173 150.604C377.779 157.497 383.293 166.272 392.846 166.272H398.436C400.602 166.272 402.378 164.496 402.378 162.328V39.3998H402.354C402.241 37.3289 400.53 35.6702 398.436 35.6702H381.116C379.022 35.6702 377.311 37.3289 377.194 39.3998H377.173V49.3884C366.562 36.3081 349.831 30.8789 333.054 30.8789C294.919 30.8789 264.004 61.8173 264.004 99.984C264.004 138.153 294.919 169.092 333.054 169.092V169.095C349.831 169.095 368.115 162.582 377.171 150.588L377.173 150.604V150.604ZM333.122 144.906C308.868 144.906 289.205 124.796 289.205 99.9842C289.205 75.1768 308.868 55.0653 333.122 55.0653C357.375 55.0653 377.035 75.1768 377.035 99.9842C377.035 124.796 357.375 144.906 333.122 144.906V144.906Z" fill="white"/>
<path fill-rule="evenodd" clip-rule="evenodd" d="M167.197 104.685C141.533 104.685 120.729 125.489 120.729 151.155C120.729 176.819 141.533 197.623 167.197 197.623C192.861 197.623 213.665 176.819 213.665 151.155C213.665 125.489 192.861 104.685 167.197 104.685V104.685ZM46.4683 104.689C20.8048 104.689 0 125.49 0 151.155C0 176.819 20.8048 197.624 46.4683 197.624C72.1329 197.624 92.9387 176.819 92.9387 151.155C92.9387 125.49 72.1329 104.689 46.4683 104.689V104.689ZM153.3 46.5982C153.3 72.2638 132.496 93.0706 106.833 93.0706C81.1681 93.0706 60.3643 72.2638 60.3643 46.5982C60.3643 20.9377 81.1681 0.130859 106.833 0.130859C132.496 0.130859 153.3 20.9377 153.3 46.5982V46.5982Z" fill="#F06A6A"/>
</svg>
