<svg width="112" height="24" viewBox="0 0 112 24" fill="none" xmlns="http://www.w3.org/2000/svg">
<path fill-rule="evenodd" clip-rule="evenodd" d="M109.329 17.7193C109.393 18.4675 109.978 19.4196 110.99 19.4196H111.583C111.812 19.4196 112.001 19.2269 112.001 18.9916V5.65127H111.998C111.986 5.42653 111.805 5.24652 111.583 5.24652H109.747C109.525 5.24652 109.344 5.42653 109.332 5.65127H109.329V6.73526C108.205 5.31575 106.432 4.72656 104.654 4.72656C100.612 4.72656 97.3357 8.08405 97.3357 12.226C97.3357 16.3681 100.612 19.7257 104.654 19.7257V19.7261C106.432 19.7261 108.369 19.0192 109.329 17.7176L109.329 17.7193ZM104.661 17.101C102.09 17.101 100.006 14.9186 100.006 12.226C100.006 9.53386 102.09 7.35132 104.661 7.35132C107.231 7.35132 109.315 9.53386 109.315 12.226C109.315 14.9186 107.231 17.101 104.661 17.101Z" fill="#0D0E10"/>
<path fill-rule="evenodd" clip-rule="evenodd" d="M95.0153 18.1791L95.0144 11.2761H95.0146C95.0146 7.38484 92.6191 4.75977 88.7992 4.75977C86.9757 4.75977 85.4809 5.84034 84.953 6.76856C84.8389 6.04276 84.4629 5.27984 83.2968 5.27984H82.7024C82.4726 5.27984 82.2848 5.47271 82.2848 5.70804V17.7537C82.2848 17.754 82.2848 17.755 82.2848 17.7556V19.0495H82.2871C82.2992 19.2739 82.4807 19.4541 82.7027 19.4541H84.5382C84.5663 19.4541 84.5939 19.4507 84.6205 19.4453C84.6326 19.443 84.644 19.4381 84.6557 19.4346C84.6694 19.4304 84.6836 19.427 84.6965 19.4216C84.713 19.4146 84.7277 19.4053 84.743 19.3966C84.7504 19.392 84.7581 19.3887 84.7653 19.3837C84.7837 19.3717 84.8005 19.3571 84.8167 19.3423C84.8194 19.3394 84.8226 19.3377 84.8252 19.3352C84.8434 19.3171 84.8601 19.2971 84.8749 19.2764C84.875 19.2761 84.875 19.2761 84.875 19.2761C84.921 19.2114 84.9489 19.1336 84.9534 19.0495H84.9558V11.169C84.9558 9.07917 86.6091 7.38484 88.6487 7.38484C90.6881 7.38484 92.3414 9.07917 92.3414 11.169L92.3431 17.756L92.3435 17.7537C92.3435 17.7596 92.3445 17.7655 92.3445 17.7718V19.0495H92.3469C92.359 19.2739 92.5403 19.4541 92.7623 19.4541H94.5979C94.6261 19.4541 94.6536 19.4507 94.6802 19.4453C94.691 19.4433 94.701 19.4388 94.7116 19.4358C94.7267 19.4313 94.7421 19.4274 94.7566 19.4216C94.7715 19.4152 94.7852 19.4063 94.7994 19.3981C94.8081 19.3932 94.8172 19.3895 94.8256 19.3837C94.8424 19.3724 94.858 19.3586 94.8732 19.345C94.8771 19.3413 94.8814 19.3386 94.8851 19.3348C94.9025 19.3176 94.918 19.2991 94.9322 19.2796C94.9331 19.2781 94.9343 19.2769 94.9354 19.2755C94.9806 19.2114 95.0083 19.1341 95.013 19.0507C95.013 19.0501 95.0133 19.0495 95.0133 19.0495H95.0157V18.1793L95.0153 18.1791Z" fill="#0D0E10"/>
<path fill-rule="evenodd" clip-rule="evenodd" d="M75.8988 17.7193C75.963 18.4675 76.5474 19.4196 77.5597 19.4196H78.1521C78.3817 19.4196 78.5696 19.2269 78.5696 18.9916V5.65127H78.5673C78.5553 5.42653 78.3738 5.24652 78.1521 5.24652H76.3165C76.0946 5.24652 75.9133 5.42653 75.9009 5.65127H75.8988V6.73526C74.774 5.31575 73.001 4.72656 71.2229 4.72656C67.1814 4.72656 63.9052 8.08405 63.9052 12.226C63.9052 16.3681 67.1814 19.7257 71.2229 19.7257V19.7261C73.001 19.7261 74.9388 19.0192 75.8986 17.7176L75.8988 17.7193ZM71.23 17.101C68.6598 17.101 66.5759 14.9186 66.5759 12.226C66.5759 9.53386 68.6598 7.35132 71.23 7.35132C73.8005 7.35132 75.8839 9.53386 75.8839 12.226C75.8839 14.9186 73.8005 17.101 71.23 17.101Z" fill="#0D0E10"/>
<path fill-rule="evenodd" clip-rule="evenodd" d="M53.0502 15.8089C54.2755 16.6788 55.6131 17.1013 56.8984 17.1013C58.1228 17.1013 59.3887 16.4508 59.3887 15.3185C59.3887 13.8068 56.6303 13.5716 54.8972 12.9679C53.1638 12.3643 51.6709 11.1165 51.6709 9.09574C51.6709 6.00364 54.3594 4.72656 56.8686 4.72656C58.4584 4.72656 60.0989 5.26383 61.1623 6.03347C61.5286 6.31787 61.3055 6.64439 61.3055 6.64439L60.2903 8.13028C60.1762 8.29764 59.9768 8.44223 59.6903 8.26109C59.404 8.08006 58.3994 7.35142 56.8686 7.35142C55.3376 7.35142 54.4154 8.07597 54.4154 8.97403C54.4154 10.051 55.614 10.3897 57.0179 10.7567C59.4644 11.4325 62.1332 12.2448 62.1332 15.3185C62.1332 18.043 59.6465 19.7266 56.8984 19.7266C54.8157 19.7266 53.0426 19.1181 51.5554 17.9998C51.2457 17.682 51.4621 17.387 51.4621 17.387L52.4722 15.9087C52.6777 15.6322 52.9369 15.7286 53.0502 15.8089Z" fill="#0D0E10"/>
<path fill-rule="evenodd" clip-rule="evenodd" d="M45.994 17.7193C46.0582 18.4675 46.6426 19.4196 47.655 19.4196H48.2474C48.477 19.4196 48.6652 19.2269 48.6652 18.9916V5.65127H48.6627C48.6507 5.42653 48.4693 5.24652 48.2474 5.24652H46.4119C46.19 5.24652 46.0086 5.42653 45.9962 5.65127H45.994V6.73526C44.8695 5.31575 43.0963 4.72656 41.3183 4.72656C37.2768 4.72656 34.0005 8.08405 34.0005 12.226C34.0005 16.3681 37.2768 19.7257 41.3183 19.7257V19.7261C43.0963 19.7261 45.034 19.0192 45.9938 17.7176L45.994 17.7193ZM41.3255 17.101C38.7551 17.101 36.6713 14.9186 36.6713 12.226C36.6713 9.53386 38.7551 7.35132 41.3255 7.35132C43.8958 7.35132 45.9794 9.53386 45.9794 12.226C45.9794 14.9186 43.8958 17.101 41.3255 17.101Z" fill="#0D0E10"/>
<path d="M20.3457 12.7057C17.2224 12.7057 14.6909 15.2339 14.6909 18.3525C14.6909 21.4714 17.2224 24 20.3457 24C23.4685 24 26 21.4714 26 18.3525C26 15.2339 23.4685 12.7057 20.3457 12.7057ZM5.65456 12.706C2.53176 12.7063 0 15.2338 0 18.3527C0 21.4714 2.53176 23.9997 5.65456 23.9997C8.77762 23.9997 11.3094 21.4714 11.3094 18.3527C11.3094 15.2338 8.77789 12.706 5.65456 12.706ZM18.6546 5.647C18.6546 8.76561 16.1231 11.2945 13.0003 11.2945C9.87694 11.2945 7.34544 8.76561 7.34544 5.647C7.34544 2.52838 9.87694 0 13.0003 0C16.1231 0 18.6546 2.52838 18.6546 5.647Z" fill="url(#paint0_radial_4633_8900)"/>
<defs>
<radialGradient id="paint0_radial_4633_8900" cx="0" cy="0" r="1" gradientUnits="userSpaceOnUse" gradientTransform="translate(13 13.1165) scale(17.2284 15.9031)">
<stop stop-color="#FFB900"/>
<stop offset="0.6" stop-color="#F95D8F"/>
<stop offset="0.9991" stop-color="#F95353"/>
</radialGradient>
</defs>
</svg>
