<svg width="26" height="24" viewBox="0 0 26 24" fill="none" xmlns="http://www.w3.org/2000/svg">
<path d="M20.3457 12.7057C17.2224 12.7057 14.6909 15.2339 14.6909 18.3525C14.6909 21.4714 17.2224 24 20.3457 24C23.4685 24 26 21.4714 26 18.3525C26 15.2339 23.4685 12.7057 20.3457 12.7057ZM5.65456 12.706C2.53176 12.7063 0 15.2338 0 18.3527C0 21.4714 2.53176 23.9997 5.65456 23.9997C8.77762 23.9997 11.3094 21.4714 11.3094 18.3527C11.3094 15.2338 8.77789 12.706 5.65456 12.706ZM18.6546 5.647C18.6546 8.76561 16.1231 11.2945 13.0003 11.2945C9.87694 11.2945 7.34544 8.76561 7.34544 5.647C7.34544 2.52838 9.87694 0 13.0003 0C16.1231 0 18.6546 2.52838 18.6546 5.647Z" fill="url(#paint0_radial_4633_8916)"/>
<defs>
<radialGradient id="paint0_radial_4633_8916" cx="0" cy="0" r="1" gradientUnits="userSpaceOnUse" gradientTransform="translate(13 13.1165) scale(17.2284 15.9031)">
<stop stop-color="#FFB900"/>
<stop offset="0.6" stop-color="#F95D8F"/>
<stop offset="0.9991" stop-color="#F95353"/>
</radialGradient>
</defs>
</svg>
