<svg width="20" height="19" viewBox="0 0 20 19" fill="none" xmlns="http://www.w3.org/2000/svg">
<path d="M15.2389 10.2084C12.8996 10.2084 11.0035 12.1045 11.0035 14.4435C11.0035 16.7827 12.8996 18.6791 15.2389 18.6791C17.5779 18.6791 19.474 16.7827 19.474 14.4435C19.474 12.1045 17.5779 10.2084 15.2389 10.2084ZM4.23526 10.2087C1.89628 10.2089 0 12.1045 0 14.4437C0 16.7827 1.89628 18.6789 4.23526 18.6789C6.57442 18.6789 8.47072 16.7827 8.47072 14.4437C8.47072 12.1045 6.57442 10.2087 4.23505 10.2087H4.23526ZM13.9723 4.91438C13.9723 7.25335 12.0762 9.15004 9.73721 9.15004C7.39784 9.15004 5.50174 7.25335 5.50174 4.91438C5.50174 2.57541 7.39784 0.679138 9.73719 0.679138C12.0762 0.679138 13.9721 2.57541 13.9721 4.91438H13.9723Z" fill="url(#paint0_radial)"/>
<defs>
<radialGradient id="paint0_radial" cx="0" cy="0" r="1" gradientUnits="userSpaceOnUse" gradientTransform="translate(9.73963 10.5277) scale(12.9113 11.934)">
<stop stop-color="#FFB900"/>
<stop offset="0.6" stop-color="#F95D8F"/>
<stop offset="0.999" stop-color="#F95353"/>
</radialGradient>
</defs>
</svg>
