<svg width="751" height="495" viewBox="0 0 751 495" fill="none" xmlns="http://www.w3.org/2000/svg">
<path d="M115.339 475.157C115.961 482.186 121.575 491.1 131.304 491.1H137.004C139.211 491.1 141.011 489.3 141.011 487.093V361.929H140.989C140.882 359.829 139.125 358.136 137.004 358.136H119.346C117.204 358.136 115.468 359.829 115.361 361.929H115.339V372.107C104.518 358.779 87.4822 353.271 70.3822 353.271C31.5107 353.25 0.0107422 384.75 0.0107422 423.6C0.0107422 462.472 31.5107 493.972 70.3822 493.972C87.4607 493.972 106.104 487.35 115.339 475.157ZM70.4465 469.35C45.7393 469.35 25.7036 448.864 25.7036 423.6C25.7036 398.336 45.7393 377.871 70.4465 377.871C95.1536 377.871 115.189 398.357 115.189 423.6C115.189 448.864 95.1536 469.35 70.4465 469.35Z" fill="#0D0E10"/>
<path d="M402.868 475.157C403.489 482.186 409.103 491.1 418.832 491.1H424.532C426.739 491.1 428.539 489.3 428.539 487.093V361.929H428.518C428.411 359.829 426.653 358.136 424.532 358.136H406.875C404.732 358.136 402.996 359.829 402.868 361.929V361.929V372.107C392.046 358.779 375.011 353.271 357.911 353.271C319.061 353.271 287.539 384.771 287.539 423.643C287.539 462.514 319.039 494.014 357.911 494.014C375.011 493.971 393.653 487.35 402.868 475.157ZM357.996 469.35C333.289 469.35 313.253 448.864 313.253 423.6C313.253 398.336 333.289 377.871 357.996 377.871C382.703 377.871 402.739 398.357 402.739 423.6C402.739 448.864 382.703 469.35 357.996 469.35Z" fill="#0D0E10"/>
<path d="M724.319 475.157C724.94 482.186 730.555 491.1 740.283 491.1H745.983C748.19 491.1 750.012 489.3 750.012 487.093V361.929H749.99C749.883 359.829 748.126 358.136 746.005 358.136H728.347C726.205 358.136 724.469 359.829 724.362 361.929H724.34V372.107C713.519 358.779 696.483 353.271 679.383 353.271C640.512 353.271 609.012 384.771 609.012 423.643C609.012 462.514 640.512 494.014 679.383 494.014C696.462 493.971 715.083 487.35 724.319 475.157ZM679.426 469.35C654.719 469.35 634.683 448.864 634.683 423.6C634.683 398.336 654.719 377.871 679.426 377.871C704.133 377.871 724.169 398.357 724.169 423.6C724.19 448.864 704.155 469.35 679.426 469.35Z" fill="#0D0E10"/>
<path d="M586.683 479.444V414.665C586.683 378.151 563.647 353.529 526.918 353.529C509.39 353.529 493.34 363.579 489.933 372.386C488.84 365.572 485.218 358.415 474.011 358.415H468.29C466.083 358.415 464.283 360.215 464.283 362.444V475.458V475.479V487.393V487.608H464.304C464.411 489.708 466.168 491.401 468.29 491.401H480.247H485.947C486.226 491.401 486.483 491.379 486.74 491.315C486.847 491.293 486.976 491.251 487.083 491.208C487.211 491.165 487.34 491.143 487.468 491.079C487.618 491.015 487.768 490.929 487.918 490.843C487.983 490.801 488.068 490.758 488.133 490.715C488.304 490.608 488.476 490.458 488.626 490.329C488.647 490.308 488.69 490.286 488.711 490.265C488.883 490.093 489.054 489.901 489.183 489.708C489.633 489.108 489.89 488.379 489.933 487.586H489.954V487.372V479.422V477.343V413.658C489.954 394.051 505.854 378.151 525.461 378.151C545.068 378.151 560.968 394.051 560.968 413.658L560.99 475.458V475.436C560.99 475.501 560.99 475.543 560.99 475.608V487.372V487.586H561.011C561.118 489.686 562.876 491.379 564.997 491.379H576.954H582.654C582.933 491.379 583.19 491.358 583.447 491.293C583.554 491.272 583.64 491.229 583.747 491.208C583.897 491.165 584.047 491.122 584.175 491.079C584.325 491.015 584.454 490.929 584.583 490.865C584.668 490.822 584.754 490.779 584.84 490.736C585.011 490.629 585.161 490.501 585.29 490.372C585.333 490.329 585.375 490.308 585.397 490.286C585.568 490.115 585.718 489.943 585.847 489.772C585.847 489.751 585.868 489.751 585.868 489.729C586.297 489.129 586.576 488.401 586.618 487.629H586.64V487.415L586.683 479.444Z" fill="#0D0E10"/>
<path d="M183.182 457.221C194.968 465.386 207.825 469.35 220.189 469.35C231.954 469.35 244.125 463.243 244.125 452.614C244.125 438.429 217.597 436.221 200.947 430.564C184.275 424.907 169.918 413.186 169.918 394.243C169.918 365.229 195.761 353.25 219.889 353.25C235.168 353.25 250.939 358.286 261.182 365.507C264.697 368.186 262.554 371.25 262.554 371.25L252.782 385.2C251.689 386.764 249.761 388.136 247.018 386.421C244.254 384.729 234.611 377.893 219.889 377.893C205.168 377.893 196.297 384.686 196.297 393.107C196.297 403.221 207.825 406.393 221.325 409.843C244.854 416.186 270.504 423.814 270.504 452.636C270.504 478.2 246.589 493.993 220.168 493.993C200.132 493.993 183.097 488.293 168.804 477.793C165.825 474.814 167.904 472.05 167.904 472.05L177.611 458.186C179.604 455.571 182.089 456.471 183.182 457.221Z" fill="#0D0E10"/>
<path d="M436.875 61.7571C436.875 95.85 409.232 123.514 375.139 123.514C341.025 123.514 313.382 95.8714 313.382 61.7571C313.382 27.6429 341.025 0 375.139 0C409.232 0 436.875 27.6429 436.875 61.7571ZM294.91 138.943C260.818 138.943 233.153 166.586 233.153 200.679C233.153 234.771 260.796 262.436 294.91 262.436C329.025 262.436 356.668 234.793 356.668 200.679C356.668 166.586 329.025 138.943 294.91 138.943ZM455.346 138.943C421.232 138.943 393.589 166.586 393.589 200.7C393.589 234.814 421.232 262.457 455.346 262.457C489.439 262.457 517.103 234.814 517.103 200.7C517.103 166.586 489.46 138.943 455.346 138.943Z" fill="#F06A6A"/>
</svg>
