<svg width="168" height="24" viewBox="0 0 168 24" fill="none" xmlns="http://www.w3.org/2000/svg">
<g clip-path="url(#clip0_4633_8918)">
<path d="M6.99286 11.0919C6.88457 10.9481 6.72468 10.8537 6.54819 10.8296C6.37175 10.8054 6.19303 10.8533 6.05119 10.9629C5.96777 11.0298 5.90044 11.1153 5.85443 11.2127L0.072864 22.982C-0.00902255 23.1488 -0.0224727 23.3419 0.0354699 23.5187C0.0934126 23.6956 0.218006 23.8418 0.381864 23.9253C0.477641 23.9746 0.583531 24.0001 0.690865 23.9998H8.74601C8.87503 24.0031 9.00219 23.9681 9.11197 23.899C9.22175 23.8299 9.30931 23.7298 9.36401 23.6109C11.1025 19.9569 10.0487 14.4016 6.99286 11.0919Z" fill="url(#paint0_linear_4633_8918)"/>
<path d="M11.2423 0.381899C9.80105 2.6387 8.96109 5.23798 8.80485 7.92476C8.6486 10.6115 9.18144 13.2934 10.3511 15.7075L14.2348 23.611C14.2922 23.7278 14.3803 23.8261 14.4895 23.8947C14.5987 23.9634 14.7244 23.9998 14.8528 23.9999H22.9063C22.9971 24.0001 23.0871 23.9821 23.1711 23.9468C23.255 23.9115 23.3313 23.8597 23.3955 23.7944C23.4597 23.729 23.5107 23.6514 23.5453 23.566C23.58 23.4805 23.5977 23.389 23.5975 23.2966C23.5976 23.1876 23.5731 23.08 23.526 22.9821L12.4182 0.378589C12.3655 0.265325 12.2822 0.169618 12.1781 0.102598C12.0741 0.0355787 11.9534 0 11.8303 0C11.7071 0 11.5864 0.0355787 11.4824 0.102598C11.3783 0.169618 11.2951 0.265325 11.2423 0.378589V0.381899Z" fill="#2684FF"/>
</g>
<path d="M158.583 11.5095L163.569 20.7524H168V4.25458H164.475V14.9006L163.141 11.8125L159.136 4.25458H153.572V20.7524H157.097V8.16992L158.583 11.5095Z" fill="#0052CC"/>
<path d="M131.153 4.25458H127.299V20.7524H131.153V4.25458Z" fill="#0052CC"/>
<path d="M122.853 15.8725C122.853 12.9844 121.319 11.6298 116.985 10.6995C114.594 10.1722 114.016 9.64489 114.016 8.88121C114.016 7.92662 114.87 7.52357 116.447 7.52357C118.362 7.52357 120.252 8.10239 122.039 8.90546V5.13254C120.323 4.35342 118.454 3.96719 116.569 4.00218C112.287 4.00218 110.072 5.85985 110.072 8.8994C110.072 11.3238 111.206 13.2663 115.636 14.1209C118.28 14.6724 118.836 15.0997 118.836 15.9785C118.836 16.8574 118.28 17.3847 116.405 17.3847C114.154 17.3437 111.949 16.7493 109.984 15.6543V19.6211C111.318 20.2727 113.081 21 116.365 21C120.996 21 122.835 18.9423 122.835 15.8785" fill="#0052CC"/>
<path d="M106.814 15.8725C106.814 12.9844 105.295 11.6298 100.95 10.6995C98.5581 10.1722 97.9777 9.64489 97.9777 8.88121C97.9777 7.92662 98.8347 7.52357 100.409 7.52357C102.323 7.52357 104.21 8.10239 105.997 8.90546V5.13254C104.281 4.35342 102.412 3.96719 100.527 4.00218C96.2487 4.00218 94.0304 5.85985 94.0304 8.8994C94.0304 11.3238 95.1638 13.2663 99.5974 14.1209C102.241 14.6724 102.794 15.0997 102.794 15.9785C102.794 16.8574 102.241 17.3847 100.363 17.3847C98.1127 17.3437 95.9071 16.7493 93.9423 15.6543V19.6211C95.2793 20.2727 97.0418 21 100.324 21C104.958 21 106.793 18.9423 106.793 15.8785" fill="#0052CC"/>
<path d="M68.0005 17.1855V4.25458H64.123V20.7524H72.0421L73.288 17.1855H68.0005Z" fill="#0052CC"/>
<path d="M56.6356 20.7524V7.81839H61.2181V4.25458H48.4766V7.81839H52.7582V20.7524H56.6356Z" fill="#0052CC"/>
<path d="M42.8545 4.25458H37.7737L32 20.7524H36.4214L37.2419 17.9734C39.2555 18.5636 41.3969 18.5636 43.4106 17.9734L44.228 20.7524H48.6342L42.8545 4.25458ZM40.3141 15.0006C39.5941 15.0016 38.8778 14.8995 38.1869 14.6975L40.3141 7.49716L42.4412 14.6975C41.7503 14.8993 41.034 15.0014 40.3141 15.0006Z" fill="#0052CC"/>
<path d="M85.693 4.25458H80.6122L74.8385 20.7524H79.2447L80.0652 17.9734C82.0788 18.5636 84.2202 18.5636 86.2339 17.9734L87.0513 20.7524H91.4575L85.693 4.25458ZM83.1526 15.0006C82.4326 15.0019 81.7162 14.8998 81.0254 14.6975L83.1526 7.49716L85.2797 14.6975C84.5889 14.8998 83.8725 15.0019 83.1526 15.0006Z" fill="#0052CC"/>
<path d="M145.033 4.25458H139.952L134.178 20.7524H138.585L139.402 17.9734C141.416 18.5636 143.557 18.5636 145.571 17.9734L146.388 20.7524H150.797L145.033 4.25458ZM142.493 15.0006C141.773 15.0014 141.056 14.8993 140.365 14.6975L142.493 7.49716L144.62 14.6975C143.929 14.8993 143.212 15.0014 142.493 15.0006Z" fill="#0052CC"/>
<defs>
<linearGradient id="paint0_linear_4633_8918" x1="10.1755" y1="12.8907" x2="3.9097" y2="23.5562" gradientUnits="userSpaceOnUse">
<stop stop-color="#0052CC"/>
<stop offset="0.92" stop-color="#2684FF"/>
</linearGradient>
<clipPath id="clip0_4633_8918">
<rect width="24" height="24" fill="white"/>
</clipPath>
</defs>
</svg>
