<svg width="24" height="24" viewBox="0 0 24 24" fill="none" xmlns="http://www.w3.org/2000/svg">
<g clip-path="url(#clip0_4633_8954)">
<path d="M6.99286 11.0919C6.88457 10.9481 6.72468 10.8537 6.54819 10.8296C6.37175 10.8054 6.19303 10.8533 6.05119 10.9629C5.96777 11.0298 5.90044 11.1153 5.85443 11.2127L0.072864 22.982C-0.00902255 23.1488 -0.0224727 23.3419 0.0354699 23.5187C0.0934126 23.6956 0.218006 23.8418 0.381864 23.9253C0.477641 23.9746 0.583531 24.0001 0.690865 23.9998H8.74601C8.87503 24.0031 9.00219 23.9681 9.11197 23.899C9.22175 23.8299 9.30931 23.7298 9.36401 23.6109C11.1025 19.9569 10.0487 14.4016 6.99286 11.0919Z" fill="url(#paint0_linear_4633_8954)"/>
<path d="M11.2424 0.381899C9.80111 2.6387 8.96116 5.23798 8.80491 7.92476C8.64866 10.6115 9.1815 13.2934 10.3512 15.7075L14.2348 23.611C14.2922 23.7278 14.3804 23.8261 14.4896 23.8947C14.5987 23.9634 14.7245 23.9998 14.8528 23.9999H22.9064C22.9972 24.0001 23.0872 23.9821 23.1711 23.9468C23.2551 23.9115 23.3314 23.8597 23.3956 23.7944C23.4598 23.729 23.5107 23.6514 23.5454 23.566C23.5801 23.4805 23.5978 23.389 23.5976 23.2966C23.5976 23.1876 23.5731 23.08 23.526 22.9821L12.4182 0.378589C12.3655 0.265325 12.2823 0.169618 12.1782 0.102598C12.0741 0.0355787 11.9535 0 11.8303 0C11.7072 0 11.5865 0.0355787 11.4824 0.102598C11.3784 0.169618 11.2951 0.265325 11.2424 0.378589V0.381899Z" fill="#2684FF"/>
</g>
<defs>
<linearGradient id="paint0_linear_4633_8954" x1="10.1755" y1="12.8907" x2="3.9097" y2="23.5562" gradientUnits="userSpaceOnUse">
<stop stop-color="#0052CC"/>
<stop offset="0.92" stop-color="#2684FF"/>
</linearGradient>
<clipPath id="clip0_4633_8954">
<rect width="24" height="24" fill="white"/>
</clipPath>
</defs>
</svg>
