<svg width="58" height="57" viewBox="0 0 58 57" fill="none" xmlns="http://www.w3.org/2000/svg"> <path d="M16.8994 26.3434C16.6377 26.0018 16.2513 25.7777 15.8248 25.7203C15.3984 25.6628 14.9665 25.7766 14.6237 26.0369C14.4221 26.1959 14.2594 26.3989 14.1482 26.6303L0.176088 54.5824C-0.0218045 54.9785 -0.054309 55.437 0.0857189 55.8571C0.225747 56.2771 0.526848 56.6244 0.922838 56.8226C1.1543 56.9397 1.4102 57.0003 1.66959 56.9995H21.1362C21.448 57.0074 21.7553 56.9243 22.0206 56.7603C22.2859 56.5962 22.4975 56.3584 22.6297 56.0759C26.8311 47.3978 24.2843 34.2039 16.8994 26.3434Z" fill="url(#paint0_linear_251_473)"/> <path d="M27.1691 0.90701C23.686 6.2669 21.6561 12.4402 21.2785 18.8213C20.9009 25.2023 22.1886 31.5719 25.0153 37.3052L34.4008 56.0761C34.5395 56.3535 34.7526 56.5869 35.0164 56.75C35.2802 56.9131 35.5842 56.9996 35.8943 56.9997H55.357C55.5765 57.0003 55.794 56.9574 55.9969 56.8736C56.1998 56.7899 56.3841 56.6669 56.5393 56.5117C56.6945 56.3564 56.8176 56.1721 56.9013 55.9692C56.9851 55.7663 57.0279 55.5489 57.0274 55.3294C57.0276 55.0705 56.9684 54.8151 56.8545 54.5826L30.0107 0.899149C29.8833 0.630147 29.6821 0.402843 29.4306 0.243671C29.1791 0.0844994 28.8876 0 28.5899 0C28.2923 0 28.0007 0.0844994 27.7492 0.243671C27.4977 0.402843 27.2965 0.630147 27.1691 0.899149V0.90701Z" fill="#2684FF"/> <defs> <linearGradient id="paint0_linear_251_473" x1="24.5909" y1="30.6156" x2="9.83668" y2="56.1702" gradientUnits="userSpaceOnUse"> <stop stop-color="#0052CC"/> <stop offset="0.92" stop-color="#2684FF"/> </linearGradient> </defs> </svg>
