<svg xmlns="http://www.w3.org/2000/svg" width="40" height="24" viewBox="0 0 40 24" fill="none">
<g clip-path="url(#clip0_6152_15902)">
<path d="M11.3684 8.86137C11.3684 9.35525 11.421 9.7557 11.5131 10.0494C11.6184 10.343 11.75 10.6634 11.9342 11.0104C12 11.1172 12.0263 11.224 12.0263 11.3174C12.0263 11.4509 11.9473 11.5844 11.7763 11.7179L10.9473 12.2785C10.8289 12.3586 10.7105 12.3986 10.6052 12.3986C10.4736 12.3986 10.3421 12.3319 10.2105 12.2118C10.0263 12.0115 9.86838 11.798 9.7368 11.5844C9.60522 11.3575 9.47365 11.1039 9.32891 10.7969C8.30259 12.0249 7.01312 12.6389 5.46049 12.6389C4.35522 12.6389 3.47365 12.3185 2.82891 11.6778C2.18417 11.0371 1.85522 10.1828 1.85522 9.11499C1.85522 7.98039 2.24996 7.05937 3.05259 6.36526C3.85522 5.67116 4.92101 5.32411 6.27628 5.32411C6.72365 5.32411 7.18417 5.36415 7.67101 5.43089C8.15786 5.49763 8.65786 5.60442 9.18417 5.72455V4.75014C9.18417 3.73568 8.97365 3.02822 8.56575 2.61443C8.1447 2.20064 7.43417 2.00041 6.42101 2.00041C5.96049 2.00041 5.4868 2.05381 4.99996 2.17394C4.51312 2.29407 4.03944 2.4409 3.57891 2.62778C3.36838 2.72122 3.21049 2.77461 3.11838 2.8013C3.02628 2.828 2.96049 2.84135 2.90786 2.84135C2.72365 2.84135 2.63154 2.70787 2.63154 2.42756V1.7735C2.63154 1.55993 2.65786 1.39975 2.72365 1.30631C2.78944 1.21287 2.90786 1.11944 3.09207 1.026C3.55259 0.785731 4.10522 0.585509 4.74996 0.425331C5.3947 0.251805 6.07891 0.171716 6.80259 0.171716C8.36838 0.171716 9.51312 0.532116 10.25 1.25292C10.9736 1.97372 11.3421 3.06827 11.3421 4.53657V8.86137H11.3684ZM6.02628 10.8903C6.46049 10.8903 6.90786 10.8102 7.38154 10.65C7.85522 10.4898 8.27628 10.1962 8.63154 9.79574C8.84207 9.54213 8.99996 9.26182 9.07891 8.94146C9.15786 8.6211 9.21049 8.23401 9.21049 7.78017V7.21955C8.82891 7.12611 8.42101 7.04602 7.99996 6.99263C7.57891 6.93924 7.17101 6.91254 6.76312 6.91254C5.88154 6.91254 5.2368 7.08607 4.80259 7.44647C4.36838 7.80687 4.15786 8.3141 4.15786 8.98151C4.15786 9.60887 4.31575 10.0761 4.6447 10.3964C4.96049 10.7301 5.42101 10.8903 6.02628 10.8903ZM16.5921 12.3319C16.3552 12.3319 16.1973 12.2919 16.0921 12.1984C15.9868 12.1183 15.8947 11.9314 15.8157 11.6778L12.7236 1.3597C12.6447 1.09274 12.6052 0.919213 12.6052 0.825776C12.6052 0.612205 12.7105 0.492072 12.921 0.492072H14.2105C14.4605 0.492072 14.6315 0.532116 14.7236 0.625553C14.8289 0.705642 14.9079 0.892517 14.9868 1.14613L17.1973 9.98262L19.25 1.14613C19.3157 0.879169 19.3947 0.705642 19.5 0.625553C19.6052 0.545464 19.7894 0.492072 20.0263 0.492072H21.0789C21.3289 0.492072 21.5 0.532116 21.6052 0.625553C21.7105 0.705642 21.8026 0.892517 21.8552 1.14613L23.9342 10.0894L26.2105 1.14613C26.2894 0.879169 26.3815 0.705642 26.4736 0.625553C26.5789 0.545464 26.75 0.492072 26.9868 0.492072H28.2105C28.421 0.492072 28.5394 0.598857 28.5394 0.825776C28.5394 0.892517 28.5263 0.959258 28.5131 1.03935C28.5 1.11944 28.4736 1.22622 28.421 1.37305L25.25 11.6912C25.171 11.9581 25.0789 12.1317 24.9736 12.2118C24.8684 12.2919 24.6973 12.3452 24.4736 12.3452H23.3421C23.0921 12.3452 22.921 12.3052 22.8157 12.2118C22.7105 12.1183 22.6184 11.9448 22.5657 11.6778L20.5263 3.06827L18.5 11.6645C18.4342 11.9314 18.3552 12.105 18.25 12.1984C18.1447 12.2919 17.9605 12.3319 17.7236 12.3319H16.5921ZM33.5 12.6923C32.8157 12.6923 32.1315 12.6122 31.4736 12.452C30.8157 12.2919 30.3026 12.1183 29.9605 11.9181C29.75 11.798 29.6052 11.6645 29.5526 11.5444C29.5 11.4242 29.4736 11.2907 29.4736 11.1706V10.4898C29.4736 10.2095 29.5789 10.0761 29.7763 10.0761C29.8552 10.0761 29.9342 10.0894 30.0131 10.1161C30.0921 10.1428 30.2105 10.1962 30.3421 10.2496C30.7894 10.4498 31.2763 10.61 31.7894 10.7168C32.3157 10.8236 32.8289 10.8769 33.3552 10.8769C34.1842 10.8769 34.8289 10.7301 35.2763 10.4365C35.7236 10.1428 35.9605 9.71565 35.9605 9.16838C35.9605 8.79463 35.8421 8.48762 35.6052 8.23401C35.3684 7.98039 34.921 7.75347 34.2763 7.5399L32.3684 6.93924C31.4079 6.63223 30.6973 6.17839 30.2631 5.57772C29.8289 4.9904 29.6052 4.33634 29.6052 3.64224C29.6052 3.08162 29.7236 2.58773 29.9605 2.16059C30.1973 1.73345 30.5131 1.3597 30.9079 1.06604C31.3026 0.759035 31.75 0.532116 32.2763 0.371938C32.8026 0.21176 33.3552 0.14502 33.9342 0.14502C34.2236 0.14502 34.5263 0.158368 34.8157 0.198412C35.1184 0.238457 35.3947 0.291849 35.671 0.345242C35.9342 0.411983 36.1842 0.478724 36.421 0.558813C36.6579 0.638902 36.8421 0.718991 36.9736 0.79908C37.1579 0.905865 37.2894 1.01265 37.3684 1.13278C37.4473 1.23957 37.4868 1.3864 37.4868 1.57327V2.20064C37.4868 2.48095 37.3815 2.62778 37.1842 2.62778C37.0789 2.62778 36.9079 2.57439 36.6842 2.4676C35.9342 2.12055 35.0921 1.94702 34.1579 1.94702C33.4079 1.94702 32.8157 2.06716 32.4079 2.32077C32 2.57439 31.7894 2.96148 31.7894 3.50876C31.7894 3.88251 31.921 4.20286 32.1842 4.45648C32.4473 4.71009 32.9342 4.96371 33.6315 5.19063L35.5 5.79129C36.4473 6.0983 37.1315 6.52544 37.5394 7.07272C37.9473 7.61999 38.1447 8.24736 38.1447 8.94146C38.1447 9.51543 38.0263 10.036 37.8026 10.4898C37.5657 10.9437 37.25 11.3441 36.8421 11.6645C36.4342 11.9982 35.9473 12.2385 35.3815 12.412C34.7894 12.5989 34.171 12.6923 33.5 12.6923Z" fill="#252F3E"/>
<path fill-rule="evenodd" clip-rule="evenodd" d="M35.9869 19.1795C31.6579 22.4231 25.3684 24.145 19.9605 24.145C12.3816 24.145 5.55264 21.3019 0.394748 16.5766C-0.0131469 16.2029 0.355274 15.6957 0.842116 15.9893C6.42106 19.273 13.3026 21.2618 20.4211 21.2618C25.2237 21.2618 30.5 20.2474 35.3553 18.1651C36.079 17.8314 36.6974 18.6456 35.9869 19.1795Z" fill="#FF9900"/>
<path fill-rule="evenodd" clip-rule="evenodd" d="M37.7895 17.0973C37.2369 16.3765 34.1316 16.7503 32.7237 16.9238C32.3027 16.9772 32.2369 16.6035 32.6185 16.3231C35.0921 14.5612 39.1579 15.0684 39.6316 15.6557C40.1053 16.2564 39.5 20.381 37.1842 22.3565C36.829 22.6635 36.4869 22.5033 36.6448 22.1029C37.1711 20.7814 38.3421 17.8048 37.7895 17.0973Z" fill="#FF9900"/>
</g>
<defs>
<clipPath id="clip0_6152_15902">
<rect width="40" height="24" fill="white"/>
</clipPath>
</defs>
</svg>