<svg version="1.2" baseProfile="tiny" id="Layer_1" xmlns="http://www.w3.org/2000/svg" xmlns:xlink="http://www.w3.org/1999/xlink"
	 x="0px" y="0px" width="18px" height="18px" viewBox="0 0 18 18" overflow="visible" xml:space="preserve">
<g>
	<g>
		<path fill-rule="evenodd" fill="#73C41D" d="M10.5,12.6c-1.1,0-2.1-0.9-2.1-2.1c0-1.2,0.8-2.2,2.1-2.2c1.3,0,2.1,1.1,2.1,2.2
			C12.6,11.7,11.8,12.6,10.5,12.6z M7.1,8.6L6.7,7.3c-0.2-0.7-0.3-1.1-1-1.8c-0.2-0.2-1.1-0.8-1-0.7C5.8,6,6.4,7.5,6.6,7.9
			C6.4,7.6,6.2,7.4,5.9,7.1C5.7,6.9,5.4,6.7,5.2,6.6C5.1,6.5,5,6.4,4.8,6.3C4.1,6,3.5,5.8,3.2,5.7C2.9,5.6,2.6,5.6,2.6,5.6
			S3.6,6.4,4,7c0.4,0.5,0.9,1,1.3,1.2c0.5,0.2,0.7,0.3,1,0.3C6.7,8.6,7.1,8.6,7.1,8.6z M10.6,7.5c-1.1,0-1.6,0.4-2,0.8L8.5,8.3
			l0-3.5H7.6v5.8c0,1.8,1.4,2.9,2.9,2.9c1.7,0,3-1.3,3-3.1C13.6,8.8,12.2,7.5,10.6,7.5z M17.9,9c0,4.9-4,8.9-8.9,8.9s-8.9-4-8.9-8.9
			s4-8.9,8.9-8.9S17.9,4.1,17.9,9z"/>
	</g>
</g>
</svg>