<svg version="1.1" id="Layer_1" xmlns="http://www.w3.org/2000/svg" xmlns:xlink="http://www.w3.org/1999/xlink" x="0px" y="0px"
 viewBox="0 0 143.5 22.1" style="enable-background:new 0 0 143.5 22.1;" xml:space="preserve">
<style type="text/css">
.st0{fill:#73C41D;}
</style>
<desc>Created with Sketch.</desc>
<g id="Page-1">
<g id="Marketplace">
<g id="Logo_x2F_BambooHR_x2F_Logo">
<path id="BambooHR" class="st0" d="M42.3,9.4v-2h2.3v14h-2.3v-1.9h-0.1c-1,1.2-2.8,2.4-5.2,2.4c-3.8,0-7.2-3-7.2-7.5
c0-4.3,3.2-7.5,7.4-7.5C39.8,7,41.3,8.3,42.3,9.4L42.3,9.4z M37.4,19.9c2.7,0,5.1-2.2,5.1-5.4c0-3.3-2.3-5.5-5-5.5
c-3.5,0-5.2,2.7-5.2,5.4C32.2,17.1,33.9,19.9,37.4,19.9z M62.8,7c3.2,0,5.4,2.2,5.4,6.3v8.2h-2.3v-8.3c0-2.2-1-4.1-3.4-4.1
c-2,0-3.8,1.4-3.8,4.6v7.8h-2.4v-8.3c0-2.3-1.3-4.1-3.4-4.1c-2.4,0-3.9,1.7-3.9,4.6v7.8h-2.3v-14h2.3v1.8h0.1
C50.1,7.9,51.5,7,53.3,7c2.2,0,4,1.3,4.6,2.9C58.6,8.4,60.4,7,62.8,7z M94,7c4.4,0,7.5,3.2,7.5,7.5c0,4.1-3.2,7.5-7.5,7.5
c-4.3,0-7.5-3.3-7.5-7.5C86.5,10.1,89.8,7,94,7z M94,19.8c3,0,5.1-2.3,5.1-5.4c0-3-2-5.4-5.1-5.4c-3,0-5.1,2.3-5.1,5.4
C88.9,17.6,91.3,19.8,94,19.8z M110.6,7c4.4,0,7.5,3.2,7.5,7.5c0,4.1-3.2,7.5-7.5,7.5c-4.3,0-7.5-3.3-7.5-7.5
C103.1,10.1,106.4,7,110.6,7z M110.6,19.8c3,0,5.1-2.3,5.1-5.4c0-3-2-5.4-5.1-5.4c-3,0-5.1,2.3-5.1,5.4
C105.5,17.6,107.9,19.8,110.6,19.8z M129.2,13.4v-6h1.7v14h-1.7V15h-7.5v6.4H120v-14h1.7v6H129.2z M142.4,11.6
c0,2-1.5,3.5-3.3,3.9l4.4,6h-2.2l-4.2-5.8h-1.9v5.8h-1.7v-14h4.1C141.1,7.5,142.4,9.6,142.4,11.6z M135.2,14h2.6
c1.9,0,2.8-1.1,2.8-2.5c0-1.6-1-2.5-2.8-2.5h-2.5V14z M20.5,6.8c4.1,0,7.6,3.5,7.6,7.6c0,4.4-3.4,7.8-7.8,7.8
c-4,0-7.6-2.8-7.6-7.4V0h2.3l0,9l0.3-0.3C16.4,7.7,17.8,6.8,20.5,6.8z M20.3,20c3.3,0,5.4-2.3,5.4-5.4c0-2.8-2-5.6-5.4-5.6
c-3.4,0-5.5,2.5-5.5,5.6C14.9,17.7,17.4,20,20.3,20z M77.7,6.8c4.1,0,7.6,3.5,7.6,7.6c0,4.4-3.4,7.8-7.8,7.8
c-4,0-7.6-2.8-7.6-7.4V1.4h2.3l0,7.6l0.3-0.3C73.5,7.7,74.9,6.8,77.7,6.8z M77.4,20c3.3,0,5.4-2.3,5.4-5.4c0-2.8-2-5.6-5.4-5.6
S72,11.5,72,14.6C72,17.7,74.5,20,77.4,20z M8,1.8c1.7,1.8,1.9,2.9,2.6,4.6l1,3.4c0,0-1-0.2-1.9-0.3c-1-0.1-1.4-0.3-2.6-0.8
C5.9,8.2,4.8,7,3.7,5.6C2.6,4.2,0,2.1,0,2.1s0.8,0.1,1.6,0.3C2.3,2.5,4,3,5.7,4c0.4,0.2,0.6,0.3,1,0.6C7.3,4.9,7.9,5.4,8.5,6
c0.7,0.7,1.3,1.3,1.8,1.9c-0.6-1-2-4.8-4.9-7.8C5.2-0.2,7.4,1.2,8,1.8z"/>
</g>
</g>
</g>
</svg>