<svg version="1.2" baseProfile="tiny" id="Layer_1" xmlns="http://www.w3.org/2000/svg" xmlns:xlink="http://www.w3.org/1999/xlink"
	 x="0px" y="0px" width="739.36px" height="112.79px" viewBox="0 0 739.36 112.79" overflow="visible" xml:space="preserve">
<g>
	<path fill-rule="evenodd" fill="#73C41D" d="M734.23,46.23c-0.49,0.41-1.09,0.65-1.81,0.72l2.77,4.3h-1.61l-2.63-4.19h-1.59v4.19
		h-1.5v-9.74h3.74c1.15,0,2,0.23,2.55,0.69c0.55,0.46,0.83,1.16,0.83,2.09C734.97,45.18,734.72,45.82,734.23,46.23z M730.92,45.84
		c0.34,0,0.66-0.01,0.96-0.03c0.3-0.02,0.57-0.08,0.81-0.19c0.23-0.11,0.42-0.26,0.56-0.48c0.14-0.21,0.21-0.52,0.21-0.9
		c0-0.33-0.06-0.59-0.19-0.78c-0.12-0.19-0.29-0.34-0.48-0.44c-0.2-0.11-0.43-0.18-0.69-0.21c-0.26-0.04-0.51-0.06-0.76-0.06h-1.99
		v3.1H730.92z M738.7,43.08c0.44,1.01,0.66,2.1,0.66,3.27c0,1.2-0.22,2.31-0.66,3.33c-0.44,1.02-1.04,1.9-1.79,2.65
		c-0.75,0.75-1.63,1.33-2.63,1.75c-1,0.41-2.07,0.62-3.21,0.62c-1.13,0-2.21-0.21-3.22-0.62c-1.01-0.42-1.89-1-2.65-1.75
		c-0.76-0.75-1.36-1.63-1.8-2.65c-0.44-1.02-0.66-2.13-0.66-3.33c0-1.17,0.22-2.26,0.66-3.27c0.44-1.01,1.04-1.89,1.8-2.63
		c0.76-0.74,1.64-1.32,2.65-1.75c1.01-0.42,2.08-0.63,3.22-0.63c1.14,0,2.2,0.21,3.21,0.63c1,0.42,1.88,1.01,2.63,1.75
		C737.66,41.2,738.26,42.07,738.7,43.08z M737.34,49.19c0.34-0.87,0.52-1.81,0.52-2.84c0-0.99-0.17-1.92-0.52-2.78
		c-0.35-0.86-0.83-1.61-1.44-2.24c-0.61-0.63-1.33-1.13-2.15-1.49c-0.83-0.37-1.72-0.55-2.68-0.55c-0.97,0-1.87,0.18-2.71,0.55
		c-0.83,0.36-1.56,0.86-2.17,1.49c-0.61,0.63-1.09,1.38-1.44,2.24c-0.35,0.86-0.52,1.79-0.52,2.78c0,1.03,0.17,1.97,0.52,2.84
		c0.35,0.87,0.83,1.63,1.44,2.26c0.61,0.64,1.33,1.14,2.17,1.5c0.83,0.36,1.74,0.55,2.71,0.55c0.96,0,1.85-0.18,2.68-0.55
		c0.83-0.36,1.54-0.87,2.15-1.5C736.52,50.82,737,50.06,737.34,49.19z M40.36,9.08c8.78,9.34,9.7,14.55,12.81,23.61l5.22,17.23
		c0,0-5.15-0.98-9.36-1.62c-4.89-0.75-7.06-1.48-13.28-4.03c-6.22-2.56-11.85-8.8-17.36-15.77C12.87,21.54,0,10.59,0,10.59
		s3.98,0.26,8.02,1.28c3.31,0.83,11.92,3.65,20.8,8.3c1.97,1.03,3.06,1.7,5,2.91c2.95,1.84,6.06,4.58,9.04,7.62
		c3.49,3.57,6.55,6.44,9.17,9.64c-2.84-5.28-10.22-24.28-24.64-39.96C25.98-1.17,37.35,5.88,40.36,9.08z M389.75,34.66
		c20.45,0,38.12,17.79,38.12,38.49c0,22.29-16.93,39.64-39.3,39.64c-20.31,0-38-14.42-38-37.57V7.08h11.76l0,38.88l1.39-1.48
		C368.85,39.37,376.14,34.66,389.75,34.66z M388.57,101.99c16.68,0,27.28-11.96,27.28-27.74c0-14.5-10.01-28.35-27.01-28.35
		c-17,0-27.54,12.91-27.54,28.64C361.3,90.26,373.8,101.99,388.57,101.99z M103.12,34.66c20.46,0,38.12,17.79,38.12,38.49
		c0,22.29-16.93,39.64-39.3,39.64c-20.3,0-38-14.42-38-37.57V0H75.7l0,45.96l1.39-1.48C82.21,39.37,89.51,34.66,103.12,34.66z
		 M101.94,101.99c16.68,0,27.28-11.96,27.28-27.74c0-14.5-10.01-28.35-27.01-28.35c-17,0-27.54,12.91-27.54,28.64
		C74.67,90.26,87.17,101.99,101.94,101.99z M714.56,58.93c0,10.12-7.46,17.94-16.35,19.72l22.26,30.56h-10.88l-21.31-29.73h-9.43
		v29.73h-8.6V38.07h20.4C708.24,38.07,714.56,49.13,714.56,58.93z M678.84,71.55h12.83c9.33,0,13.99-5.73,13.99-12.62
		c0-8.34-4.97-12.93-14.09-12.93h-12.73V71.55z M648.52,68.42V38.07h8.59v71.14h-8.59V76.35h-37.56v32.86h-8.59V38.07h8.59v30.35
		H648.52z M555.18,35.44c22.05,0,37.87,16.39,37.87,37.99c0,21.01-15.98,38.3-37.87,38.3c-21.44,0-37.86-16.7-37.86-38.3
		C517.32,51.37,533.89,35.44,555.18,35.44z M555.18,101.01c14.94,0,25.74-11.92,25.74-27.57c0-15.05-10.21-27.42-25.74-27.42
		c-15.08,0-25.73,11.62-25.73,27.42C529.45,89.53,541.58,101.01,555.18,101.01z M471.98,35.44c22.03,0,37.86,16.39,37.86,37.99
		c0,21.01-15.97,38.3-37.86,38.3c-21.45,0-37.87-16.7-37.87-38.3C434.11,51.37,450.67,35.44,471.98,35.44z M471.98,101.01
		c14.93,0,25.73-11.92,25.73-27.57c0-15.05-10.2-27.42-25.73-27.42c-15.08,0-25.74,11.62-25.74,27.42
		C446.24,89.53,458.37,101.01,471.98,101.01z M315.19,35.44c15.97,0,27.07,11.17,27.07,32.19v41.57h-11.69V66.73
		c0-11.02-5.02-20.71-17.01-20.71c-9.91,0-19.23,7.15-19.23,23.55v39.64H282.5V66.73c0-11.77-6.36-20.71-16.86-20.71
		c-11.84,0-19.38,8.64-19.38,23.55v39.64h-11.69V37.82h11.69v8.94h0.3c4.73-6.4,11.97-11.32,21.15-11.32
		c11.09,0,20.11,6.4,23.08,14.75C294.34,43.04,302.92,35.44,315.19,35.44z M212.22,48.1V37.82h11.68v71.38h-11.68v-9.54h-0.3
		c-5.18,6.26-13.9,12.07-25.89,12.07c-19.22,0-36.38-15.05-36.38-38.3c0-22.06,15.97-37.99,37.13-37.99
		c12.87,0,20.4,6.85,25.29,12.66H212.22z M187.66,101.31c13.32,0,25.59-11.33,25.59-27.42c0-16.99-11.39-28.16-25.3-28.16
		c-17.75,0-26.18,14.01-26.18,27.71C161.77,87.14,170.21,101.31,187.66,101.31z"/>
</g>
</svg>
