<svg width="338" height="345" viewBox="0 0 338 345" fill="none" xmlns="http://www.w3.org/2000/svg"> <path d="M231.58 223.23C220.65 232.93 207 245 182.25 245H167.45C149.54 245 133.25 238.49 121.59 226.69C110.2 215.16 103.93 199.38 103.93 182.25V162C103.93 144.87 110.2 129.09 121.59 117.56C133.25 105.76 149.54 99.26 167.45 99.26H182.25C207.03 99.26 220.65 111.32 231.58 121.02C242.93 131.02 252.72 139.76 278.83 139.76C282.812 139.759 286.788 139.441 290.72 138.81L290.63 138.58C289.066 134.696 287.232 130.927 285.14 127.3L267.69 97.07C259.821 83.4423 248.503 72.126 234.875 64.2585C221.246 56.3909 205.787 52.2493 190.05 52.25H155.14C139.404 52.2493 123.944 56.3909 110.315 64.2585C96.6869 72.126 85.3692 83.4423 77.5001 97.07L60.0501 127.3C52.1836 140.929 48.0424 156.389 48.0424 172.125C48.0424 187.861 52.1836 203.321 60.0501 216.95L77.5001 247.18C85.3692 260.808 96.6869 272.124 110.315 279.992C123.944 287.859 139.404 292.001 155.14 292H190.05C205.787 292.001 221.246 287.859 234.875 279.992C248.503 272.124 259.821 260.808 267.69 247.18L285.14 217C287.232 213.373 289.066 209.604 290.63 205.72L290.72 205.5C286.79 204.847 282.814 204.513 278.83 204.5C252.72 204.5 242.93 213.19 231.58 223.24" fill="#006BFF"/> <path d="M182.25 117.61H167.45C140.19 117.61 122.28 137.08 122.28 162V182.25C122.28 207.17 140.19 226.64 167.45 226.64H182.25C221.97 226.64 218.85 186.14 278.83 186.14C284.513 186.134 290.184 186.656 295.77 187.7C297.59 177.396 297.59 166.854 295.77 156.55C290.183 157.589 284.513 158.111 278.83 158.11C218.83 158.11 221.97 117.61 182.25 117.61" fill="#006BFF"/> <path d="M330.23 202.5C320.016 195.019 308.236 189.955 295.78 187.69C295.78 187.8 295.78 187.89 295.78 187.99C294.708 193.961 293.032 199.807 290.78 205.44C301.07 207.034 310.833 211.054 319.26 217.17C319.26 217.25 319.21 217.35 319.18 217.44C308.333 252.562 285.249 282.628 254.119 302.177C222.99 321.726 185.881 329.461 149.534 323.976C113.187 318.491 80.0127 300.151 56.0378 272.287C32.063 244.423 18.878 208.884 18.878 172.125C18.878 135.366 32.063 99.8271 56.0378 71.963C80.0127 44.099 113.187 25.7588 149.534 20.2741C185.881 14.7894 222.99 22.524 254.119 42.0729C285.249 61.6218 308.333 91.6881 319.18 126.81C319.18 126.9 319.23 127 319.26 127.08C310.834 133.196 301.07 137.214 290.78 138.8C293.03 144.44 294.705 150.293 295.78 156.27C295.774 156.363 295.774 156.457 295.78 156.55C308.236 154.289 320.015 149.228 330.23 141.75C340.05 134.48 338.15 126.27 336.66 121.41C324.519 82.0311 298.653 48.3146 263.764 26.3872C228.874 4.45983 187.275 -4.22322 146.527 1.9159C105.779 8.05501 68.5852 28.6089 41.7047 59.8426C14.8242 91.0762 0.0407715 130.917 0.0407715 172.125C0.0407715 213.333 14.8242 253.174 41.7047 284.407C68.5852 315.641 105.779 336.195 146.527 342.334C187.275 348.473 228.874 339.79 263.764 317.863C298.653 295.935 324.519 262.219 336.66 222.84C338.15 217.98 340.05 209.77 330.23 202.5Z" fill="#006BFF"/> <path d="M290.72 138.8C286.79 139.453 282.814 139.787 278.83 139.8C252.72 139.8 242.93 131.11 231.59 121.06C220.65 111.36 207.03 99.29 182.25 99.29H167.45C149.53 99.29 133.25 105.8 121.59 117.6C110.2 129.13 103.93 144.91 103.93 162.04V182.29C103.93 199.42 110.2 215.2 121.59 226.73C133.25 238.53 149.53 245.03 167.45 245.03H182.25C207.03 245.03 220.65 232.97 231.59 223.27C242.93 213.27 252.72 204.53 278.83 204.53C282.812 204.531 286.788 204.849 290.72 205.48C292.977 199.849 294.652 194.002 295.72 188.03C295.726 187.93 295.726 187.83 295.72 187.73C290.133 186.694 284.462 186.175 278.78 186.18C218.78 186.18 221.92 226.69 182.2 226.69H167.4C140.14 226.69 122.23 207.21 122.23 182.29V162C122.23 137.08 140.14 117.61 167.4 117.61H182.2C221.92 117.61 218.8 158.1 278.78 158.1C284.463 158.11 290.134 157.591 295.72 156.55C295.72 156.46 295.72 156.37 295.72 156.27C294.645 150.293 292.97 144.44 290.72 138.8Z" fill="#0AE8F0"/> <path d="M290.72 138.8C286.79 139.453 282.814 139.787 278.83 139.8C252.72 139.8 242.93 131.11 231.59 121.06C220.65 111.36 207.03 99.29 182.25 99.29H167.45C149.53 99.29 133.25 105.8 121.59 117.6C110.2 129.13 103.93 144.91 103.93 162.04V182.29C103.93 199.42 110.2 215.2 121.59 226.73C133.25 238.53 149.53 245.03 167.45 245.03H182.25C207.03 245.03 220.65 232.97 231.59 223.27C242.93 213.27 252.72 204.53 278.83 204.53C282.812 204.531 286.788 204.849 290.72 205.48C292.977 199.849 294.652 194.002 295.72 188.03C295.726 187.93 295.726 187.83 295.72 187.73C290.133 186.694 284.462 186.175 278.78 186.18C218.78 186.18 221.92 226.69 182.2 226.69H167.4C140.14 226.69 122.23 207.21 122.23 182.29V162C122.23 137.08 140.14 117.61 167.4 117.61H182.2C221.92 117.61 218.8 158.1 278.78 158.1C284.463 158.11 290.134 157.591 295.72 156.55C295.72 156.46 295.72 156.37 295.72 156.27C294.645 150.293 292.97 144.44 290.72 138.8Z" fill="#0AE8F0"/> </svg>