<svg width="154" height="40" viewBox="0 0 154 40" fill="none" xmlns="http://www.w3.org/2000/svg"> <rect width="154" height="40" fill="white"/> <path d="M70.653 15.778C70.1597 15.1004 69.4771 14.5838 68.691 14.293C67.884 13.969 67.095 13.807 66.324 13.807C65.339 13.807 64.442 13.987 63.636 14.347C62.8441 14.6963 62.1306 15.2013 61.538 15.832C60.9544 16.4787 60.4984 17.2299 60.194 18.046C59.8828 18.9305 59.7282 19.8624 59.737 20.8C59.737 21.844 59.889 22.798 60.194 23.662C60.4752 24.485 60.9133 25.2457 61.484 25.902C62.0591 26.5154 62.755 27.003 63.528 27.334C64.317 27.676 65.204 27.847 66.19 27.847C67.212 27.847 68.117 27.649 68.906 27.253C69.694 26.839 70.331 26.299 70.815 25.633L73.531 27.55C72.7014 28.6016 71.6438 29.4509 70.438 30.034C69.219 30.61 67.794 30.898 66.163 30.898C64.675 30.898 63.304 30.655 62.049 30.168C60.8558 29.6931 59.7682 28.9869 58.849 28.09C57.9454 27.178 57.2328 26.0949 56.753 24.904C56.251 23.662 56 22.294 56 20.8C56 19.27 56.26 17.893 56.78 16.669C57.318 15.427 58.044 14.374 58.958 13.509C59.9091 12.6338 61.0238 11.9551 62.238 11.512C63.493 11.044 64.856 10.81 66.325 10.81C66.935 10.81 67.571 10.873 68.235 10.999C68.898 11.107 69.535 11.287 70.144 11.539C70.754 11.773 71.327 12.069 71.864 12.429C72.402 12.789 72.859 13.222 73.236 13.726L70.653 15.778ZM75.528 10H78.755V30.412H75.528V10ZM91.757 22.636C91.757 22.222 91.695 21.826 91.569 21.448C91.4664 21.0787 91.2826 20.7371 91.031 20.448C90.7657 20.1504 90.4341 19.9195 90.063 19.774C89.687 19.594 89.239 19.504 88.719 19.504C87.751 19.504 86.926 19.801 86.245 20.394C85.582 20.971 85.215 21.718 85.143 22.636H91.757V22.636ZM94.984 24.094V24.526C94.984 24.67 94.975 24.814 94.957 24.958H85.143C85.179 25.426 85.295 25.858 85.493 26.254C85.707 26.632 85.985 26.964 86.326 27.253C86.666 27.523 87.052 27.739 87.482 27.901C87.912 28.063 88.36 28.144 88.827 28.144C89.633 28.144 90.314 28 90.87 27.712C91.4187 27.4122 91.8886 26.9865 92.241 26.47L94.392 28.198C93.12 29.926 91.273 30.79 88.853 30.79C87.85 30.79 86.926 30.637 86.083 30.33C85.2695 30.0235 84.5216 29.5654 83.879 28.98C83.2562 28.3849 82.7621 27.6685 82.427 26.875C82.087 26.029 81.917 25.075 81.917 24.013C81.917 22.969 82.087 22.023 82.427 21.178C82.786 20.314 83.27 19.585 83.879 18.991C84.4901 18.3779 85.2228 17.8997 86.03 17.587C86.8934 17.241 87.8159 17.0667 88.746 17.074C89.642 17.074 90.466 17.227 91.22 17.533C91.9777 17.8122 92.6593 18.2654 93.21 18.856C93.765 19.432 94.195 20.161 94.5 21.043C94.823 21.907 94.984 22.923 94.984 24.093V24.094ZM105.964 28.764H105.884C105.561 29.341 105.041 29.818 104.324 30.196C103.607 30.556 102.791 30.736 101.877 30.736C101.357 30.736 100.811 30.664 100.237 30.52C99.6837 30.3951 99.156 30.1759 98.677 29.872C98.2041 29.5407 97.8019 29.1185 97.494 28.63C97.189 28.108 97.037 27.469 97.037 26.713C97.037 25.741 97.306 24.967 97.844 24.391C98.4 23.815 99.108 23.374 99.968 23.068C100.828 22.762 101.778 22.564 102.818 22.474C103.845 22.3676 104.877 22.3135 105.91 22.312V21.988C105.91 21.178 105.615 20.584 105.023 20.206C104.449 19.81 103.759 19.612 102.953 19.612C102.275 19.6112 101.605 19.7586 100.99 20.044C100.362 20.332 99.842 20.683 99.43 21.097L97.763 19.126C98.4917 18.4455 99.352 17.9214 100.291 17.586C101.231 17.2492 102.222 17.0761 103.221 17.074C104.369 17.074 105.31 17.236 106.045 17.56C106.798 17.884 107.389 18.307 107.819 18.829C108.249 19.351 108.545 19.936 108.707 20.584C108.886 21.232 108.976 21.88 108.976 22.528V30.412H105.963V28.764H105.964ZM105.91 24.499H105.184C104.664 24.499 104.118 24.526 103.544 24.579C103.005 24.6089 102.471 24.7091 101.958 24.877C101.474 25.021 101.07 25.237 100.748 25.525C100.425 25.795 100.264 26.173 100.264 26.659C100.264 26.965 100.327 27.226 100.452 27.442C100.595 27.64 100.775 27.802 100.99 27.928C101.205 28.054 101.447 28.144 101.716 28.198C101.985 28.252 102.254 28.278 102.522 28.278C103.634 28.278 104.476 27.982 105.05 27.388C105.624 26.794 105.91 25.984 105.91 24.958V24.498V24.499ZM112.735 17.452H115.827V19.612H115.881C116.218 18.8817 116.737 18.2497 117.387 17.776C118.032 17.308 118.785 17.074 119.645 17.074C119.771 17.074 119.905 17.083 120.048 17.101C120.192 17.101 120.318 17.119 120.425 17.155V20.125C120.239 20.0766 120.051 20.0405 119.86 20.017C119.717 19.999 119.574 19.99 119.43 19.99C118.695 19.99 118.103 20.125 117.655 20.395C117.237 20.6367 116.879 20.9688 116.607 21.367C116.367 21.7192 116.194 22.1124 116.096 22.527C116.006 22.924 115.961 23.239 115.961 23.473V30.412H112.735V17.452ZM125.809 10V19.099H125.89C126.052 18.883 126.258 18.658 126.509 18.424C126.759 18.19 127.055 17.974 127.396 17.776C127.787 17.5648 128.203 17.4016 128.633 17.29C129.148 17.1392 129.683 17.0664 130.219 17.074C131.133 17.074 131.976 17.254 132.747 17.614C133.517 17.956 134.181 18.433 134.737 19.044C135.303 19.6735 135.741 20.4072 136.027 21.204C136.337 22.0612 136.492 22.9666 136.484 23.878C136.49 24.7977 136.335 25.7115 136.027 26.578C135.753 27.383 135.324 28.1261 134.763 28.765C134.208 29.3902 133.53 29.8955 132.773 30.25C132.003 30.61 131.124 30.79 130.138 30.79C129.244 30.7943 128.36 30.5909 127.558 30.196C126.784 29.8137 126.139 29.213 125.702 28.468H125.648V30.412H122.583V10H125.81H125.809ZM133.204 23.878C133.204 23.374 133.124 22.878 132.962 22.393C132.826 21.9042 132.598 21.446 132.29 21.043C131.981 20.6439 131.586 20.3207 131.133 20.098C130.667 19.846 130.121 19.72 129.493 19.72C128.902 19.72 128.373 19.846 127.907 20.098C127.441 20.35 127.037 20.674 126.697 21.07C126.37 21.4733 126.115 21.93 125.944 22.42C125.785 22.9083 125.704 23.4185 125.702 23.932C125.702 24.436 125.782 24.94 125.944 25.444C126.124 25.93 126.374 26.371 126.697 26.767C127.037 27.163 127.441 27.487 127.907 27.739C128.373 27.973 128.902 28.089 129.493 28.089C130.121 28.089 130.667 27.964 131.133 27.712C131.583 27.4737 131.978 27.1424 132.29 26.74C132.594 26.344 132.818 25.894 132.962 25.39C133.121 24.9017 133.202 24.3915 133.204 23.878V23.878ZM139.651 17.452H142.877V30.412H139.651V17.452ZM139.193 13.051C139.193 12.529 139.381 12.079 139.757 11.701C140.152 11.305 140.645 11.107 141.237 11.107C141.827 11.107 142.321 11.296 142.715 11.674C143.127 12.034 143.333 12.493 143.333 13.051C143.333 13.609 143.127 14.077 142.715 14.455C142.321 14.815 141.828 14.995 141.236 14.995C140.645 14.995 140.152 14.805 139.757 14.428C139.577 14.247 139.434 14.0321 139.338 13.7958C139.241 13.5595 139.192 13.3064 139.193 13.051V13.051ZM144.936 20.044V17.452H147.196V13.699H150.368V17.452H153.593V20.044H150.367V26.064C150.367 26.641 150.466 27.118 150.663 27.496C150.878 27.874 151.343 28.063 152.061 28.063C152.276 28.063 152.509 28.045 152.76 28.009C153.01 27.955 153.235 27.883 153.432 27.793L153.54 30.331C153.209 30.4496 152.867 30.5311 152.518 30.574C152.124 30.646 151.748 30.682 151.388 30.682C150.528 30.682 149.829 30.565 149.291 30.331C148.754 30.079 148.323 29.746 148.001 29.331C147.693 28.892 147.473 28.3971 147.355 27.874C147.245 27.2864 147.192 26.6897 147.195 26.092V20.044H144.935H144.936Z" fill="black"/> <g clip-path="url(#clip0_0_1)"> <path fill-rule="evenodd" clip-rule="evenodd" d="M10.6829 0H20V40H10.6829C6.96819 40 5.62117 39.6132 4.26314 38.8869C2.90512 38.1607 1.83933 37.0949 1.11305 35.7369C0.386773 34.3788 0 33.0318 0 29.3171V10.6829C0 6.96819 0.386773 5.62117 1.11305 4.26314C1.83933 2.90512 2.90512 1.83933 4.26314 1.11305C5.62117 0.386773 6.96819 0 10.6829 0Z" fill="url(#paint0_linear_0_1)"/> <path fill-rule="evenodd" clip-rule="evenodd" d="M20 0H29.3171C33.0318 0 34.3788 0.386773 35.7369 1.11305C37.0949 1.83933 38.1607 2.90512 38.8869 4.26314C39.6132 5.62117 40 6.96819 40 10.6829V20H20V0Z" fill="url(#paint1_linear_0_1)"/> <path fill-rule="evenodd" clip-rule="evenodd" d="M40 20V29.3171C40 33.0318 39.6132 34.3788 38.8869 35.7369C38.1607 37.0949 37.0949 38.1607 35.7369 38.8869C34.3788 39.6132 33.0318 40 29.3171 40H20V20H40Z" fill="#F2FAFE"/> </g> <defs> <linearGradient id="paint0_linear_0_1" x1="10" y1="0" x2="10" y2="40" gradientUnits="userSpaceOnUse"> <stop stop-color="#1BA6FD"/> <stop offset="1" stop-color="#148EFC"/> </linearGradient> <linearGradient id="paint1_linear_0_1" x1="30" y1="0" x2="30" y2="20" gradientUnits="userSpaceOnUse"> <stop stop-color="#56BAFD"/> <stop offset="1" stop-color="#53B7FD"/> </linearGradient> <clipPath id="clip0_0_1"> <rect width="40" height="40" fill="white"/> </clipPath> </defs> </svg>