<svg width="162" height="24" viewBox="0 0 162 24" fill="none" xmlns="http://www.w3.org/2000/svg">
<g clip-path="url(#clip0_4633_8962)">
<path d="M0.896288 18.3218C0.640663 18.743 0.353576 19.2318 0.109749 19.6213C-0.108495 19.994 0.00866714 20.4746 0.37324 20.7022L5.48575 23.8815C5.66521 23.9935 5.88167 24.0279 6.08646 23.9771C6.29129 23.9263 6.46733 23.7945 6.57508 23.6113C6.77958 23.2655 7.04308 22.8165 7.33017 22.3356C9.3555 18.9576 11.3927 19.3709 15.0658 21.1434L20.135 23.5795C20.327 23.6718 20.5478 23.6817 20.7472 23.6068C20.9465 23.5319 21.1073 23.3787 21.193 23.1821L23.6273 17.6183C23.7993 17.221 23.6243 16.7576 23.234 16.5771C22.1643 16.0685 20.0367 15.0551 18.1215 14.1211C11.2314 10.7392 5.37563 10.9578 0.896288 18.3218Z" fill="url(#paint0_linear_4633_8962)"/>
<path d="M23.8204 5.69533C24.076 5.2741 24.3631 4.78526 24.6069 4.39583C24.8252 4.02313 24.708 3.54248 24.3434 3.31486L19.2309 0.135589C19.05 0.0124489 18.8266 -0.0292353 18.6141 0.0204958C18.4016 0.070227 18.2191 0.206907 18.1101 0.39788C17.9056 0.743625 17.6421 1.1927 17.355 1.67356C15.3297 5.05154 13.2926 4.63823 9.61944 2.86579L4.5659 0.441596C4.3739 0.349251 4.1531 0.33939 3.9538 0.414261C3.7545 0.489133 3.59368 0.642354 3.508 0.839006L1.07367 6.40274C0.901675 6.80008 1.07668 7.26345 1.46694 7.44396C2.53663 7.95263 4.66423 8.96602 6.57944 9.89996C13.4853 13.2779 19.3411 13.0514 23.8204 5.69533Z" fill="url(#paint1_linear_4633_8962)"/>
</g>
<path d="M46.7952 19.9517C45.6916 20.671 43.9442 20.9706 42.1048 20.9706C36.2802 20.9706 33 17.5542 33 12.0699C33 6.79541 36.2802 3.10925 42.0741 3.10925C43.7909 3.10925 45.5383 3.43891 46.7952 4.308V6.6156C45.5383 5.83641 44.1281 5.41685 42.0741 5.41685C37.9049 5.41685 35.4525 8.11408 35.4525 12.0998C35.4525 16.0857 38.0275 18.723 42.2274 18.723C44.0975 18.723 45.5383 18.3034 46.8258 17.6741V19.9517H46.7952Z" fill="#253858"/>
<path d="M48.4812 14.1063C48.4812 10.1504 50.8418 7.27344 54.8883 7.27344C58.9043 7.27344 61.2648 10.1504 61.2648 14.1063C61.2648 18.0623 58.9043 20.9992 54.8883 20.9992C50.8724 20.9692 48.4812 18.0623 48.4812 14.1063ZM50.7498 14.1063C50.7498 16.6238 52.0067 18.8714 54.919 18.8714C57.77 18.8714 59.0269 16.5938 59.0269 14.1063C59.0269 11.6189 57.8007 9.37125 54.919 9.37125C52.0067 9.37125 50.7498 11.5889 50.7498 14.1063Z" fill="#253858"/>
<path d="M75.4278 20.7307H73.098V12.759C73.098 10.3915 72.117 9.34252 69.9097 9.34252C67.7638 9.34252 66.2617 10.7511 66.2617 13.4183V20.7607H63.9319V7.57436H66.2617V9.73216C67.12 8.17377 68.7142 7.30469 70.5228 7.30469C73.6191 7.30469 75.3972 9.4025 75.3972 13.0287V20.7307H75.4278Z" fill="#253858"/>
<path d="M85.3917 7.54424V9.64206H81.8969V20.7305H79.6284V9.64206H77.4518V7.54424H79.6284V6.10572C79.6284 3.64828 81.0386 2 83.9202 2C84.6253 2 85.0851 2.11987 85.4837 2.20978V4.3076C85.0851 4.21769 84.5639 4.18772 84.0121 4.18772C82.5714 4.18772 81.8663 4.99688 81.8663 6.19563V7.54424H85.3917Z" fill="#253858"/>
<path d="M91.4918 20.7878C89.2845 20.7878 87.8744 19.7689 87.8744 17.3414V2.02734H90.2042V17.0717C90.2042 18.2705 91.0012 18.69 92.0132 18.69C92.2586 18.69 92.4116 18.69 92.6877 18.66V20.6979C92.4731 20.7578 92.0739 20.7878 91.4918 20.7878Z" fill="#253858"/>
<path d="M94.6493 7.54297H96.9788V15.5147C96.9788 17.8822 97.9601 18.9311 100.167 18.9311C102.313 18.9311 103.815 17.5225 103.815 14.8554V7.54297H106.145V20.7292H103.815V18.5715C102.957 20.1299 101.362 20.9989 99.5535 20.9989C96.4573 20.9989 94.6801 18.9011 94.6801 15.2749V7.54297H94.6493Z" fill="#253858"/>
<path d="M116.078 20.9678C111.02 20.9678 108.812 18.1208 108.812 14.0751C108.812 10.0892 111.08 7.24219 115.189 7.24219C119.358 7.24219 121.013 10.0592 121.013 14.0751V15.0939H111.173C111.51 17.3416 112.982 18.7801 116.169 18.7801C117.733 18.7801 119.051 18.4805 120.278 18.0609V20.1587C119.143 20.7581 117.427 20.9678 116.078 20.9678ZM111.111 13.176H118.653C118.53 10.7185 117.396 9.34 115.066 9.34C112.613 9.34 111.357 10.8684 111.111 13.176Z" fill="#253858"/>
<path d="M135.207 20.7307H132.877V12.759C132.877 10.3915 131.896 9.34252 129.689 9.34252C127.543 9.34252 126.041 10.7511 126.041 13.4183V20.7607H123.711V7.57436H126.041V9.73216C126.899 8.17377 128.494 7.30469 130.302 7.30469C133.398 7.30469 135.176 9.4025 135.176 13.0287V20.7307H135.207Z" fill="#253858"/>
<path d="M147.99 20.3685C147.193 20.788 145.936 20.9678 144.71 20.9678C139.897 20.9678 137.659 18.1208 137.659 14.0751C137.659 10.0892 139.897 7.24219 144.71 7.24219C145.936 7.24219 146.855 7.39198 147.929 7.87151V9.96932C147.07 9.57968 146.151 9.34 144.894 9.34C141.399 9.34 139.958 11.4977 139.958 14.0751C139.958 16.6523 141.43 18.8101 144.955 18.8101C146.335 18.8101 147.193 18.6302 148.021 18.3306V20.3685H147.99Z" fill="#253858"/>
<path d="M157.064 20.9678C152.006 20.9678 149.799 18.1208 149.799 14.0751C149.799 10.0892 152.068 7.24219 156.175 7.24219C160.344 7.24219 162 10.0592 162 14.0751V15.0939H152.159C152.497 17.3416 153.968 18.7801 157.157 18.7801C158.72 18.7801 160.038 18.4805 161.264 18.0609V20.1587C160.13 20.7581 158.444 20.9678 157.064 20.9678ZM152.129 13.176H159.67C159.548 10.7185 158.413 9.34 156.084 9.34C153.6 9.34 152.374 10.8684 152.129 13.176Z" fill="#253858"/>
<defs>
<linearGradient id="paint0_linear_4633_8962" x1="23.4896" y1="25.5228" x2="17.6629" y2="12.2948" gradientUnits="userSpaceOnUse">
<stop offset="0.18" stop-color="#0052CC"/>
<stop offset="1" stop-color="#2684FF"/>
</linearGradient>
<linearGradient id="paint1_linear_4633_8962" x1="1.22704" y1="-1.50968" x2="7.06295" y2="11.7246" gradientUnits="userSpaceOnUse">
<stop offset="0.18" stop-color="#0052CC"/>
<stop offset="1" stop-color="#2684FF"/>
</linearGradient>
<clipPath id="clip0_4633_8962">
<rect width="25" height="24" fill="white"/>
</clipPath>
</defs>
</svg>
