<svg width="25" height="24" viewBox="0 0 25 24" fill="none" xmlns="http://www.w3.org/2000/svg">
<g clip-path="url(#clip0_4633_8946)">
<path d="M0.896288 18.3218C0.640663 18.743 0.353576 19.2318 0.109749 19.6213C-0.108495 19.994 0.00866714 20.4746 0.37324 20.7022L5.48575 23.8815C5.66521 23.9935 5.88167 24.0279 6.08646 23.9771C6.29129 23.9263 6.46733 23.7945 6.57508 23.6113C6.77958 23.2655 7.04308 22.8165 7.33017 22.3356C9.3555 18.9576 11.3927 19.3709 15.0658 21.1434L20.135 23.5795C20.327 23.6718 20.5478 23.6817 20.7472 23.6068C20.9465 23.5319 21.1073 23.3787 21.193 23.1821L23.6273 17.6183C23.7993 17.221 23.6243 16.7576 23.234 16.5771C22.1643 16.0685 20.0367 15.0551 18.1215 14.1211C11.2314 10.7392 5.37563 10.9578 0.896288 18.3218Z" fill="url(#paint0_linear_4633_8946)"/>
<path d="M23.8204 5.69533C24.076 5.2741 24.3631 4.78526 24.6069 4.39583C24.8252 4.02313 24.708 3.54248 24.3434 3.31486L19.2309 0.135589C19.05 0.0124489 18.8266 -0.0292353 18.6141 0.0204958C18.4016 0.070227 18.2191 0.206907 18.1101 0.39788C17.9056 0.743625 17.6421 1.1927 17.355 1.67356C15.3297 5.05154 13.2926 4.63823 9.61944 2.86579L4.5659 0.441596C4.3739 0.349251 4.1531 0.33939 3.9538 0.414261C3.7545 0.489133 3.59368 0.642354 3.508 0.839006L1.07367 6.40274C0.901675 6.80008 1.07668 7.26345 1.46694 7.44396C2.53663 7.95263 4.66423 8.96602 6.57944 9.89996C13.4853 13.2779 19.3411 13.0514 23.8204 5.69533Z" fill="url(#paint1_linear_4633_8946)"/>
</g>
<defs>
<linearGradient id="paint0_linear_4633_8946" x1="23.4896" y1="25.5228" x2="17.6629" y2="12.2948" gradientUnits="userSpaceOnUse">
<stop offset="0.18" stop-color="#0052CC"/>
<stop offset="1" stop-color="#2684FF"/>
</linearGradient>
<linearGradient id="paint1_linear_4633_8946" x1="1.22704" y1="-1.50968" x2="7.06295" y2="11.7246" gradientUnits="userSpaceOnUse">
<stop offset="0.18" stop-color="#0052CC"/>
<stop offset="1" stop-color="#2684FF"/>
</linearGradient>
<clipPath id="clip0_4633_8946">
<rect width="25" height="24" fill="white"/>
</clipPath>
</defs>
</svg>
