<svg width="60" height="57" viewBox="0 0 60 57" fill="none" xmlns="http://www.w3.org/2000/svg"> <path d="M2.15109 43.5141C1.53759 44.5146 0.848583 45.6755 0.263398 46.6005C-0.260389 47.4856 0.0208009 48.6272 0.895775 49.1677L13.1658 56.7185C13.5965 56.9844 14.116 57.0662 14.6075 56.9456C15.0991 56.8249 15.5216 56.5118 15.7802 56.0767C16.271 55.2556 16.9034 54.189 17.5924 53.047C22.4532 45.0243 27.3424 46.0059 36.1579 50.2154L48.3241 56.0012C48.7849 56.2205 49.3148 56.2439 49.7932 56.0661C50.2715 55.8883 50.6574 55.5244 50.8631 55.0573L56.7055 41.8435C57.1182 40.8997 56.6982 39.7993 55.7616 39.3706C53.1944 38.1625 48.0881 35.7557 43.4916 33.5376C26.9554 25.5055 12.9015 26.0246 2.15109 43.5141Z" fill="url(#paint0_linear_251_481)"/> <path d="M57.169 13.5264C57.7825 12.526 58.4715 11.365 59.0567 10.4401C59.5805 9.55494 59.2993 8.41339 58.4243 7.8728L46.1543 0.322025C45.7201 0.0295662 45.1839 -0.0694339 44.6739 0.0486774C44.1638 0.166789 43.7258 0.491403 43.4643 0.944964C42.9735 1.76611 42.3411 2.83266 41.6521 3.97471C36.7913 11.9974 31.9022 11.0158 23.0867 6.80626L10.9582 1.04879C10.4974 0.829471 9.96749 0.806052 9.48917 0.983869C9.01084 1.16169 8.62489 1.52559 8.41926 1.99264L2.57685 15.2065C2.16407 16.1502 2.58408 17.2507 3.5207 17.6794C6.08796 18.8875 11.1942 21.2943 15.7907 23.5124C32.3647 31.5351 46.4186 30.9971 57.169 13.5264Z" fill="url(#paint1_linear_251_481)"/> <defs> <linearGradient id="paint0_linear_251_481" x1="56.3751" y1="60.6166" x2="42.6346" y2="29.094" gradientUnits="userSpaceOnUse"> <stop offset="0.18" stop-color="#0052CC"/> <stop offset="1" stop-color="#2684FF"/> </linearGradient> <linearGradient id="paint1_linear_251_481" x1="2.94495" y1="-3.5855" x2="16.7073" y2="27.9524" gradientUnits="userSpaceOnUse"> <stop offset="0.18" stop-color="#0052CC"/> <stop offset="1" stop-color="#2684FF"/> </linearGradient> </defs> </svg>
