<svg width="31" height="24" viewBox="0 0 31 24" fill="none" xmlns="http://www.w3.org/2000/svg">
<g clip-path="url(#clip0_4633_8996)">
<path d="M26.1664 1.98947C24.1963 1.06863 22.0837 0.390197 19.8748 0.00162998C19.8346 -0.00586923 19.7944 0.0128717 19.7737 0.0503545C19.502 0.542619 19.201 1.18482 18.9903 1.68959C16.6145 1.32727 14.2509 1.32727 11.9238 1.68959C11.713 1.1736 11.4011 0.542619 11.1283 0.0503545C11.1075 0.0141223 11.0673 -0.00461862 11.0271 0.00162998C8.81946 0.388955 6.70683 1.06739 4.73556 1.98947C4.71849 1.99696 4.70386 2.00947 4.69414 2.0257C0.686956 8.12417 -0.410777 14.0727 0.127735 19.9475C0.130171 19.9763 0.14601 20.0037 0.16794 20.0212C2.81177 21.999 5.37275 23.1997 7.88619 23.9956C7.92641 24.0081 7.96903 23.9931 7.99465 23.9594C8.58919 23.1323 9.11921 22.2602 9.57363 21.3431C9.60041 21.2894 9.57483 21.2256 9.52002 21.2044C8.67938 20.8796 7.87888 20.4835 7.10888 20.0337C7.04799 19.9975 7.04312 19.9088 7.09912 19.8663C7.26115 19.7426 7.42326 19.6139 7.57797 19.484C7.60595 19.4602 7.64497 19.4552 7.67787 19.4702C12.7365 21.8229 18.213 21.8229 23.2118 19.4702C23.2448 19.454 23.2838 19.459 23.313 19.4827C23.4677 19.6126 23.6298 19.7426 23.793 19.8663C23.849 19.9088 23.8454 19.9975 23.7845 20.0337C23.0145 20.4923 22.214 20.8796 21.3721 21.2032C21.3173 21.2244 21.2929 21.2894 21.3198 21.3431C21.7839 22.2589 22.3139 23.131 22.8975 23.9581C22.9219 23.9931 22.9657 24.0081 23.006 23.9956C25.5316 23.1997 28.0926 21.999 30.7364 20.0212C30.7596 20.0037 30.7742 19.9775 30.7766 19.9488C31.4211 13.1568 29.6971 7.25705 26.2066 2.02694C26.198 2.00947 26.1834 1.99696 26.1664 1.98947ZM10.329 16.3704C8.80607 16.3704 7.55115 14.9461 7.55115 13.1968C7.55115 11.4476 8.78172 10.0233 10.329 10.0233C11.8885 10.0233 13.1312 11.4601 13.1068 13.1968C13.1068 14.9461 11.8763 16.3704 10.329 16.3704ZM20.5997 16.3704C19.0768 16.3704 17.8219 14.9461 17.8219 13.1968C17.8219 11.4476 19.0524 10.0233 20.5997 10.0233C22.1592 10.0233 23.4019 11.4601 23.3776 13.1968C23.3776 14.9461 22.1592 16.3704 20.5997 16.3704Z" fill="#5865F2"/>
</g>
<defs>
<clipPath id="clip0_4633_8996">
<rect width="31" height="24" fill="white"/>
</clipPath>
</defs>
</svg>
