<svg width="75" height="57" viewBox="0 0 75 57" fill="none" xmlns="http://www.w3.org/2000/svg">
<path d="M63.3057 4.72499C58.5394 2.538 53.4283 0.926718 48.0842 0.00387122C47.9869 -0.0139394 47.8897 0.0305704 47.8396 0.119592C47.1822 1.28872 46.4541 2.81395 45.9442 4.01277C40.1964 3.15226 34.478 3.15226 28.848 4.01277C28.338 2.7873 27.5834 1.28872 26.9232 0.119592C26.873 0.0335405 26.7758 -0.0109692 26.6785 0.00387122C21.3374 0.923769 16.2262 2.53505 11.457 4.72499C11.4157 4.74279 11.3803 4.77249 11.3568 4.81104C1.66199 19.2949 -0.993816 33.4227 0.309035 47.3753C0.31493 47.4436 0.353249 47.5089 0.406307 47.5504C6.80266 52.2477 12.9986 55.0994 19.0795 56.9896C19.1768 57.0193 19.2799 56.9837 19.3419 56.9036C20.7803 54.9392 22.0626 52.868 23.162 50.6898C23.2268 50.5623 23.1649 50.4109 23.0323 50.3605C20.9985 49.589 19.0618 48.6483 17.1989 47.5801C17.0516 47.494 17.0398 47.2833 17.1753 47.1824C17.5673 46.8886 17.9595 46.583 18.3338 46.2744C18.4015 46.218 18.4959 46.2061 18.5755 46.2417C30.814 51.8294 44.0636 51.8294 56.1577 46.2417C56.2373 46.2032 56.3317 46.2151 56.4024 46.2714C56.7768 46.58 57.1688 46.8886 57.5638 47.1824C57.6993 47.2833 57.6905 47.494 57.5431 47.5801C55.6802 48.6691 53.7436 49.589 51.7068 50.3575C51.5742 50.408 51.5152 50.5623 51.5801 50.6898C52.7031 52.8649 53.9853 54.9362 55.3972 56.9006C55.4562 56.9837 55.5623 57.0193 55.6596 56.9896C61.77 55.0994 67.9659 52.2477 74.3623 47.5504C74.4183 47.5089 74.4537 47.4465 74.4596 47.3783C76.0188 31.2475 71.8479 17.2355 63.403 4.81399C63.3823 4.77249 63.347 4.74279 63.3057 4.72499ZM24.9896 38.8796C21.305 38.8796 18.2689 35.4969 18.2689 31.3425C18.2689 27.1881 21.2461 23.8053 24.9896 23.8053C28.7625 23.8053 31.7691 27.2178 31.7101 31.3425C31.7101 35.4969 28.733 38.8796 24.9896 38.8796ZM49.838 38.8796C46.1535 38.8796 43.1175 35.4969 43.1175 31.3425C43.1175 27.1881 46.0945 23.8053 49.838 23.8053C53.611 23.8053 56.6175 27.2178 56.5587 31.3425C56.5587 35.4969 53.611 38.8796 49.838 38.8796Z" fill="#5865F2"/>
</svg>
