<svg width="123" height="24" viewBox="0 0 123 24" fill="none" xmlns="http://www.w3.org/2000/svg">
<path d="M26.2632 2.00999C24.2563 1.071 22.1104 0.388577 19.8669 0C19.5914 0.498142 19.2695 1.16815 19.0475 1.70115C16.6626 1.34249 14.2997 1.34249 11.9586 1.70115C11.7368 1.16815 11.4076 0.498142 11.1296 0C8.88365 0.388577 6.73527 1.07351 4.72834 2.01497C0.680331 8.13203 -0.417016 14.0972 0.131659 19.9776C2.81651 21.9826 5.41845 23.2005 7.97648 23.9975C8.60808 23.1283 9.17137 22.2042 9.65664 21.2304C8.73243 20.8792 7.84724 20.4459 7.01084 19.9427C7.23273 19.7784 7.44978 19.6065 7.65948 19.4296C12.7609 21.8157 18.3038 21.8157 23.3443 19.4296C23.5564 19.6065 23.7734 19.7784 23.9929 19.9427C23.154 20.4483 22.2664 20.8817 21.3422 21.2329C21.8275 22.2042 22.3884 23.1308 23.0224 24C25.5829 23.203 28.1872 21.9851 30.8721 19.9776C31.5159 13.1607 29.7723 7.25033 26.2632 2.00999ZM10.3516 16.3612C8.82024 16.3612 7.56436 14.9315 7.56436 13.1906C7.56436 11.4496 8.79342 10.0175 10.3516 10.0175C11.9099 10.0175 13.1657 11.4471 13.1389 13.1906C13.1413 14.9315 11.9099 16.3612 10.3516 16.3612ZM20.6521 16.3612C19.1207 16.3612 17.8648 14.9315 17.8648 13.1906C17.8648 11.4496 19.0938 10.0175 20.6521 10.0175C22.2103 10.0175 23.4662 11.4471 23.4394 13.1906C23.4394 14.9315 22.2103 16.3612 20.6521 16.3612Z" fill="#5865F2"/>
<path d="M43 6.95508H49.4648C51.0232 6.95508 52.3398 7.20599 53.4199 7.70542C54.4971 8.2048 55.3048 8.90155 55.8401 9.79319C56.375 10.6848 56.645 11.7056 56.645 12.8554C56.645 13.981 56.3655 15.0017 55.8067 15.9152C55.2479 16.8312 54.3977 17.5548 53.254 18.0883C52.1104 18.6218 50.6939 18.8898 49.0009 18.8898H43V6.95508ZM48.9344 15.8568C49.9836 15.8568 50.7913 15.5864 51.3547 15.048C51.9184 14.5071 52.2003 13.7714 52.2003 12.8384C52.2003 11.9735 51.949 11.2841 51.4471 10.7676C50.9452 10.2512 50.185 9.99052 49.1689 9.99052H47.1465V15.8568H48.9344Z" fill="#5865F2"/>
<path d="M66.323 18.8731C65.4278 18.6344 64.6201 18.2884 63.9028 17.8329V15.0021C64.4452 15.4332 65.172 15.7889 66.0837 16.0691C66.9954 16.3468 67.8765 16.4857 68.7288 16.4857C69.1267 16.4857 69.4276 16.4321 69.631 16.3249C69.8349 16.2177 69.9369 16.0886 69.9369 15.94C69.9369 15.7694 69.8824 15.6281 69.7709 15.5136C69.6595 15.3991 69.4441 15.3041 69.1246 15.2237L67.1353 14.7633C65.9962 14.4905 65.1885 14.1128 64.7081 13.628C64.2272 13.1457 63.9879 12.5123 63.9879 11.7278C63.9879 11.0676 64.1963 10.4952 64.6181 10.0055C65.037 9.51582 65.6338 9.13819 66.4081 8.87264C67.1827 8.60468 68.087 8.4707 69.1267 8.4707C70.0549 8.4707 70.9051 8.57301 71.6798 8.77766C72.4541 8.98231 73.0934 9.24295 73.6027 9.56208V12.2394C73.0814 11.9203 72.4846 11.6694 71.8028 11.4793C71.123 11.2918 70.4247 11.1992 69.7045 11.1992C68.6648 11.1992 68.1465 11.3819 68.1465 11.7449C68.1465 11.9154 68.2269 12.0421 68.3879 12.1274C68.5489 12.2126 68.8448 12.3003 69.2736 12.3929L70.9311 12.6999C72.0137 12.8923 72.821 13.231 73.3513 13.7133C73.8821 14.1957 74.1471 14.9095 74.1471 15.8547C74.1471 16.89 73.7092 17.7111 72.8305 18.3201C71.9518 18.9291 70.7062 19.2336 69.0912 19.2336C68.1415 19.2312 67.2182 19.1118 66.323 18.8731Z" fill="#5865F2"/>
<path d="M78.0604 18.5145C77.1112 18.037 76.3935 17.389 75.9151 16.5705C75.4368 15.7519 75.1953 14.831 75.1953 13.8078C75.1953 12.7847 75.4438 11.8687 75.9411 11.0623C76.4384 10.2559 77.1677 9.62253 78.1294 9.1621C79.0906 8.70167 80.2392 8.47266 81.5773 8.47266C83.2348 8.47266 84.6108 8.83078 85.7049 9.54699V12.6677C85.319 12.3949 84.8687 12.1732 84.3549 12.0027C83.8411 11.8321 83.2917 11.7468 82.7044 11.7468C81.6767 11.7468 80.874 11.9393 80.2937 12.3267C79.7134 12.714 79.4224 13.2183 79.4224 13.8444C79.4224 14.4583 79.7039 14.9602 80.2677 15.3548C80.8315 15.747 81.6483 15.9444 82.7209 15.9444C83.2727 15.9444 83.8175 15.8615 84.3549 15.6983C84.8902 15.5327 85.352 15.3305 85.7379 15.0917V18.1101C84.5233 18.8604 83.1143 19.2356 81.5108 19.2356C80.1612 19.2307 79.0101 18.992 78.0604 18.5145Z" fill="#5865F2"/>
<path d="M89.8395 18.5155C88.8829 18.038 88.1536 17.3851 87.6513 16.5544C87.1494 15.7236 86.896 14.7979 86.896 13.7747C86.896 12.7515 87.1469 11.838 87.6513 11.0365C88.1556 10.235 88.8804 9.60644 89.8325 9.15087C90.7818 8.69531 91.9164 8.46875 93.2305 8.46875C94.545 8.46875 95.6792 8.69531 96.6289 9.15087C97.5785 9.60644 98.3033 10.2301 98.8006 11.0267C99.2979 11.8234 99.5464 12.7369 99.5464 13.7723C99.5464 14.7955 99.2979 15.7212 98.8006 16.5519C98.3033 17.3827 97.5761 18.0356 96.6194 18.513C95.6627 18.9905 94.533 19.2293 93.2284 19.2293C91.9234 19.2293 90.7938 18.993 89.8395 18.5155ZM94.8764 15.4898C95.2792 15.0756 95.4827 14.5275 95.4827 13.8454C95.4827 13.1633 95.2813 12.62 94.8764 12.218C94.474 11.8136 93.9243 11.6114 93.2284 11.6114C92.5202 11.6114 91.9659 11.8136 91.561 12.218C91.1586 12.6224 90.9572 13.1633 90.9572 13.8454C90.9572 14.5275 91.1586 15.0756 91.561 15.4898C91.9638 15.9039 92.5202 16.1134 93.2284 16.1134C93.9243 16.111 94.474 15.9039 94.8764 15.4898Z" fill="#5865F2"/>
<path d="M109.506 9.10262V12.7861C109.085 12.501 108.54 12.3598 107.865 12.3598C106.982 12.3598 106.3 12.6351 105.826 13.1856C105.35 13.7362 105.113 14.5937 105.113 15.7533V18.8911H101.052V8.91505H105.031V12.0869C105.251 10.9273 105.609 10.0722 106.101 9.51919C106.591 8.96864 107.226 8.69336 107.998 8.69336C108.583 8.69336 109.085 8.82979 109.506 9.10262Z" fill="#5865F2"/>
<path d="M123 6.61328V18.8915H118.938V16.6576C118.595 17.4981 118.074 18.1388 117.373 18.5773C116.672 19.0134 115.805 19.2326 114.778 19.2326C113.859 19.2326 113.059 19.0036 112.374 18.5432C111.69 18.0827 111.162 17.4518 110.79 16.6503C110.42 15.8488 110.233 14.9425 110.233 13.9291C110.221 12.884 110.418 11.9461 110.823 11.1153C111.226 10.2846 111.796 9.63659 112.53 9.17125C113.264 8.70596 114.103 8.47209 115.043 8.47209C116.978 8.47209 118.275 9.33691 118.938 11.0641V6.61328H123ZM118.332 15.4225C118.747 15.0083 118.953 14.4699 118.953 13.8122C118.953 13.1763 118.751 12.6574 118.349 12.2603C117.946 11.8632 117.394 11.6635 116.7 11.6635C116.016 11.6635 115.469 11.8657 115.059 12.27C114.65 12.6745 114.446 13.1982 114.446 13.8463C114.446 14.4943 114.65 15.0229 115.059 15.4322C115.469 15.8415 116.009 16.0461 116.684 16.0461C117.368 16.0437 117.918 15.8366 118.332 15.4225Z" fill="#5865F2"/>
<path d="M60.0672 9.97825C61.1853 9.97825 62.092 9.14058 62.092 8.10727C62.092 7.07396 61.1853 6.23633 60.0672 6.23633C58.9487 6.23633 58.0424 7.07396 58.0424 8.10727C58.0424 9.14058 58.9487 9.97825 60.0672 9.97825Z" fill="#5865F2"/>
<path d="M58.041 11.2656C59.2817 11.8162 60.8211 11.8405 62.0903 11.2656V18.9444H58.041V11.2656Z" fill="#5865F2"/>
</svg>
