<svg id="Layer_1" data-name="Layer 1" xmlns="http://www.w3.org/2000/svg" viewBox="0 0 469.08 469.08"><defs><style>.cls-1{fill:#fff;}.cls-2{fill:#070707;}</style></defs><title>Drift Icon White</title><path class="cls-1" d="M240.81,33.53a169.33,169.33,0,0,0-31.94,336.58,4,4,0,0,1,3,5.69l-25.19,51.91s-.59,1.26-1.09,2.29a4.1,4.1,0,0,0,5,5.47c52.66-16.29,213.19-99.82,213.19-234.9C403.85,111,330.29,36.76,240.81,33.53Z"/><path class="cls-2" d="M302.13,112.15a14.86,14.86,0,0,1,2.21.18c2.77.65,4,3.18,2.56,5.32-.32.41-.65.82-1,1.2l-47.35,53.81s-.88.94-1.23,1.44c-1.73,2.42,0,5.36,3.35,5.54H280c3.18.33,4.82,3.25,3.14,5.58a19.49,19.49,0,0,1-1.33,1.56l-34.9,39.34a15.26,15.26,0,0,0-1.2,1.46c-1.52,2.35.24,5.13,3.42,5.31h12.61a4.31,4.31,0,0,1,4.07,2.28,3.21,3.21,0,0,1-1,4c-.3.29-1,.85-1,.85l-80.71,60.86a18.38,18.38,0,0,1-1.5,1.23,2.33,2.33,0,0,1-2.56,0,1.61,1.61,0,0,1-.76-2c.18-.51.69-1.51.69-1.51l22.25-45.84.65-1.34c1.49-3,0-5.55-3.32-6H181.8a17.09,17.09,0,0,1-1.89-.1c-2.74-.45-4.19-2.75-3.15-5,.24-.5.83-1.47.83-1.47l27.61-46.27s.31-.52.46-.8c1.51-2.73-.32-5.35-3.8-5.45H183.74c-2.34,0-4-1.24-4.36-3.12a3.89,3.89,0,0,1,.73-2.7l8.4-14.8,27.58-48.64.68-1.14c1.41-2.55,3.79-3.78,7-3.78h78.33Z"/></svg>

