<svg version="1.1" id="Layer_1" xmlns="http://www.w3.org/2000/svg" xmlns:xlink="http://www.w3.org/1999/xlink" x="0px" y="0px"
 viewBox="0 0 170.4 40" style="enable-background:new 0 0 170.4 40;" xml:space="preserve">
<style type="text/css">
.st0{fill:#111111;}
</style>
<g>
<path class="st0" d="M58.4,38.3l-4.8-11.2h-4.1v11.2H38.6V1.5h19.2c8.4,0,12.9,5.7,12.9,12.7c0,6.4-3.6,9.7-6.5,11.2l6.5,13H58.4
V38.3z M59.7,14.8c0-2.5-1.7-3.6-3.6-3.6h-6.6v7.3h6.6C58,18.5,59.7,17.4,59.7,14.8z"/>
<path class="st0" d="M99.1,38.3V1.5h27.4v9.7H110v4.9h16.1v9.7H110v12.5H99.1z"/>
<path class="st0" d="M0,38.3V1.5h16.2C27.6,1.5,36,8.1,36,19.9s-8.5,18.5-19.8,18.5H0V38.3z M24.9,19.9c0-5-2.8-8.7-8.7-8.7H11
v17.4h5.2C21.7,28.6,24.9,24.5,24.9,19.9z"/>
<path class="st0" d="M138.9,38.3V11.2h-9.7V1.5h30.3v9.7h-9.6v27.1H138.9z"/>
<path class="st0" d="M96.7,1.5c0.1,0,0.3,0,0.4,0c0.5,0.1,0.8,0.6,0.5,1c-0.1,0.1-0.1,0.2-0.2,0.2l-9.2,10.5c0,0-0.2,0.2-0.2,0.3
c-0.3,0.5,0,1,0.7,1.1c0.1,0,0.3,0,0.3,0h3.2c0,0,0.2,0,0.3,0c0.6,0.1,0.9,0.6,0.6,1.1C93,15.8,92.8,16,92.8,16L86,23.7
c-0.1,0.1-0.2,0.2-0.2,0.3c-0.3,0.5,0,1,0.7,1c0.2,0,2.3,0,2.5,0c0.3,0,0.6,0.2,0.8,0.4c0.1,0.3,0,0.6-0.2,0.8
c-0.1,0.1-0.2,0.2-0.2,0.2L73.5,38.2c0,0-0.2,0.2-0.3,0.2c-0.2,0.1-0.3,0.1-0.5,0c-0.1-0.1-0.2-0.2-0.1-0.4c0-0.1,0.1-0.3,0.1-0.3
l4.3-8.9l0.1-0.3c0.3-0.6,0-1.1-0.6-1.2c-0.1,0-0.2,0-0.2,0h-3c-0.1,0-0.2,0-0.4,0c-0.5-0.1-0.8-0.5-0.6-1c0-0.1,0.2-0.3,0.2-0.3
l5.4-9c0,0,0.1-0.1,0.1-0.2c0.3-0.5-0.1-1-0.7-1.1c-0.3,0-0.8,0-0.8,0s-1.4,0-2.4,0h-0.3c-0.5,0-0.8-0.2-0.8-0.6
c0-0.2,0-0.4,0.1-0.5l1.6-2.9l5.4-9.5L80.2,2c0.3-0.5,0.7-0.7,1.4-0.7L96.7,1.5L96.7,1.5z"/>
<g>
<path class="st0" d="M165.8,9c-2,0-3.6-1.6-3.6-3.6s1.6-3.6,3.6-3.6s3.6,1.6,3.6,3.6C169.4,7.3,167.8,9,165.8,9z M165.8,2.4
c-1.7,0-3,1.3-3,3s1.4,3,3,3c1.7,0,3-1.4,3-3C168.8,3.7,167.5,2.4,165.8,2.4z M166.8,7.4l-1.1-1.6H165v1.6h-0.6V3.3h1.7
c0.7,0,1.4,0.5,1.4,1.3c0,0.9-0.8,1.2-1.1,1.2l1.1,1.7L166.8,7.4L166.8,7.4z M166.1,3.8H165v1.4h1.1c0.4,0,0.8-0.3,0.8-0.7
C166.9,4.1,166.5,3.8,166.1,3.8z"/>
</g>
</g>
</svg>

