<svg width="113" height="24" viewBox="0 0 113 24" fill="none" xmlns="http://www.w3.org/2000/svg">
<g clip-path="url(#clip0_4633_9060)">
<path fill-rule="evenodd" clip-rule="evenodd" d="M10.2644 0.718891C11.223 -0.23963 12.777 -0.23963 13.7355 0.718891L23.2811 10.2644C24.2396 11.223 24.2396 12.777 23.2811 13.7355L13.7355 23.2811C12.777 24.2396 11.223 24.2396 10.2644 23.2811L0.718891 13.7355C-0.23963 12.777 -0.23963 11.223 0.718891 10.2644L10.2644 0.718891ZM3.63209 11.0703C3.1186 11.5838 3.1186 12.4163 3.63209 12.9298C4.14558 13.4433 4.97812 13.4433 5.49161 12.9298L9.64449 8.77695C10.158 8.26346 10.158 7.43092 9.64449 6.91743C9.13099 6.40394 8.29846 6.40394 7.78495 6.91743L3.63209 11.0703ZM12.9296 5.49181C12.4161 6.0053 11.5835 6.00534 11.0701 5.49185C10.5566 4.97836 10.5566 4.14578 11.0701 3.63229C11.5836 3.11878 12.4162 3.11874 12.9297 3.63223C13.4432 4.14572 13.4431 4.97832 12.9296 5.49181ZM16.6486 7.35138C16.1351 6.8379 15.3026 6.8379 14.7891 7.35138L7.35114 14.7894C6.83764 15.3028 6.83764 16.1354 7.35114 16.6489C7.86463 17.1624 8.69718 17.1624 9.21066 16.6489L16.6486 9.2109C17.1621 8.69742 17.1621 7.86487 16.6486 7.35138ZM18.5082 11.0704C19.0217 10.5569 19.8543 10.5569 20.3677 11.0704C20.8811 11.5839 20.8811 12.4165 20.3677 12.93L16.2148 17.0828C15.7014 17.5963 14.8688 17.5963 14.3553 17.0828C13.8418 16.5693 13.8418 15.7368 14.3553 15.2233L18.5082 11.0704ZM12.9297 18.5084C12.4162 17.9949 11.5837 17.9949 11.0702 18.5084C10.5567 19.0218 10.5567 19.8545 11.0702 20.3679C11.5837 20.8815 12.4162 20.8815 12.9297 20.3679C13.4432 19.8545 13.4432 19.0218 12.9297 18.5084Z" fill="#FB310A"/>
</g>
<path d="M42.5162 6.70805H35.4098V10.7844H41.9823V14.0259H35.4098V20.6562H32V3.46658H42.5162V6.70805Z" fill="#333333"/>
<path d="M52.703 8.3779H55.8905V20.6562H52.703V19.281C51.9288 20.427 50.7016 21 49.0214 21C47.6706 21 46.5505 20.5498 45.661 19.6494C44.7879 18.749 44.3514 17.5048 44.3514 15.9168V8.3779H47.5389V15.3051C47.5389 16.1236 47.7612 16.7539 48.206 17.1959C48.6508 17.6216 49.2438 17.8344 49.985 17.8344C50.8087 17.8344 51.4676 17.5806 51.9618 17.0731C52.4559 16.5656 52.703 15.8044 52.703 14.7894V8.3779Z" fill="#333333"/>
<path d="M61.7972 11.8649C61.7972 12.1924 62.0113 12.4625 62.4396 12.6753C62.8844 12.8718 63.4197 13.0518 64.0457 13.2156C64.6716 13.3629 65.2976 13.5593 65.9235 13.8049C66.5495 14.0341 67.0766 14.427 67.5049 14.9836C67.9497 15.5402 68.1721 16.236 68.1721 17.0709C68.1721 18.3315 67.6944 19.3056 66.7389 19.9932C65.8 20.6644 64.6222 21 63.2056 21C60.6688 21 58.9392 20.0259 58.0167 18.0778L60.7841 16.5307C61.1465 17.5948 61.9536 18.1269 63.2056 18.1269C64.3422 18.1269 64.9105 17.7749 64.9105 17.0709C64.9105 16.7435 64.6881 16.4816 64.2433 16.2851C63.815 16.0723 63.288 15.884 62.662 15.7203C62.036 15.5566 61.4101 15.352 60.7841 15.1064C60.1581 14.8608 59.6228 14.4761 59.178 13.9523C58.7497 13.412 58.5356 12.7408 58.5356 11.9386C58.5356 10.7271 58.9803 9.77763 59.8699 9.09004C60.7759 8.38609 61.896 8.03411 63.2303 8.03411C64.2351 8.03411 65.1493 8.2633 65.973 8.72169C66.7966 9.16371 67.4473 9.80218 67.925 10.6371L65.207 12.1105C64.8116 11.2756 64.1527 10.8581 63.2303 10.8581C62.8184 10.8581 62.4726 10.9482 62.1925 11.1282C61.929 11.3083 61.7972 11.5539 61.7972 11.8649Z" fill="#333333"/>
<path d="M73.0366 15.8186C73.4649 17.3574 74.6262 18.1269 76.5206 18.1269C77.7396 18.1269 78.662 17.7176 79.288 16.899L81.8577 18.3724C80.6388 20.1241 78.8432 21 76.4712 21C74.4286 21 72.7895 20.3861 71.5541 19.1583C70.3186 17.9304 69.7009 16.3834 69.7009 14.5171C69.7009 12.6671 70.3104 11.1282 71.5294 9.90041C72.7484 8.65621 74.3133 8.03411 76.2241 8.03411C78.0361 8.03411 79.5269 8.65621 80.6964 9.90041C81.8825 11.1446 82.4755 12.6835 82.4755 14.5171C82.4755 14.9263 82.4343 15.3602 82.3519 15.8186H73.0366ZM72.9872 13.3629H79.288C79.1068 12.528 78.7279 11.9059 78.1514 11.4966C77.5913 11.0873 76.9489 10.8827 76.2241 10.8827C75.3675 10.8827 74.6592 11.1037 74.0991 11.5457C73.539 11.9713 73.1684 12.5771 72.9872 13.3629Z" fill="#333333"/>
<path d="M91.6651 8.03411C93.3288 8.03411 94.7455 8.66439 95.9151 9.92497C97.1011 11.1692 97.6941 12.6999 97.6941 14.5171C97.6941 16.3342 97.1011 17.8731 95.9151 19.1337C94.7455 20.3779 93.3288 21 91.6651 21C89.9354 21 88.6011 20.4025 87.6622 19.2074V20.6562H84.4747V3.46658H87.6622V9.82674C88.6011 8.63165 89.9354 8.03411 91.6651 8.03411ZM88.6259 17.0218C89.2683 17.6603 90.0837 17.9795 91.072 17.9795C92.0604 17.9795 92.8758 17.6603 93.5182 17.0218C94.1772 16.367 94.5066 15.5321 94.5066 14.5171C94.5066 13.502 94.1772 12.6753 93.5182 12.0368C92.8758 11.382 92.0604 11.0546 91.072 11.0546C90.0837 11.0546 89.2683 11.382 88.6259 12.0368C87.9834 12.6753 87.6622 13.502 87.6622 14.5171C87.6622 15.5321 87.9834 16.367 88.6259 17.0218Z" fill="#333333"/>
<path d="M101.336 6.9045C100.809 6.9045 100.348 6.71624 99.9527 6.3397C99.5738 5.94679 99.3844 5.4884 99.3844 4.96453C99.3844 4.44066 99.5738 3.98226 99.9527 3.58936C100.348 3.19645 100.809 3 101.336 3C101.88 3 102.341 3.19645 102.72 3.58936C103.115 3.98226 103.313 4.44066 103.313 4.96453C103.313 5.4884 103.115 5.94679 102.72 6.3397C102.341 6.71624 101.88 6.9045 101.336 6.9045ZM99.755 20.6562V8.3779H102.942V20.6562H99.755Z" fill="#333333"/>
<path d="M113 11.4229H110.208V16.5307C110.208 16.9563 110.315 17.2674 110.529 17.4638C110.743 17.6603 111.056 17.7749 111.468 17.8076C111.88 17.824 112.391 17.8158 113 17.7831V20.6562C110.809 20.9018 109.261 20.6971 108.355 20.0423C107.465 19.3874 107.02 18.2169 107.02 16.5307V11.4229H104.871V8.3779H107.02V4.93997H110.208V8.3779H113V11.4229Z" fill="#333333"/>
<defs>
<clipPath id="clip0_4633_9060">
<rect width="24" height="24" fill="white"/>
</clipPath>
</defs>
</svg>
