<svg width="130" height="130" viewBox="0 0 130 130" fill="none" xmlns="http://www.w3.org/2000/svg">
<path fill-rule="evenodd" clip-rule="evenodd" d="M55.5991 3.89399C60.7911 -1.298 69.2089 -1.298 74.4009 3.89399L126.106 55.5991C131.298 60.7911 131.298 69.2089 126.106 74.4009L74.4009 126.106C69.2089 131.298 60.7911 131.298 55.5991 126.106L3.89399 74.4009C-1.298 69.2089 -1.298 60.7911 3.89399 55.5991L55.5991 3.89399ZM19.6738 59.9641C16.8924 62.7456 16.8924 67.2551 19.6738 70.0365C22.4552 72.818 26.9648 72.818 29.7462 70.0365L52.241 47.5418C55.0224 44.7604 55.0224 40.2508 52.241 37.4694C49.4595 34.688 44.95 34.688 42.1685 37.4694L19.6738 59.9641ZM70.0355 29.7473C67.2541 32.5287 62.7442 32.5289 59.9628 29.7475C57.1814 26.9661 57.1816 22.4563 59.9631 19.6749C62.7445 16.8934 67.2543 16.8932 70.0357 19.6746C72.8171 22.456 72.8169 26.9659 70.0355 29.7473ZM90.1801 39.82C87.3987 37.0386 82.8891 37.0386 80.1077 39.82L39.8187 80.109C37.0372 82.8904 37.0372 87.4 39.8187 90.1814C42.6001 92.9628 47.1097 92.9628 49.8911 90.1814L90.1801 49.8924C92.9615 47.111 92.9615 42.6014 90.1801 39.82ZM100.253 59.9649C103.034 57.1834 107.544 57.1834 110.325 59.9649C113.106 62.7463 113.106 67.2558 110.325 70.0373L87.8304 92.5318C85.049 95.3133 80.5394 95.3133 77.758 92.5318C74.9766 89.7504 74.9766 85.2408 77.758 82.4594L100.253 59.9649ZM70.0359 100.254C67.2545 97.4725 62.745 97.4724 59.9636 100.254C57.1822 103.035 57.1822 107.545 59.9635 110.326C62.7449 113.108 67.2546 113.108 70.036 110.326C72.8174 107.545 72.8173 103.035 70.0359 100.254Z" fill="#FB310A"/>
</svg>
