<svg width="24" height="24" viewBox="0 0 24 24" fill="none" xmlns="http://www.w3.org/2000/svg">
<g clip-path="url(#clip0_4633_9054)">
<path fill-rule="evenodd" clip-rule="evenodd" d="M10.2644 0.718891C11.223 -0.23963 12.777 -0.23963 13.7355 0.718891L23.2811 10.2644C24.2396 11.223 24.2396 12.777 23.2811 13.7355L13.7355 23.2811C12.777 24.2396 11.223 24.2396 10.2644 23.2811L0.718891 13.7355C-0.23963 12.777 -0.23963 11.223 0.718891 10.2644L10.2644 0.718891ZM3.63209 11.0703C3.1186 11.5838 3.1186 12.4163 3.63209 12.9298C4.14558 13.4433 4.97812 13.4433 5.49161 12.9298L9.64449 8.77695C10.158 8.26346 10.158 7.43092 9.64449 6.91743C9.13099 6.40394 8.29846 6.40394 7.78495 6.91743L3.63209 11.0703ZM12.9296 5.49181C12.4161 6.0053 11.5835 6.00534 11.0701 5.49185C10.5566 4.97836 10.5566 4.14578 11.0701 3.63229C11.5836 3.11878 12.4162 3.11874 12.9297 3.63223C13.4432 4.14572 13.4431 4.97832 12.9296 5.49181ZM16.6486 7.35138C16.1351 6.8379 15.3026 6.8379 14.7891 7.35138L7.35114 14.7894C6.83764 15.3028 6.83764 16.1354 7.35114 16.6489C7.86463 17.1624 8.69718 17.1624 9.21066 16.6489L16.6486 9.2109C17.1621 8.69742 17.1621 7.86487 16.6486 7.35138ZM18.5082 11.0704C19.0217 10.5569 19.8543 10.5569 20.3677 11.0704C20.8811 11.5839 20.8811 12.4165 20.3677 12.93L16.2148 17.0828C15.7014 17.5963 14.8688 17.5963 14.3553 17.0828C13.8418 16.5693 13.8418 15.7368 14.3553 15.2233L18.5082 11.0704ZM12.9297 18.5084C12.4162 17.9949 11.5837 17.9949 11.0702 18.5084C10.5567 19.0218 10.5567 19.8545 11.0702 20.3679C11.5837 20.8815 12.4162 20.8815 12.9297 20.3679C13.4432 19.8545 13.4432 19.0218 12.9297 18.5084Z" fill="#FB310A"/>
</g>
<defs>
<clipPath id="clip0_4633_9054">
<rect width="24" height="24" fill="white"/>
</clipPath>
</defs>
</svg>
