<svg width="88" height="24" viewBox="0 0 88 24" fill="none" xmlns="http://www.w3.org/2000/svg">
<g clip-path="url(#clip0_4633_9074)">
<path d="M16.9508 10.2722H9.55513C9.36436 10.2722 9.2096 10.4283 9.2096 10.6208V14.2669C9.2096 14.4593 9.36436 14.6159 9.55513 14.6159H12.4402V19.1459C12.4402 19.1459 11.7923 19.3685 10.0015 19.3685C7.8885 19.3685 4.93685 18.59 4.93685 12.045C4.93685 5.49852 8.01033 4.6372 10.8959 4.6372C13.3936 4.6372 14.4698 5.0807 15.1545 5.29432C15.3696 5.36085 15.5686 5.14482 15.5686 4.95227L16.3936 1.42937C16.3936 1.33938 16.3634 1.23091 16.2615 1.15718C15.9835 0.95723 14.287 1.90735e-06 10.0015 1.90735e-06C5.06427 1.90735e-06 0 2.1181 0 12.3002C0 22.4827 5.79816 24 10.6842 24C14.7298 24 17.1841 22.2567 17.1841 22.2567C17.2852 22.2003 17.2961 22.0578 17.2961 21.9924V10.6208C17.2961 10.4283 17.1415 10.2722 16.9508 10.2722Z" fill="#161312"/>
<path d="M55.0641 1.22C55.0641 1.02596 54.9116 0.869444 54.7209 0.869444H50.5567C50.3665 0.869444 50.2118 1.02596 50.2118 1.22C50.2118 1.22092 50.2129 9.33472 50.2129 9.33472H43.7222V1.22C43.7222 1.02596 43.5689 0.869444 43.3785 0.869444H39.2146C39.0251 0.869444 38.8706 1.02596 38.8706 1.22V23.1925C38.8706 23.3863 39.0251 23.5441 39.2146 23.5441H43.3785C43.5689 23.5441 43.7222 23.3863 43.7222 23.1925V13.7941H50.2129C50.2129 13.7941 50.2016 23.1917 50.2016 23.1925C50.2016 23.3863 50.3561 23.5441 50.5465 23.5441H54.7205C54.9113 23.5441 55.0637 23.3863 55.0641 23.1925V1.22Z" fill="#161312"/>
<path d="M24.8086 4.10334C24.8086 2.59136 23.6064 1.36951 22.1233 1.36951C20.6417 1.36951 19.4386 2.59136 19.4386 4.10334C19.4386 5.61375 20.6417 6.83887 22.1233 6.83887C23.6064 6.83887 24.8086 5.61375 24.8086 4.10334Z" fill="#161312"/>
<path d="M24.5109 18.5575C24.5109 17.9945 24.5109 8.41495 24.5109 8.41495C24.5109 8.22236 24.3567 8.06493 24.1663 8.06493H20.0154C19.825 8.06493 19.6545 8.26299 19.6545 8.45551C19.6545 8.45551 19.6545 20.6602 19.6545 22.9868C19.6545 23.4139 19.9184 23.5408 20.26 23.5408C20.26 23.5408 22.0318 23.5408 23.9999 23.5408C24.4103 23.5408 24.5109 23.3377 24.5109 22.98C24.5109 22.201 24.5109 19.1498 24.5109 18.5575Z" fill="#161312"/>
<path d="M70.8896 8.09799H66.7574C66.5679 8.09799 66.4136 8.25549 66.4136 8.4493V19.2231C66.4136 19.2231 65.3639 19.9976 63.8738 19.9976C62.3839 19.9976 61.9885 19.3159 61.9885 17.8447C61.9885 16.3718 61.9885 8.4493 61.9885 8.4493C61.9885 8.25549 61.8345 8.09799 61.6449 8.09799H57.451C57.2617 8.09799 57.1067 8.25549 57.1067 8.4493C57.1067 8.4493 57.1067 14.1868 57.1067 18.5562C57.1067 22.9258 59.5218 23.9948 62.8443 23.9948C65.5699 23.9948 67.7675 22.4764 67.7675 22.4764C67.7675 22.4764 67.8721 23.2766 67.9194 23.3715C67.9669 23.4661 68.0902 23.5617 68.2234 23.5617L70.8915 23.5499C71.0808 23.5499 71.2358 23.3921 71.2358 23.1991L71.2345 8.4493C71.2345 8.25549 71.08 8.09799 70.8896 8.09799Z" fill="#161312"/>
<path d="M80.5537 19.9843C79.1205 19.9402 78.1483 19.2844 78.1483 19.2844V12.3262C78.1483 12.3262 79.1075 11.7334 80.2842 11.6274C81.7722 11.493 83.206 11.9463 83.206 15.5258C83.206 19.3003 82.5589 20.0452 80.5537 19.9843ZM82.1836 7.60437C79.8367 7.60437 78.2403 8.66028 78.2403 8.66028V1.21999C78.2403 1.02596 78.0866 0.86944 77.8967 0.86944H73.7209C73.531 0.86944 73.3767 1.02596 73.3767 1.21999V23.1925C73.3767 23.3863 73.531 23.5441 73.7214 23.5441C73.7218 23.5441 76.6178 23.5441 76.6187 23.5441C76.7492 23.5441 76.8479 23.4763 76.9209 23.3575C76.9929 23.2394 77.0968 22.3444 77.0968 22.3444C77.0968 22.3444 78.8044 23.9762 82.0368 23.9762C85.8317 23.9762 88.008 22.035 88.008 15.2623C88.008 8.48942 84.5322 7.60437 82.1836 7.60437Z" fill="#161312"/>
<path d="M36.4788 8.06297H33.3552C33.3552 8.06297 33.3504 3.90265 33.3504 3.90173C33.3504 3.74428 33.2699 3.66556 33.0894 3.66556H28.8327C28.6673 3.66556 28.5784 3.73893 28.5784 3.89933V8.1994C28.5784 8.1994 26.4453 8.71871 26.301 8.76064C26.1574 8.80266 26.0516 8.93619 26.0516 9.09558V11.7977C26.0516 11.9921 26.2056 12.1488 26.396 12.1488H28.5784C28.5784 12.1488 28.5784 14.975 28.5784 18.6495C28.5784 23.478 31.9371 23.9524 34.2036 23.9524C35.2392 23.9524 36.478 23.6169 36.6826 23.5408C36.8063 23.4949 36.8781 23.3658 36.8781 23.2258L36.8816 20.2531C36.8816 20.0593 36.7192 19.9024 36.5363 19.9024C36.3543 19.9024 35.8887 19.9771 35.4093 19.9771C33.8751 19.9771 33.3552 19.2577 33.3552 18.3266C33.3552 17.3961 33.355 12.1488 33.355 12.1488H36.4788C36.6692 12.1488 36.8233 11.9921 36.8233 11.7977V8.41308C36.8233 8.2191 36.6692 8.06297 36.4788 8.06297Z" fill="#161312"/>
</g>
<defs>
<clipPath id="clip0_4633_9074">
<rect width="88" height="24" fill="white"/>
</clipPath>
</defs>
</svg>
