<svg width="58" height="57" viewBox="0 0 58 57" fill="none" xmlns="http://www.w3.org/2000/svg">
<path fill-rule="evenodd" clip-rule="evenodd" d="M29 0C12.9775 0 0 13.0763 0 29.2209C0 42.1511 8.30125 53.0724 19.8287 56.9442C21.2787 57.1999 21.8225 56.3232 21.8225 55.5562C21.8225 54.8622 21.7863 52.561 21.7863 50.1138C14.5 51.4653 12.615 48.324 12.035 46.6803C11.7087 45.8402 10.295 43.2469 9.0625 42.5529C8.0475 42.005 6.5975 40.6535 9.02625 40.617C11.31 40.5805 12.9413 42.7355 13.485 43.6122C16.095 48.0318 20.2638 46.7899 21.9313 46.0229C22.185 44.1235 22.9462 42.8451 23.78 42.1146C17.3275 41.3841 10.585 38.8638 10.585 27.6868C10.585 24.509 11.7088 21.8791 13.5575 19.8337C13.2675 19.1031 12.2525 16.108 13.8475 12.0901C13.8475 12.0901 16.2763 11.3231 21.8225 15.0853C24.1425 14.4278 26.6075 14.0991 29.0725 14.0991C31.5375 14.0991 34.0025 14.4278 36.3225 15.0853C41.8688 11.2866 44.2975 12.0901 44.2975 12.0901C45.8925 16.108 44.8775 19.1031 44.5875 19.8337C46.4363 21.8791 47.56 24.4725 47.56 27.6868C47.56 38.9003 40.7813 41.3841 34.3288 42.1146C35.38 43.0277 36.2863 44.781 36.2863 47.5204C36.2863 51.4287 36.25 54.57 36.25 55.5562C36.25 56.3232 36.7938 57.2364 38.2438 56.9442C49.6988 53.0724 58 42.1146 58 29.2209C58 13.0763 45.0225 0 29 0Z" fill="#03032D"/>
</svg>

