<svg width="24" height="24" viewBox="0 0 24 24" fill="none" xmlns="http://www.w3.org/2000/svg">
<g clip-path="url(#clip0_4633_9068)">
<path fill-rule="evenodd" clip-rule="evenodd" d="M12 0C5.37 0 0 5.50581 0 12.3035C0 17.7478 3.435 22.3463 8.20498 23.9765C8.80498 24.0842 9.03 23.715 9.03 23.3921C9.03 23.0999 9.01502 22.1309 9.01502 21.1005C6 21.6696 5.22 20.3469 4.98 19.6549C4.84498 19.3011 4.26 18.2092 3.75 17.917C3.33 17.6863 2.73 17.1173 3.735 17.1019C4.68 17.0865 5.35502 17.9939 5.58 18.363C6.66 20.2239 8.38502 19.701 9.07502 19.3781C9.18 18.5783 9.49498 18.04 9.84 17.7325C7.17 17.4249 4.38 16.3637 4.38 11.6576C4.38 10.3196 4.84502 9.21225 5.61 8.35103C5.49 8.04341 5.07 6.78232 5.73 5.09057C5.73 5.09057 6.73502 4.76762 9.03 6.35171C9.99 6.07486 11.01 5.93646 12.03 5.93646C13.05 5.93646 14.07 6.07486 15.03 6.35171C17.325 4.75225 18.33 5.09057 18.33 5.09057C18.99 6.78232 18.57 8.04341 18.45 8.35103C19.215 9.21225 19.68 10.3042 19.68 11.6576C19.68 16.3791 16.875 17.4249 14.205 17.7325C14.64 18.1169 15.015 18.8552 15.015 20.0086C15.015 21.6542 15 22.9768 15 23.3921C15 23.715 15.225 24.0995 15.825 23.9765C20.565 22.3463 24 17.7325 24 12.3035C24 5.50581 18.63 0 12 0Z" fill="#03032D"/>
</g>
<defs>
<clipPath id="clip0_4633_9068">
<rect width="24" height="24" fill="white"/>
</clipPath>
</defs>
</svg>
