<svg width="62" height="57" viewBox="0 0 62 57" fill="none" xmlns="http://www.w3.org/2000/svg">
<path d="M30.941 57L42.3421 21.9308H19.5566L30.941 57Z" fill="#E24329"/>
<path d="M3.58755 21.9309L0.115669 32.5854C-0.198507 33.5529 0.140781 34.6208 0.970029 35.2238L30.9412 57L3.58755 21.9309Z" fill="#FCA326"/>
<path d="M3.58752 21.9309H19.5566L12.684 0.810414C12.3322 -0.270138 10.7993 -0.270138 10.4349 0.810414L3.58752 21.9309Z" fill="#E24329"/>
<path d="M58.3113 21.9309L61.7708 32.5854C62.0849 33.5529 61.7456 34.6208 60.9164 35.2238L30.941 57L58.3113 21.9309Z" fill="#FCA326"/>
<path d="M58.3112 21.9309H42.3422L49.2022 0.810414C49.5539 -0.270138 51.0868 -0.270138 51.4512 0.810414L58.3112 21.9309Z" fill="#E24329"/>
<path d="M30.941 57L42.3421 21.9309H58.3113L30.941 57Z" fill="#FC6D26"/>
<path d="M30.941 57L3.58752 21.9309H19.5566L30.941 57Z" fill="#FC6D26"/>
</svg>
