<svg width="26" height="24" viewBox="0 0 26 24" fill="none" xmlns="http://www.w3.org/2000/svg">
<g clip-path="url(#clip0_4633_9102)">
<path d="M12.9753 24.0004L17.7564 9.23438H8.20117L12.9753 24.0004Z" fill="#E24329"/>
<path d="M1.50446 9.23438L0.0485063 13.7205C-0.0832449 14.1278 0.0590372 14.5775 0.406786 14.8314L12.9753 24.0003L1.50446 9.23438Z" fill="#FCA326"/>
<path d="M1.50439 9.23406H8.20111L5.31905 0.341227C5.17152 -0.113742 4.52869 -0.113742 4.37588 0.341227L1.50439 9.23406Z" fill="#E24329"/>
<path d="M24.453 9.23438L25.9037 13.7205C26.0354 14.1278 25.8932 14.5775 25.5454 14.8314L12.9751 24.0003L24.453 9.23438Z" fill="#FCA326"/>
<path d="M24.453 9.23406H17.7563L20.6331 0.341227C20.7806 -0.113742 21.4234 -0.113742 21.5763 0.341227L24.453 9.23406Z" fill="#E24329"/>
<path d="M12.9751 24.0003L17.7562 9.23438H24.453L12.9751 24.0003Z" fill="#FC6D26"/>
<path d="M12.9752 24.0003L1.50439 9.23438H8.20111L12.9752 24.0003Z" fill="#FC6D26"/>
</g>
<defs>
<clipPath id="clip0_4633_9102">
<rect width="26" height="24" fill="white"/>
</clipPath>
</defs>
</svg>
