<svg width="90" height="24" viewBox="0 0 90 24" fill="none" xmlns="http://www.w3.org/2000/svg">
<path d="M61.5555 4.28125H59.5117L59.5211 19.708H67.7993V17.7999H61.5649L61.5555 4.28125Z" fill="#8C929D"/>
<path d="M75.678 17.0014C75.1624 17.5425 74.3093 18.0836 73.1467 18.0836C71.5905 18.0836 70.9623 17.3052 70.9623 16.2894C70.9623 14.7609 72.0123 14.03 74.2436 14.03C74.6655 14.03 75.3405 14.0774 75.6874 14.1439V17.0014H75.678ZM73.5592 7.65039C71.9092 7.65039 70.3904 8.23898 69.2092 9.23579L69.9311 10.5079C70.7655 10.0142 71.7873 9.52059 73.2592 9.52059C74.9374 9.52059 75.678 10.394 75.678 11.856V12.6059C75.3499 12.5395 74.6749 12.492 74.2624 12.492C70.6811 12.492 68.8623 13.7641 68.8623 16.4223C68.8623 18.8051 70.3061 20.0013 72.4905 20.0013C73.9624 20.0013 75.378 19.3178 75.8655 18.2071L76.2405 19.7165H77.6843V11.818C77.6749 9.32123 76.6062 7.65039 73.5592 7.65039Z" fill="#8C929D"/>
<path d="M84.2781 18.1531C83.5093 18.1531 82.8343 18.0581 82.3281 17.8208V11.4317V10.6912C83.0218 10.1027 83.8843 9.67546 84.9812 9.67546C86.9594 9.67546 87.7187 11.09 87.7187 13.3779C87.7187 16.6246 86.4906 18.1531 84.2781 18.1531ZM85.1406 7.65336C83.3124 7.65336 82.3281 8.91598 82.3281 8.91598V6.92237L82.3187 4.2832H81.3999H80.3218L80.3312 19.3302C81.3343 19.7574 82.7031 19.9853 84.1937 19.9853C88.0094 19.9853 89.8469 17.517 89.8469 13.2545C89.8375 9.88431 88.1406 7.65336 85.1406 7.65336Z" fill="#8C929D"/>
<path d="M39.3032 5.95564C41.1126 5.95564 42.2845 6.56322 43.0439 7.18029L43.9252 5.63287C42.7345 4.5696 41.122 4 39.397 4C35.0469 4 32 6.68663 32 12.1074C32 17.7844 35.2907 19.9964 39.0501 19.9964C40.9345 19.9964 42.5376 19.5502 43.5877 19.104L43.5408 13.0377V12.3257V11.1295H37.9626V13.0377H41.5251L41.572 17.642C41.1032 17.8794 40.297 18.0692 39.2001 18.0692C36.1813 18.0692 34.1563 16.1421 34.1563 12.0884C34.1469 7.95875 36.2376 5.95564 39.3032 5.95564Z" fill="#8C929D"/>
<path d="M53.6966 4.2793H51.6997L51.7091 6.871V7.93426V8.55133V9.63357V15.8043V15.8233C51.7091 18.32 52.7778 19.9909 55.8248 19.9909C56.2466 19.9909 56.6591 19.9529 57.0529 19.877V18.0637C56.7623 18.1112 56.4529 18.1302 56.1248 18.1302C54.4466 18.1302 53.706 17.2568 53.706 15.7948V9.62408H57.0529V7.93426H53.706L53.6966 4.2793Z" fill="#8C929D"/>
<path d="M46.6211 19.7074H48.618V7.93555H46.6211V19.7074Z" fill="#8C929D"/>
<path d="M46.6211 6.31431H48.618V4.29102H46.6211V6.31431Z" fill="#8C929D"/>
<path d="M12.9992 24.0003L17.7891 9.23438H8.21631L12.9992 24.0003Z" fill="#E24329"/>
<path d="M1.50722 9.23438L0.0485954 13.7205C-0.0833976 14.1278 0.0591452 14.5774 0.407533 14.8314L12.9992 24.0002L1.50722 9.23438Z" fill="#FCA326"/>
<path d="M1.50745 9.23405H8.21645L5.32908 0.341226C5.1813 -0.113742 4.53728 -0.113742 4.38418 0.341226L1.50745 9.23405Z" fill="#E24329"/>
<path d="M24.4979 9.23438L25.9513 13.7205C26.0833 14.1278 25.9407 14.5774 25.5923 14.8314L12.999 24.0003L24.4979 9.23438Z" fill="#FCA326"/>
<path d="M24.4981 9.23405H17.7891L20.6711 0.341226C20.8189 -0.113742 21.4629 -0.113742 21.616 0.341226L24.4981 9.23405Z" fill="#E24329"/>
<path d="M12.999 24.0003L17.7889 9.23438H24.4979L12.999 24.0003Z" fill="#FC6D26"/>
<path d="M12.9994 24.0003L1.50745 9.23438H8.21645L12.9994 24.0003Z" fill="#FC6D26"/>
</svg>
