<svg width="150" height="53" viewBox="0 0 150 53" fill="none" xmlns="http://www.w3.org/2000/svg">
<g clip-path="url(#clip0_6409_16506)">
<path d="M47.3921 22.6506H33.1894C32.3671 22.6506 31.7691 23.4738 32.0432 24.2471L35.4568 33.1028C35.6063 33.5019 35.3073 33.926 34.8837 33.901L30.5233 33.6266C30.3239 33.6017 30.1246 33.7015 30.0249 33.8761L26.6362 38.6906C26.4618 38.965 26.0881 39.0648 25.814 38.8652L20.7808 35.4477C20.5814 35.3229 20.3073 35.3229 20.1329 35.4477L13.1562 40.1624C12.7077 40.4617 12.1097 40.0376 12.2592 39.5138L14.2027 32.5789C14.2774 32.2796 14.1529 32.0052 13.8538 31.8804L10.1661 30.3837C9.79239 30.234 9.69272 29.785 9.94189 29.4857L13.1811 25.4445C13.3306 25.2449 13.3555 24.9705 13.206 24.746L10.4651 20.7797C10.216 20.4055 10.4402 19.9066 10.9136 19.8816L15.1744 19.5573C15.4734 19.5324 15.7226 19.258 15.7226 18.9337L15.3738 12.9717C15.3489 12.5476 15.7725 12.2483 16.196 12.398L21.4784 14.5932C21.7027 14.6929 21.9768 14.6431 22.1263 14.4435L25.7641 10.3774C26.0632 10.0531 26.5864 10.1529 26.7608 10.527L28.9535 16.1647C29.2525 16.8632 30.1246 17.1127 30.7226 16.6387L39.2691 10.2776C40.2409 9.55416 39.618 8.00753 38.422 8.18215L32.7907 8.93052C32.5166 8.98041 32.2675 8.80579 32.1678 8.55634L29.2027 0.947936C28.8788 0.149677 27.8572 -0.0498894 27.2592 0.598695L20.8306 7.58346C20.6562 7.75808 20.407 7.80797 20.1828 7.70819L11.711 4.14097C10.9635 3.84162 10.1163 4.36548 10.0914 5.18868L9.79239 13.9446C9.76747 14.2439 9.54322 14.4934 9.24421 14.4934L1.51996 14.9923C0.622953 15.0422 0.124613 16.065 0.622953 16.8133L5.75584 24.3968C5.90534 24.6213 5.88043 24.8957 5.70601 25.1202L0.498368 31.1071C-0.0248883 31.7058 0.199364 32.6288 0.921956 32.9531L6.90202 35.5474C7.17611 35.6722 7.30069 35.9466 7.22594 36.221L3.38873 51.1883C3.11465 52.261 4.31066 53.0592 5.20767 52.4356L19.5847 42.1081C19.7841 41.9834 20.0582 41.9585 20.2575 42.1081L26.8107 46.7231C27.3588 47.1222 28.0814 46.9476 28.4552 46.4237L32.5416 40.1374C32.6661 39.9379 32.8904 39.8381 33.0897 39.888L42.8821 41.0604C43.6794 41.1851 44.4768 40.5116 44.1778 39.7882L40.0914 29.2362C39.9668 28.9369 40.0914 28.6375 40.4402 28.4629L47.8904 24.9456C49.0366 24.3469 48.6379 22.6506 47.3921 22.6506Z" fill="#8039E9"/>
<path d="M149.277 22.6506H138.239C138.015 22.6506 137.841 22.8252 137.841 23.0497V27.939C137.841 28.1636 138.015 28.3382 138.239 28.3382H142.949C143.173 28.3382 143.347 28.5128 143.347 28.7373C143.297 31.2568 142.799 35.772 138.214 35.772C134.477 35.772 133.007 31.2568 133.007 25.9933C133.007 19.7319 134.552 15.8654 138.015 15.8654C140.532 15.8654 141.354 17.9858 141.578 18.784C141.628 18.9586 141.802 19.0834 141.977 19.0834H147.708C147.932 19.0834 148.131 18.8838 148.106 18.6593C147.882 15.5161 145.191 10.0281 138.115 10.0281C133.156 10.0281 128.522 13.0465 127.052 20.5053V10.9012C127.052 10.7765 126.952 10.7017 126.852 10.7017H120.772C120.648 10.7017 120.573 10.8014 120.573 10.9012V28.0388C120.573 28.2633 120.274 28.3132 120.174 28.1137L112.201 10.8014C112.151 10.7266 112.101 10.6767 112.027 10.6767H106.645C106.52 10.6767 106.445 10.7765 106.445 10.8763V20.4803C104.452 14.3936 99.0449 10.0032 92.0183 10.0032C84.1694 10.0032 78.3638 15.4413 77.0183 22.6506H66.0299C65.9053 22.6506 65.8306 22.7504 65.8306 22.8501V28.1386C65.8306 28.2633 65.9302 28.3382 66.0299 28.3382H71.1628C71.2874 28.3382 71.3621 28.438 71.3621 28.5377C71.3372 30.9824 70.9136 35.772 66.2292 35.772C62.4917 35.772 61.0216 31.2568 61.0216 25.9933C61.0216 19.7319 62.5665 15.8654 66.0299 15.8654C68.696 15.8654 69.4684 18.2851 69.6429 18.9337C69.6678 19.0335 69.7425 19.0834 69.8422 19.0834H75.9967C76.1213 19.0834 76.2209 18.9836 76.196 18.8589C76.0714 15.7656 73.4302 10.0281 66.1794 10.0281C60.1744 10.0281 54.618 14.4684 54.618 25.9434C54.618 33.8262 57.7077 41.6342 66.2791 41.6342C72.608 41.6342 76.6694 36.7199 77.5665 30.8078C79.4851 37.0941 84.9419 41.6342 92.118 41.6342C99.0449 41.6342 104.552 37.2437 106.545 31.1071V40.811C106.545 40.9357 106.645 41.0105 106.744 41.0105H112.824C112.949 41.0105 113.023 40.9107 113.023 40.811V23.9478C113.023 23.7232 113.322 23.6733 113.422 23.8729L121.395 40.9107C121.445 40.9856 121.495 41.0355 121.57 41.0355H126.952C127.076 41.0355 127.151 40.9357 127.151 40.8359V31.2069C128.322 36.9943 131.661 41.6841 138.289 41.6841C145.515 41.6841 149.776 35.3229 149.776 28.3631V23.1495C149.676 22.8252 149.502 22.6506 149.277 22.6506ZM92.0681 35.3229C86.9601 35.3229 83.4219 31.4065 83.4219 25.8436C83.4219 20.2808 86.9601 16.3643 92.0681 16.3643C97.1512 16.3643 100.714 20.2808 100.714 25.8436C100.714 31.4065 97.1512 35.3229 92.0681 35.3229Z" fill="#3E0075"/>
</g>
<defs>
<clipPath id="clip0_6409_16506">
<rect width="150" height="52.8846" fill="white"/>
</clipPath>
</defs>
</svg>
