<svg width="602" height="212" viewBox="0 0 602 212" fill="none" xmlns="http://www.w3.org/2000/svg">
<path d="M190.2 90.8H133.2C129.9 90.8 127.5 94.1 128.6 97.2L142.3 132.7C142.9 134.3 141.7 136 140 135.9L122.5 134.8C121.7 134.7 120.9 135.1 120.5 135.8L106.9 155.1C106.2 156.2 104.7 156.6 103.6 155.8L83.4 142.1C82.6 141.6 81.5 141.6 80.8 142.1L52.8 161C51 162.2 48.6 160.5 49.2 158.4L57 130.6C57.3 129.4 56.8 128.3 55.6 127.8L40.8 121.8C39.3 121.2 38.9 119.4 39.9 118.2L52.9 102C53.5 101.2 53.6 100.1 53 99.2L42 83.3C41 81.8 41.9 79.8 43.8 79.7L60.9 78.4C62.1 78.3 63.1 77.2 63.1 75.9L61.7 52C61.6 50.3 63.3 49.1 65 49.7L86.2 58.5C87.1 58.9 88.2 58.7 88.8 57.9L103.4 41.6C104.6 40.3 106.7 40.7 107.4 42.2L116.2 64.8C117.4 67.6 120.9 68.6 123.3 66.7L157.6 41.2C161.5 38.3 159 32.1 154.2 32.8L131.6 35.8C130.5 36 129.5 35.3 129.1 34.3L117.2 3.8C115.9 0.600001 111.8 -0.200008 109.4 2.39999L83.6 30.4C82.9 31.1 81.9 31.3 81 30.9L47 16.6C44 15.4 40.6 17.5 40.5 20.8L39.3 55.9C39.2 57.1 38.3 58.1 37.1 58.1L6.10001 60.1C2.50001 60.3 0.500007 64.4 2.50001 67.4L23.1 97.8C23.7 98.7 23.6 99.8 22.9 100.7L2.00001 124.7C-0.0999933 127.1 0.800007 130.8 3.70001 132.1L27.7 142.5C28.8 143 29.3 144.1 29 145.2L13.6 205.2C12.5 209.5 17.3 212.7 20.9 210.2L78.6 168.8C79.4 168.3 80.5 168.2 81.3 168.8L107.6 187.3C109.8 188.9 112.7 188.2 114.2 186.1L130.6 160.9C131.1 160.1 132 159.7 132.8 159.9L172.1 164.6C175.3 165.1 178.5 162.4 177.3 159.5L160.9 117.2C160.4 116 160.9 114.8 162.3 114.1L192.2 100C196.8 97.6 195.2 90.8 190.2 90.8Z" fill="#8039E9"/>
<path d="M599.1 90.8H554.8C553.9 90.8 553.2 91.5 553.2 92.4V112C553.2 112.9 553.9 113.6 554.8 113.6H573.7C574.6 113.6 575.3 114.3 575.3 115.2C575.1 125.3 573.1 143.4 554.7 143.4C539.7 143.4 533.8 125.3 533.8 104.2C533.8 79.1 540 63.6 553.9 63.6C564 63.6 567.3 72.1 568.2 75.3C568.4 76 569.1 76.5 569.8 76.5H592.8C593.7 76.5 594.5 75.7 594.4 74.8C593.5 62.2 582.7 40.2 554.3 40.2C534.4 40.2 515.8 52.3 509.9 82.2V43.7C509.9 43.2 509.5 42.9 509.1 42.9H484.7C484.2 42.9 483.9 43.3 483.9 43.7V112.4C483.9 113.3 482.7 113.5 482.3 112.7L450.3 43.3C450.1 43 449.9 42.8 449.6 42.8H428C427.5 42.8 427.2 43.2 427.2 43.6V82.1C419.2 57.7 397.5 40.1 369.3 40.1C337.8 40.1 314.5 61.9 309.1 90.8H265C264.5 90.8 264.2 91.2 264.2 91.6V112.8C264.2 113.3 264.6 113.6 265 113.6H285.6C286.1 113.6 286.4 114 286.4 114.4C286.3 124.2 284.6 143.4 265.8 143.4C250.8 143.4 244.9 125.3 244.9 104.2C244.9 79.1 251.1 63.6 265 63.6C275.7 63.6 278.8 73.3 279.5 75.9C279.6 76.3 279.9 76.5 280.3 76.5H305C305.5 76.5 305.9 76.1 305.8 75.6C305.3 63.2 294.7 40.2 265.6 40.2C241.5 40.2 219.2 58 219.2 104C219.2 135.6 231.6 166.9 266 166.9C291.4 166.9 307.7 147.2 311.3 123.5C319 148.7 340.9 166.9 369.7 166.9C397.5 166.9 419.6 149.3 427.6 124.7V163.6C427.6 164.1 428 164.4 428.4 164.4H452.8C453.3 164.4 453.6 164 453.6 163.6V96C453.6 95.1 454.8 94.9 455.2 95.7L487.2 164C487.4 164.3 487.6 164.5 487.9 164.5H509.5C510 164.5 510.3 164.1 510.3 163.7V125.1C515 148.3 528.4 167.1 555 167.1C584 167.1 601.1 141.6 601.1 113.7V92.8C600.7 91.5 600 90.8 599.1 90.8ZM369.5 141.6C349 141.6 334.8 125.9 334.8 103.6C334.8 81.3 349 65.6 369.5 65.6C389.9 65.6 404.2 81.3 404.2 103.6C404.2 125.9 389.9 141.6 369.5 141.6Z" fill="#3E0075"/>
</svg>
