<svg version="1.1" id="layer" xmlns="http://www.w3.org/2000/svg" xmlns:xlink="http://www.w3.org/1999/xlink" x="0px" y="0px"
 viewBox="0 0 652 652" style="enable-background:new 0 0 652 652;" xml:space="preserve">
<style type="text/css">
.st0{fill:#8039E9;}
.st1{fill:#3E0075;}
</style>
<path class="st0" d="M216.2,310.8h-57c-3.3,0-5.7,3.3-4.6,6.4l13.7,35.5c0.6,1.6-0.6,3.3-2.3,3.2l-17.5-1.1c-0.8-0.1-1.6,0.3-2,1
l-13.6,19.3c-0.7,1.1-2.2,1.5-3.3,0.7l-20.2-13.7c-0.8-0.5-1.9-0.5-2.6,0L78.8,381c-1.8,1.2-4.2-0.5-3.6-2.6l7.8-27.8
c0.3-1.2-0.2-2.3-1.4-2.8l-14.8-6c-1.5-0.6-1.9-2.4-0.9-3.6L78.9,322c0.6-0.8,0.7-1.9,0.1-2.8l-11-15.9c-1-1.5-0.1-3.5,1.8-3.6
l17.1-1.3c1.2-0.1,2.2-1.2,2.2-2.5L87.7,272c-0.1-1.7,1.6-2.9,3.3-2.3l21.2,8.8c0.9,0.4,2,0.2,2.6-0.6l14.6-16.3
c1.2-1.3,3.3-0.9,4,0.6l8.8,22.6c1.2,2.8,4.7,3.8,7.1,1.9l34.3-25.5c3.9-2.9,1.4-9.1-3.4-8.4l-22.6,3c-1.1,0.2-2.1-0.5-2.5-1.5
l-11.9-30.5c-1.3-3.2-5.4-4-7.8-1.4l-25.8,28c-0.7,0.7-1.7,0.9-2.6,0.5l-34-14.3c-3-1.2-6.4,0.9-6.5,4.2l-1.2,35.1
c-0.1,1.2-1,2.2-2.2,2.2l-31,2c-3.6,0.2-5.6,4.3-3.6,7.3l20.6,30.4c0.6,0.9,0.5,2-0.2,2.9l-20.9,24c-2.1,2.4-1.2,6.1,1.7,7.4
l24,10.4c1.1,0.5,1.6,1.6,1.3,2.7l-15.4,60c-1.1,4.3,3.7,7.5,7.3,5l57.7-41.4c0.8-0.5,1.9-0.6,2.7,0l26.3,18.5
c2.2,1.6,5.1,0.9,6.6-1.2l16.4-25.2c0.5-0.8,1.4-1.2,2.2-1l39.3,4.7c3.2,0.5,6.4-2.2,5.2-5.1l-16.4-42.3c-0.5-1.2,0-2.4,1.4-3.1
l29.9-14.1C222.8,317.6,221.2,310.8,216.2,310.8z"/>
<path class="st1" d="M625.1,310.8h-44.3c-0.9,0-1.6,0.7-1.6,1.6v19.6c0,0.9,0.7,1.6,1.6,1.6h18.9c0.9,0,1.6,0.7,1.6,1.6
c-0.2,10.1-2.2,28.2-20.6,28.2c-15,0-20.9-18.1-20.9-39.2c0-25.1,6.2-40.6,20.1-40.6c10.1,0,13.4,8.5,14.3,11.7
c0.2,0.7,0.9,1.2,1.6,1.2h23c0.9,0,1.7-0.8,1.6-1.7c-0.9-12.6-11.7-34.6-40.1-34.6c-19.9,0-38.5,12.1-44.4,42v-38.5
c0-0.5-0.4-0.8-0.8-0.8h-24.4c-0.5,0-0.8,0.4-0.8,0.8v68.7c0,0.9-1.2,1.1-1.6,0.3l-32-69.4c-0.2-0.3-0.4-0.5-0.7-0.5h-21.6
c-0.5,0-0.8,0.4-0.8,0.8v38.5c-8-24.4-29.7-42-57.9-42c-31.5,0-54.8,21.8-60.2,50.7h-44.1c-0.5,0-0.8,0.4-0.8,0.8v21.2
c0,0.5,0.4,0.8,0.8,0.8h20.6c0.5,0,0.8,0.4,0.8,0.8c-0.1,9.8-1.8,29-20.6,29c-15,0-20.9-18.1-20.9-39.2c0-25.1,6.2-40.6,20.1-40.6
c10.7,0,13.8,9.7,14.5,12.3c0.1,0.4,0.4,0.6,0.8,0.6H331c0.5,0,0.9-0.4,0.8-0.9c-0.5-12.4-11.1-35.4-40.2-35.4
c-24.1,0-46.4,17.8-46.4,63.8c0,31.6,12.4,62.9,46.8,62.9c25.4,0,41.7-19.7,45.3-43.4c7.7,25.2,29.6,43.4,58.4,43.4
c27.8,0,49.9-17.6,57.9-42.2v38.9c0,0.5,0.4,0.8,0.8,0.8h24.4c0.5,0,0.8-0.4,0.8-0.8V316c0-0.9,1.2-1.1,1.6-0.3l32,68.3
c0.2,0.3,0.4,0.5,0.7,0.5h21.6c0.5,0,0.8-0.4,0.8-0.8v-38.6c4.7,23.2,18.1,42,44.7,42c29,0,46.1-25.5,46.1-53.4v-20.9
C626.7,311.5,626,310.8,625.1,310.8z M395.5,361.6c-20.5,0-34.7-15.7-34.7-38s14.2-38,34.7-38c20.4,0,34.7,15.7,34.7,38
S415.9,361.6,395.5,361.6z"/>
</svg>

