<svg width="534" height="578" viewBox="0 0 534 578" fill="none" xmlns="http://www.w3.org/2000/svg" xmlns:xlink="http://www.w3.org/1999/xlink">
 <path d="M520.604 247.108H364.051C356.649 247.108 350.593 253.389 350.818 260.79C350.818 262.136 351.042 263.482 351.491 264.827L389.171 362.393C390.517 365.757 388.722 369.57 385.358 370.691C384.461 370.916 383.564 371.14 382.667 371.14L334.445 368.224C332.202 368 330.183 369.121 328.837 370.916L291.381 424.072C289.363 427.212 285.325 428.109 282.41 426.091C282.41 426.091 282.41 426.091 282.185 426.091L226.786 388.41C224.543 386.84 221.627 386.84 219.609 388.41L142.902 440.445C139.986 442.464 135.949 441.791 133.931 438.875C132.809 437.305 132.585 435.287 133.034 433.492L154.341 357.01C155.238 353.87 153.668 350.505 150.528 349.384L109.932 332.787C106.567 331.441 104.997 327.852 106.343 324.488C106.568 323.815 107.016 323.367 107.465 322.694L143.351 278.285C145.145 276.042 145.145 272.902 143.575 270.659L113.52 226.923C111.502 224.007 112.175 219.97 115.09 217.951C115.988 217.278 117.109 216.83 118.455 216.83L165.331 213.241C168.92 213.017 171.387 210.101 171.387 206.512L167.798 140.796C167.574 137.207 170.49 134.067 174.078 133.843C174.975 133.843 175.873 134.067 176.77 134.291L234.861 158.29C237.328 159.412 240.243 158.739 242.038 156.496L281.961 111.638C284.428 108.947 288.465 108.723 291.157 111.19C291.83 111.863 292.278 112.535 292.727 113.433L316.726 175.336C319.417 181.841 327.043 184.981 333.547 182.289C334.445 181.841 335.566 181.392 336.239 180.719L430.44 110.741C436.047 106.48 437.393 98.6295 433.131 92.798C430.44 88.9851 425.73 86.9665 421.02 87.6394L358.892 95.9381C355.976 96.3866 353.285 94.5923 352.163 91.9009L319.417 8.017C316.726 1.51264 309.324 -1.62739 302.82 0.839781C301.026 1.51265 299.456 2.63409 298.11 4.20411L227.235 81.135C225.44 83.1536 222.525 83.6022 220.057 82.7051L126.753 43.2303C120.249 40.5388 112.623 43.4546 109.708 50.1832C109.035 51.529 108.81 53.099 108.81 54.669L105.446 150.889C105.222 154.253 102.755 156.72 99.3903 157.169L14.1607 162.776C6.98343 163.225 1.82481 169.28 2.27338 176.458C2.49767 178.701 3.17054 180.943 4.51627 182.738L61.2612 266.397C62.8313 268.864 62.8313 272.005 60.8127 274.247L3.17054 340.412C-1.53952 345.795 -0.866653 353.87 4.29198 358.356C5.41342 359.253 6.53487 359.926 7.65631 360.598L74.27 389.307C77.1857 390.429 78.7557 393.793 77.8586 396.709L35.6924 561.561C33.8981 568.514 38.1595 575.467 44.8882 577.261C48.7011 578.158 52.514 577.485 55.654 575.242L214.226 461.528C216.469 459.958 219.385 459.958 221.627 461.528L293.848 512.217C299.68 516.255 307.754 514.909 311.791 509.077L312.016 508.853L357.098 439.548C358.443 437.529 360.911 436.408 363.378 436.857L471.261 449.865C480.008 451.211 488.755 443.809 485.615 435.735L440.757 319.329C439.412 315.965 441.206 312.152 444.57 310.806L526.66 272.005C538.771 265.949 534.51 247.108 520.604 247.108Z" fill="#8039E9">
 </path>
</svg>

