<svg width="29" height="24" viewBox="0 0 29 24" fill="none" xmlns="http://www.w3.org/2000/svg">
<g clip-path="url(#clip0_4633_9216)">
<path d="M16.2348 12L19.0324 15.25L22.7943 17.6933L23.4503 12.0217L22.7943 6.47503L18.9603 8.62168L16.2348 12Z" fill="#00832D"/>
<path d="M0 17.1667V22C0 23.105 0.880614 24 1.96786 24H6.72353L7.70745 20.3467L6.72353 17.1667L3.46014 16.1667L0 17.1667Z" fill="#0066DA"/>
<path d="M6.72353 0L0 6.83335L3.46014 7.83335L6.72353 6.83335L7.69105 3.695L6.72353 0Z" fill="#E94235"/>
<path d="M6.72353 6.83334H0V17.1666H6.72353V6.83334Z" fill="#2684FC"/>
<path d="M27.0892 2.89333L22.7944 6.47499V17.6933L27.1072 21.2883C27.7534 21.8016 28.6979 21.3333 28.6979 20.5V3.66666C28.6979 2.82167 27.732 2.35833 27.0892 2.89333ZM16.2348 12V17.1667H6.72351V24H20.8265C21.9138 24 22.7944 23.105 22.7944 22V17.6933L16.2348 12Z" fill="#00AC47"/>
<path d="M20.8265 0H6.72351V6.83335H16.2348V12L22.7944 6.47499V2C22.7944 0.894998 21.9138 0 20.8265 0Z" fill="#FFBA00"/>
</g>
<defs>
<clipPath id="clip0_4633_9216">
<rect width="29" height="24" fill="white"/>
</clipPath>
</defs>
</svg>
