<svg width="27" height="24" viewBox="0 0 27 24" fill="none" xmlns="http://www.w3.org/2000/svg">
<path d="M2.03474 20.5304L3.22166 22.5727C3.4683 23.0027 3.82284 23.3405 4.23904 23.5862L8.47808 16.2769H0C0 16.753 0.123311 17.229 0.369946 17.659L2.03474 20.5304Z" fill="#0066DA"/>
<path d="M13.457 7.67781L9.21797 0.368522C8.80175 0.61421 8.44722 0.952034 8.20061 1.38199L0.369946 14.8949C0.127847 15.3156 0.00032234 15.792 0 16.2769H8.47808L13.457 7.67781Z" fill="#00AC47"/>
<path d="M22.675 23.5862C23.0912 23.3405 23.4457 23.0027 23.6923 22.5727L24.1856 21.7282L26.5441 17.659C26.7907 17.229 26.914 16.753 26.914 16.2769H18.4353L20.2394 19.8087L22.675 23.5862Z" fill="#EA4335"/>
<path d="M13.457 7.67781L17.696 0.368535C17.2798 0.122845 16.802 0 16.3087 0H10.6053C10.112 0 9.63417 0.138201 9.21796 0.368535L13.457 7.67781Z" fill="#00832D"/>
<path d="M18.4359 16.2769H8.47805L4.23901 23.5862C4.65519 23.8319 5.13305 23.9547 5.62631 23.9547H21.2876C21.7809 23.9547 22.2587 23.8165 22.6749 23.5862L18.4359 16.2769Z" fill="#2684FC"/>
<path d="M22.6288 8.13844L18.7134 1.38199C18.4668 0.952034 18.1122 0.61421 17.6961 0.368522L13.457 7.67781L18.436 16.2769H26.8986C26.8986 15.8009 26.7753 15.3249 26.5286 14.8949L22.6288 8.13844Z" fill="#FFBA00"/>
</svg>
