<svg width="24" height="24" viewBox="0 0 24 24" fill="none" xmlns="http://www.w3.org/2000/svg">
<path d="M18.3158 5.6842H5.6842V18.3158H18.3158V5.6842Z" fill="white"/>
<path d="M8.2753 15.4832C7.80318 15.1642 7.47635 14.6984 7.29791 14.0826L8.3937 13.631C8.4932 14.01 8.66688 14.3037 8.91475 14.5121C9.16107 14.7205 9.46107 14.8232 9.8116 14.8232C10.17 14.8232 10.4779 14.7142 10.7353 14.4963C10.9926 14.2784 11.1221 14.0005 11.1221 13.6642C11.1221 13.32 10.9863 13.0389 10.7148 12.8211C10.4432 12.6032 10.1021 12.4942 9.69475 12.4942H9.06162V11.4095H9.63004C9.98056 11.4095 10.2758 11.3147 10.5158 11.1253C10.7558 10.9358 10.8758 10.6768 10.8758 10.3468C10.8758 10.0531 10.7684 9.81945 10.5537 9.64421C10.339 9.46892 10.0674 9.3805 9.73741 9.3805C9.4153 9.3805 9.15951 9.46577 8.97004 9.63789C8.78069 9.81044 8.63833 10.0283 8.55635 10.271L7.4716 9.81945C7.6153 9.41208 7.87896 9.05208 8.26583 8.74105C8.65265 8.42998 9.14688 8.27368 9.74688 8.27368C10.1905 8.27368 10.59 8.35894 10.9437 8.53103C11.2974 8.70316 11.5753 8.94156 11.7758 9.24471C11.9764 9.54947 12.0758 9.89052 12.0758 10.2695C12.0758 10.6563 11.9827 10.9832 11.7964 11.2516C11.61 11.52 11.3811 11.7253 11.1095 11.8689V11.9337C11.4602 12.0782 11.7648 12.3157 11.9905 12.6205C12.2195 12.9284 12.3348 13.2963 12.3348 13.7258C12.3348 14.1552 12.2258 14.5389 12.0079 14.8752C11.79 15.2116 11.4884 15.4768 11.1063 15.6695C10.7227 15.8621 10.2916 15.96 9.8132 15.96C9.25896 15.9616 8.74739 15.8021 8.2753 15.4832ZM15.0063 10.0453L13.8032 10.9152L13.2016 10.0026L15.36 8.44577H16.1874V15.7895H15.0063V10.0453Z" fill="#4285F4"/>
<path d="M18.3158 18.3158H5.6842V24H18.3158V18.3158Z" fill="#34A853"/>
<path d="M18.3158 0H1.89474C0.847895 0 0 0.847895 0 1.89474V18.3158H5.68421V5.68421H18.3158V0Z" fill="#4285F4"/>
<path d="M0 18.3158V22.1053C0 23.1521 0.847895 24 1.89474 24H5.68421V18.3158H0Z" fill="#188038"/>
<path d="M24 5.6842H18.3158V18.3158H24V5.6842Z" fill="#FBBC04"/>
<path d="M24 5.68421V1.89474C24 0.847895 23.1521 0 22.1053 0H18.3158V5.68421H24Z" fill="#1967D2"/>
<path d="M18.3158 24L24 18.3158H18.3158V24Z" fill="#EA4335"/>
</svg>
