<svg width="156" height="24" viewBox="0 0 156 24" fill="none" xmlns="http://www.w3.org/2000/svg">
<g clip-path="url(#clip0_4633_9645)">
<path d="M48.2738 14.5251C48.2738 12.727 46.9435 11.4967 45.3995 11.4967C43.8556 11.4967 42.5253 12.727 42.5253 14.5251C42.5253 16.3052 43.8556 17.5535 45.3995 17.5535C46.9435 17.5535 48.2738 16.3029 48.2738 14.5251ZM50.5116 14.5251C50.5116 17.4025 48.2164 19.5228 45.3996 19.5228C42.5827 19.5228 40.2875 17.4025 40.2875 14.5251C40.2875 11.6274 42.5827 9.52734 45.3996 9.52734C48.2164 9.52734 50.5116 11.6274 50.5116 14.5251Z" fill="#787879"/>
<path d="M59.3024 14.5251C59.3024 12.727 57.9721 11.4967 56.4281 11.4967C54.8842 11.4967 53.5539 12.727 53.5539 14.5251C53.5539 16.3052 54.8842 17.5535 56.4281 17.5535C57.9721 17.5535 59.3024 16.3029 59.3024 14.5251ZM61.5402 14.5251C61.5402 17.4025 59.2449 19.5228 56.4281 19.5228C53.6113 19.5228 51.316 17.4025 51.316 14.5251C51.316 11.6296 53.6113 9.52734 56.4281 9.52734C59.2449 9.52734 61.5402 11.6274 61.5402 14.5251Z" fill="#787879"/>
<path d="M70.1417 14.5431C70.1417 12.7833 68.9447 11.4967 67.4214 11.4967C65.8775 11.4967 64.5839 12.7833 64.5839 14.5431C64.5839 16.2849 65.8775 17.5535 67.4214 17.5535C68.9447 17.5535 70.1417 16.2849 70.1417 14.5431ZM72.1084 9.82928V18.8018C72.1084 22.4926 69.889 24.0001 67.2652 24.0001C64.7953 24.0001 63.3088 22.38 62.7482 21.0551L64.6965 20.2597C65.0435 21.0731 65.8936 22.033 67.2629 22.033C68.9424 22.033 69.9832 21.0168 69.9832 19.1037V18.3849H69.9051C69.4042 18.9911 68.4392 19.5206 67.2215 19.5206C64.6736 19.5206 62.3392 17.3439 62.3392 14.5431C62.3392 11.722 64.6736 9.52734 67.2215 9.52734C68.437 9.52734 69.4019 10.0569 69.9051 10.645H69.9832V9.83154H72.1084V9.82928Z" fill="#787879"/>
<path d="M75.6124 4.57031H73.4297V19.2165H75.6124V4.57031Z" fill="#787879"/>
<path d="M78.7719 14.3722L83.3257 12.5177C83.0753 11.8936 82.3217 11.4587 81.4348 11.4587C80.2975 11.4587 78.7145 12.4434 78.7719 14.3722ZM84.1183 16.1703L85.8553 17.3059C85.2947 18.1194 83.9437 19.5209 81.6094 19.5209C78.7145 19.5209 76.5525 17.3262 76.5525 14.5231C76.5525 11.5511 78.7329 9.52539 81.359 9.52539C84.0035 9.52539 85.297 11.5894 85.7197 12.7048L85.9518 13.2726L79.1395 16.0396C79.6611 17.0423 80.4721 17.5538 81.6094 17.5538C82.749 17.5538 83.5394 17.004 84.1183 16.1703Z" fill="#787879"/>
<path d="M32.0254 13.2249V11.1046H39.311C39.3822 11.4741 39.4189 11.9112 39.4189 12.3844C39.4189 13.9752 38.9755 15.9423 37.5464 17.3439C36.1564 18.7634 34.3804 19.5205 32.0277 19.5205C27.6669 19.5205 24 16.037 24 11.7603C24 7.48355 27.6669 4 32.0277 4C34.4401 4 36.1587 4.92835 37.4499 6.13835L35.9243 7.63452C34.9984 6.78278 33.744 6.12032 32.0254 6.12032C28.841 6.12032 26.3504 8.63723 26.3504 11.7603C26.3504 14.8833 28.841 17.4002 32.0254 17.4002C34.0909 17.4002 35.2672 16.5868 36.0208 15.8477C36.632 15.2483 37.0341 14.3921 37.1926 13.2226L32.0254 13.2249Z" fill="#787879"/>
<path d="M91.262 19.2158V5.70312H95.4763C97.5802 5.70312 99.2702 6.32593 100.547 7.57133C101.823 8.81695 102.462 10.4465 102.462 12.4593C102.462 14.4853 101.823 16.1178 100.547 17.3569C99.2702 18.5963 97.5802 19.2158 95.4763 19.2158H91.262ZM93.0324 7.36388V17.555H95.4763C97.0799 17.555 98.3437 17.1054 99.2673 16.2056C100.191 15.3062 100.653 14.0575 100.653 12.4593C100.653 10.8741 100.191 9.6285 99.2673 8.7227C98.3437 7.81667 97.0799 7.36388 95.4763 7.36388H93.0324Z" fill="#787879"/>
<path d="M103.424 14.5936C103.424 13.172 103.879 11.9957 104.79 11.0644C105.714 10.1335 106.875 9.66797 108.273 9.66797C109.671 9.66797 110.826 10.1335 111.737 11.0644C112.661 11.9957 113.123 13.172 113.123 14.5936C113.123 16.028 112.661 17.2045 111.737 18.1228C110.826 19.054 109.671 19.5193 108.273 19.5193C106.875 19.5193 105.714 19.054 104.79 18.1228C103.879 17.1918 103.424 16.0155 103.424 14.5936ZM105.194 14.5936C105.194 15.5877 105.489 16.393 106.079 17.0093C106.669 17.6259 107.401 17.9341 108.273 17.9341C109.146 17.9341 109.877 17.6259 110.467 17.0093C111.057 16.393 111.352 15.5877 111.352 14.5936C111.352 13.6123 111.057 12.8134 110.467 12.1969C109.864 11.5678 109.133 11.2532 108.273 11.2532C107.414 11.2532 106.682 11.5678 106.079 12.1969C105.489 12.8134 105.194 13.6123 105.194 14.5936Z" fill="#787879"/>
<path d="M119.05 19.5193C117.651 19.5193 116.49 19.054 115.567 18.1228C114.656 17.1667 114.2 15.9901 114.2 14.5936C114.2 13.172 114.656 11.9957 115.567 11.0644C116.49 10.1335 117.651 9.66797 119.05 9.66797C120.012 9.66797 120.852 9.90372 121.571 10.3757C122.289 10.8474 122.828 11.4985 123.187 12.3288L121.571 12.9895C121.07 11.8321 120.191 11.2532 118.934 11.2532C118.126 11.2532 117.427 11.5741 116.837 12.2156C116.26 12.8573 115.971 13.6499 115.971 14.5936C115.971 15.5373 116.26 16.3299 116.837 16.9715C117.427 17.6132 118.126 17.9341 118.934 17.9341C120.23 17.9341 121.141 17.3554 121.667 16.1978L123.245 16.8583C122.898 17.6887 122.356 18.3399 121.619 18.8116C120.881 19.2833 120.025 19.5193 119.05 19.5193Z" fill="#787879"/>
<path d="M132 16.6508C132 17.4561 131.641 18.1355 130.923 18.689C130.204 19.2423 129.3 19.5193 128.209 19.5193C127.26 19.5193 126.426 19.2769 125.708 18.7926C124.989 18.3084 124.476 17.6698 124.168 16.8772L125.746 16.2167C125.977 16.7705 126.314 17.2012 126.756 17.5094C127.199 17.8178 127.683 17.9717 128.209 17.9717C128.774 17.9717 129.245 17.8523 129.624 17.6132C130.002 17.3743 130.191 17.0913 130.191 16.764C130.191 16.1726 129.729 15.7385 128.806 15.4618L127.189 15.0654C125.355 14.6126 124.437 13.7444 124.437 12.4609C124.437 11.6182 124.787 10.9417 125.486 10.4323C126.185 9.92266 127.08 9.66797 128.171 9.66797C129.005 9.66797 129.758 9.86317 130.432 10.2529C131.105 10.6431 131.577 11.1654 131.846 11.8194L130.268 12.4609C130.089 12.0712 129.797 11.7659 129.393 11.5458C128.989 11.3256 128.536 11.2153 128.036 11.2153C127.574 11.2153 127.161 11.3287 126.795 11.5551C126.429 11.7815 126.247 12.0585 126.247 12.3856C126.247 12.9139 126.753 13.2914 127.767 13.5178L129.191 13.8763C131.064 14.3294 132 15.2541 132 16.6508Z" fill="#787879"/>
<path d="M15.5146 24H1.48534C0.665008 24 0 23.3224 0 22.4865V1.51351C0 0.677622 0.665008 0 1.48534 0H10.4239L17 6.59459V22.4865C17 23.3224 16.335 24 15.5146 24C15.5146 24 15.5146 24 15.5146 24Z" fill="#5290F5"/>
<path d="M12.6497 12.082H4.00293V13.1631H12.6497V12.082Z" fill="#F1F1F1"/>
<path d="M12.6497 14.2422H4.00293V15.3233H12.6497V14.2422Z" fill="#F1F1F1"/>
<path d="M12.6497 16.4062H4.00293V17.4873H12.6497V16.4062Z" fill="#F1F1F1"/>
<path d="M10.5809 18.5684H4.00293V19.6494H10.5809V18.5684Z" fill="#F1F1F1"/>
<path d="M10.7382 5.99414L17 12.1602V6.59257L10.7382 5.99414Z" fill="url(#paint0_linear_4633_9645)"/>
<path d="M11.9334 6.59326H16.9994L10.4238 0.00195312V5.05504C10.4238 5.90458 11.0997 6.59326 11.9334 6.59326Z" fill="#A6C5FA"/>
</g>
<defs>
<linearGradient id="paint0_linear_4633_9645" x1="13.8691" y1="12.1602" x2="13.8691" y2="5.99414" gradientUnits="userSpaceOnUse">
<stop offset="0.00295" stop-color="#508DF5" stop-opacity="0"/>
<stop offset="1" stop-color="#336FD6"/>
</linearGradient>
<clipPath id="clip0_4633_9645">
<rect width="156" height="24" fill="white"/>
</clipPath>
</defs>
</svg>
