<svg width="145" height="24" viewBox="0 0 145 24" fill="none" xmlns="http://www.w3.org/2000/svg">
<path d="M16.9999 22.64C16.9996 23.0007 16.8582 23.3465 16.6066 23.6015C16.3551 23.8565 16.014 23.9999 15.6583 24.0002H1.34272C0.986976 24.0002 0.645775 23.8571 0.394028 23.6022C0.142281 23.3474 0.000566892 23.0017 4.26294e-07 22.6411V1.39838C-0.000140162 1.21957 0.0344941 1.0425 0.101922 0.877274C0.16935 0.712053 0.268248 0.561931 0.392959 0.435498C0.51767 0.309064 0.665746 0.208799 0.828715 0.140439C0.991685 0.0720795 1.16635 0.0369673 1.34272 0.0371098H10.5301L16.9999 6.7264V22.64Z" fill="#23A566"/>
<path d="M11.2422 6.55248L17 12.1319V6.68796H11.8996C11.677 6.69051 11.4575 6.6345 11.2625 6.52539L11.2422 6.55248Z" fill="#1C8F5A"/>
<path d="M16.9998 6.7153H11.8855C11.5297 6.71501 11.1886 6.57161 10.9371 6.31659C10.6855 6.06157 10.5441 5.71577 10.5438 5.35511V0L16.9998 6.7153Z" fill="#8ED1B1"/>
<path fill-rule="evenodd" clip-rule="evenodd" d="M12.9064 19.583H4.06006V11.8066H12.9064V19.583ZM9.03324 12.9284V14.2896H11.8192V12.9306L9.03324 12.9284ZM9.03324 15.1469V16.4475H11.8192V15.1404L9.03324 15.1469ZM9.03324 17.2766V18.4807H11.8192V17.2701L9.03324 17.2766ZM7.93961 18.4742V17.2701H5.15476V18.4742H7.93961ZM7.93961 16.4334V15.1404H5.15476V16.4399L7.93961 16.4334ZM7.93961 14.3037V12.9284H5.15476V14.2896L7.93961 14.3037Z" fill="white"/>
<path d="M48.6347 14.5257C48.6347 12.7277 47.2852 11.4985 45.7183 11.4985C44.1515 11.4985 42.8009 12.7277 42.8009 14.5257C42.8009 16.3055 44.1515 17.553 45.7183 17.553C47.2852 17.553 48.6347 16.3032 48.6347 14.5257ZM50.9058 14.5257C50.9058 17.4022 48.5766 19.5224 45.7172 19.5224C42.8589 19.5224 40.5297 17.4022 40.5297 14.5257C40.5297 11.6287 42.8589 9.52904 45.7183 9.52904C48.5766 9.52904 50.9058 11.6287 50.9058 14.5257ZM59.8255 14.5257C59.8255 12.7277 58.476 11.4985 56.9092 11.4985C55.3423 11.4985 53.9928 12.7277 53.9928 14.5257C53.9928 16.3055 55.3423 17.553 56.9092 17.553C58.476 17.553 59.8255 16.3032 59.8255 14.5257ZM62.0967 14.5257C62.0967 17.4022 59.7675 19.5224 56.9092 19.5224C54.0509 19.5224 51.7205 17.4022 51.7205 14.5257C51.7205 11.631 54.0509 9.52904 56.9092 9.52904C59.7675 9.52904 62.0978 11.6287 62.0978 14.5257H62.0967ZM70.8275 14.5429C70.8275 12.7836 69.6122 11.4973 68.067 11.4973C66.4991 11.4973 65.1871 12.7836 65.1871 14.5429C65.1871 16.285 66.4991 17.553 68.0659 17.553C69.6122 17.553 70.8275 16.285 70.8275 14.544V14.5429ZM72.8233 9.83062V18.8016C72.8233 22.4914 70.5703 23.9993 67.9077 23.9993C66.94 24.0152 65.9891 23.7443 65.1739 23.2205C64.3587 22.6967 63.7154 21.9432 63.3244 21.0543L65.3009 20.2592C65.6536 21.0726 66.5161 22.0322 67.9066 22.0322C69.61 22.0322 70.6659 21.0155 70.6659 19.1032V18.3835H70.5863C70.0788 18.9901 69.0991 19.5201 67.8633 19.5201C65.2781 19.5201 62.9091 17.3439 62.9091 14.544C62.9091 11.7224 65.2781 9.52904 67.8633 9.52904C69.0968 9.52904 70.0765 10.0579 70.5874 10.6463H70.667V9.8329H72.8233V9.83062ZM76.3791 4.57004H74.1637V19.2151H76.378L76.3791 4.57004ZM79.5844 14.3704L84.2064 12.5163C83.9527 11.8914 83.1869 11.4573 82.288 11.4573C81.1331 11.4573 79.5264 12.4421 79.5844 14.3704ZM85.0109 16.1673L86.7734 17.3028C86.2884 17.9957 85.6426 18.5594 84.8918 18.9454C84.141 19.3313 83.3078 19.5278 82.4644 19.5179C79.5264 19.5179 77.3326 17.3245 77.3326 14.5212C77.3326 11.5499 79.5458 9.52446 82.2106 9.52446C84.8937 9.52446 86.2068 11.5876 86.6369 12.7025L86.8713 13.2703L79.9577 16.0371C80.4868 17.0401 81.3106 17.5507 82.4644 17.5507C83.6216 17.5507 84.4226 17.0024 85.0109 16.1684V16.1673ZM32.1448 13.2234V11.1032H39.5386C39.6103 11.4722 39.6478 11.9097 39.6478 12.3827C39.6478 13.9728 39.1984 15.94 37.7476 17.3405C36.3367 18.7605 34.5343 19.5179 32.1471 19.5179C27.7208 19.5179 24 16.0336 24 11.7589C24 7.48421 27.7208 4 32.1471 4C34.5958 4 36.339 4.9276 37.6498 6.13736L36.1023 7.63386C35.1624 6.78165 33.8891 6.12022 32.1448 6.12022C28.9133 6.12022 26.3861 8.63571 26.3861 11.7589C26.3861 14.8821 28.9133 17.3976 32.1448 17.3976C34.2407 17.3976 35.4344 16.5843 36.199 15.8452C36.8203 15.2454 37.2276 14.3898 37.3892 13.2211L32.1448 13.2234ZM100.164 16.1387C100.164 17.296 99.7405 18.2258 98.8951 18.9273C98.036 19.6172 96.9948 19.9622 95.7682 19.9622C94.6759 19.9622 93.7144 19.6424 92.8803 19.0015C92.0463 18.3618 91.4694 17.4867 91.1508 16.3786L92.77 15.7149C92.8803 16.1079 93.0328 16.4655 93.2297 16.7853C93.4254 17.1052 93.6529 17.3828 93.9101 17.617C94.1798 17.8386 94.4745 18.0168 94.7931 18.1516C95.1117 18.275 95.4485 18.3366 95.8046 18.3366C96.5772 18.3366 97.2087 18.1402 97.6992 17.746C98.1896 17.3394 98.4354 16.8036 98.4354 16.1387C98.4354 15.5847 98.2328 15.1106 97.8277 14.7176C97.4477 14.3361 96.7365 13.966 95.6943 13.6096C94.6395 13.228 93.9841 12.9698 93.7258 12.8327C92.3285 12.1199 91.6287 11.0667 91.6287 9.67526C91.6287 8.7031 92.0156 7.87261 92.7882 7.18262C93.5733 6.49378 94.5359 6.14878 95.6761 6.14878C96.6819 6.14878 97.5524 6.40696 98.2874 6.92445C99.0236 7.42937 99.5141 8.06338 99.7598 8.82648L98.1782 9.49134C98.0291 8.99642 97.7175 8.56678 97.2941 8.27243C96.8651 7.94001 96.3383 7.77322 95.7125 7.77322C95.0502 7.77322 94.4927 7.95828 94.0398 8.32727C93.5847 8.67226 93.3571 9.12121 93.3571 9.67526C93.3571 10.1322 93.5357 10.5252 93.8919 10.8576C94.2845 11.1889 95.1367 11.5841 96.4487 12.0399C97.7845 12.4946 98.7358 13.0555 99.299 13.7192C99.8759 14.3727 100.164 15.1792 100.164 16.1387ZM101.907 6.44351H103.599V10.6177L103.525 11.8743H103.599C103.856 11.4299 104.249 11.0609 104.777 10.7662C105.288 10.4778 105.864 10.3249 106.45 10.3218C107.553 10.3218 108.4 10.6417 108.988 11.2814C109.589 11.9097 109.889 12.8088 109.889 13.9774V19.6664H108.197V14.311C108.197 12.6854 107.48 11.8732 106.045 11.8732C105.358 11.8732 104.777 12.1622 104.298 12.7414C103.834 13.3007 103.586 14.0085 103.599 14.7359V19.6664H101.907V6.44351ZM115.923 19.9622C114.599 19.9622 113.507 19.5053 112.648 18.5948C111.79 17.6844 111.361 16.5329 111.361 15.1415C111.361 13.7626 111.778 12.618 112.612 11.7075C113.446 10.7833 114.512 10.3218 115.813 10.3218C117.149 10.3218 118.21 10.7594 118.994 11.6333C119.792 12.4946 120.19 13.7078 120.19 15.2706L120.172 15.4556H113.09C113.115 16.3421 113.408 17.0561 113.973 17.5975C114.537 18.139 115.212 18.4109 115.996 18.4109C117.076 18.4109 117.921 17.8694 118.535 16.7853L120.043 17.5244C119.657 18.2681 119.071 18.8885 118.351 19.3157C117.639 19.7463 116.83 19.9622 115.923 19.9622ZM113.218 14.0528H118.388C118.37 13.7552 118.292 13.4644 118.16 13.1978C118.027 12.9312 117.842 12.6943 117.615 12.5015C117.161 12.0822 116.548 11.8732 115.775 11.8732C115.138 11.8732 114.586 12.0696 114.12 12.4638C113.667 12.8579 113.366 13.3879 113.218 14.0516V14.0528ZM125.875 19.9622C124.55 19.9622 123.458 19.5053 122.6 18.5948C121.742 17.6844 121.312 16.5329 121.312 15.1415C121.312 13.7626 121.73 12.618 122.564 11.7075C123.398 10.7833 124.464 10.3218 125.764 10.3218C127.1 10.3218 128.161 10.7594 128.946 11.6333C129.744 12.4946 130.142 13.7078 130.142 15.2706L130.124 15.4556H123.042C123.067 16.3421 123.36 17.0561 123.925 17.5975C124.489 18.139 125.163 18.4109 125.948 18.4109C127.028 18.4109 127.873 17.8694 128.486 16.7853L129.995 17.5244C129.608 18.2684 129.022 18.8889 128.302 19.3157C127.591 19.7463 126.782 19.9622 125.875 19.9622ZM123.17 14.0528H128.339C128.322 13.7552 128.244 13.4644 128.111 13.1978C127.978 12.9312 127.793 12.6943 127.567 12.5015C127.113 12.0822 126.5 11.8732 125.727 11.8732C125.09 11.8732 124.538 12.0696 124.071 12.4638C123.618 12.8579 123.317 13.3879 123.17 14.0516V14.0528ZM134.988 19.8137C134.253 19.8137 133.64 19.5853 133.149 19.1306C132.67 18.6748 132.426 18.0408 132.413 17.2286V12.1679H130.831V10.6177H132.413V7.84748H134.105V10.6177H136.312V12.169H134.105V16.6745C134.105 17.2777 134.222 17.6912 134.455 17.9117C134.688 18.1207 134.952 18.2258 135.246 18.2258C135.381 18.2258 135.509 18.2144 135.632 18.1893C135.767 18.1516 135.889 18.1093 136 18.0602L136.533 19.5738C136.092 19.7338 135.577 19.8137 134.988 19.8137ZM145 17.1543C145 17.9425 144.656 18.6074 143.97 19.1489C143.283 19.6903 142.418 19.9622 141.376 19.9622C140.469 19.9622 139.671 19.728 138.985 19.2597C138.313 18.799 137.799 18.1411 137.514 17.3759L139.022 16.7305C139.242 17.272 139.561 17.6969 139.979 18.0042C140.408 18.3001 140.873 18.4475 141.376 18.4475C141.916 18.4475 142.364 18.3309 142.719 18.0968C143.087 17.8626 143.27 17.5861 143.27 17.2651C143.27 16.6871 142.829 16.2621 141.946 15.9914L140.402 15.603C138.647 15.1609 137.771 14.311 137.771 13.0555C137.771 12.2307 138.102 11.5716 138.765 11.0792C139.439 10.5743 140.297 10.3218 141.34 10.3218C142.136 10.3218 142.854 10.5126 143.491 10.8942C144.142 11.2757 144.595 11.7875 144.853 12.4272L143.344 13.0555C143.171 12.6719 142.872 12.3592 142.498 12.169C142.106 11.9444 141.662 11.8296 141.211 11.8366C140.769 11.8366 140.371 11.9474 140.015 12.1679C139.671 12.3907 139.5 12.6614 139.5 12.9813C139.5 13.4987 139.984 13.8677 140.954 14.0893L142.315 14.4401C144.105 14.8833 145 15.788 145 17.1543Z" fill="#787879"/>
</svg>
