<svg width="168" height="24" viewBox="0 0 168 24" fill="none" xmlns="http://www.w3.org/2000/svg">
<path d="M18.3158 5.6842H5.6842V18.3158H18.3158V5.6842Z" fill="white"/>
<path d="M8.27524 15.4832C7.80311 15.1642 7.47629 14.6984 7.29785 14.0826L8.39364 13.631C8.49314 14.01 8.66682 14.3037 8.91469 14.5121C9.16101 14.7205 9.46101 14.8232 9.81154 14.8232C10.17 14.8232 10.4779 14.7142 10.7352 14.4963C10.9926 14.2784 11.1221 14.0005 11.1221 13.6642C11.1221 13.32 10.9863 13.0389 10.7147 12.8211C10.4431 12.6032 10.1021 12.4942 9.69469 12.4942H9.06156V11.4095H9.62998C9.9805 11.4095 10.2757 11.3147 10.5157 11.1253C10.7557 10.9358 10.8757 10.6768 10.8757 10.3468C10.8757 10.0531 10.7684 9.81945 10.5536 9.64421C10.3389 9.46892 10.0673 9.3805 9.73735 9.3805C9.41524 9.3805 9.15945 9.46577 8.96998 9.63789C8.78063 9.81044 8.63827 10.0283 8.55629 10.271L7.47154 9.81945C7.61524 9.41208 7.8789 9.05208 8.26577 8.74105C8.65259 8.42998 9.14682 8.27368 9.74682 8.27368C10.1905 8.27368 10.59 8.35894 10.9437 8.53103C11.2973 8.70316 11.5752 8.94156 11.7757 9.24471C11.9763 9.54947 12.0757 9.89052 12.0757 10.2695C12.0757 10.6563 11.9826 10.9832 11.7963 11.2516C11.61 11.52 11.381 11.7253 11.1094 11.8689V11.9337C11.4601 12.0782 11.7647 12.3157 11.9905 12.6205C12.2195 12.9284 12.3347 13.2963 12.3347 13.7258C12.3347 14.1552 12.2258 14.5389 12.0079 14.8752C11.79 15.2116 11.4884 15.4768 11.1063 15.6695C10.7226 15.8621 10.2915 15.96 9.81314 15.96C9.2589 15.9616 8.74732 15.8021 8.27524 15.4832ZM15.0063 10.0453L13.8031 10.9152L13.2016 10.0026L15.36 8.44577H16.1873V15.7895H15.0063V10.0453Z" fill="#4285F4"/>
<path d="M18.3158 18.3158H5.6842V24H18.3158V18.3158Z" fill="#34A853"/>
<path d="M18.3158 0H1.89474C0.847895 0 0 0.847895 0 1.89474V18.3158H5.68421V5.68421H18.3158V0Z" fill="#4285F4"/>
<path d="M0 18.3158V22.1053C0 23.1521 0.847895 24 1.89474 24H5.68421V18.3158H0Z" fill="#188038"/>
<path d="M24 5.6842H18.3158V18.3158H24V5.6842Z" fill="#FBBC04"/>
<path d="M24 5.68421V1.89474C24 0.847895 23.1521 0 22.1053 0H18.3158V5.68421H24Z" fill="#1967D2"/>
<path d="M18.3158 24L24 18.3158H18.3158V24Z" fill="#EA4335"/>
<path d="M53.8117 13.5251C53.8117 11.727 52.5067 10.4967 50.9921 10.4967C49.4776 10.4967 48.1726 11.727 48.1726 13.5251C48.1726 15.3052 49.4776 16.5535 50.9921 16.5535C52.5067 16.5535 53.8117 15.3029 53.8117 13.5251ZM56.0069 13.5251C56.0069 16.4025 53.7553 18.5228 50.9921 18.5228C48.229 18.5228 45.9774 16.4025 45.9774 13.5251C45.9774 10.6274 48.229 8.52734 50.9921 8.52734C53.7553 8.52734 56.0069 10.6274 56.0069 13.5251Z" fill="#5F6368"/>
<path d="M64.6298 13.5251C64.6298 11.727 63.3248 10.4967 61.8103 10.4967C60.2957 10.4967 58.9907 11.727 58.9907 13.5251C58.9907 15.3052 60.2957 16.5535 61.8103 16.5535C63.3248 16.5535 64.6298 15.3029 64.6298 13.5251ZM66.825 13.5251C66.825 16.4025 64.5734 18.5228 61.8103 18.5228C59.0471 18.5228 56.7955 16.4025 56.7955 13.5251C56.7955 10.6296 59.0471 8.52734 61.8103 8.52734C64.5734 8.52734 66.825 10.6274 66.825 13.5251Z" fill="#5F6368"/>
<path d="M75.2628 13.5431C75.2628 11.7833 74.0886 10.4967 72.5943 10.4967C71.0798 10.4967 69.8109 11.7833 69.8109 13.5431C69.8109 15.2849 71.0798 16.5535 72.5943 16.5535C74.0886 16.5535 75.2628 15.2849 75.2628 13.5431ZM77.1921 8.82928V17.8018C77.1921 21.4926 75.0149 23.0001 72.4411 23.0001C70.0182 23.0001 68.56 21.38 68.0101 20.0551L69.9213 19.2597C70.2616 20.0731 71.0955 21.033 72.4388 21.033C74.0864 21.033 75.1073 20.0168 75.1073 18.1037V17.3849H75.0307C74.5394 17.9911 73.5928 18.5206 72.3982 18.5206C69.8988 18.5206 67.6089 16.3439 67.6089 13.5431C67.6089 10.722 69.8988 8.52734 72.3982 8.52734C73.5905 8.52734 74.5371 9.05686 75.0307 9.64497H75.1073V8.83154H77.1921V8.82928Z" fill="#5F6368"/>
<path d="M80.6293 3.56836H78.4886V18.2146H80.6293V3.56836Z" fill="#5F6368"/>
<path d="M83.7285 13.3722L88.1955 11.5177C87.9499 10.8936 87.2106 10.4587 86.3406 10.4587C85.225 10.4587 83.6721 11.4434 83.7285 13.3722ZM88.9731 15.1703L90.677 16.3059C90.127 17.1194 88.8018 18.5209 86.5119 18.5209C83.6721 18.5209 81.5513 16.3262 81.5513 13.5231C81.5513 10.5511 83.6901 8.52539 86.2663 8.52539C88.8604 8.52539 90.1293 10.5894 90.544 11.7048L90.7716 12.2726L84.0891 15.0396C84.6007 16.0423 85.3963 16.5538 86.5119 16.5538C87.6298 16.5538 88.4051 16.004 88.9731 15.1703Z" fill="#5F6368"/>
<path d="M37.8726 12.2249V10.1045H45.0194C45.0892 10.4741 45.1253 10.9112 45.1253 11.3844C45.1253 12.9752 44.6903 14.9423 43.2885 16.3438C41.9249 17.7634 40.1827 18.5205 37.8748 18.5205C33.5971 18.5205 30 15.037 30 10.7603C30 6.48355 33.5971 3 37.8748 3C40.2413 3 41.9272 3.92835 43.1938 5.13835L41.6973 6.63452C40.789 5.78279 39.5584 5.12033 37.8726 5.12033C34.7488 5.12033 32.3056 7.63723 32.3056 10.7603C32.3056 13.8833 34.7488 16.4002 37.8726 16.4002C39.8987 16.4002 41.0527 15.5868 41.7919 14.8477C42.3914 14.2483 42.7859 13.3921 42.9414 12.2226L37.8726 12.2249Z" fill="#5F6368"/>
<path d="M102.577 18.2964C100.613 18.2964 98.9705 17.6357 97.649 16.3143C96.34 14.9928 95.6854 13.3441 95.6854 11.3682C95.6854 9.39222 96.34 7.7497 97.649 6.44062C98.9581 5.10684 100.601 4.43996 102.577 4.43996C104.577 4.43996 106.201 5.16242 107.449 6.60734L106.226 7.79292C105.275 6.64439 104.059 6.07013 102.577 6.07013C101.107 6.07013 99.8782 6.56412 98.8902 7.5521C97.9146 8.52773 97.4267 9.79976 97.4267 11.3682C97.4267 12.9366 97.9146 14.2086 98.8902 15.1843C99.8782 16.1722 101.107 16.6662 102.577 16.6662C104.12 16.6662 105.46 16.0179 106.596 14.7211L107.838 15.9252C107.208 16.6786 106.436 17.2652 105.522 17.6851C104.608 18.0926 103.626 18.2964 102.577 18.2964Z" fill="#5F6368"/>
<path d="M110.412 15.2213C110.412 15.6659 110.597 16.0364 110.968 16.3328C111.351 16.6292 111.795 16.7774 112.302 16.7774C113.018 16.7774 113.654 16.5119 114.21 15.9808C114.778 15.4498 115.062 14.8261 115.062 14.1098C114.531 13.6899 113.79 13.48 112.839 13.48C112.147 13.48 111.567 13.6467 111.098 13.9802C110.641 14.3136 110.412 14.7273 110.412 15.2213ZM112.617 8.62653C113.876 8.62653 114.871 8.96615 115.599 9.64538C116.328 10.3123 116.692 11.2323 116.692 12.4056V18H115.062V16.7403H114.988C114.284 17.7777 113.345 18.2964 112.172 18.2964C111.172 18.2964 110.332 18 109.653 17.4072C108.986 16.8144 108.652 16.0734 108.652 15.1843C108.652 14.2457 109.004 13.4985 109.708 12.9428C110.425 12.387 111.376 12.1092 112.561 12.1092C113.574 12.1092 114.407 12.2944 115.062 12.6649V12.2759C115.062 11.6831 114.827 11.1829 114.358 10.7754C113.889 10.3555 113.339 10.1456 112.709 10.1456C111.758 10.1456 111.005 10.5469 110.449 11.3497L108.949 10.4049C109.776 9.21932 110.999 8.62653 112.617 8.62653Z" fill="#5F6368"/>
<path d="M120.319 4.73635V18H118.614V4.73635H120.319Z" fill="#5F6368"/>
<path d="M126.38 18.2964C125.046 18.2964 123.947 17.8395 123.083 16.9256C122.218 16.0117 121.786 14.857 121.786 13.4615C121.786 12.0783 122.206 10.9298 123.046 10.0159C123.886 9.08965 124.96 8.62653 126.269 8.62653C127.615 8.62653 128.683 9.06495 129.474 9.94178C130.277 10.8063 130.678 12.0227 130.678 13.5911L130.659 13.7764H123.527C123.552 14.6656 123.848 15.3819 124.417 15.9252C124.985 16.4686 125.664 16.7403 126.454 16.7403C127.541 16.7403 128.393 16.1969 129.011 15.1102L130.53 15.8511C130.122 16.6168 129.554 17.2158 128.825 17.648C128.109 18.0803 127.294 18.2964 126.38 18.2964ZM123.657 12.3685H128.863C128.813 11.7387 128.554 11.22 128.084 10.8124C127.628 10.3925 127.01 10.1826 126.232 10.1826C125.59 10.1826 125.034 10.3802 124.565 10.7754C124.108 11.1706 123.805 11.7016 123.657 12.3685Z" fill="#5F6368"/>
<path d="M132.236 8.92292H133.867V10.1826H133.941C134.2 9.73801 134.595 9.36752 135.126 9.07112C135.67 8.77473 136.232 8.62653 136.812 8.62653C137.924 8.62653 138.776 8.94762 139.368 9.58981C139.974 10.2196 140.276 11.1212 140.276 12.2944V18H138.572V12.4056C138.535 10.9236 137.788 10.1826 136.33 10.1826C135.651 10.1826 135.083 10.4605 134.626 11.0162C134.169 11.5596 133.941 12.2141 133.941 12.9798V18H132.236V8.92292Z" fill="#5F6368"/>
<path d="M146.352 16.7403C147.192 16.7403 147.877 16.4378 148.408 15.8326C148.964 15.2275 149.242 14.4371 149.242 13.4615C149.242 12.5105 148.964 11.7263 148.408 11.1088C147.865 10.4913 147.18 10.1826 146.352 10.1826C145.537 10.1826 144.852 10.4913 144.296 11.1088C143.74 11.7263 143.462 12.5105 143.462 13.4615C143.462 14.4247 143.74 15.209 144.296 15.8141C144.852 16.4316 145.537 16.7403 146.352 16.7403ZM146.074 18.2964C144.889 18.2964 143.87 17.8271 143.018 16.8885C142.178 15.9376 141.758 14.7952 141.758 13.4615C141.758 12.1277 142.178 10.9853 143.018 10.0344C143.87 9.09582 144.889 8.62653 146.074 8.62653C146.741 8.62653 147.346 8.76855 147.89 9.0526C148.445 9.33664 148.871 9.71331 149.168 10.1826H149.242L149.168 8.92292V4.73635H150.872V18H149.242V16.7403H149.168C148.871 17.2096 148.445 17.5863 147.89 17.8703C147.346 18.1544 146.741 18.2964 146.074 18.2964Z" fill="#5F6368"/>
<path d="M154.101 15.2213C154.101 15.6659 154.286 16.0364 154.656 16.3328C155.039 16.6292 155.484 16.7774 155.99 16.7774C156.707 16.7774 157.343 16.5119 157.898 15.9808C158.466 15.4498 158.75 14.8261 158.75 14.1098C158.219 13.6899 157.478 13.48 156.527 13.48C155.836 13.48 155.255 13.6467 154.786 13.9802C154.329 14.3136 154.101 14.7273 154.101 15.2213ZM156.305 8.62653C157.565 8.62653 158.559 8.96615 159.288 9.64538C160.016 10.3123 160.381 11.2323 160.381 12.4056V18H158.75V16.7403H158.676C157.972 17.7777 157.034 18.2964 155.861 18.2964C154.86 18.2964 154.02 18 153.341 17.4072C152.674 16.8144 152.341 16.0734 152.341 15.1843C152.341 14.2457 152.693 13.4985 153.397 12.9428C154.113 12.387 155.064 12.1092 156.25 12.1092C157.262 12.1092 158.096 12.2944 158.75 12.6649V12.2759C158.75 11.6831 158.516 11.1829 158.047 10.7754C157.577 10.3555 157.028 10.1456 156.398 10.1456C155.447 10.1456 154.694 10.5469 154.138 11.3497L152.637 10.4049C153.465 9.21932 154.687 8.62653 156.305 8.62653Z" fill="#5F6368"/>
<path d="M164.007 18H162.303V8.92292H163.933V10.4049H164.007C164.18 9.92325 164.532 9.51571 165.063 9.18227C165.606 8.83648 166.137 8.66358 166.656 8.66358C167.15 8.66358 167.57 8.73768 167.916 8.88587L167.397 10.5346C167.187 10.4481 166.854 10.4049 166.397 10.4049C165.755 10.4049 165.193 10.6642 164.711 11.1829C164.242 11.7016 164.007 12.3068 164.007 12.9983V18Z" fill="#5F6368"/>
</svg>
