<svg width="57" height="57" viewBox="0 0 57 57" fill="none" xmlns="http://www.w3.org/2000/svg">
<path d="M43.5 13.5H13.5V43.5H43.5V13.5Z" fill="white"/>
<path d="M19.6538 36.7725C18.5325 36.015 17.7563 34.9087 17.3325 33.4462L19.935 32.3737C20.1713 33.2737 20.5838 33.9712 21.1725 34.4662C21.7575 34.9612 22.47 35.205 23.3025 35.205C24.1538 35.205 24.885 34.9462 25.4963 34.4287C26.1075 33.9112 26.415 33.2512 26.415 32.4525C26.415 31.635 26.0925 30.9675 25.4475 30.45C24.8025 29.9325 23.9925 29.6737 23.025 29.6737H21.5213V27.0975H22.8713C23.7038 27.0975 24.405 26.8725 24.975 26.4225C25.545 25.9725 25.83 25.3575 25.83 24.5737C25.83 23.8762 25.575 23.3212 25.065 22.905C24.555 22.4887 23.91 22.2787 23.1263 22.2787C22.3613 22.2787 21.7538 22.4812 21.3038 22.89C20.8541 23.2998 20.516 23.8173 20.3213 24.3937L17.745 23.3212C18.0863 22.3537 18.7125 21.4987 19.6313 20.76C20.55 20.0212 21.7238 19.65 23.1488 19.65C24.2025 19.65 25.1513 19.8525 25.9913 20.2612C26.8313 20.67 27.4913 21.2362 27.9675 21.9562C28.4438 22.68 28.68 23.49 28.68 24.39C28.68 25.3087 28.4588 26.085 28.0163 26.7225C27.5738 27.36 27.03 27.8475 26.385 28.1887V28.3425C27.2179 28.6858 27.9413 29.2498 28.4775 29.9737C29.0213 30.705 29.295 31.5787 29.295 32.5987C29.295 33.6187 29.0363 34.53 28.5188 35.3287C28.0013 36.1275 27.285 36.7575 26.3775 37.215C25.4663 37.6725 24.4425 37.905 23.3063 37.905C21.99 37.9087 20.775 37.53 19.6538 36.7725ZM35.64 23.8575L32.7825 25.9237L31.3538 23.7562L36.48 20.0587H38.445V37.5H35.64V23.8575Z" fill="#4285F4"/>
<path d="M43.5 43.5H13.5V57H43.5V43.5Z" fill="#34A853"/>
<path d="M43.5 0H4.5C2.01375 0 0 2.01375 0 4.5V43.5H13.5V13.5H43.5V0Z" fill="#4285F4"/>
<path d="M0 43.5V52.5C0 54.9862 2.01375 57 4.5 57H13.5V43.5H0Z" fill="#188038"/>
<path d="M57 13.5H43.5V43.5H57V13.5Z" fill="#FBBC04"/>
<path d="M57 13.5V4.5C57 2.01375 54.9862 0 52.5 0H43.5V13.5H57Z" fill="#1967D2"/>
<path d="M43.5 57L57 43.5H43.5V57Z" fill="#EA4335"/>
</svg>
