<svg width="42" height="57" viewBox="0 0 42 57" fill="none" xmlns="http://www.w3.org/2000/svg">
<path d="M14.25 42.75H0V53.1136C0 55.2609 1.73915 57 3.88636 57H14.25V42.75Z" fill="#00832D"/>
<path d="M14.25 0H3.88636C1.73915 0 0 1.73915 0 3.88636V42.75H14.25V14.25H27.2045V0H14.25Z" fill="#FFBA00"/>
<path d="M41.4546 42.75H27.2046V57H37.5682C39.7154 57 41.4546 55.2609 41.4546 53.1136V42.75Z" fill="#0066DA"/>
<path d="M27.2045 42.75H14.25V57H27.2045V42.75Z" fill="#00AC47"/>
<path d="M27.2046 14.25V42.75H41.4546V14.25H27.2046Z" fill="#2684FC"/>
<path d="M27.2046 0V14.25H41.4546L27.2046 0Z" fill="#EA4335"/>
<path d="M27.2045 14.25H14.25V42.75H27.2045V14.25Z" fill="white"/>
</svg>
