<svg width="24" height="24" viewBox="0 0 24 24" fill="none" xmlns="http://www.w3.org/2000/svg">
<path d="M6.45306 12.2734H16.5468V14.1825H6.45306V12.2734Z" fill="white"/>
<path d="M6.45306 15.5449H13.8906V17.454H6.45306V15.5449Z" fill="white"/>
<path d="M14.1564 6L17.3612 6.62182L20.0001 6L14.1564 0L13.3502 2.84455L14.1564 6Z" fill="#1967D2"/>
<path d="M6.45306 9H16.5468V10.9091H6.45306V9Z" fill="white"/>
<path d="M14.1562 6V0H4.59375C3.7132 0 3 0.732273 3 1.63636V22.3636C3 23.2677 3.7132 24 4.59375 24H18.4062C19.2868 24 20 23.2677 20 22.3636V6H14.1562ZM13.625 17.1818H6.71875V15.8182H13.625V17.1818ZM16.2812 13.9091H6.71875V12.5455H16.2812V13.9091ZM16.2812 10.6364H6.71875V9.27273H16.2812V10.6364Z" fill="#4285F4"/>
</svg>
