<svg version="1.0" id="Layer_1" xmlns="http://www.w3.org/2000/svg" xmlns:xlink="http://www.w3.org/1999/xlink" x="0px" y="0px" viewBox="0 0 580 113" enable-background="new 0 0 580 113" xml:space="preserve"><g><g><g><path fill="#787879" d="M218.91896,66.41925c0-7.88028-5.71764-13.27205-12.35367-13.27205c-6.63602,0-12.35367,5.39177-12.35367,13.27205c0,7.80128,5.71765,13.27205,12.35367,13.27205C213.20132,79.6913,218.91896,74.21065,218.91896,66.41925z M228.53725,66.41925c0,12.61042-9.86516,21.90282-21.97195,21.90282c-12.10678,0-21.97194-9.2924-21.97194-21.90282c0-12.6993,9.86516-21.90282,21.97194-21.90282C218.67209,44.51643,228.53725,53.71996,228.53725,66.41925z"/><path fill="#787879" d="M266.31912,66.41925c0-7.88028-5.71765-13.27205-12.35367-13.27205s-12.35365,5.39177-12.35365,13.27205c0,7.80128,5.71764,13.27205,12.35365,13.27205S266.31912,74.21065,266.31912,66.41925z M275.93741,66.41925c0,12.61042-9.86517,21.90282-21.97195,21.90282s-21.97194-9.2924-21.97194-21.90282c0-12.68941,9.86516-21.90282,21.97194-21.90282S275.93741,53.71996,275.93741,66.41925z"/><path fill="#787879" d="M312.90955,66.49825c0-7.71239-5.1449-13.35104-11.69205-13.35104c-6.63602,0-12.19568,5.63865-12.19568,13.35104c0,7.63341,5.55966,13.19305,12.19568,13.19305C307.76465,79.6913,312.90955,74.13165,312.90955,66.49825z M321.36255,45.83968v39.32239c0,16.17531-9.53928,22.78171-20.81656,22.78171c-10.61566,0-17.00482-7.10015-19.41431-12.90668l8.37402-3.48589c1.49112,3.5649,5.1449,7.77166,11.03043,7.77166c7.21863,0,11.69202-4.45364,11.69202-12.83754v-3.15014h-0.33575c-2.15274,2.65639-6.30026,4.97702-11.53403,4.97702c-10.95142,0-20.98447-9.53928-20.98447-21.81395c0-12.36354,10.03305-21.98183,20.98447-21.98183c5.22391,0,9.3714,2.32064,11.53403,4.89802h0.33575v-3.56488h9.1344V45.83968z"/><rect x="327.04071" y="22.79135" fill="#787879" width="9.38128" height="64.18772"/><path fill="#787879" d="M350.00015,65.74775l19.57233-8.12716c-1.07635-2.73538-4.3154-4.64127-8.12717-4.64127C356.55719,52.97933,349.7533,57.29472,350.00015,65.74775z M372.97934,73.62802l7.46555,4.97702c-2.40948,3.56489-8.216,9.70716-18.24905,9.70716c-12.44254,0-21.73495-9.61829-21.73495-21.90283c0-13.02517,9.3714-21.90282,20.65857-21.90282c11.36615,0,16.92581,9.04553,18.7428,13.93367l0.99741,2.48851l-29.27948,12.12654c2.24164,4.39439,5.72751,6.63602,10.61566,6.63602C367.09384,79.6913,370.49084,77.28178,372.97934,73.62802z"/><path fill="#787879" d="M149.08273,60.72136v-9.29241h31.31372c0.30612,1.61951,0.46413,3.53527,0.46413,5.60902c0,6.97178-1.90587,15.59268-8.04814,21.73495c-5.9744,6.22128-13.6078,9.53929-23.71983,9.53929c-18.74281-0.00001-34.50337-15.26682-34.50337-34.00963s15.76056-34.00961,34.50337-34.00961c10.36877,0,17.75531,4.06851,23.30508,9.3714l-6.55704,6.55702c-3.97963-3.73276-9.3714-6.63602-16.75792-6.63602c-13.6868,0-24.39133,11.03042-24.39133,24.71721s10.70454,24.71721,24.39133,24.71721c8.87766,0,13.93367-3.56488,17.17268-6.80389c2.62675-2.62676,4.35489-6.37927,5.03625-11.50441L149.08273,60.72136z"/></g><g><path fill="#787879" d="M403.68304,86.97968V27.75995h18.11328c9.04297,0,16.30664,2.72949,21.79395,8.1875c5.48633,5.45898,8.22949,12.60059,8.22949,21.42188c0,8.87891-2.74316,16.0332-8.22949,21.46387c-5.4873,5.43164-12.75098,8.14648-21.79395,8.14648H403.68304z M411.29242,35.03827v44.66309h10.50391c6.89258,0,12.32422-1.9707,16.29395-5.91406c3.96973-3.94141,5.95508-9.41406,5.95508-16.41797c0-6.94727-1.98535-12.40625-5.95508-16.37598c-3.96973-3.9707-9.40137-5.95508-16.29395-5.95508H411.29242z"/><path fill="#787879" d="M455.95453,66.716c0-6.23047,1.95703-11.38574,5.87305-15.4668c3.96973-4.08008,8.95996-6.12012,14.96973-6.12012s10.97266,2.04004,14.88867,6.12012c3.96973,4.08105,5.95508,9.23633,5.95508,15.4668c0,6.28613-1.98535,11.44238-5.95508,15.4668c-3.91602,4.08105-8.87891,6.12012-14.88867,6.12012s-11-2.03906-14.96973-6.12012C457.91156,78.10272,455.95453,72.94745,455.95453,66.716z M463.5639,66.716c0,4.35645,1.26855,7.88574,3.80469,10.58691c2.53613,2.70215,5.67871,4.05273,9.42871,4.05273s6.89258-1.35059,9.42969-4.05273c2.53516-2.70117,3.80469-6.23047,3.80469-10.58691c0-4.30078-1.26953-7.80176-3.80469-10.50391c-2.59277-2.75684-5.73535-4.13574-9.42969-4.13574s-6.83691,1.37891-9.42871,4.13574C464.83246,58.91425,463.5639,62.41522,463.5639,66.716z"/><path fill="#787879" d="M523.11469,88.30292c-6.00977,0-11-2.03906-14.96973-6.12012c-3.91602-4.19043-5.87305-9.34668-5.87305-15.4668c0-6.23047,1.95703-11.38574,5.87305-15.4668c3.96973-4.08008,8.95996-6.12012,14.96973-6.12012c4.13574,0,7.74707,1.0332,10.83496,3.10156c3.08789,2.06738,5.40332,4.9209,6.94824,8.55957l-6.94824,2.89551c-2.15039-5.07227-5.92773-7.60938-11.33105-7.60938c-3.47363,0-6.47949,1.40625-9.01465,4.21777c-2.48145,2.8125-3.72266,6.28613-3.72266,10.42188s1.24121,7.60938,3.72266,10.4209c2.53516,2.8125,5.54102,4.21875,9.01465,4.21875c5.56934,0,9.4834-2.53613,11.74512-7.60938l6.78223,2.89453c-1.48926,3.63965-3.81934,6.49316-6.98926,8.56055C530.98578,87.26874,527.30511,88.30292,523.11469,88.30292z"/><path fill="#787879" d="M578.77679,75.73163c0,3.5293-1.54395,6.50684-4.63184,8.93262c-3.08789,2.4248-6.97559,3.63867-11.66113,3.63867c-4.08203,0-7.66504-1.0625-10.75293-3.18457c-3.08887-2.12207-5.29297-4.9209-6.61621-8.39453l6.78223-2.89453c0.99219,2.42676,2.43945,4.31445,4.3418,5.66504c1.90234,1.35156,3.9834,2.02637,6.24512,2.02637c2.4248,0,4.45117-0.52344,6.0791-1.57129c1.625-1.04688,2.43945-2.28711,2.43945-3.72168c0-2.5918-1.98535-4.49414-5.95508-5.70703l-6.94727-1.7373c-7.88574-1.98438-11.82812-5.78906-11.82812-11.41406c0-3.69336,1.50195-6.6582,4.50781-8.89062c3.00488-2.2334,6.85059-3.34961,11.53809-3.34961c3.58398,0,6.82324,0.85547,9.71875,2.56348c2.89453,1.70996,4.9209,3.99902,6.0791,6.86523l-6.78223,2.81152c-0.77246-1.70801-2.02637-3.0459-3.76367-4.01074c-1.73633-0.96484-3.68066-1.44824-5.83105-1.44824c-1.98438,0-3.7627,0.49707-5.33496,1.48926c-1.57129,0.99219-2.35645,2.20605-2.35645,3.63965c0,2.31543,2.17773,3.96973,6.53418,4.96191l6.12012,1.57129C574.7514,65.5578,578.77679,69.61053,578.77679,75.73163z"/></g></g><g><g id="Layer_1_2_"><path fill="#5290F5" d="M74.26634,111.94453H8.21622c-3.86213,0-6.993-3.13087-6.993-6.993V8.04847c0-3.86213,3.13087-6.993,6.993-6.993l0,0h42.08291l30.96023,30.46951v73.42654c0,3.86213-3.13087,6.993-6.993,6.993C74.26636,111.94453,74.26635,111.94453,74.26634,111.94453z"/><rect x="20.07057" y="56.87463" fill="#F1F1F1" width="40.70927" height="4.99501"/><rect x="20.07057" y="66.86463" fill="#F1F1F1" width="40.70927" height="4.99501"/><rect x="20.07057" y="76.85464" fill="#F1F1F1" width="40.70927" height="4.99501"/><rect x="20.07057" y="86.84464" fill="#F1F1F1" width="30.96902" height="4.99501"/><linearGradient id="SVGID_1_" gradientUnits="userSpaceOnUse" x1="66.51898" y1="57.24623" x2="66.51898" y2="28.75683"><stop offset="0.00295" style="stop-color:#508DF5;stop-opacity:0"/><stop offset="1" style="stop-color:#336FD6"/></linearGradient><polygon fill="url(#SVGID_1_)" points="51.77847,28.75683 81.25951,57.24623 81.25951,31.52179 "/><path fill="#A6C5FA" d="M57.40627,31.52205h23.85078L50.29913,1.06771v23.34718C50.29912,28.34006,53.4811,31.52204,57.40627,31.52205z"/></g></g></g></svg>
