<svg version="1.0" id="Layer_1" xmlns="http://www.w3.org/2000/svg" xmlns:xlink="http://www.w3.org/1999/xlink" x="0px" y="0px" viewBox="0 0 621 105" enable-background="new 0 0 621 105" xml:space="preserve"><g><g><g>><path fill="#787879" d="M255.64484,62.10832c0-7.88028-5.71764-13.27205-12.35367-13.27205c-6.63602,0-12.35367,5.39177-12.35367,13.27205c0,7.80127,5.71765,13.27205,12.35367,13.27205C249.9272,75.38036,255.64484,69.89972,255.64484,62.10832z M265.26312,62.10832c0,12.61042-9.86516,21.90282-21.97195,21.90282c-12.10678,0-21.97194-9.2924-21.97194-21.90282c0-12.6993,9.86516-21.90283,21.97194-21.90283C255.39796,40.20549,265.26312,49.40902,265.26312,62.10832z"/><path fill="#787879" d="M303.04498,62.10832c0-7.88028-5.71762-13.27205-12.35364-13.27205c-6.63605,0-12.35367,5.39177-12.35367,13.27205c0,7.80127,5.71762,13.27205,12.35367,13.27205C297.32736,75.38036,303.04498,69.89972,303.04498,62.10832z M312.66327,62.10832c0,12.61042-9.86514,21.90282-21.97192,21.90282c-12.10681,0-21.97195-9.2924-21.97195-21.90282c0-12.68942,9.86514-21.90283,21.97195-21.90283C302.79813,40.20549,312.66327,49.40902,312.66327,62.10832z"/><path fill="#787879" d="M349.63541,62.18731c0-7.7124-5.1449-13.35104-11.69202-13.35104c-6.63605,0-12.19568,5.63864-12.19568,13.35104c0,7.6334,5.55963,13.19305,12.19568,13.19305C344.49051,75.38036,349.63541,69.82072,349.63541,62.18731z M358.08844,41.52874v39.32238c0,16.17531-9.53928,22.78171-20.81659,22.78171c-10.61563,0-17.00479-7.10015-19.41431-12.90667l8.37405-3.48589c1.49112,3.5649,5.14487,7.77167,11.0304,7.77167c7.21866,0,11.69205-4.45364,11.69205-12.83755v-3.15013h-0.33575c-2.15277,2.65638-6.30026,4.97701-11.53406,4.97701c-10.95139,0-20.98444-9.53928-20.98444-21.81395c0-12.36354,10.03305-21.98183,20.98444-21.98183c5.22391,0,9.37143,2.32064,11.53406,4.89802h0.33575v-3.56488h9.1344V41.52874z"/><rect x="363.76657" y="18.48042" fill="#787879" width="9.38128" height="64.18772"/><path fill="#787879" d="M386.72604,61.43681l19.57233-8.12715c-1.07639-2.73539-4.3154-4.64127-8.12717-4.64127C393.28305,48.6684,386.47916,52.98378,386.72604,61.43681z M409.70523,69.31709l7.46552,4.97701c-2.40948,3.56489-8.216,9.70716-18.24902,9.70716c-12.44257,0-21.73499-9.61829-21.73499-21.90283c0-13.02517,9.37143-21.90282,20.65857-21.90282c11.36618,0,16.92581,9.04554,18.74283,13.93367l0.99738,2.48851l-29.27945,12.12654c2.24161,4.39439,5.72751,6.63602,10.61566,6.63602C403.8197,75.38036,407.21674,72.97086,409.70523,69.31709z"/><path fill="#787879" d="M185.80861,56.41042v-9.29241h31.31372c0.30612,1.6195,0.46413,3.53526,0.46413,5.60902c0,6.97178-1.90587,15.59267-8.04814,21.73495c-5.9744,6.22128-13.6078,9.53929-23.71983,9.53929c-18.74281-0.00001-34.50337-15.26681-34.50337-34.00962s15.76056-34.00961,34.50337-34.00961c10.36877,0,17.75531,4.06851,23.30508,9.37141l-6.55704,6.55702c-3.97963-3.73276-9.3714-6.63602-16.75792-6.63602c-13.6868,0-24.39134,11.03042-24.39134,24.71721s10.70454,24.71721,24.39134,24.71721c8.87766,0,13.93367-3.56488,17.17268-6.80389c2.62675-2.62676,4.35489-6.37927,5.03625-11.50441L185.80861,56.41042z"/></g><g><path fill="#787879" d="M440.40891,82.66842V23.44869h18.11328c9.04297,0,16.30664,2.72949,21.79395,8.1875c5.48633,5.45899,8.22949,12.60059,8.22949,21.42188c0,8.87891-2.74316,16.0332-8.22949,21.46386c-5.4873,5.43164-12.75098,8.14648-21.79395,8.14648H440.40891z M448.01828,30.72701V75.3901h10.50391c6.89258,0,12.32422-1.9707,16.29395-5.91406c3.96973-3.94141,5.95508-9.41406,5.95508-16.41796c0-6.94727-1.98535-12.40625-5.95508-16.37598c-3.96973-3.9707-9.40137-5.95508-16.29395-5.95508H448.01828z"/><path fill="#787879" d="M502.19406,82.66842h-7.60938V42.14108h7.27832v6.61621h0.33105c0.77148-2.15039,2.35742-3.98242,4.75586-5.5c2.39844-1.51562,4.75586-2.27441,7.07132-2.27441c2.20508,0,4.08008,0.33105,5.62402,0.99219l-2.31543,7.36133c-0.93848-0.38477-2.42676-0.5791-4.4668-0.5791c-2.86722,0-5.36331,1.1582-7.48441,3.47363c-2.12402,2.31641-3.18457,5.01855-3.18457,8.10547V82.66842z"/><path fill="#787879" d="M534.44995,28.16256c0,1.48926-0.52539,2.75781-1.57227,3.80469c-1.04785,1.04785-2.31543,1.57129-3.80469,1.57129c-1.48828,0-2.75781-0.52344-3.80469-1.57129c-1.04785-1.04688-1.57129-2.31543-1.57129-3.80469c0-1.48828,0.52344-2.75586,1.57129-3.80469c1.04688-1.04688,2.31641-1.57129,3.80469-1.57129c1.48926,0,2.75684,0.52441,3.80469,1.57129C533.92456,25.4067,534.44995,26.67428,534.44995,28.16256z M532.87769,42.14108v40.52734h-7.60938V42.14108H532.87769z"/><path fill="#787879" d="M562.48706,82.66842h-7.60938l-16.37598-40.52734h8.27051l11.91016,31.42968h0.16602l12.0752-31.42968h8.10547L562.48706,82.66842z"/><path fill="#787879" d="M600.94604,83.99166c-5.95508,0-10.86328-2.03906-14.72266-6.12012c-3.86035-4.08008-5.79004-9.23535-5.79004-15.46679c0-6.1748,1.87402-11.31738,5.625-15.42578c3.74902-4.10645,8.5459-6.16113,14.3916-6.16113c6.00879,0,10.79297,1.94336,14.34961,5.83008c3.55664,3.8877,5.33496,9.33398,5.33496,16.33594l-0.08301,0.82715h-31.84277c0.10938,3.96972,1.43262,7.16796,3.96973,9.59375c2.53613,2.42676,5.56836,3.63965,9.09766,3.63965c4.85156,0,8.65625-2.42578,11.41406-7.27832l6.78223,3.30762c-1.81934,3.41992-4.3418,6.09375-7.56738,8.02344S605.02612,83.99166,600.94604,83.99166z M588.78784,57.52487h23.24121c-0.22168-2.8125-1.36523-5.14062-3.43262-6.98926c-2.06738-1.84668-4.83887-2.77051-8.3125-2.77051c-2.86719,0-5.33496,0.88281-7.40234,2.64648C590.81421,52.17721,589.44897,54.54733,588.78784,57.52487z"/></g></g><g><g id="_0ba25eff_1_"><path fill="#00A15E" d="M39.55789,1.05311l0.10241-0.00233l0.00931,0.11405L39.53927,1.1695L39.55789,1.05311z"/><path fill="#00A15E" d="M39.15986,1.81658c0.09078-0.13035,0.26768-0.39104,0.35846-0.52139l0.16293-0.0256c0.12104,1.47572,0.55398,2.89791,0.87985,4.33407c1.40124,6.24041,2.81645,12.47616,4.28984,18.69795c0.96597,4.26657,2.04367,8.51219,2.92817,12.79505c0.76812,2.65118,1.18011,5.38616,1.92263,8.042c0.47949,2.47661,1.23132,4.8927,1.63401,7.38327c-0.16293,0.27234-0.32587,0.547-0.49113,0.81933c-0.03957,0.06284-0.12336,0.19319-0.16293,0.25837l-0.06052,0.10475c-0.00931,0.01862-0.03026,0.05819-0.0419,0.07681c-0.09078,0.16759-0.27233,0.50044-0.36311,0.6657c-0.0163,0.03026-0.05121,0.09078-0.06983,0.12104l-0.16526,0.29329c-0.02095,0.03491-0.06052,0.10242-0.07914,0.13733l-0.19319,0.33751c-0.00931,0.01862-0.03026,0.05586-0.0419,0.07449l-0.23975,0.41897c-0.02095,0.03491-0.06285,0.1094-0.0838,0.14664c-0.02328,0.03957-0.06983,0.11638-0.09311,0.15596l-0.23509,0.40501c-0.01862,0.03026-0.05587,0.09544-0.07449,0.12569l-0.14431,0.2444c-0.02328,0.0419-0.07449,0.12802-0.09776,0.16992c-0.09311,0.16061-0.27699,0.48182-0.37009,0.64475c-0.0163,0.02793-0.05121,0.08612-0.0675,0.11638l-0.14664,0.2444c-0.02328,0.04422-0.07449,0.12802-0.10009,0.17224c-0.08612,0.1513-0.26302,0.45156-0.34914,0.60286c-0.02095,0.03491-0.06052,0.10707-0.08147,0.14198l-0.17457,0.31423c-0.0163,0.02793-0.04888,0.08612-0.06517,0.11405l-0.17923,0.31424l-0.07449,0.13035c-0.09311,0.15362-0.27466,0.4632-0.36544,0.61915c-0.02095,0.03491-0.06285,0.10707-0.0838,0.14431L46.47564,60.934c-0.01629,0.02793-0.04655,0.08147-0.06052,0.1094l-0.19087,0.33053c-0.0163,0.03026-0.05121,0.08845-0.0675,0.11638c-0.09776,0.16759-0.29095,0.50044-0.38871,0.66803c-0.0163,0.03026-0.05354,0.09078-0.07215,0.12104l-0.13966,0.23043c-0.02328,0.04189-0.07216,0.12336-0.09544,0.16526c-0.08845,0.15362-0.26302,0.45855-0.35147,0.61217c-0.01397,0.0256-0.04655,0.08147-0.06052,0.10707l-0.19087,0.33983c-0.01397,0.0256-0.04189,0.07449-0.05586,0.10009l-0.19552,0.34216c-0.0163,0.0256-0.04888,0.08147-0.06517,0.10707c-0.09078,0.15363-0.27466,0.45621-0.36544,0.60984c-0.0256,0.03957-0.07215,0.12337-0.09776,0.16526l-0.13733,0.25604c-0.01862,0.03259-0.05353,0.09776-0.06983,0.12802l-0.23975,0.41431c-0.01862,0.03492-0.06052,0.10475-0.07914,0.13966c-0.02095,0.03259-0.05819,0.10009-0.07681,0.13268c-0.39337,0.66338-0.7495,1.34771-1.18477,1.98548c-2.47894,4.04311-4.76003,8.21191-7.15982,12.30392c-3.89647,6.74317-7.79139,13.48635-11.68476,20.22953c-0.58424,1.04977-1.24994,2.05531-1.75271,3.15163l-0.10242,0.14897c-0.93338-1.34535-1.65495-2.83039-2.5092-4.22697c-3.89647-6.74783-7.79294-13.49566-11.68942-20.2435c-2.16471-3.79638-4.42019-7.54621-6.52671-11.37751c8.34227-14.39646,16.66669-28.80456,24.97326-43.2243c0.00698-0.01396,0.02328-0.03957,0.03026-0.05353l0.22811-0.39104c0.00931-0.01629,0.02793-0.04888,0.03957-0.06517l0.23044-0.39337c0.02095-0.03491,0.06285-0.1094,0.08612-0.14431c0.02328-0.0419,0.06983-0.12337,0.09311-0.16526l0.23044-0.40966l0.06517-0.11172l0.17225-0.27466c0.03026-0.04423,0.09078-0.135,0.12104-0.18156c0.0838-0.12569,0.25371-0.3794,0.33984-0.5051c0.00931-0.0419,0.0256-0.12336,0.03491-0.16293l0.20251-0.38872l0.03724-0.06517l0.23277-0.39104c0.02328-0.03724,0.06983-0.11638,0.09311-0.15595c0.0256-0.04423,0.07681-0.135,0.10474-0.18155l0.19552-0.34216c0.02095-0.03724,0.06285-0.1094,0.0838-0.14431l0.16293-0.2863c0.01862-0.03026,0.05586-0.09543,0.07449-0.12802c0.09078-0.15595,0.27233-0.46786,0.36544-0.62381l0.07449-0.13035l0.16992-0.30958c0.01397-0.02328,0.0419-0.07448,0.05586-0.09776l0.22345-0.39104c0.02793-0.04655,0.08612-0.14199,0.11638-0.18854l0.1513-0.22811c0.03259-0.04655,0.09543-0.13733,0.12802-0.18155c0.02793-0.04655,0.08612-0.13966,0.11638-0.18621l0.12569-0.24207c0.0419-0.09078,0.12802-0.27233,0.16992-0.36311l0.12802-0.17923c0.02328-0.03259,0.0675-0.09543,0.09078-0.12802c0.08612-0.07216,0.26069-0.22113,0.34682-0.29561l-0.01629-0.27233c0.01397-0.03259,0.04655-0.09776,0.06285-0.13035l0.19785-0.39337c0.01629-0.02793,0.04888-0.08612,0.06517-0.11405l0.17457-0.28397c0.03259-0.04655,0.09543-0.13966,0.12802-0.18621c0.07914-0.13035,0.23975-0.38639,0.31889-0.51441c0.02328-0.04655,0.06517-0.13733,0.08845-0.18388l0.12337-0.26768c0.03724-0.06983,0.11638-0.21182,0.15595-0.28397l0.15363-0.2188l0.13034-0.1769c0.02793-0.04655,0.08612-0.13966,0.11406-0.18621l0.11406-0.23975c0.0256-0.05354,0.07914-0.16293,0.10474-0.21647l0.20018-0.38639c0.03026-0.04655,0.08845-0.14431,0.11638-0.1932l0.15363-0.22811c0.03259-0.04655,0.09776-0.135,0.13035-0.18156c0.03026-0.04655,0.08845-0.14199,0.11638-0.18854l0.11871-0.24207c0.03491-0.0675,0.10242-0.20018,0.135-0.26768l0.15828-0.2607c0.02793-0.04423,0.08379-0.13268,0.11406-0.1769c0.08379-0.13035,0.25371-0.39104,0.33984-0.51906c0.00931-0.03957,0.03026-0.11871,0.03957-0.15828l0.2025-0.38639c0.00698-0.01629,0.0256-0.04655,0.03491-0.06285l0.23277-0.39803c0.02328-0.03957,0.0675-0.11638,0.09078-0.15595c0.02328-0.03724,0.0675-0.11638,0.09078-0.15363l0.23276-0.40734c0.00931-0.01629,0.02793-0.04888,0.03724-0.0675l0.2188-0.3794c0.01532-0.02243,0.02931-0.04575,0.0419-0.06983l0.23509-0.3957c0.02095-0.03724,0.06285-0.10707,0.08379-0.14431c0.02328-0.03957,0.06983-0.12104,0.09311-0.16294l0.22345-0.39337c0.01397-0.0256,0.0419-0.07448,0.05587-0.09776l0.18854-0.30492c0.03026-0.04422,0.09078-0.135,0.11871-0.17923c0.08612-0.12802,0.25371-0.38406,0.33984-0.51208c0.00698-0.03957,0.0256-0.11871,0.03491-0.15828l0.19785-0.37941c0.01629-0.02793,0.05121-0.08612,0.0675-0.11638l0.1769-0.27699c0.03259-0.04422,0.0931-0.135,0.12569-0.18156c0.08147-0.13035,0.2444-0.38872,0.32587-0.51906c0.01164-0.03724,0.03259-0.11173,0.04423-0.14897l0.20483-0.38406c0.00931-0.01862,0.02793-0.05121,0.03724-0.06983l0.23742-0.40035c0.01862-0.03492,0.06052-0.10474,0.08147-0.13966c0.02095-0.03957,0.06285-0.11405,0.08379-0.1513l0.23277-0.41432c0.01164-0.01629,0.03026-0.05121,0.03957-0.0675l0.22112-0.37475C39.13659,1.85382,39.15288,1.82822,39.15986,1.81658z"/></g><g id="_fccd48ff_1_"><path fill="#FBCD48" d="M98.83757,35.61599c0.08997-0.40002,0.08002-0.78998,0.04999-1.19C98.92754,34.82601,98.92754,35.21597,98.83757,35.61599z"/></g><g id="_089156ff_1_"><path fill="#039056" d="M39.53927,1.1695l0.13035-0.00466l0.01164,0.10474l-0.16293,0.0256L39.53927,1.1695z"/><path fill="#00A15E" d="M39.68126,1.26958c0.46782,0.66035,0.89159,1.35083,1.26856,2.06695c6.46852,11.19363,12.93082,22.38958,19.38693,33.58787c-2.98869,5.20461-5.98902,10.40378-9.00099,15.59752c-0.40268-2.49057-1.15451-4.90667-1.63401-7.38328c-0.74252-2.65584-1.15451-5.39082-1.92263-8.042c-0.88451-4.28286-1.9622-8.52848-2.92817-12.79505c-1.4734-6.22178-2.8886-12.45754-4.28984-18.69794C40.23523,4.1675,39.80229,2.74531,39.68126,1.26958z"/><path fill="#039056" d="M39.1296,1.86546c0.00698-0.01164,0.02328-0.03724,0.03026-0.04888C39.15288,1.82822,39.13659,1.85382,39.1296,1.86546z"/><path fill="#039056" d="M38.86891,2.30771c0.01164-0.01629,0.03026-0.05121,0.03957-0.0675C38.89917,2.2565,38.88055,2.29142,38.86891,2.30771z"/><path fill="#039056" d="M38.55235,2.87333c0.02095-0.03957,0.06285-0.11405,0.08379-0.1513C38.6152,2.75927,38.5733,2.83376,38.55235,2.87333z"/><path fill="#039056" d="M38.47088,3.01299c0.01862-0.03492,0.06052-0.10474,0.08147-0.13966C38.5314,2.90824,38.4895,2.97807,38.47088,3.01299z"/><path fill="#039056" d="M38.19622,3.48317c0.00931-0.01862,0.02793-0.05121,0.03725-0.06983C38.22415,3.43196,38.20553,3.46455,38.19622,3.48317z"/><path fill="#039056" d="M37.94716,4.0162c0.01164-0.03724,0.03259-0.11173,0.04423-0.14897C37.97975,3.90447,37.9588,3.97896,37.94716,4.0162z"/><path fill="#039056" d="M37.62129,4.53527c0.08147-0.13035,0.2444-0.38872,0.32587-0.51906C37.86569,4.14655,37.70276,4.40492,37.62129,4.53527z"/><path fill="#039056" d="M37.4956,4.71682c0.03259-0.04422,0.09311-0.135,0.12569-0.18156C37.5887,4.58182,37.52819,4.6726,37.4956,4.71682z"/><path fill="#039056" d="M37.2512,5.11019c0.01629-0.02793,0.05121-0.08612,0.0675-0.11638C37.30241,5.02407,37.26749,5.08226,37.2512,5.11019z"/><path fill="#039056" d="M37.01843,5.64788c0.00698-0.03957,0.0256-0.11871,0.03491-0.15828C37.04404,5.52917,37.02541,5.60831,37.01843,5.64788z"/><path fill="#039056" d="M36.6786,6.15996c0.08612-0.12802,0.25371-0.38406,0.33984-0.51208C36.93231,5.7759,36.76472,6.03194,36.6786,6.15996z"/><path fill="#039056" d="M36.55989,6.33919c0.03026-0.04422,0.09078-0.135,0.11871-0.17923C36.65067,6.20418,36.59015,6.29496,36.55989,6.33919z"/><path fill="#039056" d="M36.31548,6.74187c0.01397-0.0256,0.0419-0.07448,0.05587-0.09776C36.35738,6.66739,36.32945,6.71627,36.31548,6.74187z"/><path fill="#039056" d="M35.99893,7.29818c0.02328-0.03957,0.06983-0.12104,0.09311-0.16294C36.06876,7.17714,36.0222,7.25861,35.99893,7.29818z"/><path fill="#039056" d="M35.91513,7.44249c0.02095-0.03724,0.06285-0.10707,0.08379-0.14431C35.97798,7.33542,35.93608,7.40525,35.91513,7.44249z"/><path fill="#039056" d="M35.63814,7.90802c0.01532-0.02243,0.02931-0.04575,0.0419-0.06983C35.66745,7.86227,35.65347,7.88558,35.63814,7.90802z"/><path fill="#039056" d="M35.3821,8.35493c0.00931-0.01629,0.02793-0.04888,0.03724-0.0675C35.41003,8.30604,35.39141,8.33863,35.3821,8.35493z"/><path fill="#039056" d="M35.05856,8.91589c0.02328-0.03724,0.0675-0.11638,0.09078-0.15363C35.12606,8.7995,35.08184,8.87864,35.05856,8.91589z"/><path fill="#039056" d="M34.96778,9.07184c0.02328-0.03957,0.0675-0.11638,0.09078-0.15595C35.03528,8.95546,34.99106,9.03227,34.96778,9.07184z"/><path fill="#039056" d="M34.7001,9.53271c0.00698-0.01629,0.0256-0.04655,0.03491-0.06285C34.72571,9.48616,34.70708,9.51642,34.7001,9.53271z"/><path fill="#039056" d="M34.45803,10.07738c0.00931-0.03957,0.03026-0.11871,0.03957-0.15828C34.48829,9.95867,34.46734,10.03781,34.45803,10.07738z"/><path fill="#039056" d="M34.11819,10.59644c0.08379-0.13035,0.25371-0.39104,0.33984-0.51906C34.37191,10.2054,34.20199,10.4661,34.11819,10.59644z"/><path fill="#039056" d="M34.00414,10.77334c0.02793-0.04423,0.08379-0.13268,0.11406-0.1769C34.08793,10.64067,34.03207,10.72912,34.00414,10.77334z"/><path fill="#039056" d="M33.71086,11.30172c0.03491-0.0675,0.10242-0.20018,0.135-0.26768C33.81327,11.10154,33.74577,11.23422,33.71086,11.30172z"/><path fill="#039056" d="M33.47576,11.73233c0.03026-0.04655,0.08845-0.14199,0.11638-0.18854C33.56421,11.59035,33.50602,11.68578,33.47576,11.73233z"/><path fill="#039056" d="M33.34541,11.91389c0.03259-0.04655,0.09776-0.135,0.13035-0.18156C33.44318,11.77889,33.378,11.86734,33.34541,11.91389z"/><path fill="#039056" d="M33.07541,12.33519c0.03026-0.04655,0.08845-0.14431,0.11638-0.19319C33.16386,12.19088,33.10567,12.28864,33.07541,12.33519z"/><path fill="#039056" d="M32.77049,12.93805c0.0256-0.05354,0.07914-0.16293,0.10474-0.21647C32.84962,12.77512,32.79609,12.88451,32.77049,12.93805z"/><path fill="#039056" d="M32.54238,13.36401c0.02793-0.04655,0.08612-0.13966,0.11406-0.18621C32.6285,13.22435,32.57031,13.31746,32.54238,13.36401z"/><path fill="#039056" d="M32.41203,13.54091l0.13034-0.1769L32.41203,13.54091z"/><path fill="#039056" d="M32.10246,14.04368c0.03724-0.06983,0.11638-0.21182,0.15595-0.28397C32.21884,13.83187,32.1397,13.97385,32.10246,14.04368z"/><path fill="#039056" d="M31.89064,14.49524c0.02328-0.04655,0.06517-0.13733,0.08845-0.18388C31.95581,14.35791,31.91392,14.44869,31.89064,14.49524z"/><path fill="#039056" d="M31.57175,15.00965c0.07914-0.13035,0.23975-0.38639,0.31889-0.51441C31.8115,14.62326,31.65089,14.8793,31.57175,15.00965z"/><path fill="#039056" d="M31.44373,15.19586c0.03259-0.04655,0.09543-0.13966,0.12802-0.18621C31.53917,15.0562,31.47632,15.14931,31.44373,15.19586z"/><path fill="#039056" d="M31.20399,15.59389c0.01629-0.02793,0.04888-0.08612,0.06517-0.11405C31.25286,15.50777,31.22028,15.56596,31.20399,15.59389z"/><path fill="#039056" d="M30.94329,16.11761c0.01397-0.03259,0.04655-0.09776,0.06285-0.13035C30.98984,16.01985,30.95726,16.08502,30.94329,16.11761z"/><path fill="#039056" d="M30.61276,16.68555c0.08147-0.14199,0.24673-0.42596,0.33052-0.56795l0.01629,0.27233C30.87346,16.46443,30.69889,16.6134,30.61276,16.68555z"/><path fill="#039056" d="M30.52198,16.81357c0.02328-0.03259,0.0675-0.09543,0.09078-0.12802C30.58949,16.71814,30.54526,16.78099,30.52198,16.81357z"/><path fill="#039056" d="M30.22405,17.35591c0.0419-0.09078,0.12802-0.27233,0.16992-0.36311C30.35207,17.08358,30.26595,17.26514,30.22405,17.35591z"/><path fill="#039056" d="M29.98197,17.7842c0.02793-0.04655,0.08612-0.13966,0.11638-0.18621C30.06809,17.64454,30.0099,17.73765,29.98197,17.7842z"/><path fill="#039056" d="M29.85395,17.96576c0.03259-0.04655,0.09543-0.13733,0.12802-0.18156C29.94939,17.82842,29.88654,17.9192,29.85395,17.96576z"/><path fill="#039056" d="M29.58627,18.3824c0.02793-0.04655,0.08612-0.14198,0.11638-0.18854C29.6724,18.24042,29.61421,18.33585,29.58627,18.3824z"/><path fill="#039056" d="M29.30696,18.87121c0.01397-0.02328,0.0419-0.07448,0.05586-0.09776C29.34885,18.79672,29.32092,18.84793,29.30696,18.87121z"/><path fill="#039056" d="M29.06255,19.31113l0.07449-0.13035L29.06255,19.31113z"/><path fill="#039056" d="M28.62263,20.06296c0.01862-0.03026,0.05586-0.09543,0.07449-0.12802C28.6785,19.96753,28.64125,20.0327,28.62263,20.06296z"/><path fill="#039056" d="M28.3759,20.49358c0.02095-0.03724,0.06285-0.1094,0.0838-0.14432C28.43875,20.38418,28.39685,20.45633,28.3759,20.49358z"/><path fill="#039056" d="M28.07563,21.01729c0.0256-0.04423,0.07681-0.135,0.10474-0.18155C28.15245,20.88229,28.10124,20.97307,28.07563,21.01729z"/><path fill="#039056" d="M27.98253,21.17325c0.02328-0.03724,0.06983-0.11638,0.09311-0.15595C28.05236,21.05686,28.00581,21.136,27.98253,21.17325z"/><path fill="#039056" d="M27.71252,21.62946l0.03724-0.06517L27.71252,21.62946z"/><path fill="#039056" d="M27.4751,22.18112c0.00931-0.0419,0.0256-0.12337,0.03491-0.16294C27.50071,22.05775,27.48441,22.13922,27.4751,22.18112z"/><path fill="#039056" d="M27.13527,22.68621c0.0838-0.12569,0.25371-0.3794,0.33984-0.5051C27.38898,22.30681,27.21906,22.56052,27.13527,22.68621z"/><path fill="#039056" d="M27.01423,22.86777c0.03026-0.04423,0.09078-0.135,0.12104-0.18156C27.10501,22.73277,27.04449,22.82355,27.01423,22.86777z"/><path fill="#039056" d="M26.77681,23.25416l0.06517-0.11172L26.77681,23.25416z"/><path fill="#039056" d="M26.45327,23.82908c0.02328-0.0419,0.06983-0.12337,0.09311-0.16526C26.5231,23.70572,26.47655,23.78719,26.45327,23.82908z"/><path fill="#039056" d="M26.36715,23.9734c0.02095-0.03491,0.06285-0.1094,0.08612-0.14431C26.42999,23.864,26.38809,23.93848,26.36715,23.9734z"/><path fill="#039056" d="M26.09714,24.43194c0.00931-0.01629,0.02793-0.04888,0.03957-0.06517C26.12507,24.38306,26.10645,24.41565,26.09714,24.43194z"/><path fill="#039056" d="M25.83877,24.87652c0.00698-0.01396,0.02328-0.03957,0.03026-0.05353C25.86205,24.83695,25.84575,24.86256,25.83877,24.87652z"/><path fill="#039056" d="M50.68169,53.59962c0.03957-0.06517,0.12336-0.19552,0.16293-0.25837C50.80505,53.4041,50.72126,53.53445,50.68169,53.59962z"/><path fill="#039056" d="M50.57927,53.78117c0.01164-0.01862,0.03259-0.05819,0.0419-0.07681C50.61186,53.72298,50.59091,53.76255,50.57927,53.78117z"/><path fill="#039056" d="M50.14633,54.56792c0.01862-0.03026,0.05354-0.09078,0.06983-0.12104C50.19987,54.47714,50.16495,54.53766,50.14633,54.56792z"/><path fill="#039056" d="M49.90193,54.99853c0.01862-0.03491,0.05819-0.10242,0.07914-0.13733C49.96012,54.89612,49.92055,54.96362,49.90193,54.99853z"/><path fill="#039056" d="M49.66684,55.41053c0.01164-0.01862,0.03259-0.05586,0.0419-0.07449C49.69942,55.35466,49.67847,55.3919,49.66684,55.41053z"/><path fill="#039056" d="M49.34329,55.97614c0.02095-0.03724,0.06285-0.11173,0.0838-0.14664C49.40614,55.86441,49.36424,55.9389,49.34329,55.97614z"/><path fill="#039056" d="M49.25019,56.1321c0.02328-0.03957,0.06983-0.11638,0.09311-0.15596C49.32002,56.01571,49.27347,56.09252,49.25019,56.1321z"/><path fill="#039056" d="M48.94061,56.6628c0.01862-0.03026,0.05586-0.09543,0.07449-0.12569C48.99648,56.56736,48.95923,56.63254,48.94061,56.6628z"/><path fill="#039056" d="M48.69854,57.07712c0.02328-0.0419,0.07449-0.12802,0.09776-0.16992C48.77302,56.94909,48.72181,57.03521,48.69854,57.07712z"/><path fill="#039056" d="M48.26094,57.83825c0.0163-0.03026,0.05121-0.08845,0.0675-0.11638C48.31215,57.7498,48.27724,57.80799,48.26094,57.83825z"/><path fill="#039056" d="M48.01421,58.2549c0.0256-0.04422,0.07681-0.12802,0.10009-0.17224C48.09102,58.12688,48.03981,58.21068,48.01421,58.2549z"/><path fill="#039056" d="M47.5836,58.99974c0.02095-0.03491,0.06052-0.10707,0.08147-0.14198C47.64412,58.89267,47.60455,58.96483,47.5836,58.99974z"/><path fill="#039056" d="M47.34385,59.42804c0.0163-0.02793,0.04888-0.08612,0.06517-0.11405C47.39273,59.34191,47.36015,59.4001,47.34385,59.42804z"/><path fill="#039056" d="M47.09014,59.87261l0.07449-0.13035L47.09014,59.87261z"/><path fill="#039056" d="M46.6409,60.63607c0.02095-0.03724,0.06285-0.1094,0.0838-0.14431C46.70375,60.52668,46.66185,60.59884,46.6409,60.63607z"/><path fill="#039056" d="M46.41512,61.04341c0.01397-0.02793,0.04423-0.08147,0.06052-0.1094C46.45935,60.96195,46.42909,61.01548,46.41512,61.04341z"/><path fill="#039056" d="M46.15675,61.49032c0.0163-0.02793,0.05121-0.08612,0.0675-0.11638C46.20796,61.4042,46.17305,61.46239,46.15675,61.49032z"/><path fill="#039056" d="M45.69588,62.2794c0.01862-0.03026,0.05586-0.09078,0.07215-0.12103C45.75174,62.18861,45.7145,62.24914,45.69588,62.2794z"/><path fill="#039056" d="M45.46079,62.67509c0.02328-0.0419,0.07215-0.12336,0.09544-0.16526C45.53294,62.55173,45.48407,62.63319,45.46079,62.67509z"/><path fill="#039056" d="M45.04879,63.39433c0.01397-0.0256,0.04655-0.08147,0.06052-0.10707C45.09535,63.31286,45.06276,63.36873,45.04879,63.39433z"/><path fill="#039056" d="M44.80207,63.83426c0.01397-0.0256,0.04189-0.07449,0.05586-0.10009C44.84396,63.75977,44.81603,63.80865,44.80207,63.83426z"/><path fill="#039056" d="M44.54137,64.28349c0.0163-0.0256,0.04888-0.08147,0.06517-0.10707C44.59025,64.20203,44.55766,64.25789,44.54137,64.28349z"/><path fill="#039056" d="M44.07817,65.05859c0.0256-0.04189,0.07215-0.12569,0.09776-0.16526C44.15033,64.93291,44.10378,65.0167,44.07817,65.05859z"/><path fill="#039056" d="M43.87101,65.44266c0.0163-0.03026,0.05121-0.09543,0.06983-0.12801C43.92222,65.34723,43.88731,65.4124,43.87101,65.44266z"/><path fill="#039056" d="M43.55212,65.99664c0.01862-0.03491,0.06052-0.10475,0.07914-0.13966C43.61264,65.89189,43.57074,65.96172,43.55212,65.99664z"/><path fill="#039056" d="M43.47531,66.12931c0.01862-0.03259,0.05586-0.10009,0.07681-0.13268C43.53117,66.02922,43.49393,66.09673,43.47531,66.12931z"/></g><g id="_10985bff_1_"><path fill="#0D975B" d="M81.49966,1.77701c0.01862,0.03026,0.05354,0.09543,0.07216,0.12802C81.55319,1.87244,81.51828,1.80727,81.49966,1.77701z"/><path fill="#0D975B" d="M83.38971,5.06597c0.01163,0.01862,0.03026,0.05354,0.04189,0.06983C83.41996,5.1195,83.40134,5.08459,83.38971,5.06597z"/><path fill="#0D975B" d="M86.88349,11.12016c0.00932,0.01629,0.03027,0.04888,0.03957,0.0675C86.91376,11.16904,86.89281,11.13646,86.88349,11.12016z"/><path fill="#0D975B" d="M87.55618,12.25838c0.01862,0.03026,0.05354,0.09311,0.07216,0.12569C87.60972,12.35149,87.57481,12.28864,87.55618,12.25838z"/><path fill="#0D975B" d="M88.50819,13.91566c0.01456,0.02168,0.02777,0.04422,0.03957,0.0675C88.53596,13.95988,88.52274,13.93734,88.50819,13.91566z"/><path fill="#0D975B" d="M89.4276,15.51475c0.01862,0.03026,0.05354,0.09078,0.07216,0.12104C89.48114,15.60553,89.44623,15.54501,89.4276,15.51475z"/><path fill="#0D975B" d="M90.36565,17.13944c0.01862,0.03026,0.05354,0.09311,0.07216,0.12337C90.41918,17.23255,90.38427,17.1697,90.36565,17.13944z"/></g><g id="_f9c941ff_1_"><path fill="#FBCD48" d="M98.83757,35.61599c0.08997-0.40002,0.08002-0.78998,0.04999-1.19C98.92754,34.82601,98.92754,35.21597,98.83757,35.61599z"/><path fill="#F9C940" d="M119.55427,67.92625l0.12104,0.00465l0.0675,0.1769l-0.13734,0.00932L119.55427,67.92625z"/></g><g id="_e3b73aff_1_"><path fill="#E1B63A" d="M60.76503,37.64597c0.01862,0.03026,0.05586,0.0931,0.07449,0.12569C60.82089,37.73907,60.78365,37.67622,60.76503,37.64597z"/><path fill="#E1B63A" d="M61.19564,38.39314c0.0163,0.02793,0.04656,0.08147,0.06285,0.1094C61.2422,38.4746,61.21194,38.42107,61.19564,38.39314z"/><path fill="#E1B63A" d="M61.44936,38.8447c0.01163,0.01862,0.03259,0.05819,0.04422,0.07681C61.48194,38.90289,61.46099,38.86332,61.44936,38.8447z"/><path fill="#E1B63A" d="M61.72867,39.33118c0.02095,0.03491,0.06052,0.10474,0.08147,0.13966C61.78919,39.43592,61.74963,39.36609,61.72867,39.33118z"/><path fill="#E1B63A" d="M61.81014,39.47083c0.02095,0.03957,0.06517,0.11406,0.08845,0.15129C61.87531,39.58489,61.83109,39.51041,61.81014,39.47083z"/><path fill="#E1B63A" d="M62.11972,40.00154c0.01163,0.02095,0.03724,0.06285,0.04888,0.08379C62.15696,40.06438,62.13136,40.02249,62.11972,40.00154z"/><path fill="#E1B63A" d="M62.62714,40.87906c0.02095,0.03724,0.06052,0.1094,0.08147,0.14431C62.68766,40.98846,62.64809,40.9163,62.62714,40.87906z"/><path fill="#E1B63A" d="M63.06707,41.6402c0.02095,0.03491,0.06052,0.10009,0.07914,0.13268C63.12759,41.74028,63.08802,41.67511,63.06707,41.6402z"/><path fill="#E1B63A" d="M63.34639,42.11038c0.04655,0.07681,0.13733,0.22811,0.18388,0.30492C63.48372,42.33849,63.39294,42.18719,63.34639,42.11038z"/><path fill="#E1B63A" d="M63.59311,42.52703c0.01336,0.02713,0.02811,0.05355,0.04423,0.07914C63.62123,42.58058,63.60647,42.55416,63.59311,42.52703z"/><path fill="#E1B63A" d="M64.047,43.3417c0.04423,0.06052,0.13268,0.18621,0.1769,0.24906C64.17969,43.52792,64.09123,43.40222,64.047,43.3417z"/><path fill="#E1B63A" d="M64.28442,43.69783c0.00932,0.01862,0.03026,0.05819,0.04189,0.07681C64.31468,43.75602,64.29374,43.71645,64.28442,43.69783z"/><path fill="#E1B63A" d="M64.98038,44.95476c0.04423,0.06517,0.13035,0.19552,0.17458,0.26069C65.11074,45.15028,65.02461,45.01993,64.98038,44.95476z"/><path fill="#E1B63A" d="M65.21781,45.32486c0.00931,0.01862,0.03259,0.05819,0.04189,0.07681C65.2504,45.38305,65.22712,45.34348,65.21781,45.32486z"/><path fill="#E1B63A" d="M65.62747,46.0697c0.02094,0.03491,0.06052,0.10474,0.08147,0.13966C65.68799,46.17444,65.64842,46.10461,65.62747,46.0697z"/><path fill="#E1B63A" d="M65.85791,46.47238c0.02328,0.03957,0.06982,0.12337,0.09311,0.16294C65.92773,46.59575,65.88119,46.51195,65.85791,46.47238z"/><path fill="#E1B63A" d="M66.1442,46.97515c0.02328,0.0419,0.07216,0.12802,0.09544,0.16992C66.21637,47.10317,66.16749,47.01705,66.1442,46.97515z"/><path fill="#E1B63A" d="M66.23964,47.14507c0.02095,0.03491,0.06284,0.1094,0.08379,0.14664C66.30249,47.25447,66.26059,47.17999,66.23964,47.14507z"/><path fill="#E1B63A" d="M66.56086,47.69905c0.00931,0.01862,0.03026,0.05121,0.03957,0.0675C66.59112,47.75026,66.57017,47.71767,66.56086,47.69905z"/><path fill="#E1B63A" d="M66.82621,48.15527c0.01862,0.03259,0.05586,0.09544,0.07449,0.12802C66.88207,48.2507,66.84483,48.18785,66.82621,48.15527z"/><path fill="#E1B63A" d="M67.04268,48.52536c0.0256,0.0419,0.07449,0.12802,0.10009,0.16992C67.11716,48.65338,67.06828,48.56726,67.04268,48.52536z"/><path fill="#E1B63A" d="M67.54545,49.37495c0.03957,0.0675,0.12104,0.20018,0.16061,0.26768C67.66649,49.57513,67.58501,49.44245,67.54545,49.37495z"/><path fill="#E1B63A" d="M67.77356,49.7497c0.01163,0.02095,0.03491,0.05819,0.04655,0.07681C67.80848,49.80789,67.7852,49.77065,67.77356,49.7497z"/><path fill="#E1B63A" d="M68.23443,50.48058l0.0163,0.02328l0.01397,0.03026C68.25771,50.52015,68.24142,50.49454,68.23443,50.48058z"/><path fill="#E1B63A" d="M68.71626,51.43491c0.02095,0.03491,0.05819,0.10242,0.07914,0.13733C68.77444,51.53733,68.73721,51.46983,68.71626,51.43491z"/><path fill="#E1B63A" d="M68.79539,51.57224l0.0931,0.15828L68.79539,51.57224z"/><path fill="#E1B63A" d="M69.10963,52.10527c0.01163,0.02095,0.03491,0.06285,0.04888,0.0838C69.14454,52.16812,69.12126,52.12622,69.10963,52.10527z"/></g><g id="_e8b835ff_1_"><path fill="#E7B732" d="M110.89544,52.71977c0.01862,0.03026,0.05586,0.09543,0.07449,0.12569C110.9513,52.8152,110.91407,52.75003,110.89544,52.71977z"/><path fill="#E7B732" d="M111.34002,53.45531c0.01862,0.03026,0.05586,0.09311,0.07449,0.12336C111.39588,53.54841,111.35864,53.48556,111.34002,53.45531z"/><path fill="#E7B732" d="M111.60072,53.89756c0.01163,0.02095,0.03491,0.06517,0.04888,0.08612C111.63563,53.96273,111.61236,53.91851,111.60072,53.89756z"/><path fill="#E7B732" d="M111.88236,54.38869c0.02328,0.03957,0.0675,0.12103,0.09078,0.16061C111.94987,54.50973,111.90564,54.42826,111.88236,54.38869z"/><path fill="#E7B732" d="M111.97314,54.54929c0.02094,0.03492,0.06284,0.10707,0.08379,0.14431C112.03599,54.65637,111.99409,54.58421,111.97314,54.54929z"/><path fill="#E7B732" d="M112.28504,55.08931l0.03725,0.06517L112.28504,55.08931z"/><path fill="#E7B732" d="M112.5504,55.54552c0.00932,0.0163,0.02793,0.04655,0.03724,0.06284C112.57833,55.59208,112.55971,55.56182,112.5504,55.54552z"/><path fill="#E7B732" d="M112.81575,56.00407c0.02328,0.03957,0.0675,0.11638,0.09077,0.15596C112.88325,56.12045,112.83903,56.04364,112.81575,56.00407z"/><path fill="#E7B732" d="M112.90652,56.16003c0.02095,0.03957,0.06518,0.11638,0.08613,0.15363C112.9717,56.27641,112.92747,56.19959,112.90652,56.16003z"/><path fill="#E7B732" d="M113.22774,56.72797c0.03259,0.08147,0.09776,0.23975,0.13035,0.31889C113.3255,56.96772,113.26033,56.80944,113.22774,56.72797z"/><path fill="#E7B732" d="M113.42326,57.17487c0.02095,0.03491,0.06052,0.10242,0.08147,0.135l-0.05121-0.0675L113.42326,57.17487z"/><path fill="#E7B732" d="M113.64207,57.51704c0.04887,0.07681,0.14431,0.23043,0.19319,0.30725C113.78638,57.74748,113.69094,57.59385,113.64207,57.51704z"/><path fill="#E7B732" d="M113.83526,57.82429c0.02792,0.04655,0.08845,0.13966,0.11638,0.18621C113.92371,57.96395,113.86318,57.87084,113.83526,57.82429z"/><path fill="#E7B732" d="M114.10526,58.2549c0.04655,0.10475,0.13966,0.31656,0.18621,0.4213C114.24492,58.57146,114.15181,58.35964,114.10526,58.2549z"/><path fill="#E7B732" d="M114.36131,58.8019c0.01163,0.02095,0.03491,0.06052,0.04655,0.07914l-0.02095-0.03026L114.36131,58.8019z"/><path fill="#E7B732" d="M114.81519,59.48855c0.0256,0.0419,0.07681,0.12569,0.10474,0.16759C114.89201,59.61424,114.8408,59.53045,114.81519,59.48855z"/><path fill="#E7B732" d="M115.05959,59.8889c0.02095,0.03724,0.06284,0.1094,0.08379,0.14431C115.12244,59.9983,115.08054,59.92615,115.05959,59.8889z"/><path fill="#E7B732" d="M115.37848,60.44521l0.08379,0.14897L115.37848,60.44521z"/><path fill="#E7B732" d="M115.46227,60.59418c0.02095,0.03724,0.06284,0.1094,0.08379,0.14664C115.52512,60.70358,115.48322,60.63142,115.46227,60.59418z"/><path fill="#E7B732" d="M115.77884,61.13885c0.01258,0.02408,0.02657,0.04739,0.04189,0.06982C115.80541,61.18624,115.79142,61.16293,115.77884,61.13885z"/><path fill="#E7B732" d="M116.03255,61.5811c0.01397,0.02328,0.0419,0.07215,0.05586,0.09543C116.07445,61.65326,116.04652,61.60437,116.03255,61.5811z"/><path fill="#E7B732" d="M116.30256,62.05128c0.0256,0.0419,0.07449,0.12802,0.10008,0.16992C116.37704,62.1793,116.32816,62.09318,116.30256,62.05128z"/><path fill="#E7B732" d="M116.40264,62.22121c0.02095,0.03724,0.06518,0.11173,0.08612,0.14897C116.46782,62.33293,116.42359,62.25844,116.40264,62.22121z"/><path fill="#FBCD48" d="M119.55754,67.92599v-0.21002l-0.25-0.45996c-0.00995-0.02002-0.01996-0.04999-0.02997-0.07001l-0.23999-0.40002c-0.02002-0.03998-0.06-0.10999-0.09003-0.14996c-0.02002-0.05005-0.07001-0.12-0.08997-0.16003l-0.23004-0.39996c0-0.01001-0.01996-0.04004-0.02997-0.06l-0.22003-0.39001c-0.01001-0.01001-0.02997-0.04999-0.03998-0.06l-0.22998-0.40002c-0.03003-0.03998-0.07001-0.10999-0.09003-0.14996l-0.08002-0.15002l-0.23999-0.40997c-0.02997-0.04004-0.08002-0.13-0.10999-0.18005l-0.16003-0.22998c-0.03998-0.03998-0.10999-0.13-0.13995-0.16998c-0.03003-0.04999-0.08002-0.15002-0.11005-0.19l-0.10999-0.25c-0.01996-0.04004-0.06-0.14001-0.08997-0.19c-0.15002-0.29999-0.32001-0.59003-0.48999-0.88c-0.02002-0.03003-0.06006-0.10999-0.08002-0.14001c-0.03003-0.04999-0.08002-0.13-0.10999-0.16998l-0.21002-0.38c-0.01001-0.02002-0.03998-0.07001-0.06-0.09003l-0.21002-0.37994c-0.01001-0.02002-0.02997-0.04004-0.03998-0.07001l-0.22998-0.40002c-0.02002-0.02997-0.06-0.09998-0.09003-0.14001l-0.08002-0.14996l-0.22998-0.41003c-0.03003-0.03998-0.07001-0.10999-0.09003-0.14996l-0.13995-0.23004c-0.03003-0.03998-0.08002-0.13-0.10004-0.16998c-0.09998-0.15002-0.31-0.45001-0.40997-0.59998l-0.02002-0.04004l-0.02997-0.03998l-0.07001-0.13c-0.04004-0.09998-0.14001-0.32001-0.17999-0.41998l-0.16003-0.25c-0.02002-0.04004-0.08002-0.14001-0.10999-0.17999c-0.04999-0.08002-0.15002-0.23004-0.20001-0.31l-0.13-0.21002l-0.04999-0.06l-0.03003-0.07001l-0.06995-0.13c-0.03003-0.08002-0.10004-0.23999-0.13-0.32001l-0.23004-0.40997c-0.02997-0.04004-0.07001-0.12-0.08997-0.16003c-0.02002-0.03998-0.07001-0.10999-0.09003-0.14996l-0.22998-0.40002c-0.01001-0.01001-0.03003-0.03998-0.03998-0.06l-0.23004-0.39001l-0.02997-0.07001l-0.23004-0.38995c-0.01996-0.04004-0.06-0.11005-0.07996-0.15002c-0.03003-0.03998-0.07001-0.12-0.10004-0.15997l-0.22998-0.40002c-0.01001-0.02002-0.03998-0.07001-0.04999-0.09003l-0.17999-0.31995c-0.02002-0.03003-0.06-0.09003-0.08002-0.12c-0.09003-0.15002-0.27002-0.46002-0.37-0.61005c-0.02002-0.02997-0.04999-0.09998-0.07001-0.13c-4.02002-7.02997-8.09003-14.02997-12.14001-21.04999c-2.76996-4.79999-5.53998-9.59998-8.32001-14.39996c-0.01996-0.03003-0.04999-0.10004-0.07001-0.13c-0.28998-0.5-0.56995-1-0.87-1.5c-0.01996-0.03003-0.04999-0.09003-0.07001-0.12c-0.28998-0.51001-0.57996-1.03003-0.87994-1.53003c-0.01001-0.02997-0.02002-0.04999-0.04004-0.07001c-0.28998-0.51001-0.58997-1.02002-0.88-1.52997c-0.01996-0.03003-0.04999-0.10004-0.07001-0.13c-0.20996-0.36005-0.42999-0.71002-0.63-1.07001c-0.00995-0.02002-0.02997-0.04999-0.03998-0.07001c-1.14996-2-2.29999-3.98999-3.46002-5.97998c-0.00995-0.02002-0.02997-0.05005-0.03998-0.07001c-0.59998-1.06-1.21002-2.10999-1.82001-3.16003c-0.01001-0.02997-0.04999-0.09998-0.07001-0.13c-0.13-0.22998-0.25995-0.46997-0.38-0.70996c-6.25-0.08002-12.51996-0.01001-18.76996-0.03003c-7.56,0.01001-15.13-0.01996-22.69,0.01001l0.01001,0.12l0.00995,0.10004c0.47003,0.65997,0.90002,1.34998,1.27002,2.06995c6.47003,11.19,12.92999,22.39001,19.39001,33.59003c0.14001,0.23999,0.27997,0.47998,0.42999,0.71997c0.02002,0.03003,0.04999,0.09003,0.07001,0.13c0.08997,0.15002,0.27002,0.46002,0.35999,0.62c0.01001,0.03003,0.04004,0.08002,0.06,0.11005l0.19,0.33997c0.01001,0.02002,0.03003,0.06,0.04999,0.08002l0.23004,0.40997c0.01996,0.03003,0.06,0.10004,0.07996,0.13c0.02002,0.04004,0.07001,0.12,0.09003,0.16003l0.21997,0.38c0.01001,0.01996,0.04004,0.06,0.05005,0.07996c0.14996,0.26001,0.29999,0.53003,0.45996,0.79004c0.02002,0.03998,0.06,0.10999,0.08002,0.14996c0.09003,0.15002,0.27002,0.46002,0.35999,0.61005c0.02002,0.03998,0.06,0.09998,0.08002,0.13995l0.20001,0.33002c0.04999,0.08002,0.14001,0.22998,0.17999,0.31l0.07001,0.10999c0.01001,0.03003,0.01996,0.05005,0.03998,0.08002l0.41003,0.73999c0.03998,0.06,0.12994,0.17999,0.17999,0.23999l0.06,0.11005c0.01001,0.01996,0.02997,0.06,0.03998,0.07996c0.21002,0.40002,0.41998,0.79004,0.65002,1.18005c0.04999,0.06,0.13,0.18994,0.17999,0.25995l0.06,0.11005c0.01001,0.01996,0.02997,0.06,0.03998,0.07996c0.10004,0.16003,0.28003,0.5,0.37,0.66003c0.02002,0.03998,0.06,0.10999,0.08002,0.14001l0.15002,0.26996c0.01996,0.04004,0.06995,0.12,0.08997,0.16003l0.20001,0.33997c0.02002,0.04004,0.07001,0.13,0.09003,0.16998c0.01996,0.03003,0.06,0.11005,0.08997,0.15002l0.22998,0.40002c0.01001,0.01996,0.03003,0.04999,0.04004,0.07001l0.22998,0.38995c0.02002,0.03003,0.04999,0.09003,0.07001,0.13l0.15002,0.23999c0.01996,0.04004,0.06995,0.13,0.09998,0.17004c0.09998,0.16998,0.29999,0.51001,0.40002,0.67999c0.03998,0.07001,0.12,0.20001,0.15997,0.26996l0.07001,0.10004c0.01001,0.02002,0.02997,0.06,0.03998,0.08002c0.10999,0.15997,0.31,0.48999,0.42004,0.64996l0.00995,0.03003l0.02002,0.02997c0.13,0.31,0.28003,0.60999,0.45001,0.90002c0.02002,0.02997,0.06,0.09998,0.08002,0.14001l0.08997,0.14996l0.22003,0.38c0.00995,0.02002,0.03998,0.06,0.04999,0.08002l0.14996,0.27997c3,5.24005,6.08002,10.42999,9.04004,15.69l0.14996,0.01001c7.16003,0.03003,14.32001,0.01001,21.48004,0.01001c6.53998-0.03003,13.08997,0.09003,19.63-0.06L119.55754,67.92599z M98.83757,35.61599c0.08997-0.40002,0.08002-0.78998,0.04999-1.19C98.92754,34.82601,98.92754,35.21597,98.83757,35.61599z"/><path fill="#E7B732" d="M116.9799,63.24537c0.02328,0.04888,0.06982,0.14664,0.09077,0.19552C117.04973,63.39201,117.00317,63.29425,116.9799,63.24537z"/><path fill="#E7B732" d="M117.17774,63.68296c0.02793,0.04655,0.08379,0.14198,0.10941,0.18854C117.26154,63.82495,117.20568,63.72951,117.17774,63.68296z"/><path fill="#E7B732" d="M117.28715,63.8715c0.03491,0.04655,0.10242,0.135,0.13733,0.17923C117.38956,64.0065,117.32207,63.91805,117.28715,63.8715z"/><path fill="#E7B732" d="M117.58508,64.27884c0.02793,0.04423,0.08379,0.13268,0.11405,0.17923C117.66888,64.41151,117.61302,64.32307,117.58508,64.27884z"/><path fill="#E7B732" d="M117.93423,64.8654l0.08379,0.14897L117.93423,64.8654z"/><path fill="#E7B732" d="M118.01803,65.01437c0.02094,0.03725,0.06284,0.1094,0.08612,0.14664C118.08087,65.12376,118.03897,65.05161,118.01803,65.01437z"/><path fill="#E7B732" d="M118.33691,65.56136c0.00931,0.01862,0.02793,0.05121,0.03724,0.0675C118.36485,65.61257,118.34622,65.57999,118.33691,65.56136z"/><path fill="#E7B732" d="M118.59528,66.01526c0.00932,0.0163,0.02793,0.04655,0.03725,0.06284C118.62321,66.06181,118.60459,66.03156,118.59528,66.01526z"/><path fill="#E7B732" d="M118.8583,66.47147c0.02328,0.03957,0.06983,0.11871,0.09311,0.16061C118.92814,66.59019,118.88158,66.51105,118.8583,66.47147z"/><path fill="#E7B732" d="M118.95142,66.63208c0.02328,0.03957,0.06982,0.11871,0.09078,0.15828C119.02124,66.75079,118.97469,66.67165,118.95142,66.63208z"/><path fill="#E7B732" d="M119.27495,67.19071c0.00932,0.0163,0.0256,0.04888,0.03492,0.06518C119.30056,67.2396,119.28426,67.20701,119.27495,67.19071z"/><path fill="#E7B732" d="M119.55659,67.71677c0.03026,0.05354,0.08845,0.16061,0.11871,0.21414l-0.12104-0.00465L119.55659,67.71677z"/></g><g id="_296ad9ff_1_"><path fill="#406AB2" d="M21.59083,103.94883l0.10242-0.14897l-0.00698,0.1513L21.59083,103.94883z"/></g><g id="_2a71e9ff_1_"><path fill="#4587F4" d="M119.83714,68.13827v0.01015c-6.9095,11.93454-13.79877,23.87929-20.688,35.82397c-25.82446-0.01015-51.64893-0.02023-77.46326-0.02023l0.01008-0.15199c0.49648-1.09418,1.16512-2.09717,1.75274-3.15079c3.89035-6.74742,7.79091-13.48465,11.68126-20.23207c2.4011-4.09299,4.68062-8.25691,7.16278-12.29932c12.01561,0.04057,24.03128-0.07086,36.0469,0.04057l0.16207,0.01014c7.15263,0.03036,14.31541,0.01008,21.4782,0.01008c6.53465-0.0405,13.08952,0.09121,19.62416-0.06078l0.14185-0.01008L119.83714,68.13827z"/></g><g id="_286ee6ff_1_"><path fill="#446DB3" d="M38.60355,88.33035c0.03026-0.02793,0.08846-0.07914,0.11871-0.10474C38.69201,88.25121,38.63382,88.30242,38.60355,88.33035z"/><path fill="#446DB3" d="M38.3545,88.53053c0.06285-0.04887,0.18621-0.15129,0.24906-0.20017C38.54071,88.37923,38.41735,88.48165,38.3545,88.53053z"/><path fill="#446DB3" d="M38.23812,88.6283c0.03026-0.0256,0.08612-0.07216,0.11638-0.09777C38.32424,88.55614,38.26838,88.60269,38.23812,88.6283z"/><path fill="#446DB3" d="M35.58228,91.11654c0.02793-0.02328,0.08612-0.07215,0.11638-0.09776C35.6684,91.04439,35.61021,91.09326,35.58228,91.11654z"/><path fill="#446DB3" d="M35.46357,91.21431c0.03026-0.02328,0.08845-0.07216,0.11871-0.09777C35.55202,91.14215,35.49383,91.19102,35.46357,91.21431z"/></g><linearGradient id="SVGID_1_" gradientUnits="userSpaceOnUse" x1="31.98983" y1="85.95614" x2="61.3993" y2="102.9357"><stop  offset="0" style="stop-color:#336FD6"/><stop  offset="0.99705" style="stop-color:#508DF5;stop-opacity:0"/></linearGradient><polygon fill="url(#SVGID_1_)" points="42.29054,68.11479 60.80227,103.96977 21.69324,103.79986 "/></g></g></svg>
