<svg width="24" height="24" viewBox="0 0 24 24" fill="none" xmlns="http://www.w3.org/2000/svg">
<g clip-path="url(#clip0_4633_9204)">
<path d="M18.9062 24H5.09375C4.21719 24 3.5 23.2636 3.5 22.3636V1.63636C3.5 0.736364 4.21719 0 5.09375 0H14.6562L20.5 6V22.3636C20.5 23.2636 19.7828 24 18.9062 24Z" fill="#0DC54C"/>
<path d="M14.6562 0L20.5 6H14.6562V0Z" fill="#08962D"/>
<path d="M6.6875 9.40909V17.0455H17.3125V9.40909H6.6875ZM8.01562 10.7727H11.3359V12.5455H8.01562V10.7727ZM8.01562 13.9091H11.3359V15.6818H8.01562V13.9091ZM15.9844 15.6818H12.6641V13.9091H15.9844V15.6818ZM15.9844 12.5455H12.6641V10.7727H15.9844V12.5455Z" fill="#FDFFFF"/>
</g>
<defs>
<clipPath id="clip0_4633_9204">
<rect width="17" height="24" fill="white" transform="translate(3.5)"/>
</clipPath>
</defs>
</svg>
