<svg width="65" height="58" viewBox="0 0 65 58" fill="none" xmlns="http://www.w3.org/2000/svg">
<path d="M4.89844 49.6152L7.75585 54.5508C8.3496 55.5898 9.20313 56.4063 10.2051 57L20.4102 39.3359H0C0 40.4863 0.296861 41.6367 0.890611 42.6758L4.89844 49.6152Z" fill="#0066DA"/>
<path d="M32.3965 18.5547L22.1914 0.890594C21.1894 1.48434 20.3359 2.30075 19.7422 3.33981L0.890611 35.9961C0.307781 37.0127 0.000776004 38.164 0 39.3359H20.4102L32.3965 18.5547Z" fill="#00AC47"/>
<path d="M54.5879 57C55.5899 56.4063 56.4434 55.5898 57.0371 54.5508L58.2246 52.5098L63.9024 42.6758C64.4961 41.6367 64.793 40.4863 64.793 39.3359H44.3813L48.7246 47.8711L54.5879 57Z" fill="#EA4335"/>
<path d="M32.3965 18.5547L42.6016 0.890625C41.5996 0.296876 40.4492 0 39.2617 0H25.5312C24.3438 0 23.1934 0.333985 22.1914 0.890625L32.3965 18.5547Z" fill="#00832D"/>
<path d="M44.3828 39.3359H20.4102L10.2051 57C11.207 57.5938 12.3574 57.8906 13.5449 57.8906H51.248C52.4355 57.8906 53.5859 57.5566 54.5879 57L44.3828 39.3359Z" fill="#2684FC"/>
<path d="M54.4766 19.6679L45.0508 3.33981C44.457 2.30075 43.6035 1.48434 42.6016 0.890594L32.3965 18.5547L44.3828 39.3359H64.7559C64.7559 38.1855 64.459 37.0351 63.8652 35.9961L54.4766 19.6679Z" fill="#FFBA00"/>
</svg>
