<svg width="150" height="24" viewBox="0 0 150 24" fill="none" xmlns="http://www.w3.org/2000/svg">
<g clip-path="url(#clip0_4633_10165)">
<path d="M109.473 18.4959H107.652V4.78498H109.471L114.391 13.1344H114.471L119.391 4.78498H121.209V18.4959H119.391V10.3487L119.471 8.0504H119.391L114.964 15.5772H113.896L109.471 8.0504H109.391L109.471 10.3487V18.4882L109.473 18.4959ZM127.847 18.8022C127.19 18.8205 126.537 18.7035 125.93 18.4591C125.324 18.2147 124.778 17.8484 124.328 17.3843C123.407 16.439 122.943 15.2452 122.936 13.8029C122.93 12.3606 123.378 11.17 124.282 10.2312C124.714 9.76612 125.245 9.3977 125.839 9.15152C126.432 8.90534 127.074 8.7873 127.72 8.80558C129.155 8.80558 130.298 9.2551 131.149 10.1541C132 11.0532 132.425 12.3144 132.423 13.9378L132.404 14.1304H124.809C124.804 14.5436 124.885 14.9535 125.048 15.3354C125.211 15.7172 125.452 16.063 125.757 16.3517C126.044 16.6248 126.384 16.8398 126.758 16.9844C127.131 17.1289 127.53 17.2 127.932 17.1936C129.092 17.1936 130.001 16.6317 130.66 15.5079L132.28 16.2785C131.867 17.0481 131.24 17.6911 130.471 18.1356C129.676 18.5869 128.768 18.8175 127.847 18.8022ZM124.94 12.674H130.493C130.474 12.365 130.391 12.0628 130.25 11.785C130.109 11.5072 129.913 11.2593 129.672 11.0557C129.179 10.63 128.517 10.4142 127.684 10.4142C127.037 10.4008 126.408 10.6189 125.916 11.0268C125.412 11.4559 125.068 12.0353 124.94 12.674ZM138.129 18.8022C137.473 18.8207 136.82 18.7039 136.214 18.4594C135.607 18.215 135.061 17.8485 134.612 17.3843C133.685 16.439 133.221 15.2452 133.221 13.8029C133.221 12.3606 133.669 11.17 134.565 10.2312C134.997 9.76618 135.529 9.39782 136.122 9.15165C136.716 8.90549 137.358 8.7874 138.004 8.80558C139.439 8.80558 140.582 9.2551 141.432 10.1541C142.281 11.0532 142.706 12.3144 142.706 13.9378L142.686 14.1304H135.093C135.088 14.5438 135.169 14.9539 135.333 15.3358C135.496 15.7177 135.738 16.0633 136.044 16.3517C136.33 16.6246 136.67 16.8396 137.043 16.9841C137.416 17.1287 137.815 17.1999 138.217 17.1936C139.378 17.1936 140.287 16.6317 140.944 15.5079L142.565 16.2785C142.152 17.0485 141.525 17.6916 140.756 18.1356C139.96 18.5875 139.051 18.8182 138.129 18.8022ZM135.227 12.674H140.779C140.759 12.3652 140.676 12.0633 140.535 11.7856C140.394 11.5079 140.198 11.2599 139.958 11.0557C139.463 10.63 138.801 10.4142 137.97 10.4142C137.323 10.4014 136.694 10.6194 136.203 11.0268C135.7 11.4559 135.359 12.0357 135.235 12.674H135.227ZM147.595 18.6462C146.868 18.6703 146.162 18.4155 145.628 17.9372C145.11 17.4659 144.845 16.8083 144.833 15.9645V10.7205H143.135V9.1119H144.833V6.23949H146.65V9.1119H149.024V10.7205H146.652V15.3942C146.652 16.0203 146.778 16.4461 147.028 16.6676C147.256 16.8825 147.561 17.0027 147.879 17.0029C148.022 17.0024 148.165 16.9862 148.304 16.9547C148.437 16.9252 148.566 16.8833 148.69 16.8295L149.263 18.3996C148.728 18.5734 148.167 18.6574 147.603 18.6481L147.595 18.6462ZM46.3722 18.7945C41.9665 18.7945 38.2627 15.3172 38.2627 11.0442C38.2627 6.7712 41.9646 3.29194 46.3722 3.29194C47.3863 3.2764 48.3934 3.45739 49.3343 3.82428C50.2753 4.19117 51.131 4.73656 51.8514 5.42843L50.3106 6.91954C49.2548 5.93216 47.8394 5.38866 46.3722 5.40724C43.1574 5.40724 40.6425 7.92132 40.6425 11.0423C40.6322 11.7779 40.7728 12.5081 41.0561 13.1906C41.3394 13.8732 41.7597 14.4944 42.2928 15.0183C42.8258 15.5421 43.4609 15.9582 44.1612 16.2423C44.8614 16.5264 45.613 16.673 46.3722 16.6734C48.4597 16.6734 49.6486 15.8624 50.41 15.1322C51.0323 14.5254 51.4419 13.6584 51.6029 12.464H46.3245V10.3487H53.7322C53.8141 10.7853 53.8527 11.2285 53.8475 11.6722C53.8475 13.2597 53.3982 15.2266 51.9568 16.6253C50.5532 18.0432 48.7599 18.7983 46.3801 18.7983L46.3722 18.7945ZM64.9411 13.8164C64.8487 15.0804 64.2653 16.2635 63.3085 17.1273C62.3517 17.9911 61.0926 18.4714 59.785 18.4714C58.4773 18.4714 57.2182 17.9911 56.2614 17.1273C55.3046 16.2635 54.7212 15.0804 54.6288 13.8164C54.6288 10.9267 56.9469 8.82485 59.7979 8.82485C62.6488 8.82485 64.9411 10.9151 64.9411 13.8164ZM62.6806 13.8164C62.6806 12.019 61.3367 10.7918 59.778 10.7918C58.2193 10.7918 56.8773 12.019 56.8773 13.8164C56.8773 15.6138 58.2213 16.8391 59.778 16.8391C61.3347 16.8391 62.6806 15.583 62.6806 13.8164ZM76.1719 13.8164C76.0944 15.0917 75.517 16.29 74.5578 17.1663C73.5986 18.0427 72.3301 18.5307 71.0118 18.5307C69.6935 18.5307 68.425 18.0427 67.4658 17.1663C66.5066 16.29 65.9292 15.0917 65.8517 13.8164C65.8517 10.9267 68.1698 8.82485 71.0108 8.82485C71.6916 8.81263 72.3679 8.93326 72.9996 9.17956C73.6312 9.42586 74.2053 9.79281 74.6876 10.2585C75.1699 10.7243 75.5506 11.2793 75.8069 11.8905C76.0633 12.5017 76.1901 13.1567 76.1799 13.8164H76.1719ZM73.9134 13.8164C73.9134 12.019 72.5675 10.7918 71.0108 10.7918C69.4541 10.7918 68.1082 12.019 68.1082 13.8164C68.1082 15.6138 69.4541 16.8391 71.0108 16.8391C72.5675 16.8391 73.9134 15.583 73.9134 13.8164ZM86.9176 9.12731V18.0894C86.9176 21.7748 84.6751 23.2909 82.0249 23.2909C81.0476 23.296 80.0911 23.0179 79.2781 22.4923C78.4651 21.9668 77.8327 21.2178 77.4622 20.3415L79.4304 19.5478C79.7823 20.3607 80.6412 21.3259 82.0249 21.3259C83.7208 21.3259 84.7725 20.3049 84.7725 18.3938V17.6694H84.6969C84.19 18.2743 83.2138 18.8041 81.9851 18.8041C79.4125 18.8041 77.0527 16.631 77.0527 13.8299C77.0527 11.0288 79.4125 8.821 81.9851 8.821C82.4931 8.80891 82.9978 8.90219 83.4655 9.09456C83.9332 9.28694 84.3531 9.57398 84.6969 9.93644H84.7725V9.12153L86.9176 9.12731ZM84.9275 13.8164C84.9275 12.0575 83.7188 10.7745 82.178 10.7745C80.6372 10.7745 79.3131 12.0594 79.3131 13.8164C79.3131 15.5734 80.6193 16.8218 82.178 16.8218C83.7367 16.8218 84.9275 15.5638 84.9275 13.8164ZM90.8123 3.82558V18.4959H88.5439V3.82558H90.8123ZM99.5799 15.4501L101.333 16.5848C100.864 17.2689 100.226 17.8291 99.4773 18.2151C98.7288 18.6012 97.893 18.8009 97.0451 18.7964C94.1206 18.7964 91.9356 16.6041 91.9356 13.8068C91.9277 10.838 94.1325 8.80751 96.7767 8.80751C99.4208 8.80751 100.753 10.8669 101.182 11.9824L101.417 12.5488L94.5341 15.3095C95.0609 16.3112 95.88 16.8218 97.0311 16.8218C98.1823 16.8218 98.9874 16.2823 99.5719 15.4501H99.5799ZM94.1782 13.6565L98.7648 11.8032C98.5103 11.179 97.7508 10.7436 96.8542 10.7436C96.4795 10.761 96.1121 10.8506 95.7735 11.007C95.4349 11.1634 95.1318 11.3837 94.882 11.6548C94.6322 11.926 94.4405 12.2426 94.3183 12.5863C94.1961 12.93 94.1458 13.2938 94.1703 13.6565H94.1782Z" fill="#5F6368"/>
<path d="M16.4055 12.0049L19.2323 15.2613L23.035 17.7052L23.6954 12.0303L23.035 6.48438L19.1587 8.62571L16.4055 12.0049Z" fill="#00832D"/>
<path d="M0 17.1659V22.0008C0.000556756 22.5309 0.210141 23.0392 0.582765 23.4141C0.955388 23.789 1.46061 23.9998 1.98758 24.0004H6.79564L7.78207 20.3546L6.78723 17.1807L3.48931 16.1777L0 17.1659Z" fill="#0066DA"/>
<path d="M6.79564 0L0 6.8366L3.49773 7.83532L6.79564 6.8366L7.78207 3.69654L6.79564 0Z" fill="#E94235"/>
<path d="M0 6.83594H6.79564V17.1638H0V6.83594Z" fill="#2684FC"/>
<path d="M27.3741 2.89308L23.035 6.47536V17.6898L27.393 21.2869C27.5399 21.4023 27.7161 21.4738 27.9015 21.4933C28.0869 21.5128 28.274 21.4796 28.4415 21.3973C28.609 21.315 28.7502 21.1871 28.8489 21.028C28.9476 20.869 28.9999 20.6852 28.9999 20.4977V3.6654C28.9996 3.47595 28.9459 3.29047 28.845 3.13052C28.7441 2.97058 28.6001 2.84273 28.4298 2.76184C28.2595 2.68095 28.0699 2.65034 27.883 2.67357C27.6961 2.6968 27.5196 2.77292 27.3741 2.89308Z" fill="#00AC47"/>
<path d="M16.4057 12.0039V17.1647H6.7959V23.9992H21.0455C21.5728 23.9992 22.0786 23.7886 22.4517 23.4136C22.8248 23.0387 23.0346 22.5301 23.0352 21.9996V17.6979L16.4057 12.0039Z" fill="#00AC47"/>
<path d="M21.0455 0H6.7959V6.83659H16.4057V12.0037L23.0352 6.47688V2.00168C23.0346 1.47097 22.8248 0.96216 22.4518 0.586894C22.0788 0.211628 21.573 0.000560112 21.0455 0Z" fill="#FFBA00"/>
</g>
<defs>
<clipPath id="clip0_4633_10165">
<rect width="149.713" height="24" fill="white"/>
</clipPath>
</defs>
</svg>
