<svg width="76" height="57" viewBox="0 0 76 57" fill="none" xmlns="http://www.w3.org/2000/svg">
<path d="M5.18055 57H17.2685V27.6436L0 14.6922V51.8195C0 54.6817 2.3183 57 5.18055 57Z" fill="#4285F4"/>
<path d="M58.7129 57H70.8009C73.6631 57 75.9814 54.6817 75.9814 51.8195V14.6922L58.7129 27.6436V57Z" fill="#34A853"/>
<path d="M58.7129 5.19451V27.6436L75.9814 14.6922V7.78479C75.9814 1.38249 68.6725 -2.27412 63.5481 1.56813L58.7129 5.19451Z" fill="#FBBC04"/>
<path fill-rule="evenodd" clip-rule="evenodd" d="M17.2686 27.6436V5.19449L37.9908 20.7361L58.713 5.19449V27.6436L37.9908 43.1852L17.2686 27.6436Z" fill="#EA4335"/>
<path d="M0 7.78479V14.6922L17.2685 27.6436V5.19451L12.4333 1.56813C7.3089 -2.27412 0 1.38249 0 7.78479Z" fill="#C5221F"/>
</svg>
