<svg width="87" height="24" viewBox="0 0 87 24" fill="none" xmlns="http://www.w3.org/2000/svg">
<g clip-path="url(#clip0_4633_10235)">
<path d="M2.18128 24H7.27095V11.6394L0 6.18619V21.8187C0 23.0239 0.976126 24 2.18128 24Z" fill="#4285F4"/>
<path d="M24.7212 24H29.8109C31.016 24 31.9921 23.0239 31.9921 21.8187V6.18619L24.7212 11.6394V24Z" fill="#34A853"/>
<path d="M24.7212 2.18716V11.6394L31.9921 6.18619V3.27781C31.9921 0.582101 28.9147 -0.957525 26.7571 0.660265L24.7212 2.18716Z" fill="#FBBC04"/>
<path fill-rule="evenodd" clip-rule="evenodd" d="M7.271 11.6394V2.18715L15.9961 8.73098L24.7213 2.18715V11.6394L15.9961 18.1832L7.271 11.6394Z" fill="#EA4335"/>
<path d="M0 3.27781V6.18619L7.27095 11.6394V2.18716L5.23507 0.660265C3.07743 -0.957525 0 0.582101 0 3.27781Z" fill="#C5221F"/>
</g>
<path d="M54.0974 11.9049C54.0974 13.7574 53.5478 15.2332 52.4487 16.3323C51.2137 17.6414 49.5897 18.2959 47.5767 18.2959C45.6502 18.2959 44.02 17.629 42.6862 16.2952C41.3524 14.9615 40.6855 13.3189 40.6855 11.3677C40.6855 9.41641 41.3524 7.77389 42.6862 6.44012C44.02 5.10634 45.6502 4.43945 47.5767 4.43945C48.5524 4.43945 49.4724 4.61235 50.3369 4.95814C51.2014 5.30394 51.9115 5.79175 52.4672 6.42159L51.2446 7.64422C50.8371 7.15023 50.306 6.76739 49.6515 6.49569C49.0093 6.21165 48.3177 6.06962 47.5767 6.06962C46.1318 6.06962 44.9092 6.56979 43.9088 7.57012C42.9209 8.5828 42.4269 9.84865 42.4269 11.3677C42.4269 12.8867 42.9209 14.1525 43.9088 15.1652C44.9092 16.1656 46.1318 16.6657 47.5767 16.6657C48.8981 16.6657 49.9973 16.2952 50.8741 15.5542C51.7509 14.8133 52.2573 13.7944 52.3931 12.4977H47.5767V10.9046H54.0048C54.0665 11.2504 54.0974 11.5838 54.0974 11.9049Z" fill="#5F6368"/>
<path d="M57.576 17.9995H55.8717V8.92242H57.5019V10.1821H57.576C57.8353 9.7375 58.2305 9.36701 58.7616 9.07062C59.3049 8.77422 59.8422 8.62603 60.3732 8.62603C61.0401 8.62603 61.6267 8.7804 62.133 9.08914C62.6394 9.39789 63.0099 9.82395 63.2445 10.3673C63.9979 9.20646 65.0414 8.62603 66.3752 8.62603C67.4249 8.62603 68.2338 8.94712 68.8019 9.58931C69.37 10.2315 69.6541 11.1454 69.6541 12.331V17.9995H67.9498V12.5903C67.9498 11.7382 67.7954 11.1269 67.4867 10.7564C67.1779 10.3735 66.6592 10.1821 65.9306 10.1821C65.2761 10.1821 64.7265 10.46 64.2819 11.0157C63.8373 11.5714 63.615 12.226 63.615 12.9793V17.9995H61.9107V12.5903C61.9107 11.7382 61.7564 11.1269 61.4476 10.7564C61.1389 10.3735 60.6202 10.1821 59.8916 10.1821C59.237 10.1821 58.6875 10.46 58.2429 11.0157C57.7983 11.5714 57.576 12.226 57.576 12.9793V17.9995Z" fill="#5F6368"/>
<path d="M72.7973 15.2208C72.7973 15.6654 72.9826 16.0359 73.3531 16.3323C73.7359 16.6287 74.1805 16.7769 74.6868 16.7769C75.4031 16.7769 76.0391 16.5114 76.5949 15.9803C77.163 15.4493 77.447 14.8256 77.447 14.1093C76.916 13.6894 76.175 13.4795 75.224 13.4795C74.5325 13.4795 73.952 13.6462 73.4827 13.9797C73.0258 14.3131 72.7973 14.7268 72.7973 15.2208ZM75.0017 8.62603C76.2614 8.62603 77.2556 8.96564 77.9842 9.64488C78.7129 10.3118 79.0772 11.2318 79.0772 12.4051V17.9995H77.447V16.7398H77.3729C76.669 17.7772 75.7304 18.2959 74.5572 18.2959C73.5568 18.2959 72.717 17.9995 72.0378 17.4067C71.3709 16.8139 71.0375 16.0729 71.0375 15.1838C71.0375 14.2452 71.3894 13.498 72.0934 12.9423C72.8097 12.3865 73.7606 12.1087 74.9462 12.1087C75.9589 12.1087 76.7925 12.2939 77.447 12.6644V12.2754C77.447 11.6826 77.2124 11.1824 76.7431 10.7749C76.2738 10.355 75.7242 10.145 75.0944 10.145C74.1434 10.145 73.3901 10.5464 72.8344 11.3491L71.3339 10.4044C72.1613 9.21881 73.3839 8.62603 75.0017 8.62603Z" fill="#5F6368"/>
<path d="M83.2038 5.79175C83.2038 6.1252 83.0865 6.40924 82.8519 6.64389C82.6172 6.87853 82.3332 6.99586 81.9997 6.99586C81.6663 6.99586 81.3822 6.87853 81.1476 6.64389C80.9129 6.40924 80.7956 6.1252 80.7956 5.79175C80.7956 5.45831 80.9129 5.17426 81.1476 4.93962C81.3822 4.70497 81.6663 4.58765 81.9997 4.58765C82.3332 4.58765 82.6172 4.70497 82.8519 4.93962C83.0865 5.17426 83.2038 5.45831 83.2038 5.79175ZM82.8519 8.92242V17.9995H81.1476V8.92242H82.8519Z" fill="#5F6368"/>
<path d="M86.774 4.73585V17.9995H85.0697V4.73585H86.774Z" fill="#5F6368"/>
<defs>
<clipPath id="clip0_4633_10235">
<rect width="32" height="24" fill="white"/>
</clipPath>
</defs>
</svg>
