<svg width="140" height="24" viewBox="0 0 140 24" fill="none" xmlns="http://www.w3.org/2000/svg">
<path d="M56.8117 13.5251C56.8117 11.727 55.5067 10.4967 53.9921 10.4967C52.4776 10.4967 51.1726 11.727 51.1726 13.5251C51.1726 15.3052 52.4776 16.5535 53.9921 16.5535C55.5067 16.5535 56.8117 15.3029 56.8117 13.5251ZM59.0069 13.5251C59.0069 16.4025 56.7553 18.5228 53.9921 18.5228C51.229 18.5228 48.9774 16.4025 48.9774 13.5251C48.9774 10.6274 51.229 8.52734 53.9921 8.52734C56.7553 8.52734 59.0069 10.6274 59.0069 13.5251Z" fill="#5F6368"/>
<path d="M67.6298 13.5251C67.6298 11.727 66.3248 10.4967 64.8103 10.4967C63.2957 10.4967 61.9907 11.727 61.9907 13.5251C61.9907 15.3052 63.2957 16.5535 64.8103 16.5535C66.3248 16.5535 67.6298 15.3029 67.6298 13.5251ZM69.825 13.5251C69.825 16.4025 67.5734 18.5228 64.8103 18.5228C62.0471 18.5228 59.7955 16.4025 59.7955 13.5251C59.7955 10.6296 62.0471 8.52734 64.8103 8.52734C67.5734 8.52734 69.825 10.6274 69.825 13.5251Z" fill="#5F6368"/>
<path d="M78.2628 13.5431C78.2628 11.7833 77.0886 10.4967 75.5943 10.4967C74.0798 10.4967 72.8109 11.7833 72.8109 13.5431C72.8109 15.2849 74.0798 16.5535 75.5943 16.5535C77.0886 16.5535 78.2628 15.2849 78.2628 13.5431ZM80.1921 8.82928V17.8018C80.1921 21.4926 78.0149 23.0001 75.4411 23.0001C73.0182 23.0001 71.56 21.38 71.0101 20.0551L72.9213 19.2597C73.2616 20.0731 74.0955 21.033 75.4388 21.033C77.0864 21.033 78.1073 20.0168 78.1073 18.1037V17.3849H78.0307C77.5394 17.9911 76.5928 18.5206 75.3982 18.5206C72.8988 18.5206 70.6089 16.3439 70.6089 13.5431C70.6089 10.722 72.8988 8.52734 75.3982 8.52734C76.5905 8.52734 77.5371 9.05686 78.0307 9.64497H78.1073V8.83154H80.1921V8.82928Z" fill="#5F6368"/>
<path d="M83.6293 3.56836H81.4886V18.2146H83.6293V3.56836Z" fill="#5F6368"/>
<path d="M86.7285 13.3722L91.1955 11.5177C90.9499 10.8936 90.2106 10.4587 89.3406 10.4587C88.225 10.4587 86.6721 11.4434 86.7285 13.3722ZM91.9731 15.1703L93.677 16.3059C93.127 17.1194 91.8018 18.5209 89.5119 18.5209C86.6721 18.5209 84.5513 16.3262 84.5513 13.5231C84.5513 10.5511 86.6901 8.52539 89.2663 8.52539C91.8604 8.52539 93.1293 10.5894 93.544 11.7048L93.7716 12.2726L87.0891 15.0396C87.6007 16.0423 88.3963 16.5538 89.5119 16.5538C90.6298 16.5538 91.4051 16.004 91.9731 15.1703Z" fill="#5F6368"/>
<path d="M40.8726 12.2249V10.1045H48.0194C48.0892 10.4741 48.1253 10.9112 48.1253 11.3844C48.1253 12.9752 47.6903 14.9423 46.2885 16.3438C44.9249 17.7634 43.1827 18.5205 40.8748 18.5205C36.5971 18.5205 33 15.037 33 10.7603C33 6.48355 36.5971 3 40.8748 3C43.2413 3 44.9272 3.92835 46.1938 5.13835L44.6973 6.63452C43.789 5.78279 42.5584 5.12033 40.8726 5.12033C37.7488 5.12033 35.3056 7.63723 35.3056 10.7603C35.3056 13.8833 37.7488 16.4002 40.8726 16.4002C42.8987 16.4002 44.0527 15.5868 44.7919 14.8477C45.3914 14.2483 45.7859 13.3921 45.9414 12.2226L40.8726 12.2249Z" fill="#5F6368"/>
<path d="M98.981 18.2138V4.70117H103.115C105.179 4.70117 106.837 5.32398 108.089 6.56938C109.341 7.815 109.967 9.44456 109.967 11.4574C109.967 13.4834 109.341 15.1158 108.089 16.355C106.837 17.5944 105.179 18.2138 103.115 18.2138H98.981V18.2138ZM100.718 6.36193V16.5531H103.115C104.688 16.5531 105.928 16.1034 106.834 15.2036C107.74 14.3043 108.193 13.0555 108.193 11.4574C108.193 9.87218 107.74 8.62655 106.834 7.72075C105.928 6.81472 104.688 6.36193 103.115 6.36193H100.718V6.36193Z" fill="#5F6368"/>
<path d="M113.082 18.2129H111.346V8.96545H113.007V10.4751H113.082C113.258 9.98445 113.62 9.56642 114.168 9.22014C114.715 8.87431 115.253 8.70117 115.782 8.70117C116.285 8.70117 116.713 8.77671 117.065 8.92757L116.537 10.6073C116.323 10.5195 115.983 10.4751 115.517 10.4751C114.863 10.4751 114.293 10.7394 113.809 11.2677C113.324 11.7963 113.082 12.4129 113.082 13.1172V18.2129H113.082Z" fill="#5F6368"/>
<path d="M120.443 5.77746C120.443 6.11728 120.323 6.40674 120.085 6.64561C119.845 6.88471 119.556 7.00414 119.216 7.00414C118.877 7.00414 118.587 6.88471 118.348 6.64561C118.109 6.40674 117.99 6.11728 117.99 5.77746C117.99 5.43787 118.109 5.14864 118.348 4.90932C118.587 4.67044 118.877 4.55078 119.216 4.55078C119.556 4.55078 119.845 4.67044 120.085 4.90932C120.323 5.14864 120.443 5.43787 120.443 5.77746ZM120.085 8.96706V18.2145H118.348V8.96706H120.085Z" fill="#5F6368"/>
<path d="M126.843 18.2143H125.107L121.369 8.9668H123.257L125.975 16.1384H126.013L128.769 8.9668H130.619L126.843 18.2143Z" fill="#5F6368"/>
<path d="M135.621 18.5154C134.261 18.5154 133.141 18.0501 132.26 17.1189C131.379 16.1879 130.939 15.0116 130.939 13.5897C130.939 12.1808 131.367 11.0073 132.223 10.0699C133.078 9.1329 134.173 8.66406 135.507 8.66406C136.879 8.66406 137.971 9.10749 138.782 9.99436C139.594 10.8814 140 12.1242 140 13.7219L139.981 13.9106H132.714C132.739 14.8164 133.041 15.5462 133.62 16.0997C134.198 16.6534 134.89 16.9302 135.696 16.9302C136.803 16.9302 137.672 16.3767 138.301 15.2694L139.849 16.0241C139.434 16.8045 138.858 17.4146 138.122 17.8549C137.386 18.2952 136.552 18.5154 135.621 18.5154ZM132.846 12.4762H138.15C138.1 11.8345 137.839 11.3033 137.367 10.8814C136.895 10.4601 136.262 10.2493 135.47 10.2493C134.815 10.2493 134.252 10.4507 133.78 10.8531C133.308 11.256 132.997 11.7968 132.846 12.4762Z" fill="#5F6368"/>
<path d="M8.78099 0.00639193L8.8044 0.00585938L8.80652 0.0319279L8.77673 0.0329954L8.78099 0.00639193Z" fill="#00A15E"/>
<path d="M8.69068 0.186115C8.71128 0.155726 8.75143 0.0949508 8.77203 0.0645619L8.80901 0.0585938C8.83648 0.402632 8.93473 0.734191 9.00869 1.06901C9.32669 2.52385 9.64786 3.97761 9.98224 5.42811C10.2015 6.42279 10.446 7.41258 10.6468 8.41105C10.8211 9.02913 10.9146 9.66674 11.0831 10.2859C11.1919 10.8633 11.3625 11.4266 11.4539 12.0072C11.417 12.0707 11.38 12.1347 11.3425 12.1982C11.3335 12.2128 11.3145 12.2432 11.3055 12.2584L11.2918 12.2829C11.2896 12.2872 11.2849 12.2964 11.2823 12.3008C11.2616 12.3398 11.2204 12.4174 11.1998 12.456C11.1961 12.463 11.1882 12.4771 11.184 12.4842L11.1465 12.5526C11.1417 12.5607 11.1328 12.5764 11.1285 12.5846L11.0847 12.6633C11.0826 12.6676 11.0778 12.6763 11.0752 12.6806L11.0208 12.7783C11.016 12.7864 11.0065 12.8038 11.0018 12.8125C10.9965 12.8217 10.9859 12.8396 10.9806 12.8488L10.9273 12.9433C10.923 12.9503 10.9146 12.9655 10.9104 12.9726L10.8776 13.0295C10.8723 13.0393 10.8607 13.0594 10.8554 13.0692C10.8343 13.1066 10.7926 13.1815 10.7714 13.2195C10.7677 13.226 10.7598 13.2395 10.7561 13.2466L10.7228 13.3036C10.7176 13.3139 10.7059 13.3334 10.7001 13.3437C10.6806 13.379 10.6404 13.449 10.6209 13.4843C10.6161 13.4924 10.6072 13.5092 10.6024 13.5174L10.5628 13.5906C10.5591 13.5971 10.5517 13.6107 10.548 13.6172L10.5073 13.6905L10.4904 13.7209C10.4693 13.7567 10.4281 13.8289 10.4075 13.8652C10.4027 13.8734 10.3932 13.8902 10.3885 13.8989L10.351 13.9683C10.3473 13.9748 10.3404 13.9873 10.3372 13.9938L10.2939 14.0709C10.2902 14.0779 10.2823 14.0915 10.2786 14.098C10.2564 14.1371 10.2126 14.2147 10.1904 14.2537C10.1867 14.2608 10.1782 14.2749 10.174 14.282L10.1423 14.3357C10.137 14.3455 10.1259 14.3644 10.1206 14.3742C10.1006 14.41 10.061 14.4811 10.0409 14.5169C10.0377 14.5229 10.0303 14.5359 10.0271 14.5419L9.98383 14.6211C9.98066 14.6271 9.97432 14.6385 9.97115 14.6445L9.92678 14.7242C9.92308 14.7302 9.91568 14.7432 9.91199 14.7492C9.89139 14.785 9.84966 14.8555 9.82905 14.8914C9.82324 14.9006 9.81268 14.9201 9.80687 14.9299L9.7757 14.9896C9.77147 14.9972 9.76355 15.0124 9.75985 15.0194L9.70544 15.116C9.70122 15.1242 9.69171 15.1404 9.68748 15.1486C9.68273 15.1562 9.67428 15.1719 9.67005 15.1795C9.58078 15.3342 9.49996 15.4937 9.40117 15.6424C8.83859 16.585 8.32091 17.5568 7.77629 18.5108C6.89201 20.0829 6.00808 21.6549 5.12451 23.227C4.99192 23.4717 4.84084 23.7062 4.72674 23.9617L4.70349 23.9965C4.49167 23.6828 4.32791 23.3366 4.13405 23.011C3.24976 21.4379 2.36548 19.8647 1.4812 18.2916C0.989931 17.4065 0.478063 16.5323 0 15.6391C1.89323 12.2828 3.78241 8.92385 5.66754 5.56214C5.66912 5.55888 5.67282 5.55291 5.67441 5.54966L5.72617 5.4585C5.72829 5.4547 5.73251 5.4471 5.73515 5.4433L5.78745 5.35159C5.7922 5.34346 5.80171 5.32609 5.80699 5.31795C5.81228 5.30818 5.82284 5.28919 5.82813 5.27942L5.88042 5.18392L5.89521 5.15787L5.9343 5.09384C5.94117 5.08353 5.95491 5.06237 5.96177 5.05151C5.98079 5.02221 6.01935 4.96306 6.0389 4.93376C6.04101 4.92399 6.04471 4.905 6.04682 4.89577L6.09278 4.80515L6.10123 4.78996L6.15406 4.69879C6.15934 4.69011 6.1699 4.67166 6.17519 4.66244C6.181 4.65212 6.19262 4.63096 6.19896 4.62011L6.24333 4.54034C6.24808 4.53166 6.25759 4.51484 6.26235 4.5067L6.29932 4.43995C6.30355 4.4329 6.312 4.41771 6.31623 4.41011C6.33683 4.37375 6.37803 4.30103 6.39916 4.26468L6.41607 4.23429L6.45463 4.16212C6.4578 4.15669 6.46414 4.14475 6.46731 4.13932L6.51802 4.04816C6.52436 4.03731 6.53756 4.01506 6.54443 4.0042L6.57877 3.95102C6.58616 3.94017 6.60042 3.91901 6.60782 3.9087C6.61416 3.89785 6.62736 3.87614 6.63423 3.86529L6.66276 3.80885C6.67226 3.78769 6.69181 3.74536 6.70132 3.7242L6.73037 3.68242C6.73566 3.67482 6.74569 3.66017 6.75097 3.65257C6.77052 3.63575 6.81014 3.60102 6.82968 3.58365L6.82599 3.52017C6.82916 3.51257 6.83655 3.49737 6.84025 3.48978L6.88515 3.39807C6.88885 3.39156 6.89624 3.37799 6.89994 3.37148L6.93956 3.30528C6.94695 3.29443 6.96121 3.27272 6.96861 3.26187C6.98657 3.23148 7.02302 3.17179 7.04098 3.14194C7.04627 3.13109 7.05577 3.10992 7.06105 3.09907L7.08905 3.03667C7.0975 3.02039 7.11546 2.98728 7.12444 2.97046L7.15931 2.91946L7.18889 2.87821C7.19523 2.86736 7.20844 2.84565 7.21478 2.8348L7.24066 2.77891C7.24647 2.76643 7.25862 2.74092 7.26443 2.72844L7.30986 2.63836C7.31673 2.62751 7.32993 2.60472 7.33627 2.59332L7.37114 2.54014C7.37853 2.52929 7.39332 2.50867 7.40072 2.49781C7.40759 2.48696 7.42079 2.46471 7.42713 2.45386L7.45407 2.39742C7.46199 2.38169 7.47732 2.35076 7.48471 2.33502L7.52063 2.27424C7.52697 2.26393 7.53965 2.24331 7.54652 2.233C7.56553 2.20261 7.60409 2.14184 7.62364 2.11199C7.62575 2.10277 7.63051 2.08432 7.63262 2.07509L7.67858 1.98501C7.68016 1.98121 7.68439 1.97416 7.6865 1.97036L7.73933 1.87756C7.74461 1.86834 7.75464 1.85043 7.75993 1.84121C7.76521 1.83253 7.77525 1.81408 7.78053 1.80539L7.83335 1.71043C7.83547 1.70663 7.83969 1.69903 7.8418 1.69469L7.89146 1.60624C7.89494 1.60101 7.89811 1.59557 7.90097 1.58996L7.95432 1.49771C7.95908 1.48903 7.96858 1.47275 7.97334 1.46407C7.97862 1.45484 7.98918 1.43585 7.99447 1.42608L8.04518 1.33437C8.04835 1.3284 8.05469 1.31701 8.05786 1.31158L8.10065 1.24049C8.10751 1.23019 8.12125 1.20902 8.12759 1.19871C8.14713 1.16886 8.18516 1.10917 8.20471 1.07933C8.2063 1.0701 8.21052 1.05165 8.21263 1.04243L8.25753 0.953975C8.26123 0.947463 8.26916 0.933897 8.27285 0.926843L8.313 0.862267C8.3204 0.851958 8.33413 0.830794 8.34152 0.81994C8.36001 0.789551 8.39699 0.729316 8.41548 0.69893C8.41812 0.690248 8.42287 0.672882 8.42552 0.6642L8.472 0.574663C8.47411 0.570322 8.47834 0.562724 8.48045 0.558383L8.53433 0.465049C8.53856 0.456908 8.54807 0.44063 8.55282 0.43249C8.55758 0.423264 8.56709 0.405901 8.57184 0.397217L8.62466 0.300625C8.62731 0.296827 8.63153 0.288686 8.63365 0.284889L8.68383 0.197522C8.6854 0.194797 8.6891 0.188829 8.69068 0.186115Z" fill="#00A15E"/>
<path d="M22.2344 8.06454C22.2554 7.97128 22.253 7.88037 22.246 7.78711C22.2554 7.88037 22.2554 7.97128 22.2344 8.06454Z" fill="#FBCD48"/>
<path d="M8.77774 0.0342683L8.80753 0.0332031L8.81019 0.0571437L8.77295 0.0629951L8.77774 0.0342683Z" fill="#039056"/>
<path d="M8.80957 0.0566406C8.91574 0.21059 9.01191 0.371563 9.09746 0.538514C10.5655 3.14812 12.032 5.75826 13.4972 8.36894C12.8189 9.58231 12.138 10.7944 11.4545 12.0052C11.3631 11.4246 11.1925 10.8613 11.0837 10.284C10.9152 9.66479 10.8217 9.02718 10.6473 8.4091C10.4466 7.41062 10.202 6.42083 9.9828 5.42615C9.64842 3.97565 9.32725 2.5219 9.00925 1.06705C8.93529 0.73224 8.83704 0.400681 8.80957 0.0566406Z" fill="#00A15E"/>
<path d="M8.68457 0.196719C8.68617 0.194059 8.68989 0.188207 8.69148 0.185547C8.68989 0.188207 8.68617 0.194059 8.68457 0.196719Z" fill="#039056"/>
<path d="M8.62537 0.300585C8.62803 0.296861 8.63229 0.28888 8.63441 0.285156C8.63229 0.28888 8.62803 0.296861 8.62537 0.300585Z" fill="#039056"/>
<path d="M8.5531 0.431067C8.55789 0.422023 8.56747 0.404999 8.57225 0.396484C8.56747 0.404996 8.55789 0.422023 8.5531 0.431067Z" fill="#039056"/>
<path d="M8.53467 0.463563C8.53892 0.455581 8.5485 0.439622 8.55329 0.431641C8.5485 0.43962 8.53892 0.455581 8.53467 0.463563Z" fill="#039056"/>
<path d="M8.47217 0.572602C8.4743 0.568346 8.47855 0.560897 8.48068 0.556641C8.47855 0.560897 8.4743 0.568346 8.47217 0.572602Z" fill="#039056"/>
<path d="M8.41602 0.69616C8.41868 0.687648 8.42346 0.670621 8.42612 0.662109C8.42346 0.670621 8.41868 0.687648 8.41602 0.69616Z" fill="#039056"/>
<path d="M8.34229 0.820229C8.36078 0.78984 8.39775 0.729605 8.41624 0.699219C8.39775 0.729605 8.36078 0.78984 8.34229 0.820229Z" fill="#039056"/>
<path d="M8.31348 0.859859C8.32093 0.849751 8.33476 0.829002 8.34221 0.818359C8.33476 0.829002 8.32093 0.849751 8.31348 0.859859Z" fill="#039056"/>
<path d="M8.25781 0.952382C8.26154 0.945998 8.26952 0.932698 8.27324 0.925781C8.26952 0.932698 8.26154 0.945998 8.25781 0.952382Z" fill="#039056"/>
<path d="M8.20459 1.07719C8.20619 1.06815 8.21044 1.05006 8.21257 1.04102C8.21044 1.05006 8.20619 1.06815 8.20459 1.07719Z" fill="#039056"/>
<path d="M8.12793 1.19751C8.14747 1.16766 8.18551 1.10797 8.20506 1.07812C8.18551 1.10797 8.14747 1.16766 8.12793 1.19751Z" fill="#039056"/>
<path d="M8.10107 1.24019C8.10799 1.23008 8.12182 1.20933 8.1282 1.19922C8.12182 1.20933 8.10799 1.23008 8.10107 1.24019Z" fill="#039056"/>
<path d="M8.04541 1.33289C8.0486 1.32704 8.05499 1.31587 8.05818 1.31055C8.05499 1.31587 8.0486 1.32704 8.04541 1.33289Z" fill="#039056"/>
<path d="M7.97363 1.46303C7.97895 1.45398 7.98959 1.43536 7.99492 1.42578C7.98959 1.43536 7.97895 1.45398 7.97363 1.46303Z" fill="#039056"/>
<path d="M7.95459 1.49588C7.95938 1.48736 7.96896 1.4714 7.97374 1.46289C7.96896 1.4714 7.95938 1.48736 7.95459 1.49588Z" fill="#039056"/>
<path d="M7.89197 1.6058C7.89547 1.60068 7.89867 1.59535 7.90154 1.58984C7.89867 1.59535 7.89547 1.60068 7.89197 1.6058Z" fill="#039056"/>
<path d="M7.8335 1.71074C7.83562 1.70702 7.83988 1.69957 7.842 1.69531C7.83988 1.69957 7.83562 1.70702 7.8335 1.71074Z" fill="#039056"/>
<path d="M7.76038 1.8398C7.7657 1.83129 7.7758 1.8132 7.78113 1.80469C7.7758 1.8132 7.7657 1.83129 7.76038 1.8398Z" fill="#039056"/>
<path d="M7.73926 1.87549C7.74458 1.86645 7.75469 1.84889 7.76001 1.83984C7.75469 1.84889 7.74458 1.86645 7.73926 1.87549Z" fill="#039056"/>
<path d="M7.6792 1.98312C7.68079 1.97939 7.68505 1.97248 7.68718 1.96875C7.68505 1.97248 7.68079 1.97939 7.6792 1.98312Z" fill="#039056"/>
<path d="M7.62451 2.10844C7.62664 2.0994 7.63143 2.08131 7.63356 2.07227C7.63143 2.08131 7.62664 2.0994 7.62451 2.10844Z" fill="#039056"/>
<path d="M7.54688 2.23234C7.56589 2.20195 7.60445 2.14117 7.624 2.11133C7.60446 2.14117 7.56589 2.20195 7.54688 2.23234Z" fill="#039056"/>
<path d="M7.521 2.27286C7.52738 2.26275 7.54015 2.24253 7.54707 2.23242C7.54015 2.24253 7.52738 2.26275 7.521 2.27286Z" fill="#039056"/>
<path d="M7.45459 2.39639C7.46273 2.38065 7.47847 2.34972 7.48606 2.33398C7.47846 2.34972 7.46273 2.38065 7.45459 2.39639Z" fill="#039056"/>
<path d="M7.40088 2.49622C7.4078 2.48558 7.4211 2.46376 7.42748 2.45312C7.4211 2.46377 7.4078 2.48558 7.40088 2.49622Z" fill="#039056"/>
<path d="M7.37146 2.53955C7.37891 2.52891 7.3938 2.50869 7.40125 2.49805C7.3938 2.50869 7.37891 2.52891 7.37146 2.53955Z" fill="#039056"/>
<path d="M7.31055 2.63791C7.31746 2.62727 7.33076 2.60492 7.33715 2.59375C7.33076 2.60492 7.31746 2.62727 7.31055 2.63791Z" fill="#039056"/>
<path d="M7.24133 2.77604C7.24718 2.7638 7.25942 2.7388 7.26527 2.72656C7.25942 2.7388 7.24718 2.7638 7.24133 2.77604Z" fill="#039056"/>
<path d="M7.18945 2.87655C7.19584 2.86591 7.20914 2.84462 7.21552 2.83398C7.20914 2.84462 7.19584 2.86591 7.18945 2.87655Z" fill="#039056"/>
<path d="M7.15967 2.91739L7.18946 2.87695L7.15967 2.91739Z" fill="#039056"/>
<path d="M7.08984 3.03495C7.09853 3.01867 7.11698 2.98557 7.1262 2.96875C7.11698 2.98557 7.09853 3.01867 7.08984 3.03495Z" fill="#039056"/>
<path d="M7.0415 3.14164C7.04682 3.131 7.0564 3.11025 7.06172 3.09961C7.0564 3.11025 7.04682 3.131 7.0415 3.14164Z" fill="#039056"/>
<path d="M6.96924 3.26055C6.9872 3.23016 7.02365 3.17047 7.04161 3.14062C7.02365 3.17047 6.9872 3.23016 6.96924 3.26055Z" fill="#039056"/>
<path d="M6.93994 3.30233C6.94739 3.29169 6.96175 3.27041 6.9692 3.25977C6.96176 3.27041 6.94739 3.29169 6.93994 3.30233Z" fill="#039056"/>
<path d="M6.88574 3.39521C6.88947 3.38883 6.89691 3.37552 6.90064 3.36914C6.89691 3.37552 6.88947 3.38883 6.88574 3.39521Z" fill="#039056"/>
<path d="M6.82617 3.52003C6.82937 3.51258 6.83681 3.49768 6.84054 3.49023C6.83681 3.49768 6.82937 3.51258 6.82617 3.52003Z" fill="#039056"/>
<path d="M6.75146 3.65194C6.76995 3.61884 6.80746 3.55263 6.82647 3.51953L6.83017 3.58302C6.81063 3.60039 6.77101 3.63512 6.75146 3.65194Z" fill="#039056"/>
<path d="M6.73096 3.67965C6.73628 3.6722 6.74639 3.65784 6.75171 3.65039C6.74639 3.65784 6.73628 3.67221 6.73096 3.67965Z" fill="#039056"/>
<path d="M6.66309 3.80731C6.67259 3.78615 6.69214 3.74382 6.70165 3.72266C6.69214 3.74382 6.67259 3.78615 6.66309 3.80731Z" fill="#039056"/>
<path d="M6.60791 3.90584C6.61429 3.8952 6.62759 3.87392 6.63451 3.86328C6.62759 3.87392 6.61429 3.8952 6.60791 3.90584Z" fill="#039056"/>
<path d="M6.57959 3.9497C6.58704 3.93906 6.6014 3.91831 6.60885 3.9082C6.6014 3.91831 6.58704 3.93906 6.57959 3.9497Z" fill="#039056"/>
<path d="M6.51855 4.047C6.52494 4.03636 6.53824 4.01455 6.54515 4.00391C6.53824 4.01455 6.52494 4.03636 6.51855 4.047Z" fill="#039056"/>
<path d="M6.45508 4.16101C6.45827 4.15569 6.46466 4.14399 6.46785 4.13867C6.46465 4.14399 6.45827 4.15569 6.45508 4.16101Z" fill="#039056"/>
<path d="M6.39954 4.26222L6.41656 4.23242L6.39954 4.26222Z" fill="#039056"/>
<path d="M6.2998 4.43942C6.30406 4.4325 6.31257 4.41761 6.31683 4.41016C6.31258 4.41761 6.30406 4.4325 6.2998 4.43942Z" fill="#039056"/>
<path d="M6.24402 4.53885C6.24881 4.53033 6.25838 4.51384 6.26317 4.50586C6.25838 4.51384 6.24881 4.53033 6.24402 4.53885Z" fill="#039056"/>
<path d="M6.17578 4.66064C6.18163 4.65053 6.19334 4.62978 6.19972 4.61914C6.19334 4.62978 6.18164 4.65053 6.17578 4.66064Z" fill="#039056"/>
<path d="M6.15466 4.6958C6.15998 4.68729 6.17062 4.6692 6.17594 4.66016C6.17062 4.6692 6.15998 4.68729 6.15466 4.6958Z" fill="#039056"/>
<path d="M6.09326 4.80396L6.10177 4.78906L6.09326 4.80396Z" fill="#039056"/>
<path d="M6.03906 4.93177C6.04119 4.9222 6.04491 4.90358 6.04704 4.89453C6.04492 4.90358 6.04119 4.9222 6.03906 4.93177Z" fill="#039056"/>
<path d="M5.9624 5.05135C5.98142 5.02205 6.01998 4.9629 6.03953 4.93359C6.01998 4.9629 5.98142 5.02205 5.9624 5.05135Z" fill="#039056"/>
<path d="M5.93457 5.09228C5.94149 5.08217 5.95532 5.06142 5.96224 5.05078C5.95532 5.06142 5.94149 5.08217 5.93457 5.09228Z" fill="#039056"/>
<path d="M5.88086 5.18179L5.89576 5.15625L5.88086 5.18179Z" fill="#039056"/>
<path d="M5.80774 5.31707C5.81306 5.30749 5.8237 5.28887 5.82902 5.2793C5.8237 5.28887 5.81306 5.3075 5.80774 5.31707Z" fill="#039056"/>
<path d="M5.7876 5.34939C5.79239 5.34141 5.80196 5.32439 5.80728 5.31641C5.80196 5.32439 5.79238 5.34141 5.7876 5.34939Z" fill="#039056"/>
<path d="M5.72656 5.4563C5.72869 5.45258 5.73295 5.44513 5.73561 5.44141C5.73295 5.44513 5.72869 5.45258 5.72656 5.4563Z" fill="#039056"/>
<path d="M5.66797 5.56106C5.66956 5.55787 5.67329 5.55202 5.67488 5.54883C5.67329 5.55202 5.66956 5.55787 5.66797 5.56106Z" fill="#039056"/>
<path d="M11.3058 12.2575C11.3148 12.2423 11.3338 12.2119 11.3428 12.1973C11.3338 12.2119 11.3148 12.2423 11.3058 12.2575Z" fill="#039056"/>
<path d="M11.2822 12.3008C11.2849 12.2965 11.2897 12.2875 11.2918 12.2832C11.2897 12.2875 11.2849 12.2965 11.2822 12.3008Z" fill="#039056"/>
<path d="M11.1846 12.4827C11.1888 12.4758 11.1968 12.462 11.2005 12.4551C11.1968 12.462 11.1888 12.4758 11.1846 12.4827Z" fill="#039056"/>
<path d="M11.1289 12.5822C11.1332 12.5742 11.1422 12.5588 11.147 12.5508C11.1422 12.5588 11.1332 12.5742 11.1289 12.5822Z" fill="#039056"/>
<path d="M11.0757 12.6811C11.0783 12.6768 11.0831 12.6683 11.0853 12.6641C11.0831 12.6683 11.0783 12.6768 11.0757 12.6811Z" fill="#039056"/>
<path d="M11.0024 12.8109C11.0072 12.8023 11.0168 12.7853 11.0216 12.7773C11.0168 12.7853 11.0072 12.8023 11.0024 12.8109Z" fill="#039056"/>
<path d="M10.981 12.8462C10.9863 12.8372 10.9969 12.8196 11.0022 12.8105C10.9969 12.8196 10.9863 12.8371 10.981 12.8462Z" fill="#039056"/>
<path d="M10.9106 12.9701C10.9149 12.9632 10.9234 12.9483 10.9277 12.9414C10.9234 12.9483 10.9149 12.9632 10.9106 12.9701Z" fill="#039056"/>
<path d="M10.856 13.0662C10.8613 13.0566 10.873 13.0369 10.8783 13.0273C10.873 13.0369 10.8613 13.0566 10.856 13.0662Z" fill="#039056"/>
<path d="M10.7562 13.2454C10.76 13.2384 10.7679 13.2251 10.7717 13.2188C10.7679 13.2251 10.76 13.2384 10.7562 13.2454Z" fill="#039056"/>
<path d="M10.7007 13.3421C10.7065 13.332 10.7182 13.3128 10.7236 13.3027C10.7182 13.3128 10.7065 13.332 10.7007 13.3421Z" fill="#039056"/>
<path d="M10.6025 13.5168C10.6073 13.5088 10.6164 13.4924 10.6212 13.4844C10.6164 13.4924 10.6073 13.5088 10.6025 13.5168Z" fill="#039056"/>
<path d="M10.5483 13.6159C10.5521 13.6095 10.5595 13.5962 10.5632 13.5898C10.5595 13.5962 10.5521 13.6095 10.5483 13.6159Z" fill="#039056"/>
<path d="M10.4912 13.7193L10.5082 13.6895L10.4912 13.7193Z" fill="#039056"/>
<path d="M10.3887 13.8982C10.3935 13.8897 10.403 13.8732 10.4078 13.8652C10.403 13.8732 10.3935 13.8897 10.3887 13.8982Z" fill="#039056"/>
<path d="M10.3374 13.9938C10.3406 13.9874 10.3475 13.9751 10.3512 13.9688C10.3475 13.9751 10.3406 13.9874 10.3374 13.9938Z" fill="#039056"/>
<path d="M10.2788 14.0969C10.2825 14.0905 10.2905 14.0772 10.2942 14.0703C10.2905 14.0772 10.2825 14.0905 10.2788 14.0969Z" fill="#039056"/>
<path d="M10.1738 14.2796C10.1781 14.2727 10.1866 14.2589 10.1903 14.252C10.1866 14.2589 10.1781 14.2727 10.1738 14.2796Z" fill="#039056"/>
<path d="M10.1206 14.3718C10.1259 14.3622 10.1371 14.3436 10.1424 14.334C10.1371 14.3436 10.1259 14.3622 10.1206 14.3718Z" fill="#039056"/>
<path d="M10.0273 14.5401C10.0305 14.5342 10.038 14.5215 10.0412 14.5156C10.038 14.5215 10.0305 14.5342 10.0273 14.5401Z" fill="#039056"/>
<path d="M9.97168 14.642C9.97487 14.6362 9.98125 14.625 9.98444 14.6191C9.98125 14.625 9.97487 14.6362 9.97168 14.642Z" fill="#039056"/>
<path d="M9.9126 14.7471C9.91632 14.7413 9.92377 14.7285 9.92749 14.7227C9.92377 14.7285 9.91632 14.7413 9.9126 14.7471Z" fill="#039056"/>
<path d="M9.80701 14.9284C9.81286 14.9188 9.8235 14.8997 9.82935 14.8906C9.8235 14.8997 9.81286 14.9188 9.80701 14.9284Z" fill="#039056"/>
<path d="M9.75977 15.0175C9.76349 15.0106 9.77147 14.9957 9.77573 14.9883C9.77147 14.9957 9.76349 15.0106 9.75977 15.0175Z" fill="#039056"/>
<path d="M9.68799 15.1472C9.69224 15.1392 9.70182 15.1232 9.70608 15.1152C9.70182 15.1232 9.69224 15.1392 9.68799 15.1472Z" fill="#039056"/>
<path d="M9.67041 15.1768C9.67467 15.1694 9.68318 15.1539 9.68797 15.1465C9.68318 15.1539 9.67467 15.1694 9.67041 15.1768Z" fill="#039056"/>
<path d="M18.2993 0.175781C18.3036 0.182698 18.3116 0.197594 18.3158 0.205043C18.3116 0.197594 18.3036 0.182698 18.2993 0.175781Z" fill="#0D975B"/>
<path d="M18.7285 0.943359C18.7312 0.947615 18.7354 0.955597 18.7381 0.959321C18.7354 0.955595 18.7312 0.947615 18.7285 0.943359Z" fill="#0D975B"/>
<path d="M19.5209 2.35352C19.523 2.35724 19.5278 2.36469 19.5299 2.36894C19.5278 2.36469 19.523 2.35724 19.5209 2.35352Z" fill="#0D975B"/>
<path d="M19.6738 2.61914C19.6781 2.62606 19.6861 2.64042 19.6903 2.64787C19.6861 2.64042 19.6781 2.62606 19.6738 2.61914Z" fill="#0D975B"/>
<path d="M19.8896 3.00586C19.893 3.01081 19.896 3.01597 19.8987 3.02129C19.896 3.01597 19.893 3.01081 19.8896 3.00586Z" fill="#0D975B"/>
<path d="M20.0986 3.37891C20.1029 3.38582 20.1109 3.39966 20.1151 3.40657C20.1109 3.39966 20.1029 3.38582 20.0986 3.37891Z" fill="#0D975B"/>
<path d="M20.3115 3.75781C20.3158 3.76473 20.3238 3.77909 20.328 3.78601C20.3238 3.77909 20.3158 3.76473 20.3115 3.75781Z" fill="#0D975B"/>
<path d="M22.2344 8.06454C22.2554 7.97128 22.253 7.88037 22.246 7.78711C22.2554 7.88037 22.2554 7.97128 22.2344 8.06454Z" fill="#FBCD48"/>
<path d="M26.936 15.5957L26.963 15.5968L26.978 15.6372L26.9474 15.6393L26.936 15.5957Z" fill="#F9C940"/>
<path d="M13.5936 8.53711C13.5979 8.54403 13.6064 8.55839 13.6107 8.56584C13.6064 8.55839 13.5979 8.54402 13.5936 8.53711Z" fill="#E1B63A"/>
<path d="M13.6913 8.71094C13.695 8.71732 13.7019 8.72956 13.7057 8.73595C13.7019 8.72956 13.695 8.71732 13.6913 8.71094Z" fill="#E1B63A"/>
<path d="M13.7485 8.81641C13.7512 8.82066 13.756 8.82971 13.7586 8.83397C13.756 8.82971 13.7512 8.82066 13.7485 8.81641Z" fill="#E1B63A"/>
<path d="M13.8124 8.92969C13.8172 8.93767 13.8262 8.95363 13.831 8.96161C13.8262 8.95363 13.8172 8.93767 13.8124 8.92969Z" fill="#E1B63A"/>
<path d="M13.8309 8.96289C13.8357 8.97193 13.8458 8.98896 13.8512 8.99747C13.8458 8.98896 13.8357 8.97194 13.8309 8.96289Z" fill="#E1B63A"/>
<path d="M13.9012 9.08789C13.9039 9.09268 13.9098 9.10226 13.9124 9.10705C13.9098 9.10226 13.9039 9.09268 13.9012 9.08789Z" fill="#E1B63A"/>
<path d="M14.016 9.29102C14.0208 9.29953 14.0298 9.31602 14.0346 9.32401C14.0298 9.31602 14.0208 9.29953 14.016 9.29102Z" fill="#E1B63A"/>
<path d="M14.1166 9.4668C14.1214 9.47478 14.1304 9.48967 14.1347 9.49712C14.1304 9.48967 14.1214 9.47478 14.1166 9.4668Z" fill="#E1B63A"/>
<path d="M14.1792 9.57617C14.1898 9.59408 14.2104 9.62935 14.2209 9.64726C14.2104 9.62935 14.1898 9.59408 14.1792 9.57617Z" fill="#E1B63A"/>
<path d="M14.2352 9.67383C14.2383 9.68003 14.2417 9.68607 14.2453 9.69192C14.2417 9.68607 14.2383 9.68003 14.2352 9.67383Z" fill="#E1B63A"/>
<path d="M14.3383 9.86523C14.3483 9.87934 14.3684 9.90865 14.3784 9.9233C14.3684 9.90865 14.3483 9.87934 14.3383 9.86523Z" fill="#E1B63A"/>
<path d="M14.392 9.94727C14.3941 9.95152 14.3989 9.96056 14.4015 9.96482C14.3989 9.96056 14.3941 9.95152 14.392 9.94727Z" fill="#E1B63A"/>
<path d="M14.5497 10.2402C14.5597 10.2554 14.5793 10.2858 14.5893 10.301C14.5793 10.2858 14.5597 10.2554 14.5497 10.2402Z" fill="#E1B63A"/>
<path d="M14.6039 10.3281C14.606 10.3324 14.6113 10.3414 14.6135 10.3457C14.6113 10.3414 14.606 10.3324 14.6039 10.3281Z" fill="#E1B63A"/>
<path d="M14.6967 10.502C14.7014 10.5099 14.7105 10.5259 14.7153 10.5339C14.7105 10.5259 14.7014 10.5099 14.6967 10.502Z" fill="#E1B63A"/>
<path d="M14.7494 10.5957C14.7547 10.6047 14.7653 10.6239 14.7707 10.6329C14.7653 10.6239 14.7547 10.6047 14.7494 10.5957Z" fill="#E1B63A"/>
<path d="M14.8143 10.7129C14.8197 10.7225 14.8308 10.7422 14.8361 10.7517C14.8308 10.7422 14.8197 10.7225 14.8143 10.7129Z" fill="#E1B63A"/>
<path d="M14.8358 10.752C14.8406 10.7599 14.8502 10.777 14.855 10.7855C14.8502 10.777 14.8406 10.7599 14.8358 10.752Z" fill="#E1B63A"/>
<path d="M14.9086 10.8789C14.9107 10.8832 14.9155 10.8906 14.9176 10.8943C14.9155 10.8906 14.9107 10.8832 14.9086 10.8789Z" fill="#E1B63A"/>
<path d="M14.9691 10.9883C14.9734 10.9957 14.9819 11.0101 14.9861 11.0175C14.9819 11.0101 14.9734 10.9957 14.9691 10.9883Z" fill="#E1B63A"/>
<path d="M15.0184 11.0723C15.0243 11.0818 15.0355 11.1015 15.0413 11.1111C15.0355 11.1015 15.0243 11.0818 15.0184 11.0723Z" fill="#E1B63A"/>
<path d="M15.1322 11.2715C15.1414 11.2872 15.1604 11.3182 15.1696 11.3339C15.1604 11.3182 15.1414 11.2872 15.1322 11.2715Z" fill="#E1B63A"/>
<path d="M15.184 11.3574C15.1866 11.3622 15.1919 11.3707 15.1946 11.375C15.1919 11.3707 15.1866 11.3622 15.184 11.3574Z" fill="#E1B63A"/>
<path d="M15.2891 11.5293L15.2928 11.5346L15.296 11.5415C15.2944 11.5383 15.2907 11.5325 15.2891 11.5293Z" fill="#E1B63A"/>
<path d="M15.3978 11.752C15.4026 11.7599 15.4111 11.7754 15.4159 11.7833C15.4111 11.7754 15.4026 11.7599 15.3978 11.752Z" fill="#E1B63A"/>
<path d="M15.4159 11.7852L15.4372 11.8213L15.4159 11.7852Z" fill="#E1B63A"/>
<path d="M15.4872 11.9082C15.4898 11.913 15.4952 11.9226 15.4984 11.9274C15.4952 11.9226 15.4898 11.913 15.4872 11.9082Z" fill="#E1B63A"/>
<path d="M24.9708 12.0527C24.9751 12.0597 24.9836 12.0746 24.9878 12.0815C24.9836 12.0746 24.9751 12.0597 24.9708 12.0527Z" fill="#E7B732"/>
<path d="M25.0723 12.2227C25.0765 12.2296 25.085 12.2439 25.0893 12.2508C25.085 12.2439 25.0765 12.2296 25.0723 12.2227Z" fill="#E7B732"/>
<path d="M25.1315 12.3242C25.1341 12.329 25.1394 12.3391 25.1426 12.3439C25.1394 12.3391 25.1341 12.329 25.1315 12.3242Z" fill="#E7B732"/>
<path d="M25.1953 12.4414C25.2006 12.4505 25.2107 12.4691 25.2161 12.4781C25.2107 12.4691 25.2006 12.4505 25.1953 12.4414Z" fill="#E7B732"/>
<path d="M25.2158 12.4785C25.2206 12.4865 25.2302 12.503 25.235 12.5115C25.2302 12.503 25.2206 12.4865 25.2158 12.4785Z" fill="#E7B732"/>
<path d="M25.2866 12.6035L25.2951 12.6184L25.2866 12.6035Z" fill="#E7B732"/>
<path d="M25.3468 12.709C25.3489 12.7127 25.3532 12.7196 25.3553 12.7233C25.3532 12.7196 25.3489 12.7127 25.3468 12.709Z" fill="#E7B732"/>
<path d="M25.4066 12.8164C25.4119 12.8254 25.422 12.843 25.4274 12.8521C25.422 12.843 25.4119 12.8254 25.4066 12.8164Z" fill="#E7B732"/>
<path d="M25.4277 12.8535C25.4325 12.8626 25.4426 12.8801 25.4474 12.8886C25.4426 12.8801 25.4325 12.8626 25.4277 12.8535Z" fill="#E7B732"/>
<path d="M25.5005 12.9863C25.5081 13.0053 25.5233 13.0422 25.5309 13.0607C25.5233 13.0422 25.5081 13.0053 25.5005 12.9863Z" fill="#E7B732"/>
<path d="M25.5449 13.0898C25.5497 13.0978 25.5588 13.1133 25.5635 13.1207L25.5518 13.1053L25.5449 13.0898Z" fill="#E7B732"/>
<path d="M25.5942 13.1699C25.6053 13.1878 25.627 13.2236 25.6381 13.2416C25.627 13.2236 25.6053 13.1878 25.5942 13.1699Z" fill="#E7B732"/>
<path d="M25.6385 13.2422C25.6449 13.2528 25.6588 13.2741 25.6651 13.2848C25.6588 13.2741 25.6449 13.2528 25.6385 13.2422Z" fill="#E7B732"/>
<path d="M25.6992 13.3418C25.7098 13.3662 25.7309 13.4156 25.7415 13.44C25.7309 13.4156 25.7098 13.3662 25.6992 13.3418Z" fill="#E7B732"/>
<path d="M25.7578 13.4688C25.7605 13.4735 25.7658 13.4826 25.7685 13.4868L25.7637 13.4799L25.7578 13.4688Z" fill="#E7B732"/>
<path d="M25.8604 13.6309C25.8662 13.6404 25.8779 13.6596 25.8843 13.6692C25.8779 13.6596 25.8662 13.6404 25.8604 13.6309Z" fill="#E7B732"/>
<path d="M25.916 13.7227C25.9208 13.7312 25.9304 13.7477 25.9352 13.7556C25.9304 13.7477 25.9208 13.7312 25.916 13.7227Z" fill="#E7B732"/>
<path d="M25.9883 13.8535L26.0074 13.8876L25.9883 13.8535Z" fill="#E7B732"/>
<path d="M26.0073 13.8867C26.0121 13.8952 26.0217 13.9117 26.0265 13.9202C26.0217 13.9117 26.0121 13.8952 26.0073 13.8867Z" fill="#E7B732"/>
<path d="M26.0791 14.0137C26.082 14.0192 26.0852 14.0245 26.0887 14.0296C26.0852 14.0245 26.082 14.0192 26.0791 14.0137Z" fill="#E7B732"/>
<path d="M26.1367 14.1172C26.1399 14.1225 26.1463 14.1337 26.1495 14.139C26.1463 14.1337 26.1399 14.1225 26.1367 14.1172Z" fill="#E7B732"/>
<path d="M26.1987 14.2285C26.2046 14.2381 26.2158 14.2578 26.2216 14.2674C26.2157 14.2578 26.2046 14.2381 26.1987 14.2285Z" fill="#E7B732"/>
<path d="M26.2207 14.2676C26.2255 14.2761 26.2356 14.2931 26.2404 14.3016C26.2356 14.2931 26.2255 14.2761 26.2207 14.2676Z" fill="#E7B732"/>
<path d="M26.937 15.5964V15.5474L26.8803 15.4402C26.8781 15.4355 26.8758 15.4286 26.8735 15.4239L26.819 15.3306C26.8145 15.3213 26.8054 15.305 26.7986 15.2957C26.7941 15.284 26.7827 15.2677 26.7782 15.2584L26.726 15.1651C26.726 15.1628 26.7215 15.1558 26.7192 15.1511L26.6693 15.0602C26.667 15.0579 26.6625 15.0486 26.6602 15.0462L26.608 14.953C26.6012 14.9436 26.5921 14.9273 26.5876 14.918L26.5694 14.883L26.5149 14.7874C26.5081 14.7781 26.4968 14.7571 26.49 14.7455L26.4537 14.6919C26.4446 14.6825 26.4287 14.6616 26.4219 14.6522C26.4151 14.6406 26.4037 14.6173 26.3969 14.6079L26.372 14.5497C26.3674 14.5403 26.3583 14.517 26.3515 14.5054C26.3175 14.4354 26.2789 14.3678 26.2403 14.3002C26.2358 14.2932 26.2267 14.2746 26.2222 14.2676C26.2154 14.2559 26.204 14.2373 26.1972 14.2279L26.1495 14.1393C26.1473 14.1347 26.1405 14.123 26.1359 14.1184L26.0883 14.0298C26.086 14.0251 26.0815 14.0204 26.0792 14.0135L26.027 13.9202C26.0225 13.9132 26.0134 13.8969 26.0066 13.8876L25.9884 13.8526L25.9362 13.757C25.9294 13.7477 25.9203 13.7314 25.9158 13.722L25.884 13.6684C25.8772 13.6591 25.8659 13.6381 25.8613 13.6288C25.8386 13.5938 25.791 13.5239 25.7683 13.4889L25.7637 13.4796L25.7569 13.4703L25.7411 13.4399C25.732 13.4166 25.7093 13.3653 25.7002 13.342L25.6639 13.2838C25.6593 13.2744 25.6457 13.2511 25.6389 13.2418C25.6276 13.2231 25.6049 13.1882 25.5935 13.1695L25.564 13.1206L25.5527 13.1066L25.5459 13.0903L25.53 13.0599C25.5232 13.0413 25.5073 13.004 25.5005 12.9853L25.4483 12.8898C25.4415 12.8804 25.4324 12.8618 25.4279 12.8525C25.4233 12.8431 25.412 12.8268 25.4074 12.8175L25.3552 12.7242C25.353 12.7219 25.3484 12.7149 25.3462 12.7102L25.294 12.6193L25.2872 12.603L25.235 12.5121C25.2304 12.5028 25.2213 12.4864 25.2168 12.4771C25.21 12.4678 25.2009 12.4491 25.1941 12.4398L25.1419 12.3466C25.1396 12.3419 25.1328 12.3302 25.1306 12.3256L25.0897 12.251C25.0852 12.244 25.0761 12.23 25.0716 12.223C25.0511 12.188 25.0103 12.1158 24.9876 12.0808C24.983 12.0738 24.9762 12.0575 24.9717 12.0505C24.0594 10.4116 23.1357 8.77963 22.2166 7.14304C21.588 6.024 20.9593 4.90497 20.3284 3.78594C20.3239 3.77894 20.3171 3.76262 20.3125 3.75563C20.2467 3.63906 20.1832 3.5225 20.1151 3.40593C20.1106 3.39893 20.1037 3.38494 20.0992 3.37796C20.0334 3.25906 19.9676 3.13782 19.8995 3.02126C19.8972 3.01427 19.895 3.0096 19.8904 3.00493C19.8246 2.88603 19.7565 2.76713 19.6907 2.64825C19.6862 2.64125 19.6794 2.62493 19.6748 2.61794C19.6272 2.534 19.5772 2.45241 19.5318 2.36849C19.5296 2.36382 19.525 2.35683 19.5228 2.35217C19.2618 1.8859 19.0008 1.42197 18.7375 0.958037C18.7353 0.95337 18.7307 0.946369 18.7285 0.941716C18.5923 0.694595 18.4539 0.449808 18.3154 0.205009C18.3132 0.198022 18.3041 0.181701 18.2995 0.174702C18.27 0.121086 18.2405 0.0651368 18.2133 0.00918729C16.7949 -0.00946798 15.372 0.00685363 13.9536 0.00218632C12.2379 0.00451998 10.5199 -0.00246701 8.8042 0.00451998L8.80647 0.0324959L8.80873 0.0558185C8.9154 0.209679 9.01298 0.370543 9.09695 0.538391C10.5653 3.14715 12.0313 5.75823 13.4974 8.36932C13.5292 8.42527 13.5609 8.48122 13.595 8.53717C13.5995 8.54417 13.6063 8.55816 13.6109 8.56748C13.6313 8.60245 13.6722 8.67472 13.6926 8.71202C13.6948 8.71902 13.7017 8.73068 13.7062 8.73768L13.7493 8.81694C13.7516 8.8216 13.7561 8.83092 13.7607 8.83559L13.8129 8.93117C13.8174 8.93817 13.8265 8.95449 13.831 8.96148C13.8356 8.97081 13.8469 8.98945 13.8514 8.99878L13.9014 9.08737C13.9036 9.09203 13.9104 9.10136 13.9127 9.10602C13.9468 9.16663 13.9808 9.22958 14.0171 9.2902C14.0216 9.29952 14.0307 9.31584 14.0353 9.32516C14.0557 9.36014 14.0965 9.43241 14.117 9.46738C14.1215 9.4767 14.1306 9.49069 14.1351 9.50001L14.1805 9.57695C14.1919 9.5956 14.2123 9.63056 14.2214 9.64922L14.2372 9.67486C14.2395 9.68186 14.2418 9.68653 14.2463 9.69352L14.3394 9.86603C14.3484 9.88002 14.3689 9.90799 14.3802 9.92198L14.3938 9.94764C14.3961 9.95229 14.4006 9.96163 14.4029 9.96628C14.4506 10.0595 14.4982 10.1505 14.5504 10.2414C14.5618 10.2554 14.5799 10.2857 14.5913 10.302L14.6049 10.3276C14.6072 10.3323 14.6117 10.3416 14.614 10.3463C14.6367 10.3836 14.6775 10.4629 14.6979 10.5002C14.7025 10.5095 14.7116 10.5258 14.7161 10.5328L14.7501 10.5957C14.7547 10.6051 14.766 10.6237 14.7706 10.633L14.816 10.7123C14.8205 10.7216 14.8318 10.7426 14.8364 10.7519C14.8409 10.7589 14.85 10.7776 14.8568 10.7869L14.909 10.8802C14.9113 10.8848 14.9158 10.8918 14.9181 10.8965L14.9703 10.9874C14.9748 10.9944 14.9816 11.0084 14.9862 11.0177L15.0202 11.0737C15.0247 11.083 15.0361 11.104 15.0429 11.1133C15.0656 11.1529 15.111 11.2322 15.1337 11.2718C15.1428 11.2881 15.1609 11.3185 15.17 11.3348L15.1859 11.3581C15.1881 11.3628 15.1927 11.3721 15.1949 11.3767C15.2199 11.414 15.2653 11.491 15.2903 11.5283L15.2925 11.5353L15.2971 11.5423C15.3266 11.6145 15.3606 11.6845 15.3992 11.7521C15.4037 11.7591 15.4128 11.7754 15.4174 11.7847L15.4378 11.8197L15.4877 11.9083C15.49 11.9129 15.4968 11.9223 15.4991 11.9269L15.5331 11.9922C16.2139 13.2138 16.9129 14.4238 17.5847 15.65L17.6187 15.6524C19.2436 15.6594 20.8686 15.6547 22.4935 15.6547C23.9777 15.6477 25.4642 15.6757 26.9484 15.6407L26.937 15.5964ZM22.2348 8.06389C22.2552 7.97063 22.2529 7.87972 22.2461 7.78646C22.2552 7.87972 22.2552 7.97063 22.2348 8.06389Z" fill="#FBCD48"/>
<path d="M26.3521 14.5039C26.3574 14.5151 26.368 14.5374 26.3728 14.5486C26.368 14.5374 26.3574 14.5151 26.3521 14.5039Z" fill="#E7B732"/>
<path d="M26.397 14.6074C26.4034 14.6181 26.4161 14.6399 26.422 14.6505C26.4161 14.6399 26.4034 14.6181 26.397 14.6074Z" fill="#E7B732"/>
<path d="M26.4219 14.6523C26.4299 14.663 26.4453 14.6832 26.4533 14.6933C26.4453 14.6832 26.4299 14.663 26.4219 14.6523Z" fill="#E7B732"/>
<path d="M26.4893 14.7461C26.4956 14.7562 26.5084 14.7764 26.5153 14.7871C26.5084 14.7764 26.4956 14.7562 26.4893 14.7461Z" fill="#E7B732"/>
<path d="M26.5684 14.8828L26.5875 14.9169L26.5684 14.8828Z" fill="#E7B732"/>
<path d="M26.5878 14.916C26.5926 14.9245 26.6021 14.941 26.6075 14.9495C26.6021 14.941 26.5926 14.9245 26.5878 14.916Z" fill="#E7B732"/>
<path d="M26.66 15.0449C26.6622 15.0492 26.6664 15.0566 26.6685 15.0604C26.6664 15.0566 26.6622 15.0492 26.66 15.0449Z" fill="#E7B732"/>
<path d="M26.7188 15.1523C26.7209 15.1561 26.7251 15.163 26.7273 15.1667C26.7251 15.163 26.7209 15.1561 26.7188 15.1523Z" fill="#E7B732"/>
<path d="M26.7783 15.2578C26.7836 15.2669 26.7943 15.2849 26.7996 15.2945C26.7943 15.2849 26.7836 15.2669 26.7783 15.2578Z" fill="#E7B732"/>
<path d="M26.7998 15.2949C26.8051 15.304 26.8158 15.3221 26.8206 15.3311C26.8158 15.3221 26.8051 15.304 26.7998 15.2949Z" fill="#E7B732"/>
<path d="M26.873 15.4258C26.8752 15.4295 26.8789 15.437 26.881 15.4407C26.8789 15.437 26.8752 15.4295 26.873 15.4258Z" fill="#E7B732"/>
<path d="M26.9366 15.5488C26.9435 15.5611 26.9568 15.5855 26.9637 15.5978L26.936 15.5967L26.9366 15.5488Z" fill="#E7B732"/>
<path d="M4.70361 23.993L4.72702 23.959L4.72543 23.9936L4.70361 23.993Z" fill="#406AB2"/>
<path d="M27 15.6439V15.6463C25.4319 18.4286 23.8684 21.2133 22.3049 23.998C16.4442 23.9957 10.5835 23.9933 4.7251 23.9933L4.72738 23.9579C4.84006 23.7028 4.9918 23.469 5.12516 23.2233C6.00805 21.6503 6.89326 20.0796 7.77615 18.5066C8.32107 17.5524 8.83839 16.5816 9.4017 15.6392C12.1286 15.6487 14.8555 15.6227 17.5823 15.6487L17.6191 15.651C19.2424 15.6581 20.8679 15.6534 22.4935 15.6534C23.9765 15.6439 25.4641 15.6746 26.9471 15.6392L26.9793 15.6368L27 15.6439Z" fill="#4587F4"/>
<path d="M8.56396 20.3521C8.57088 20.3457 8.58418 20.334 8.5911 20.3281C8.58418 20.334 8.57088 20.3457 8.56396 20.3521Z" fill="#446DB3"/>
<path d="M8.50732 20.3982C8.52159 20.3868 8.54958 20.363 8.56385 20.3516C8.54958 20.363 8.52159 20.3868 8.50732 20.3982Z" fill="#446DB3"/>
<path d="M8.48132 20.4227C8.48824 20.4169 8.50101 20.4062 8.50793 20.4004C8.50101 20.4062 8.48824 20.4169 8.48132 20.4227Z" fill="#446DB3"/>
<path d="M7.87842 21.0028C7.8848 20.9975 7.8981 20.9863 7.90502 20.9805C7.8981 20.9863 7.8848 20.9975 7.87842 21.0028Z" fill="#446DB3"/>
<path d="M7.85156 21.0243C7.85848 21.019 7.87178 21.0078 7.8787 21.002C7.87178 21.0078 7.85848 21.019 7.85156 21.0243Z" fill="#446DB3"/>
<path d="M9.40149 15.6406L13.6026 23.9996L4.72705 23.96L9.40149 15.6406Z" fill="url(#paint0_linear_4633_9239)"/>
<defs>
<linearGradient id="paint0_linear_4633_9239" x1="7.0638" y1="19.8" x2="13.8267" y2="23.6009" gradientUnits="userSpaceOnUse">
<stop stop-color="#336FD6"/>
<stop offset="0.99705" stop-color="#508DF5" stop-opacity="0"/>
</linearGradient>
</defs>
</svg>
