<svg width="71" height="24" viewBox="0 0 71 24" fill="none" xmlns="http://www.w3.org/2000/svg">
<path d="M30.2142 12.3078C30.2142 15.6391 27.6065 18.0939 24.4063 18.0939C21.2061 18.0939 18.5984 15.6391 18.5984 12.3078C18.5984 8.95304 21.2061 6.52174 24.4063 6.52174C27.6065 6.52174 30.2142 8.95304 30.2142 12.3078ZM27.6718 12.3078C27.6718 10.2261 26.1604 8.80174 24.4063 8.80174C22.6522 8.80174 21.1408 10.2261 21.1408 12.3078C21.1408 14.3687 22.6522 15.8139 24.4063 15.8139C26.1604 15.8139 27.6718 14.3661 27.6718 12.3078Z" fill="#EA4335"/>
<path d="M42.7436 12.3078C42.7436 15.6391 40.1359 18.0939 36.9357 18.0939C33.7355 18.0939 31.1278 15.6391 31.1278 12.3078C31.1278 8.95565 33.7355 6.52174 36.9357 6.52174C40.1359 6.52174 42.7436 8.95304 42.7436 12.3078ZM40.2012 12.3078C40.2012 10.2261 38.6898 8.80174 36.9357 8.80174C35.1816 8.80174 33.6702 10.2261 33.6702 12.3078C33.6702 14.3687 35.1816 15.8139 36.9357 15.8139C38.6898 15.8139 40.2012 14.3661 40.2012 12.3078Z" fill="#FBBC05"/>
<path d="M54.751 6.87131V17.2591C54.751 21.5322 52.2294 23.2774 49.2485 23.2774C46.4424 23.2774 44.7535 21.4017 44.1166 19.8678L46.3301 18.947C46.7243 19.8887 47.6901 21 49.2458 21C51.154 21 52.3364 19.8235 52.3364 17.6087V16.7765H52.2477C51.6786 17.4783 50.5823 18.0913 49.1989 18.0913C46.304 18.0913 43.652 15.5713 43.652 12.3287C43.652 9.06261 46.304 6.52174 49.1989 6.52174C50.5797 6.52174 51.676 7.13478 52.2477 7.81565H52.3364V6.87391H54.751V6.87131ZM52.5165 12.3287C52.5165 10.2913 51.1566 8.80174 49.426 8.80174C47.6718 8.80174 46.2022 10.2913 46.2022 12.3287C46.2022 14.3452 47.6718 15.8139 49.426 15.8139C51.1566 15.8139 52.5165 14.3452 52.5165 12.3287Z" fill="#4285F4"/>
<path d="M58.7316 0.782608V17.7391H56.2518V0.782608H58.7316Z" fill="#34A853"/>
<path d="M68.3949 14.2122L70.3683 15.527C69.7314 16.4687 68.1965 18.0913 65.5445 18.0913C62.2555 18.0913 59.7992 15.5504 59.7992 12.3052C59.7992 8.86435 62.2764 6.51913 65.2599 6.51913C68.2644 6.51913 69.734 8.9087 70.2143 10.2L70.4779 10.8574L62.7384 14.0609C63.3309 15.2217 64.2524 15.8139 65.5445 15.8139C66.8392 15.8139 67.7371 15.1774 68.3949 14.2122ZM62.3207 12.1304L67.4943 9.98348C67.2098 9.26087 66.3536 8.75739 65.3461 8.75739C64.054 8.75739 62.2555 9.89739 62.3207 12.1304Z" fill="#EA4335"/>
<path d="M9.21163 10.8026V8.34783H17.4889C17.5698 8.77565 17.6116 9.28174 17.6116 9.82956C17.6116 11.6713 17.1078 13.9487 15.4842 15.5713C13.9049 17.2148 11.8872 18.0913 9.21424 18.0913C4.2599 18.0913 0.0938721 14.0583 0.0938721 9.10696C0.0938721 4.15565 4.2599 0.122608 9.21424 0.122608C11.955 0.122608 13.9075 1.19739 15.3745 2.59826L13.6413 4.33043C12.5893 3.34435 11.1641 2.57739 9.21163 2.57739C5.59376 2.57739 2.7642 5.4913 2.7642 9.10696C2.7642 12.7226 5.59376 15.6365 9.21163 15.6365C11.5583 15.6365 12.8948 14.6948 13.7509 13.8391C14.4453 13.1452 14.9021 12.1539 15.0822 10.8L9.21163 10.8026Z" fill="#4285F4"/>
</svg>
