<svg width="32" height="24" viewBox="0 0 32 24" fill="none" xmlns="http://www.w3.org/2000/svg">
<g clip-path="url(#clip0_4633_10253)">
<path d="M2.18128 24H7.27095V11.6394L0 6.18619V21.8187C0 23.0239 0.976126 24 2.18128 24Z" fill="#4285F4"/>
<path d="M24.7212 24H29.8109C31.016 24 31.9921 23.0239 31.9921 21.8187V6.18619L24.7212 11.6394V24Z" fill="#34A853"/>
<path d="M24.7212 2.18716V11.6394L31.9921 6.18619V3.27781C31.9921 0.582101 28.9147 -0.957525 26.7571 0.660265L24.7212 2.18716Z" fill="#FBBC04"/>
<path fill-rule="evenodd" clip-rule="evenodd" d="M7.271 11.6394V2.18715L15.9961 8.73098L24.7213 2.18715V11.6394L15.9961 18.1832L7.271 11.6394Z" fill="#EA4335"/>
<path d="M0 3.27781V6.18619L7.27095 11.6394V2.18716L5.23507 0.660265C3.07743 -0.957525 0 0.582101 0 3.27781Z" fill="#C5221F"/>
</g>
<defs>
<clipPath id="clip0_4633_10253">
<rect width="32" height="24" fill="white"/>
</clipPath>
</defs>
</svg>
