<svg width="70" height="57" viewBox="0 0 70 57" fill="none" xmlns="http://www.w3.org/2000/svg">
<path d="M39.1875 28.5L45.9404 36.2188L55.0208 42.0217L56.6042 28.5515L55.0208 15.3782L45.7662 20.4765L39.1875 28.5Z" fill="#00832D"/>
<path d="M0 40.7708V52.25C0 54.8743 2.12562 57 4.75 57H16.2292L18.6042 48.3233L16.2292 40.7708L8.35207 38.3958L0 40.7708Z" fill="#0066DA"/>
<path d="M16.2292 0L0 16.2292L8.35207 18.6042L16.2292 16.2292L18.5646 8.77562L16.2292 0Z" fill="#E94235"/>
<path d="M16.2292 16.2292H0V40.7708H16.2292V16.2292Z" fill="#2684FC"/>
<path d="M65.3876 6.87167L55.0208 15.3781V42.0217L65.4312 50.5598C66.9908 51.7789 69.2708 50.6667 69.2708 48.6875V8.70833C69.2708 6.70146 66.9393 5.60104 65.3876 6.87167ZM39.1875 28.5V40.7708H16.2291V57H50.2708C52.8952 57 55.0208 54.8744 55.0208 52.25V42.0217L39.1875 28.5Z" fill="#00AC47"/>
<path d="M50.2708 0H16.2291V16.2292H39.1875V28.5L55.0208 15.3781V4.75C55.0208 2.12562 52.8952 0 50.2708 0Z" fill="#FFBA00"/>
</svg>
