<svg width="85" height="24" viewBox="0 0 85 24" fill="none" xmlns="http://www.w3.org/2000/svg">
<path d="M9.20504 3.83008V10.6458H2.96333V3.83008H0V20.0999H2.96333V13.5055H9.20504V20.0999H12.1684V3.83008H9.20504Z" fill="#33475B"/>
<path d="M21.6524 14.8378C21.6524 15.4898 21.3941 16.1152 20.9344 16.5762C20.4746 17.0373 19.8511 17.2963 19.2009 17.2963C18.5507 17.2963 17.9271 17.0373 17.4674 16.5762C17.0076 16.1152 16.7494 15.4898 16.7494 14.8378V7.86914H13.9385V14.8378C13.9385 16.2361 14.4924 17.5771 15.4783 18.5659C16.4643 19.5546 17.8015 20.1101 19.1958 20.1101C20.5901 20.1101 21.9274 19.5546 22.9133 18.5659C23.8992 17.5771 24.4531 16.2361 24.4531 14.8378V7.86914H21.6524V14.8378Z" fill="#33475B"/>
<path d="M42.4786 8.58794C42.4786 7.15956 43.4209 6.70673 44.4532 6.70673C45.2852 6.70673 46.3843 7.34156 47.1029 8.11181L48.944 5.93648C48.0249 4.6901 46.1607 3.82812 44.6347 3.82812C41.5857 3.82812 39.3803 5.61906 39.3803 8.58794C39.3803 14.0962 46.0939 12.3489 46.0939 15.4314C46.0939 16.3822 45.1734 17.2223 44.1193 17.2223C42.4569 17.2223 41.9182 16.4069 41.1545 15.5449L39.1117 17.6751C40.4184 19.284 42.03 20.1009 43.961 20.1009C46.8576 20.1009 49.1879 18.2881 49.1879 15.4546C49.1879 9.33926 42.4743 11.2394 42.4743 8.58794" fill="#33475B"/>
<path d="M84.0114 17.4995C82.3504 17.4995 81.8785 16.7787 81.8785 15.6751V10.79H84.46V8.31474H81.8785V5.04883L79.0284 6.3316V16.2822C79.0284 18.8274 80.7794 20.1102 83.1809 20.1102C83.5575 20.117 83.9339 20.0868 84.3046 20.0199L85.0001 17.4529C84.6865 17.4747 84.3264 17.4966 84.0114 17.4966" fill="#33475B"/>
<path d="M32.3512 7.95175C30.9588 7.95175 29.9875 8.35653 29.0481 9.28112V3.92578H26.2329V13.8516C26.2329 17.5675 28.9117 20.1126 31.9215 20.1126C35.2608 20.1126 38.198 17.5223 38.198 14.0337C38.198 10.5886 35.4946 7.9532 32.3512 7.9532V7.95175ZM32.3338 17.2719C31.702 17.2719 31.0845 17.084 30.5592 16.732C30.0339 16.3801 29.6245 15.8798 29.3828 15.2944C29.141 14.7091 29.0777 14.065 29.201 13.4437C29.3242 12.8223 29.6285 12.2515 30.0752 11.8035C30.5219 11.3555 31.091 11.0504 31.7106 10.9268C32.3302 10.8032 32.9725 10.8667 33.5562 11.1091C34.1398 11.3516 34.6387 11.7622 34.9897 12.2889C35.3406 12.8157 35.528 13.435 35.528 14.0686C35.528 14.9182 35.1914 15.7329 34.5924 16.3337C33.9934 16.9344 33.1809 17.2719 32.3338 17.2719Z" fill="#33475B"/>
<path d="M62.9199 13.8856C62.9199 10.3911 59.9886 7.80664 56.6434 7.80664C53.6336 7.80664 50.9548 10.3518 50.9548 14.0676V23.9993H53.7701V18.6367C54.708 19.5598 55.6808 19.9661 57.0717 19.9661C60.215 19.9661 62.9185 17.3321 62.9185 13.8856H62.9199ZM60.2542 13.8507C60.2542 14.4842 60.0669 15.1036 59.7159 15.6303C59.3649 16.1571 58.8661 16.5677 58.2824 16.8102C57.6988 17.0526 57.0565 17.116 56.4369 16.9924C55.8173 16.8688 55.2482 16.5638 54.8014 16.1158C54.3547 15.6678 54.0505 15.097 53.9273 14.4756C53.804 13.8542 53.8673 13.2102 54.109 12.6248C54.3508 12.0395 54.7602 11.5392 55.2855 11.1872C55.8108 10.8353 56.4283 10.6474 57.0601 10.6474C57.9072 10.6474 58.7197 10.9849 59.3187 11.5856C59.9177 12.1863 60.2542 13.0011 60.2542 13.8507Z" fill="#33475B"/>
<path d="M72.4132 7.89826V5.04179C72.7923 4.86548 73.1133 4.58554 73.3388 4.23458C73.5643 3.88362 73.685 3.47608 73.6868 3.05945V2.99278C73.6852 2.41053 73.4523 1.85258 73.0388 1.44087C72.6254 1.02916 72.0651 0.797168 71.4803 0.795604H71.4134C70.8287 0.797168 70.2684 1.02916 69.8549 1.44087C69.4415 1.85258 69.2085 2.41053 69.2069 2.99278V3.05945C69.2088 3.47608 69.3295 3.88362 69.555 4.23458C69.7804 4.58554 70.1014 4.86548 70.4805 5.04179V7.89826C69.3906 8.06423 68.3641 8.514 67.5048 9.20205L59.6282 3.09945C59.6843 2.89814 59.7143 2.69052 59.7175 2.48163C59.718 1.9914 59.5726 1.512 59.2996 1.10406C59.0266 0.69612 58.6382 0.37796 58.1836 0.189814C57.729 0.00166813 57.2286 -0.0480134 56.7456 0.0470519C56.2626 0.142117 55.8188 0.377659 55.4703 0.723893C55.1218 1.07013 54.8842 1.5115 54.7875 1.9922C54.6909 2.4729 54.7396 2.97134 54.9275 3.42448C55.1153 3.87762 55.4339 4.26512 55.8429 4.53796C56.2519 4.81081 56.733 4.95676 57.2253 4.95734C57.6578 4.95574 58.0821 4.84077 58.4558 4.62399L66.2 10.6273C65.5025 11.6752 65.1385 12.9083 65.1558 14.1654C65.1731 15.4225 65.5707 16.6451 66.2967 17.6737L63.94 20.0205C63.7508 19.9605 63.5538 19.9286 63.3552 19.9257C62.9506 19.9257 62.5551 20.0452 62.2187 20.269C61.8822 20.4928 61.62 20.811 61.4652 21.1832C61.3103 21.5555 61.2698 21.9651 61.3488 22.3603C61.4277 22.7554 61.6225 23.1184 61.9086 23.4033C62.1948 23.6882 62.5593 23.8823 62.9561 23.9609C63.353 24.0395 63.7643 23.9991 64.1381 23.8449C64.5119 23.6907 64.8314 23.4296 65.0562 23.0946C65.281 22.7596 65.401 22.3657 65.401 21.9628C65.3983 21.7651 65.3662 21.5689 65.3058 21.3806L67.6372 19.059C68.3983 19.6378 69.2821 20.0359 70.2212 20.2227C71.1603 20.4096 72.1299 20.3803 73.0559 20.1372C73.9819 19.894 74.8399 19.4434 75.5644 18.8196C76.2888 18.1959 76.8606 17.4156 77.236 16.5383C77.6114 15.661 77.7806 14.7099 77.7306 13.7576C77.6805 12.8052 77.4127 11.8769 76.9474 11.0433C76.4822 10.2098 75.8318 9.49316 75.046 8.94808C74.2602 8.40301 73.3597 8.04393 72.4132 7.89826ZM71.4476 17.2944C70.8096 17.2944 70.186 17.106 69.6555 16.7531C69.1251 16.4001 68.7116 15.8985 68.4675 15.3115C68.2234 14.7246 68.1595 14.0788 68.284 13.4557C68.4084 12.8326 68.7156 12.2603 69.1667 11.8111C69.6179 11.3619 70.1926 11.056 70.8183 10.932C71.444 10.8081 72.0926 10.8717 72.682 11.1148C73.2714 11.3579 73.7752 11.7696 74.1296 12.2978C74.4841 12.826 74.6733 13.4471 74.6733 14.0823C74.6733 14.9342 74.3334 15.7512 73.7285 16.3536C73.1236 16.956 72.3031 17.2944 71.4476 17.2944Z" fill="#FF7A59"/>
</svg>
