<svg width="24" height="24" viewBox="0 0 24 24" fill="none" xmlns="http://www.w3.org/2000/svg">
<g clip-path="url(#clip0_4633_9024)">
<path d="M22.0224 11.4003C21.4877 10.4877 20.7248 9.72981 19.8086 9.20119C19.1092 8.79469 18.3859 8.53651 17.5692 8.42481V5.50057C17.9653 5.33646 18.303 5.05731 18.5387 4.69921C18.7743 4.34111 18.8972 3.92053 18.8913 3.49187C18.8927 3.2024 18.8369 2.91549 18.7272 2.64763C18.6174 2.37977 18.4558 2.13625 18.2516 1.93104C18.0474 1.72584 17.8047 1.563 17.5374 1.45189C17.2701 1.34078 16.9834 1.28359 16.694 1.28359C16.1076 1.28359 15.5452 1.51601 15.1299 1.92993C14.7146 2.34386 14.4803 2.90553 14.4784 3.49187C14.4784 4.38911 14.9544 5.1545 15.7729 5.50057V8.40833C15.0949 8.50645 14.4371 8.71294 13.8247 9.01991L5.99678 3.0927C6.05171 2.88579 6.09932 2.67155 6.09932 2.44633C6.09932 1.09499 5.00433 0 3.65299 0C2.30165 0 1.2085 1.09499 1.2085 2.44633C1.2085 3.79767 2.30348 4.89265 3.65482 4.89265C4.11626 4.89265 4.5429 4.75715 4.91094 4.53559L5.42365 4.92378L12.4459 9.98672C12.0741 10.3273 11.7281 10.7155 11.4516 11.1513C10.8913 12.0394 10.5488 13.0153 10.5488 14.081V14.3008C10.5513 15.0235 10.6815 15.7401 10.9334 16.4175C11.1458 16.9961 11.4571 17.5235 11.8434 17.9995L9.51062 20.3378C8.82031 20.0815 8.04576 20.2518 7.5239 20.7736C7.16867 21.127 6.96908 21.6086 6.97091 22.1103C6.97274 22.612 7.16867 23.09 7.52573 23.447C7.88279 23.8041 8.36071 24.0018 8.86242 24.0018C9.36414 24.0018 9.84571 23.8041 10.1991 23.447C10.5525 23.09 10.7539 22.612 10.7521 22.1103C10.752 21.9177 10.7223 21.7263 10.6642 21.5427L13.0739 19.133C13.4035 19.3619 13.7606 19.5541 14.1451 19.7189C14.9354 20.0656 15.7889 20.2451 16.6518 20.2463H16.8166C17.8274 20.2463 18.7814 20.0082 19.6768 19.523C20.5972 19.0295 21.3705 18.301 21.918 17.4118C22.4802 16.5145 22.7878 15.5203 22.7878 14.4271V14.3722C22.7878 13.2973 22.5388 12.3067 22.0187 11.3985L22.0224 11.4003ZM19.0799 16.4578C18.4262 17.1847 17.6736 17.6333 16.824 17.6333H16.6628C16.1776 17.6333 15.7015 17.4997 15.2383 17.2543C14.7303 16.9902 14.2999 16.5983 13.9895 16.1172C13.6525 15.6411 13.4694 15.1211 13.4694 14.5699V14.4051C13.4694 13.8631 13.5738 13.3486 13.8356 12.8634C14.1158 12.314 14.4948 11.9203 14.9984 11.5926C15.5019 11.2648 16.0201 11.1073 16.6097 11.1073H16.6647C17.1957 11.1073 17.7029 11.2117 18.179 11.4553C18.6613 11.7089 19.0709 12.0814 19.3692 12.5374C19.6645 12.9948 19.8471 13.5156 19.902 14.0572L19.9148 14.3996C19.9148 15.1449 19.6292 15.8352 19.0597 16.4614L19.0799 16.4578Z" fill="#F8761F"/>
</g>
<defs>
<clipPath id="clip0_4633_9024">
<rect width="24" height="24" fill="white"/>
</clipPath>
</defs>
</svg>
