<svg width="24" height="24" viewBox="0 0 24 24" fill="none" xmlns="http://www.w3.org/2000/svg">
<path d="M20.8 13.1951C20.7978 13.4058 20.7125 13.6071 20.5627 13.7552C20.4129 13.9034 20.2107 13.9865 20 13.9865C19.7893 13.9865 19.5872 13.9034 19.4373 13.7552C19.2876 13.6071 19.2023 13.4058 19.2 13.1951V6C19.2023 5.78931 19.2876 5.58804 19.4373 5.43987C19.5872 5.29171 19.7893 5.20859 20 5.20859C20.2107 5.20859 20.4129 5.29171 20.5627 5.43987C20.7125 5.58804 20.7978 5.78931 20.8 6V13.1951ZM20.5208 18.2026C20.3972 18.3084 17.4336 20.7952 12 20.7952C6.56644 20.7952 3.603 18.3083 3.47934 18.2025C3.31828 18.0644 3.21866 17.868 3.2024 17.6564C3.18613 17.4448 3.25456 17.2355 3.39262 17.0744C3.53039 16.9136 3.72634 16.8139 3.93747 16.7973C4.14861 16.7808 4.35768 16.8487 4.51886 16.9861C4.56581 17.0255 7.21217 19.1951 12.0001 19.1951C16.8481 19.1951 19.4535 17.0098 19.4793 16.9878C19.8141 16.7003 20.32 16.7389 20.6074 17.0745C20.7455 17.2356 20.8139 17.4449 20.7977 17.6565C20.7815 17.868 20.6819 18.0645 20.5208 18.2026ZM3.19997 6C3.20225 5.78931 3.28754 5.58804 3.43733 5.43987C3.58711 5.29171 3.7893 5.20859 3.99998 5.20859C4.21069 5.20859 4.41284 5.29171 4.56265 5.43987C4.71242 5.58804 4.79773 5.78931 4.8 6V13.1951C4.79773 13.4058 4.71242 13.6071 4.56265 13.7552C4.41284 13.9034 4.21069 13.9865 3.99998 13.9865C3.7893 13.9865 3.58711 13.9034 3.43733 13.7552C3.28754 13.6071 3.20225 13.4058 3.19997 13.1951V6ZM7.20008 4.39996C7.20333 4.18992 7.28901 3.98957 7.43869 3.84217C7.58834 3.69477 7.78998 3.61216 8.00004 3.61216C8.21015 3.61216 8.41179 3.69477 8.56143 3.84217C8.71112 3.98957 8.7968 4.18992 8.80004 4.39996V15.0876C8.7968 15.2976 8.71112 15.498 8.56143 15.6453C8.41179 15.7928 8.21015 15.8754 8.00004 15.8754C7.78998 15.8754 7.58834 15.7928 7.43869 15.6453C7.28901 15.498 7.20333 15.2976 7.20008 15.0876V4.40004V4.39996ZM11.2 3.99516C11.2 3.8901 11.2207 3.78607 11.2609 3.68901C11.3011 3.59195 11.36 3.50375 11.4343 3.42947C11.5086 3.35518 11.5968 3.29625 11.6939 3.25605C11.7909 3.21586 11.8949 3.19517 12 3.19519C12.1051 3.19516 12.2091 3.21584 12.3062 3.25603C12.4032 3.29622 12.4915 3.35515 12.5658 3.42943C12.64 3.50372 12.699 3.59192 12.7392 3.68899C12.7794 3.78605 12.8001 3.89009 12.8 3.99516V15.5951C12.7978 15.8058 12.7125 16.0071 12.5627 16.1552C12.4129 16.3034 12.2107 16.3865 12 16.3865C11.7893 16.3865 11.5872 16.3034 11.4374 16.1552C11.2876 16.0071 11.2023 15.8058 11.2 15.5951V3.99516ZM15.2 4.39996C15.2033 4.18992 15.289 3.98957 15.4387 3.84217C15.5883 3.69477 15.79 3.61216 16 3.61216C16.2101 3.61216 16.4117 3.69477 16.5614 3.84217C16.7111 3.98957 16.7968 4.18992 16.8 4.39996V15.0876C16.7968 15.2976 16.7111 15.498 16.5614 15.6453C16.4117 15.7928 16.2101 15.8754 16 15.8754C15.79 15.8754 15.5883 15.7928 15.4387 15.6453C15.289 15.498 15.2033 15.2976 15.2 15.0876V4.40004V4.39996ZM21 0H3C1.34316 0 0 1.34316 0 3V21C0 22.6568 1.34316 24 3 24H21C22.6568 24 24 22.6568 24 21V3C24 1.34316 22.6568 0 21 0Z" fill="#1F8DED"/>
</svg>
