<svg width="57" height="57" viewBox="0 0 57 57" fill="none" xmlns="http://www.w3.org/2000/svg">
<path d="M49.4001 31.3384C49.3947 31.8388 49.1921 32.3168 48.8364 32.6687C48.4806 33.0206 48.0004 33.218 47.5 33.218C46.9996 33.218 46.5195 33.0206 46.1637 32.6687C45.808 32.3168 45.6054 31.8388 45.6 31.3384V14.25C45.6054 13.7496 45.808 13.2716 46.1637 12.9197C46.5195 12.5678 46.9996 12.3704 47.5 12.3704C48.0004 12.3704 48.4806 12.5678 48.8364 12.9197C49.1921 13.2716 49.3947 13.7496 49.4001 14.25V31.3384ZM48.737 43.2312C48.4433 43.4825 41.4049 49.3887 28.5 49.3887C15.5953 49.3887 8.55712 43.4823 8.26344 43.2309C7.88091 42.9029 7.64432 42.4364 7.6057 41.934C7.56707 41.4315 7.72958 40.9343 8.05748 40.5517C8.38468 40.1697 8.85005 39.9331 9.3515 39.8937C9.85294 39.8544 10.3495 40.0156 10.7323 40.342C10.8438 40.4355 17.1289 45.5884 28.5002 45.5884C40.0142 45.5884 46.2021 40.3983 46.2633 40.346C47.0584 39.6631 48.2601 39.7548 48.9425 40.5519C49.2705 40.9345 49.4331 41.4317 49.3946 41.9341C49.3561 42.4366 49.1195 42.9031 48.737 43.2312V43.2312ZM7.59993 14.25C7.60534 13.7496 7.80791 13.2716 8.16365 12.9197C8.51938 12.5678 8.99958 12.3704 9.49996 12.3704C10.0004 12.3704 10.4805 12.5678 10.8363 12.9197C11.192 13.2716 11.3946 13.7496 11.4 14.25V31.3384C11.3946 31.8388 11.192 32.3168 10.8363 32.6687C10.4805 33.0206 10.0004 33.218 9.49996 33.218C8.99958 33.218 8.51938 33.0206 8.16365 32.6687C7.80791 32.3168 7.60534 31.8388 7.59993 31.3384V14.25ZM17.1002 10.4499C17.1079 9.95107 17.3114 9.47523 17.6669 9.12516C18.0223 8.77509 18.5012 8.57887 19.0001 8.57887C19.4991 8.57887 19.978 8.77509 20.3334 9.12516C20.6889 9.47523 20.8924 9.95107 20.9001 10.4499V35.833C20.8924 36.3318 20.6889 36.8077 20.3334 37.1577C19.978 37.5078 19.4991 37.704 19.0001 37.704C18.5012 37.704 18.0223 37.5078 17.6669 37.1577C17.3114 36.8077 17.1079 36.3318 17.1002 35.833V10.4501V10.4499ZM26.6001 9.4885C26.6 9.23899 26.6492 8.99191 26.7446 8.76139C26.8401 8.53087 26.9801 8.32141 27.1565 8.14498C27.3329 7.96855 27.5424 7.8286 27.7729 7.73313C28.0034 7.63766 28.2505 7.58854 28.5 7.58857C28.7495 7.58851 28.9966 7.63761 29.2272 7.73307C29.4577 7.82853 29.6672 7.96847 29.8437 8.1449C30.0201 8.32134 30.1601 8.5308 30.2556 8.76134C30.351 8.99188 30.4002 9.23897 30.4001 9.4885V37.0384C30.3947 37.5388 30.1922 38.0168 29.8364 38.3687C29.4807 38.7206 29.0005 38.918 28.5001 38.918C27.9997 38.918 27.5195 38.7206 27.1638 38.3687C26.8081 38.0168 26.6055 37.5388 26.6001 37.0384V9.4885V9.4885ZM36.1001 10.4499C36.1078 9.95107 36.3113 9.47523 36.6668 9.12516C37.0223 8.77509 37.5012 8.57887 38.0001 8.57887C38.499 8.57887 38.9779 8.77509 39.3334 9.12516C39.6888 9.47523 39.8924 9.95107 39.9 10.4499V35.833C39.8924 36.3318 39.6888 36.8077 39.3334 37.1577C38.9779 37.5078 38.499 37.704 38.0001 37.704C37.5012 37.704 37.0223 37.5078 36.6668 37.1577C36.3113 36.8077 36.1078 36.3318 36.1001 35.833V10.4501V10.4499ZM49.875 0H7.125C3.19 0 0 3.19 0 7.125V49.875C0 53.8098 3.19 57 7.125 57H49.875C53.81 57 57 53.8098 57 49.875V7.125C57 3.19 53.81 0 49.875 0Z" fill="#1F8DED"/>
</svg>
