<svg width="94" height="24" viewBox="0 0 94 24" fill="none" xmlns="http://www.w3.org/2000/svg">
<g clip-path="url(#clip0_4633_9779)">
<path d="M31.686 15.4667V8.53334C31.686 8.10667 32.031 7.76 32.4557 7.76C32.8803 7.76 33.2254 8.10667 33.2254 8.53334V15.4667C33.2254 15.8933 32.8803 16.24 32.4557 16.24C32.0576 16.24 31.686 15.8933 31.686 15.4667ZM40.4976 15.76L37.1535 10.4V15.4667C37.1535 15.8933 36.8084 16.24 36.3838 16.24C35.9591 16.24 35.6141 15.8933 35.6141 15.4667V8.74667C35.6141 8.18667 36.0653 7.70667 36.6492 7.70667H36.7023C37.0473 7.70667 37.3923 7.89334 37.5781 8.18667L40.8957 13.4667V8.48C40.8957 8.05334 41.2408 7.70667 41.6654 7.70667C42.0901 7.70667 42.4351 8.05334 42.4351 8.48V15.2C42.4351 15.76 41.9839 16.24 41.4 16.24C41.0285 16.24 40.6834 16.08 40.4976 15.76ZM47.7964 9.2V15.5467C47.7964 15.9467 47.4779 16.2667 47.0798 16.2667H46.9737C46.5755 16.2667 46.257 15.9467 46.257 15.5467V9.2H44.4788C44.0807 9.2 43.7622 8.88 43.7622 8.48C43.7622 8.08 44.0807 7.76 44.4788 7.76H49.6012C49.9993 7.76 50.3178 8.08 50.3178 8.48C50.3178 8.88 49.9993 9.2 49.6012 9.2H47.7964ZM51.5387 15.5467V8.42667C51.5387 8.05334 51.8572 7.73334 52.2288 7.73334H56.8735C57.2451 7.73334 57.5636 8.05334 57.5636 8.42667C57.5636 8.8 57.2451 9.12 56.8735 9.12H53.0781V11.0933H56.3427C56.7142 11.0933 57.0327 11.4133 57.0327 11.7867C57.0327 12.16 56.7142 12.48 56.3427 12.48H53.0781V14.8H56.8735C57.2451 14.8 57.5636 15.12 57.5636 15.4933C57.5636 15.8667 57.2451 16.1867 56.8735 16.1867H52.2288C51.8572 16.24 51.5387 15.9467 51.5387 15.5467ZM64.0661 15.7867L62.8452 13.04H60.9608V15.4933C60.9608 15.92 60.6158 16.2667 60.1911 16.2667H60.1646C59.7399 16.2667 59.3949 15.92 59.3949 15.4933V8.53334C59.3949 8.10667 59.7399 7.76 60.1646 7.76H62.9779C64.9951 7.76 65.924 9.04 65.924 10.4C65.924 11.5467 65.3136 12.4267 64.3846 12.7733L65.4463 15.1733C65.6586 15.68 65.3136 16.24 64.7562 16.24C64.4642 16.24 64.1723 16.08 64.0661 15.7867ZM63.0045 9.09334H60.9874V11.6267H63.031C63.9069 11.6267 64.4112 11.1733 64.4112 10.3733C64.3846 9.70667 63.8803 9.09334 63.0045 9.09334ZM73.2493 15.3867C72.6124 16.0267 71.7365 16.4 70.8341 16.4C69.9317 16.4 69.0824 16.1067 68.4454 15.44C67.5165 14.5067 67.3838 13.3867 67.3838 12C67.3838 10.6133 67.5165 9.46667 68.4454 8.56C69.0824 7.92 69.9317 7.6 70.8341 7.6C71.7365 7.6 72.6124 7.94667 73.2493 8.58667C73.4617 8.82667 73.6475 9.06667 73.7802 9.36C74.019 9.86667 73.6475 10.4267 73.0901 10.4267C72.7716 10.4267 72.5062 10.24 72.3735 9.94667C72.3204 9.78667 72.2142 9.65334 72.1081 9.52C71.8427 9.17334 71.3649 8.98667 70.8341 8.98667C70.3564 8.98667 69.8786 9.2 69.5336 9.54667C68.9497 10.16 68.9497 11.2 68.9497 12C68.9497 12.7733 68.9497 13.84 69.5336 14.4533C69.8786 14.8 70.3564 15.0133 70.8341 15.0133C71.3649 15.0133 71.8427 14.8267 72.1081 14.48C72.2142 14.3467 72.3204 14.1867 72.3735 14.0267C72.4797 13.7333 72.7716 13.5467 73.0901 13.5467C73.6475 13.5467 74.019 14.1067 73.7802 14.6133C73.6475 14.9067 73.4617 15.1733 73.2493 15.3867ZM81.5036 15.44C80.8666 16.08 79.9642 16.4 79.0618 16.4C78.1594 16.4 77.2836 16.08 76.6201 15.44C75.6911 14.5067 75.5584 13.3867 75.5584 12C75.5584 10.6133 75.7177 9.46667 76.6201 8.56C77.257 7.92 78.1594 7.6 79.0618 7.6C79.9642 7.6 80.8401 7.92 81.5036 8.56C82.4326 9.49334 82.5653 10.6133 82.5653 12C82.5918 13.3867 82.4326 14.5333 81.5036 15.44ZM80.4154 9.57334C80.0704 9.22667 79.5661 9.01334 79.0884 9.01334C78.6106 9.01334 78.0798 9.22667 77.7613 9.57334C77.1774 10.1867 77.1509 11.2267 77.1509 12.0267C77.1509 12.8 77.1774 13.84 77.7613 14.4533C78.1064 14.8 78.6106 15.0133 79.0884 15.0133C79.5661 15.0133 80.0969 14.8 80.4154 14.4533C80.9993 13.84 81.0259 12.8 81.0259 12.0267C81.0259 11.2267 80.9993 10.16 80.4154 9.57334ZM91.5096 15.4933V10.1867L89.519 15.6C89.4129 15.92 89.0944 16.1333 88.7493 16.1333C88.4043 16.1333 88.1124 15.92 87.9797 15.6L85.9891 10.1067V15.4933C85.9891 15.92 85.644 16.24 85.2459 16.24C84.8213 16.24 84.5028 15.8933 84.5028 15.4933V8.90667C84.5028 8.26667 85.0336 7.73334 85.6706 7.73334H85.7767C86.2545 7.73334 86.7057 8.02667 86.8649 8.50667L88.8024 13.7867L90.7665 8.50667C90.9257 8.05334 91.3769 7.73334 91.8547 7.73334C92.4916 7.73334 93.0225 8.26667 93.0225 8.90667V15.4933C93.0225 15.92 92.6774 16.24 92.2793 16.24C91.8281 16.24 91.5096 15.92 91.5096 15.4933ZM20.9368 0H3.0216C1.34952 0 0.0224609 1.33333 0.0224609 2.98667V20.9867C0.0224609 22.6667 1.34952 24 3.0216 24H20.9368C22.5824 24 23.9094 22.6667 23.9094 21.0133V3.01333C23.9094 1.33333 22.5824 0 20.9368 0ZM15.1509 4.4C15.1509 3.94667 15.4959 3.6 15.9471 3.6C16.3983 3.6 16.7434 3.94667 16.7434 4.4V15.0933C16.7434 15.5467 16.3983 15.8933 15.9471 15.8933C15.4959 15.8933 15.1509 15.5467 15.1509 15.0933V4.4ZM11.1697 4C11.1697 3.54667 11.5148 3.2 11.966 3.2C12.4172 3.2 12.7622 3.54667 12.7622 4V15.6C12.7622 16.0533 12.4172 16.4 11.966 16.4C11.5148 16.4 11.1697 16.0533 11.1697 15.6V4ZM7.18856 4.4C7.18856 3.94667 7.53359 3.6 7.98479 3.6C8.43599 3.6 8.78102 3.94667 8.78102 4.4V15.0933C8.78102 15.5467 8.43599 15.8933 7.98479 15.8933C7.53359 15.8933 7.18856 15.5467 7.18856 15.0933V4.4ZM3.20739 6C3.20739 5.54667 3.55243 5.2 4.00363 5.2C4.45482 5.2 4.79986 5.54667 4.79986 6V13.2C4.79986 13.6533 4.45482 14 4.00363 14C3.55243 14 3.20739 13.6533 3.20739 13.2V6ZM20.4591 18.2133C20.3264 18.32 17.3803 20.8 11.966 20.8C6.55157 20.8 3.60551 18.32 3.4728 18.2133C3.12777 17.92 3.10123 17.4133 3.39318 17.0933C3.68513 16.7467 4.18941 16.72 4.50791 17.0133C4.56099 17.0133 7.18856 19.2 11.966 19.2C16.7964 19.2 19.3975 17.0133 19.3975 16.9867C19.7425 16.6933 20.2468 16.7467 20.5122 17.0667C20.8307 17.4133 20.7776 17.92 20.4591 18.2133ZM20.7245 13.2C20.7245 13.6533 20.3795 14 19.9283 14C19.4771 14 19.132 13.6533 19.132 13.2V6C19.132 5.54667 19.4771 5.2 19.9283 5.2C20.3795 5.2 20.7245 5.54667 20.7245 6V13.2Z" fill="#1F8DED"/>
</g>
<defs>
<clipPath id="clip0_4633_9779">
<rect width="93.4579" height="24" fill="white"/>
</clipPath>
</defs>
</svg>
