<svg width="57" height="24" viewBox="0 0 57 24" fill="none" xmlns="http://www.w3.org/2000/svg">
<path d="M0 0H57V24H0V0Z" fill="white" fill-opacity="0.01"/>
<path d="M28.5563 3.80078H30.649V14.2085C30.649 16.9529 29.4039 18.8687 26.5166 18.8687C25.4305 18.8687 24.5828 18.6875 24 18.4804V16.4869C24.6358 16.7458 25.404 16.8753 26.1722 16.8753C27.947 16.8753 28.5563 15.8396 28.5563 14.338V3.80078Z" fill="#253858"/>
<path d="M34.4899 3C35.3111 3 35.8939 3.49191 35.8939 4.37217C35.8939 5.22654 35.3111 5.74434 34.4899 5.74434C33.6687 5.74434 33.0859 5.25243 33.0859 4.37217C33.0859 3.5178 33.6687 3 34.4899 3ZM33.4568 7.37539H35.47V18.767H33.4568V7.37539Z" fill="#253858"/>
<path d="M40.4501 18.7662H38.4897V7.37456H40.4501V9.36812C41.1387 8.02183 42.3043 7.0639 44.5825 7.19335V9.10921C42.013 8.8503 40.4501 9.60108 40.4501 12.0348V18.7662Z" fill="#253858"/>
<path d="M53.9866 16.7219C53.245 18.2235 51.841 19.0001 50.0397 19.0001C46.9404 19.0001 45.3774 16.4371 45.3774 13.0714C45.3774 9.86096 47.0198 7.14258 50.2781 7.14258C51.9734 7.14258 53.298 7.89335 53.9866 9.3691V7.37554H55.9999V18.7672H53.9866V16.7219ZM50.5695 17.1879C52.3708 17.1879 53.9602 16.0746 53.9602 13.5373V12.6312C53.9602 10.094 52.5032 8.98073 50.7814 8.98073C48.5297 8.98073 47.3642 10.4306 47.3642 13.0714C47.3907 15.8157 48.5033 17.1879 50.5695 17.1879Z" fill="#253858"/>
<path d="M17.248 2H8.58008C8.58008 3.03775 8.99231 4.03299 9.72611 4.76679C10.4599 5.50059 11.4552 5.91282 12.4929 5.91282H14.0896V7.45438C14.091 9.61343 15.8409 11.3633 18 11.3647V2.75198C18 2.33668 17.6633 2 17.248 2Z" fill="#2684FF"/>
<path d="M12.9593 6.31891H4.29138C4.29277 8.47796 6.04269 10.2278 8.20171 10.2292H9.79843V11.7758C9.80118 13.9348 11.5522 15.6836 13.7113 15.6836V7.0709C13.7113 6.6556 13.3746 6.31891 12.9593 6.31891Z" fill="url(#paint0_linear_4633_9733)"/>
<path d="M8.66789 10.6353H0C0 12.7963 1.75183 14.5481 3.91282 14.5481H5.51454V16.0897C5.51593 18.2468 7.26278 19.9959 9.41988 20V11.3873C9.41988 10.9719 9.08318 10.6353 8.66789 10.6353Z" fill="url(#paint1_linear_4633_9733)"/>
<defs>
<linearGradient id="paint0_linear_4633_9733" x1="13.5258" y1="6.33394" x2="9.86096" y2="10.158" gradientUnits="userSpaceOnUse">
<stop offset="0.18" stop-color="#0052CC"/>
<stop offset="1" stop-color="#2684FF"/>
</linearGradient>
<linearGradient id="paint1_linear_4633_9733" x1="9.48253" y1="10.6779" x2="5.24324" y2="14.8487" gradientUnits="userSpaceOnUse">
<stop offset="0.18" stop-color="#0052CC"/>
<stop offset="1" stop-color="#2684FF"/>
</linearGradient>
</defs>
</svg>
