<svg width="57" height="57" viewBox="0 0 57 57" fill="none" xmlns="http://www.w3.org/2000/svg"> <path d="M54.6187 0H27.1704C27.1704 3.2862 28.4758 6.4378 30.7995 8.76149C33.1232 11.0852 36.2748 12.3906 39.561 12.3906H44.6173V17.2722C44.6217 24.1092 50.163 29.6505 57 29.6549V2.38128C57 1.06614 55.9338 0 54.6187 0Z" fill="#2684FF"/> <path d="M41.0375 13.6765H13.5892C13.5936 20.5135 19.135 26.0548 25.9719 26.0592H31.0282V30.9567C31.0369 37.7936 36.5818 43.3314 43.4188 43.3314V16.0578C43.4188 14.7427 42.3526 13.6765 41.0375 13.6765Z" fill="url(#paint0_linear_251:365)"/> <path d="M27.4483 27.3451H0C0 34.1882 5.54747 39.7357 12.3906 39.7357H17.4627V44.6173C17.4671 51.4481 22.9988 56.9869 29.8296 57V29.7264C29.8296 28.4112 28.7634 27.3451 27.4483 27.3451Z" fill="url(#paint1_linear_251:365)"/> <defs> <linearGradient id="paint0_linear_251:365" x1="42.8314" y1="13.7241" x2="31.2262" y2="25.8336" gradientUnits="userSpaceOnUse"> <stop offset="0.18" stop-color="#0052CC"/> <stop offset="1" stop-color="#2684FF"/> </linearGradient> <linearGradient id="paint1_linear_251:365" x1="30.028" y1="27.48" x2="16.6036" y2="40.6876" gradientUnits="userSpaceOnUse"> <stop offset="0.18" stop-color="#0052CC"/> <stop offset="1" stop-color="#2684FF"/> </linearGradient> </defs> </svg>
