<svg width="24" height="24" viewBox="0 0 24 24" fill="none" xmlns="http://www.w3.org/2000/svg">
<path d="M22.9974 0H11.4402C11.4402 1.38366 11.9898 2.71065 12.9682 3.68905C13.9466 4.66745 15.2736 5.21709 16.6573 5.21709H18.7862V7.27251C18.7881 10.1512 21.1213 12.4844 24 12.4863V1.00264C24 0.448901 23.5511 0 22.9974 0Z" fill="#2684FF"/>
<path d="M17.2789 5.75851H5.72174C5.72359 8.63725 8.05681 10.9704 10.9355 10.9723H13.0645V13.0344C13.0681 15.9131 15.4028 18.2448 18.2816 18.2448V6.76117C18.2816 6.20744 17.8326 5.75851 17.2789 5.75851Z" fill="url(#paint0_linear_4633_9763)"/>
<path d="M11.5572 11.5137H0C0 14.395 2.33578 16.7308 5.2171 16.7308H7.35272V18.7862C7.35457 21.6624 9.68371 23.9945 12.5598 24V12.5164C12.5598 11.9626 12.1109 11.5137 11.5572 11.5137Z" fill="url(#paint1_linear_4633_9763)"/>
<defs>
<linearGradient id="paint0_linear_4633_9763" x1="18.0342" y1="5.77856" x2="13.1478" y2="10.8773" gradientUnits="userSpaceOnUse">
<stop offset="0.18" stop-color="#0052CC"/>
<stop offset="1" stop-color="#2684FF"/>
</linearGradient>
<linearGradient id="paint1_linear_4633_9763" x1="12.6434" y1="11.5705" x2="6.99099" y2="17.1316" gradientUnits="userSpaceOnUse">
<stop offset="0.18" stop-color="#0052CC"/>
<stop offset="1" stop-color="#2684FF"/>
</linearGradient>
</defs>
</svg>
