<svg width="92" height="24" viewBox="0 0 92 24" fill="none" xmlns="http://www.w3.org/2000/svg">
<g clip-path="url(#clip0_4674_9715)">
<path d="M0.151123 14.0247L9.97533 23.8489C4.95843 23.0008 0.999151 19.0416 0.151123 14.0247Z" fill="#5E6AD2"/>
<path d="M0 11.3576L12.6424 24C13.3943 23.9599 14.1278 23.8505 14.8367 23.6783L0.321746 9.16333C0.149505 9.87223 0.0401737 10.6057 0 11.3576Z" fill="#5E6AD2"/>
<path d="M0.950989 7.27657L16.7234 23.049C17.2979 22.8025 17.8493 22.5124 18.3734 22.183L1.81705 5.62665C1.48761 6.15075 1.19754 6.70211 0.950989 7.27657Z" fill="#5E6AD2"/>
<path d="M2.88562 4.17926C5.08788 1.62035 8.35038 0 11.9913 0C18.6235 0 24 5.37645 24 12.0087C24 15.6496 22.3797 18.9121 19.8207 21.1144L2.88562 4.17926Z" fill="#5E6AD2"/>
</g>
<path d="M34.2034 16.78H38.8034V19H31.4034V5.04H34.2034V16.78ZM42.0031 6.6C41.5098 6.6 41.0965 6.44667 40.7631 6.14C40.4431 5.82 40.2831 5.42667 40.2831 4.96C40.2831 4.49333 40.4431 4.10667 40.7631 3.8C41.0965 3.48 41.5098 3.32 42.0031 3.32C42.4965 3.32 42.9031 3.48 43.2231 3.8C43.5565 4.10667 43.7231 4.49333 43.7231 4.96C43.7231 5.42667 43.5565 5.82 43.2231 6.14C42.9031 6.44667 42.4965 6.6 42.0031 6.6ZM43.3831 7.92V19H40.5831V7.92H43.3831ZM52.2895 7.76C53.6095 7.76 54.6762 8.18 55.4895 9.02C56.3029 9.84667 56.7095 11.0067 56.7095 12.5V19H53.9095V12.88C53.9095 12 53.6895 11.3267 53.2495 10.86C52.8095 10.38 52.2095 10.14 51.4495 10.14C50.6762 10.14 50.0629 10.38 49.6095 10.86C49.1695 11.3267 48.9495 12 48.9495 12.88V19H46.1495V7.92H48.9495V9.3C49.3229 8.82 49.7962 8.44667 50.3695 8.18C50.9562 7.9 51.5962 7.76 52.2895 7.76ZM69.6722 13.22C69.6722 13.62 69.6455 13.98 69.5922 14.3H61.4922C61.5589 15.1 61.8389 15.7267 62.3322 16.18C62.8255 16.6333 63.4322 16.86 64.1522 16.86C65.1922 16.86 65.9322 16.4133 66.3722 15.52H69.3922C69.0722 16.5867 68.4589 17.4667 67.5522 18.16C66.6455 18.84 65.5322 19.18 64.2122 19.18C63.1455 19.18 62.1855 18.9467 61.3322 18.48C60.4922 18 59.8322 17.3267 59.3522 16.46C58.8855 15.5933 58.6522 14.5933 58.6522 13.46C58.6522 12.3133 58.8855 11.3067 59.3522 10.44C59.8189 9.57333 60.4722 8.90667 61.3122 8.44C62.1522 7.97333 63.1189 7.74 64.2122 7.74C65.2655 7.74 66.2055 7.96667 67.0322 8.42C67.8722 8.87333 68.5189 9.52 68.9722 10.36C69.4389 11.1867 69.6722 12.14 69.6722 13.22ZM66.7722 12.42C66.7589 11.7 66.4989 11.1267 65.9922 10.7C65.4855 10.26 64.8655 10.04 64.1322 10.04C63.4389 10.04 62.8522 10.2533 62.3722 10.68C61.9055 11.0933 61.6189 11.6733 61.5122 12.42H66.7722ZM70.9959 13.42C70.9959 12.3 71.2159 11.3067 71.6559 10.44C72.1093 9.57333 72.7159 8.90667 73.4759 8.44C74.2493 7.97333 75.1093 7.74 76.0559 7.74C76.8826 7.74 77.6026 7.90667 78.2159 8.24C78.8426 8.57333 79.3426 8.99333 79.7159 9.5V7.92H82.5359V19H79.7159V17.38C79.3559 17.9 78.8559 18.3333 78.2159 18.68C77.5893 19.0133 76.8626 19.18 76.0359 19.18C75.1026 19.18 74.2493 18.94 73.4759 18.46C72.7159 17.98 72.1093 17.3067 71.6559 16.44C71.2159 15.56 70.9959 14.5533 70.9959 13.42ZM79.7159 13.46C79.7159 12.78 79.5826 12.2 79.3159 11.72C79.0493 11.2267 78.6893 10.8533 78.2359 10.6C77.7826 10.3333 77.2959 10.2 76.7759 10.2C76.2559 10.2 75.7759 10.3267 75.3359 10.58C74.8959 10.8333 74.5359 11.2067 74.2559 11.7C73.9893 12.18 73.8559 12.7533 73.8559 13.42C73.8559 14.0867 73.9893 14.6733 74.2559 15.18C74.5359 15.6733 74.8959 16.0533 75.3359 16.32C75.7893 16.5867 76.2693 16.72 76.7759 16.72C77.2959 16.72 77.7826 16.5933 78.2359 16.34C78.6893 16.0733 79.0493 15.7 79.3159 15.22C79.5826 14.7267 79.7159 14.14 79.7159 13.46ZM88.0706 9.64C88.4306 9.05333 88.8973 8.59333 89.4706 8.26C90.0573 7.92667 90.724 7.76 91.4706 7.76V10.7H90.7306C89.8506 10.7 89.184 10.9067 88.7306 11.32C88.2906 11.7333 88.0706 12.4533 88.0706 13.48V19H85.2706V7.92H88.0706V9.64Z" fill="#333333"/>
<defs>
<clipPath id="clip0_4674_9715">
<rect width="24" height="24" fill="white"/>
</clipPath>
</defs>
</svg>
