<svg width="24" height="24" viewBox="0 0 24 24" fill="none" xmlns="http://www.w3.org/2000/svg">
<g clip-path="url(#clip0_4633_9785)">
<path d="M0.151123 14.0247L9.97533 23.8489C4.95843 23.0008 0.999151 19.0416 0.151123 14.0247Z" fill="#5E6AD2"/>
<path d="M0 11.3576L12.6425 24C13.3943 23.9599 14.1278 23.8505 14.8367 23.6783L0.321746 9.16333C0.149505 9.87223 0.0401738 10.6057 0 11.3576Z" fill="#5E6AD2"/>
<path d="M0.950974 7.27657L16.7234 23.049C17.2979 22.8025 17.8493 22.5124 18.3734 22.183L1.81704 5.62665C1.48759 6.15075 1.19752 6.70211 0.950974 7.27657Z" fill="#5E6AD2"/>
<path d="M2.88564 4.17926C5.08789 1.62035 8.35039 0 11.9913 0C18.6236 0 24 5.37645 24 12.0087C24 15.6496 22.3797 18.9121 19.8207 21.1144L2.88564 4.17926Z" fill="#5E6AD2"/>
</g>
<defs>
<clipPath id="clip0_4633_9785">
<rect width="24" height="24" fill="white"/>
</clipPath>
</defs>
</svg>
