<svg width="24" height="24" viewBox="0 0 24 24" fill="none" xmlns="http://www.w3.org/2000/svg">
<path d="M24 1.71431V22.2857C24 22.7404 23.8194 23.1764 23.4979 23.4979C23.1764 23.8194 22.7404 24 22.2857 24H1.71431C1.25965 24 0.823602 23.8194 0.502106 23.4979C0.18061 23.1764 0 22.7404 0 22.2857V1.71431C0 1.25965 0.18061 0.823606 0.502106 0.50211C0.823602 0.180615 1.25965 0 1.71431 0L22.2857 0C22.7404 0 23.1764 0.180615 23.4979 0.50211C23.8194 0.823606 24 1.25965 24 1.71431ZM6.85707 8.57137H3.42863V20.5714H6.85707V8.57137ZM7.28569 5.14294C7.28569 3.95944 6.32625 3 5.14294 3C3.95944 3 3 3.95944 3 5.14294C3 6.32625 3.95944 7.28569 5.14294 7.28569C6.32625 7.28569 7.28569 6.32625 7.28569 5.14294ZM20.5714 14.2114C20.5714 10.44 19.32 8.22863 15.6686 8.22863C14.9063 8.22869 14.1556 8.41637 13.4829 8.77512C12.8102 9.13386 12.2362 9.65264 11.8114 10.2857V8.57137H8.57138V20.5714H12V14.9657C11.955 14.5588 11.9942 14.147 12.1152 13.7559C12.2362 13.3649 12.4364 13.0029 12.7033 12.6925C12.9703 12.3822 13.2982 12.1301 13.6668 11.9519C14.0354 11.7738 14.4366 11.6734 14.8457 11.6571C16.8343 11.6571 17.1429 13.6114 17.1429 14.9657V20.5714H20.5714V14.2114Z" fill="#0A66C2"/>
</svg>
