<svg width="96" height="24" viewBox="0 0 96 24" fill="none" xmlns="http://www.w3.org/2000/svg">
<g clip-path="url(#clip0_4633_9797)">
<path d="M37.8857 14.0571L43.1829 20.5714H39L34.2857 14.5886V20.5714H30.8571V3.42862H34.2857V13.5086L38.64 8.57137H43.0114L37.8857 14.0571ZM24.1714 8.22863C23.4207 8.23987 22.6839 8.43288 22.0241 8.79113C21.3643 9.14939 20.8012 9.66221 20.3829 10.2857V8.57137H17.1429V20.5714H20.5714V14.9657C20.5264 14.5588 20.5656 14.147 20.6866 13.7559C20.8076 13.3649 21.0078 13.0029 21.2747 12.6925C21.5416 12.3822 21.8696 12.1301 22.2382 11.9519C22.6067 11.7738 23.008 11.6734 23.4171 11.6571C25.4057 11.6571 25.7143 13.6114 25.7143 14.9657V20.5714H29.1429V14.2114C29.1429 10.44 27.8914 8.22863 24.24 8.22863H24.1714ZM54.8571 14.8457C54.8702 15.0969 54.8702 15.3487 54.8571 15.6H45.8571V15.72C46.0032 16.4349 46.3992 17.0743 46.9742 17.5235C47.5491 17.9728 48.2653 18.2025 48.9943 18.1714C49.5726 18.1965 50.15 18.1047 50.692 17.9015C51.234 17.6983 51.7294 17.3878 52.1486 16.9886L54.4286 18.7029C53.706 19.4404 52.8368 20.0181 51.8772 20.399C50.9175 20.7799 49.8887 20.9555 48.8571 20.9143C48.0027 20.9683 47.1467 20.8383 46.3469 20.5331C45.5471 20.228 44.822 19.7547 44.2208 19.1453C43.6196 18.5359 43.1561 17.8046 42.8617 17.0008C42.5673 16.1969 42.4488 15.3392 42.5143 14.4857C42.4968 13.6431 42.6529 12.8059 42.9731 12.0263C43.2933 11.2467 43.7707 10.5414 44.3754 9.95434C44.9801 9.36731 45.6993 8.91113 46.488 8.61422C47.2768 8.31732 48.1183 8.18606 48.96 8.22863C52.1829 8.22863 54.8571 10.5086 54.8571 14.8457ZM51.6686 13.3714C51.656 13.0318 51.5744 12.6984 51.4288 12.3914C51.2831 12.0844 51.0765 11.8103 50.8215 11.5857C50.5664 11.3612 50.2684 11.1909 49.9454 11.0853C49.6224 10.9797 49.2814 10.9409 48.9429 10.9714C47.4354 10.8084 46.0703 11.8703 45.8571 13.3714H51.6686ZM3.42862 3.42862H0V20.5714H10.2857V17.1431H3.42862V3.42862ZM65.1429 3.42862H68.5714V20.5714H65.3314V19.3714C64.92 19.8783 64.3956 20.2818 63.8003 20.5497C63.2049 20.8177 62.5552 20.9425 61.9029 20.9143C61.1061 20.8939 60.3219 20.7106 59.5984 20.376C58.875 20.0413 58.2276 19.5621 57.6962 18.9681C57.1647 18.374 56.7604 17.6775 56.508 16.9214C56.2556 16.1653 56.1606 15.3656 56.2286 14.5714C56.1477 13.7761 56.2332 12.9726 56.4797 12.2121C56.7262 11.4517 57.1283 10.7508 57.6604 10.1542C58.1925 9.5576 58.843 9.07829 59.5704 8.74678C60.2978 8.41526 61.0863 8.2388 61.8857 8.22863C62.4811 8.20254 63.0757 8.29521 63.6349 8.50123C64.1942 8.70725 64.7068 9.0225 65.1429 9.42863V3.42862ZM65.4 14.5714C65.4539 14.1755 65.4223 13.7727 65.3073 13.3901C65.1924 13.0075 64.9967 12.654 64.7335 12.3534C64.4703 12.0529 64.1457 11.8123 63.7816 11.6478C63.4176 11.4833 63.0224 11.3988 62.6229 11.4C60.9829 11.5191 59.7401 12.9294 59.8286 14.5714C59.7401 16.2133 60.9829 17.6239 62.6229 17.7429C63.0225 17.7441 63.4176 17.6596 63.7817 17.4951C64.1458 17.3307 64.4704 17.09 64.7336 16.7894C64.9968 16.4889 65.1924 16.1353 65.3074 15.7527C65.4224 15.3701 65.4539 14.9672 65.4 14.5714ZM13.7143 3.08569C13.163 3.0935 12.6351 3.31023 12.2374 3.69211C11.8396 4.07398 11.6016 4.59256 11.5714 5.14313C11.5714 6.32644 12.5308 7.28588 13.7143 7.28588C14.8978 7.28588 15.8569 6.32625 15.8569 5.14313C15.8266 4.59263 15.5886 4.07412 15.1909 3.69229C14.7932 3.31045 14.2656 3.09354 13.7143 3.08569ZM12 20.5714H15.4286V8.57137H12V20.5714ZM96 1.71431V22.2857C96 22.7404 95.8194 23.1764 95.4979 23.4979C95.1764 23.8194 94.7404 24 94.2857 24H73.7143C73.2596 24 72.8236 23.8194 72.5021 23.4979C72.1806 23.1764 72 22.7404 72 22.2857V1.71431C72 1.25965 72.1806 0.823606 72.5021 0.50211C72.8236 0.180615 73.2596 0 73.7143 0L94.2857 0C94.7404 0 95.1764 0.180615 95.4979 0.50211C95.8194 0.823606 96 1.25965 96 1.71431ZM78.8571 8.57137H75.4286V20.5714H78.8571V8.57137ZM79.2857 5.14294C79.2857 3.95944 78.3262 3 77.1429 3C75.9594 3 75 3.95944 75 5.14294C75 6.32625 75.9594 7.28569 77.1429 7.28569C78.3262 7.28569 79.2857 6.32625 79.2857 5.14294ZM92.5714 14.2114C92.5714 10.44 91.32 8.22863 87.6686 8.22863C86.9063 8.22869 86.1556 8.41637 85.4829 8.77512C84.8102 9.13386 84.2362 9.65264 83.8114 10.2857V8.57137H80.5714V20.5714H84V14.9657C83.955 14.5588 83.9942 14.147 84.1152 13.7559C84.2362 13.3649 84.4364 13.0029 84.7033 12.6925C84.9703 12.3822 85.2982 12.1301 85.6668 11.9519C86.0354 11.7738 86.4367 11.6734 86.8457 11.6571C88.8343 11.6571 89.1429 13.6114 89.1429 14.9657V20.5714H92.5714V14.2114Z" fill="#0A66C2"/>
</g>
<defs>
<clipPath id="clip0_4633_9797">
<rect width="96" height="24" fill="white"/>
</clipPath>
</defs>
</svg>
