<svg width="37" height="24" viewBox="0 0 37 24" fill="none" xmlns="http://www.w3.org/2000/svg">
<g clip-path="url(#clip0_4633_9903)">
<path d="M22.3454 16.196L29.98 8.80145C28.3941 2.53864 22.0957 -1.23635 15.912 0.369798C13.1273 1.09308 10.7087 2.84144 9.12819 5.27353C9.24638 5.27054 22.3454 16.196 22.3454 16.196Z" fill="#0364B8"/>
<path d="M14.1039 6.6656L14.1035 6.66691C12.6447 5.75179 10.9623 5.26809 9.24634 5.27049C9.20668 5.27049 9.16773 5.27301 9.12815 5.27348C4.02402 5.33752 -0.0624751 9.58013 0.000723255 14.7496C0.0236327 16.6248 0.602152 18.4498 1.66126 19.988L13.099 18.5372L21.8682 11.3758L14.1039 6.6656Z" fill="#0078D4"/>
<path d="M29.98 8.80146C29.8122 8.79009 29.6435 8.78226 29.4729 8.78226C28.4486 8.78125 27.4351 8.99312 26.495 9.40479L26.4948 9.40399L21.8682 11.3758L26.9687 17.7568L36.087 20.0017C38.0547 16.3019 36.6885 11.6871 33.0355 9.69418C32.0916 9.17923 31.0497 8.87485 29.98 8.8015V8.80146H29.98Z" fill="#1490DF"/>
<path d="M1.66124 19.9881C3.38825 22.5029 6.22181 24.0016 9.24634 24H29.4728C32.2358 24.0008 34.7761 22.4652 36.0869 20.0018L21.8681 11.3758L1.66124 19.9881Z" fill="#28A8EA"/>
</g>
<defs>
<clipPath id="clip0_4633_9903">
<rect width="37" height="24" fill="white"/>
</clipPath>
</defs>
</svg>
