<svg width="238" height="24" viewBox="0 0 238 24" fill="none" xmlns="http://www.w3.org/2000/svg">
<g clip-path="url(#clip0_4674_9719)">
<path d="M22.3454 16.196L29.98 8.80145C28.3941 2.53864 22.0957 -1.23635 15.912 0.369798C13.1273 1.09308 10.7087 2.84144 9.12817 5.27353C9.24637 5.27054 22.3454 16.196 22.3454 16.196Z" fill="#0364B8"/>
<path d="M14.1039 6.6656L14.1035 6.66691C12.6447 5.75179 10.9623 5.26809 9.24634 5.27049C9.20668 5.27049 9.16773 5.27301 9.12815 5.27348C4.02402 5.33752 -0.0624751 9.58013 0.000723255 14.7496C0.0236327 16.6248 0.602152 18.4498 1.66126 19.988L13.099 18.5372L21.8682 11.3758L14.1039 6.6656Z" fill="#0078D4"/>
<path d="M29.98 8.80146C29.8122 8.79009 29.6435 8.78226 29.4729 8.78226C28.4487 8.78125 27.4351 8.99312 26.495 9.40479L26.4948 9.40399L21.8682 11.3758L26.9687 17.7568L36.087 20.0017C38.0547 16.3019 36.6885 11.6871 33.0355 9.69418C32.0916 9.17923 31.0498 8.87485 29.98 8.8015V8.80146H29.98Z" fill="#1490DF"/>
<path d="M1.66125 19.9881C3.38826 22.5029 6.22183 24.0016 9.24635 24H29.4728C32.2358 24.0008 34.7761 22.4652 36.0869 20.0018L21.8681 11.3758L1.66125 19.9881Z" fill="#28A8EA"/>
</g>
<path d="M61.9574 5.04V19H59.1574V9.92L55.4174 19H53.2974L49.5374 9.92V19H46.7374V5.04H49.9174L54.3574 15.42L58.7974 5.04H61.9574ZM66.1457 6.6C65.6524 6.6 65.239 6.44667 64.9057 6.14C64.5857 5.82 64.4257 5.42667 64.4257 4.96C64.4257 4.49333 64.5857 4.10667 64.9057 3.8C65.239 3.48 65.6524 3.32 66.1457 3.32C66.639 3.32 67.0457 3.48 67.3657 3.8C67.699 4.10667 67.8657 4.49333 67.8657 4.96C67.8657 5.42667 67.699 5.82 67.3657 6.14C67.0457 6.44667 66.639 6.6 66.1457 6.6ZM67.5257 7.92V19H64.7257V7.92H67.5257ZM69.5721 13.46C69.5721 12.3133 69.8054 11.3133 70.2721 10.46C70.7388 9.59333 71.3854 8.92667 72.2121 8.46C73.0388 7.98 73.9854 7.74 75.0521 7.74C76.4254 7.74 77.5588 8.08667 78.4521 8.78C79.3588 9.46 79.9654 10.42 80.2721 11.66H77.2521C77.0921 11.18 76.8188 10.8067 76.4321 10.54C76.0588 10.26 75.5921 10.12 75.0321 10.12C74.2321 10.12 73.5988 10.4133 73.1321 11C72.6654 11.5733 72.4321 12.3933 72.4321 13.46C72.4321 14.5133 72.6654 15.3333 73.1321 15.92C73.5988 16.4933 74.2321 16.78 75.0321 16.78C76.1654 16.78 76.9054 16.2733 77.2521 15.26H80.2721C79.9654 16.46 79.3588 17.4133 78.4521 18.12C77.5454 18.8267 76.4121 19.18 75.0521 19.18C73.9854 19.18 73.0388 18.9467 72.2121 18.48C71.3854 18 70.7388 17.3333 70.2721 16.48C69.8054 15.6133 69.5721 14.6067 69.5721 13.46ZM85.1234 9.64C85.4834 9.05333 85.95 8.59333 86.5234 8.26C87.11 7.92667 87.7767 7.76 88.5234 7.76V10.7H87.7834C86.9034 10.7 86.2367 10.9067 85.7834 11.32C85.3434 11.7333 85.1234 12.4533 85.1234 13.48V19H82.3234V7.92H85.1234V9.64ZM95.3293 19.18C94.2626 19.18 93.3026 18.9467 92.4493 18.48C91.596 18 90.9226 17.3267 90.4293 16.46C89.9493 15.5933 89.7093 14.5933 89.7093 13.46C89.7093 12.3267 89.956 11.3267 90.4493 10.46C90.956 9.59333 91.6426 8.92667 92.5093 8.46C93.376 7.98 94.3426 7.74 95.4093 7.74C96.476 7.74 97.4426 7.98 98.3093 8.46C99.176 8.92667 99.856 9.59333 100.349 10.46C100.856 11.3267 101.109 12.3267 101.109 13.46C101.109 14.5933 100.849 15.5933 100.329 16.46C99.8226 17.3267 99.1293 18 98.2493 18.48C97.3826 18.9467 96.4093 19.18 95.3293 19.18ZM95.3293 16.74C95.836 16.74 96.3093 16.62 96.7493 16.38C97.2026 16.1267 97.5626 15.7533 97.8293 15.26C98.096 14.7667 98.2293 14.1667 98.2293 13.46C98.2293 12.4067 97.9493 11.6 97.3893 11.04C96.8426 10.4667 96.1693 10.18 95.3693 10.18C94.5693 10.18 93.896 10.4667 93.3493 11.04C92.816 11.6 92.5493 12.4067 92.5493 13.46C92.5493 14.5133 92.8093 15.3267 93.3293 15.9C93.8626 16.46 94.5293 16.74 95.3293 16.74ZM107.403 19.18C106.497 19.18 105.683 19.02 104.963 18.7C104.243 18.3667 103.67 17.92 103.243 17.36C102.83 16.8 102.603 16.18 102.563 15.5H105.383C105.437 15.9267 105.643 16.28 106.003 16.56C106.377 16.84 106.837 16.98 107.383 16.98C107.917 16.98 108.33 16.8733 108.623 16.66C108.93 16.4467 109.083 16.1733 109.083 15.84C109.083 15.48 108.897 15.2133 108.523 15.04C108.163 14.8533 107.583 14.6533 106.783 14.44C105.957 14.24 105.277 14.0333 104.743 13.82C104.223 13.6067 103.77 13.28 103.383 12.84C103.01 12.4 102.823 11.8067 102.823 11.06C102.823 10.4467 102.997 9.88667 103.343 9.38C103.703 8.87333 104.21 8.47333 104.863 8.18C105.53 7.88667 106.31 7.74 107.203 7.74C108.523 7.74 109.577 8.07333 110.363 8.74C111.15 9.39333 111.583 10.28 111.663 11.4H108.983C108.943 10.96 108.757 10.6133 108.423 10.36C108.103 10.0933 107.67 9.96 107.123 9.96C106.617 9.96 106.223 10.0533 105.943 10.24C105.677 10.4267 105.543 10.6867 105.543 11.02C105.543 11.3933 105.73 11.68 106.103 11.88C106.477 12.0667 107.057 12.26 107.843 12.46C108.643 12.66 109.303 12.8667 109.823 13.08C110.343 13.2933 110.79 13.6267 111.163 14.08C111.55 14.52 111.75 15.1067 111.763 15.84C111.763 16.48 111.583 17.0533 111.223 17.56C110.877 18.0667 110.37 18.4667 109.703 18.76C109.05 19.04 108.283 19.18 107.403 19.18ZM118.982 19.18C117.915 19.18 116.955 18.9467 116.102 18.48C115.248 18 114.575 17.3267 114.082 16.46C113.602 15.5933 113.362 14.5933 113.362 13.46C113.362 12.3267 113.608 11.3267 114.102 10.46C114.608 9.59333 115.295 8.92667 116.162 8.46C117.028 7.98 117.995 7.74 119.062 7.74C120.128 7.74 121.095 7.98 121.962 8.46C122.828 8.92667 123.508 9.59333 124.002 10.46C124.508 11.3267 124.762 12.3267 124.762 13.46C124.762 14.5933 124.502 15.5933 123.982 16.46C123.475 17.3267 122.782 18 121.902 18.48C121.035 18.9467 120.062 19.18 118.982 19.18ZM118.982 16.74C119.488 16.74 119.962 16.62 120.402 16.38C120.855 16.1267 121.215 15.7533 121.482 15.26C121.748 14.7667 121.882 14.1667 121.882 13.46C121.882 12.4067 121.602 11.6 121.042 11.04C120.495 10.4667 119.822 10.18 119.022 10.18C118.222 10.18 117.548 10.4667 117.002 11.04C116.468 11.6 116.202 12.4067 116.202 13.46C116.202 14.5133 116.462 15.3267 116.982 15.9C117.515 16.46 118.182 16.74 118.982 16.74ZM131.896 10.22H129.956V19H127.116V10.22H125.856V7.92H127.116V7.36C127.116 6 127.502 5 128.276 4.36C129.049 3.72 130.216 3.42 131.776 3.46V5.82C131.096 5.80667 130.622 5.92 130.356 6.16C130.089 6.4 129.956 6.83333 129.956 7.46V7.92H131.896V10.22ZM136.97 10.22V15.58C136.97 15.9533 137.057 16.2267 137.23 16.4C137.417 16.56 137.723 16.64 138.15 16.64H139.45V19H137.69C135.33 19 134.15 17.8533 134.15 15.56V10.22H132.83V7.92H134.15V5.18H136.97V7.92H139.45V10.22H136.97ZM152.71 19.14C151.403 19.14 150.203 18.8333 149.11 18.22C148.016 17.6067 147.15 16.76 146.51 15.68C145.87 14.5867 145.55 13.3533 145.55 11.98C145.55 10.62 145.87 9.4 146.51 8.32C147.15 7.22667 148.016 6.37333 149.11 5.76C150.203 5.14667 151.403 4.84 152.71 4.84C154.03 4.84 155.23 5.14667 156.31 5.76C157.403 6.37333 158.263 7.22667 158.89 8.32C159.53 9.4 159.85 10.62 159.85 11.98C159.85 13.3533 159.53 14.5867 158.89 15.68C158.263 16.76 157.403 17.6067 156.31 18.22C155.216 18.8333 154.016 19.14 152.71 19.14ZM152.71 16.64C153.55 16.64 154.29 16.4533 154.93 16.08C155.57 15.6933 156.07 15.1467 156.43 14.44C156.79 13.7333 156.97 12.9133 156.97 11.98C156.97 11.0467 156.79 10.2333 156.43 9.54C156.07 8.83333 155.57 8.29333 154.93 7.92C154.29 7.54667 153.55 7.36 152.71 7.36C151.87 7.36 151.123 7.54667 150.47 7.92C149.83 8.29333 149.33 8.83333 148.97 9.54C148.61 10.2333 148.43 11.0467 148.43 11.98C148.43 12.9133 148.61 13.7333 148.97 14.44C149.33 15.1467 149.83 15.6933 150.47 16.08C151.123 16.4533 151.87 16.64 152.71 16.64ZM168.073 7.76C169.393 7.76 170.459 8.18 171.273 9.02C172.086 9.84667 172.493 11.0067 172.493 12.5V19H169.693V12.88C169.693 12 169.473 11.3267 169.033 10.86C168.593 10.38 167.993 10.14 167.233 10.14C166.459 10.14 165.846 10.38 165.393 10.86C164.953 11.3267 164.733 12 164.733 12.88V19H161.933V7.92H164.733V9.3C165.106 8.82 165.579 8.44667 166.153 8.18C166.739 7.9 167.379 7.76 168.073 7.76ZM185.455 13.22C185.455 13.62 185.429 13.98 185.375 14.3H177.275C177.342 15.1 177.622 15.7267 178.115 16.18C178.609 16.6333 179.215 16.86 179.935 16.86C180.975 16.86 181.715 16.4133 182.155 15.52H185.175C184.855 16.5867 184.242 17.4667 183.335 18.16C182.429 18.84 181.315 19.18 179.995 19.18C178.929 19.18 177.969 18.9467 177.115 18.48C176.275 18 175.615 17.3267 175.135 16.46C174.669 15.5933 174.435 14.5933 174.435 13.46C174.435 12.3133 174.669 11.3067 175.135 10.44C175.602 9.57333 176.255 8.90667 177.095 8.44C177.935 7.97333 178.902 7.74 179.995 7.74C181.049 7.74 181.989 7.96667 182.815 8.42C183.655 8.87333 184.302 9.52 184.755 10.36C185.222 11.1867 185.455 12.14 185.455 13.22ZM182.555 12.42C182.542 11.7 182.282 11.1267 181.775 10.7C181.269 10.26 180.649 10.04 179.915 10.04C179.222 10.04 178.635 10.2533 178.155 10.68C177.689 11.0933 177.402 11.6733 177.295 12.42H182.555ZM186.779 13.42C186.779 12.3 186.999 11.3067 187.439 10.44C187.892 9.57333 188.506 8.90667 189.279 8.44C190.052 7.97333 190.912 7.74 191.859 7.74C192.579 7.74 193.266 7.9 193.919 8.22C194.572 8.52667 195.092 8.94 195.479 9.46V4.2H198.319V19H195.479V17.36C195.132 17.9067 194.646 18.3467 194.019 18.68C193.392 19.0133 192.666 19.18 191.839 19.18C190.906 19.18 190.052 18.94 189.279 18.46C188.506 17.98 187.892 17.3067 187.439 16.44C186.999 15.56 186.779 14.5533 186.779 13.42ZM195.499 13.46C195.499 12.78 195.366 12.2 195.099 11.72C194.832 11.2267 194.472 10.8533 194.019 10.6C193.566 10.3333 193.079 10.2 192.559 10.2C192.039 10.2 191.559 10.3267 191.119 10.58C190.679 10.8333 190.319 11.2067 190.039 11.7C189.772 12.18 189.639 12.7533 189.639 13.42C189.639 14.0867 189.772 14.6733 190.039 15.18C190.319 15.6733 190.679 16.0533 191.119 16.32C191.572 16.5867 192.052 16.72 192.559 16.72C193.079 16.72 193.566 16.5933 194.019 16.34C194.472 16.0733 194.832 15.7 195.099 15.22C195.366 14.7267 195.499 14.14 195.499 13.46ZM203.854 9.64C204.214 9.05333 204.68 8.59333 205.254 8.26C205.84 7.92667 206.507 7.76 207.254 7.76V10.7H206.514C205.634 10.7 204.967 10.9067 204.514 11.32C204.074 11.7333 203.854 12.4533 203.854 13.48V19H201.054V7.92H203.854V9.64ZM210.56 6.6C210.066 6.6 209.653 6.44667 209.32 6.14C209 5.82 208.84 5.42667 208.84 4.96C208.84 4.49333 209 4.10667 209.32 3.8C209.653 3.48 210.066 3.32 210.56 3.32C211.053 3.32 211.46 3.48 211.78 3.8C212.113 4.10667 212.28 4.49333 212.28 4.96C212.28 5.42667 212.113 5.82 211.78 6.14C211.46 6.44667 211.053 6.6 210.56 6.6ZM211.94 7.92V19H209.14V7.92H211.94ZM219.326 16.42L222.126 7.92H225.106L221.006 19H217.606L213.526 7.92H216.526L219.326 16.42ZM236.979 13.22C236.979 13.62 236.952 13.98 236.899 14.3H228.799C228.865 15.1 229.145 15.7267 229.639 16.18C230.132 16.6333 230.739 16.86 231.459 16.86C232.499 16.86 233.239 16.4133 233.679 15.52H236.699C236.379 16.5867 235.765 17.4667 234.859 18.16C233.952 18.84 232.839 19.18 231.519 19.18C230.452 19.18 229.492 18.9467 228.639 18.48C227.799 18 227.139 17.3267 226.659 16.46C226.192 15.5933 225.959 14.5933 225.959 13.46C225.959 12.3133 226.192 11.3067 226.659 10.44C227.125 9.57333 227.779 8.90667 228.619 8.44C229.459 7.97333 230.425 7.74 231.519 7.74C232.572 7.74 233.512 7.96667 234.339 8.42C235.179 8.87333 235.825 9.52 236.279 10.36C236.745 11.1867 236.979 12.14 236.979 13.22ZM234.079 12.42C234.065 11.7 233.805 11.1267 233.299 10.7C232.792 10.26 232.172 10.04 231.439 10.04C230.745 10.04 230.159 10.2533 229.679 10.68C229.212 11.0933 228.925 11.6733 228.819 12.42H234.079Z" fill="#333333"/>
<defs>
<clipPath id="clip0_4674_9719">
<rect width="37" height="24" fill="white"/>
</clipPath>
</defs>
</svg>
