<svg width="62" height="57" viewBox="0 0 62 57" fill="none" xmlns="http://www.w3.org/2000/svg">
<g clip-path="url(#clip0_1279153)">
<path d="M61.275 29.925C61.2784 29.4459 61.0308 28.9999 60.6224 28.7494H60.6152L60.5896 28.7351L39.3571 16.1666C39.2654 16.1047 39.1702 16.0481 39.0721 15.9971C38.2523 15.5741 37.2784 15.5741 36.4586 15.9971C36.3604 16.0481 36.2653 16.1047 36.1736 16.1666L14.9411 28.7351L14.9155 28.7494C14.2666 29.1529 14.0676 30.0061 14.4712 30.6551C14.5901 30.8463 14.7538 31.0056 14.9483 31.1191L36.1808 43.6876C36.2728 43.7491 36.3679 43.8057 36.4658 43.8572C37.2856 44.2802 38.2594 44.2802 39.0793 43.8572C39.1771 43.8057 39.2722 43.7491 39.3643 43.6876L60.5968 31.1191C61.0209 30.8718 61.2799 30.416 61.275 29.925Z" fill="#0A2767"/>
<path d="M17.4163 21.5332H31.3499V34.3054H17.4163V21.5332ZM58.425 8.54999V2.70749C58.4584 1.24673 57.3022 0.0350031 55.8415 0H19.6835C18.2227 0.0350031 17.0665 1.24673 17.1 2.70749V8.54999L38.475 14.25L58.425 8.54999Z" fill="#0364B8"/>
<path d="M17.1 8.54999H31.35V21.375H17.1V8.54999Z" fill="#0078D4"/>
<path d="M45.6 8.54999H31.35V21.375L45.6 34.2H58.4249V21.375L45.6 8.54999Z" fill="#28A8EA"/>
<path d="M31.35 21.375H45.5999V34.2H31.35V21.375Z" fill="#0078D4"/>
<path d="M31.35 34.2H45.5999V47.0249H31.35V34.2Z" fill="#0364B8"/>
<path d="M17.4163 34.3054H31.35V45.9163H17.4163V34.3054Z" fill="#14447D"/>
<path d="M45.6 34.2H58.425V47.0249H45.6V34.2Z" fill="#0078D4"/>
<path d="M60.6223 31.0407L60.5952 31.055L39.3628 42.9964C39.2701 43.0534 39.1761 43.1076 39.0777 43.156C38.7171 43.3278 38.3254 43.4247 37.9263 43.441L36.7664 42.7627C36.6684 42.7135 36.5732 42.6588 36.4814 42.5989L14.9639 30.3183H14.9539L14.25 29.925V54.0986C14.261 55.7114 15.5769 57.0101 17.1898 56.9999H58.3808C58.405 56.9999 58.4264 56.9885 58.452 56.9885C58.7927 56.9667 59.1285 56.8966 59.4495 56.7804C59.5882 56.7217 59.7221 56.6521 59.8499 56.5724C59.9454 56.5182 60.1093 56.4 60.1093 56.4C60.8393 55.8598 61.2713 55.0067 61.2749 54.0986V29.925C61.2745 30.3873 61.0251 30.8137 60.6223 31.0407Z" fill="url(#paint0_linear_1279153)"/>
<path opacity="0.5" d="M60.1349 29.8295V31.3115L37.9334 46.5974L14.9482 30.3282C14.9482 30.3204 14.9418 30.314 14.9339 30.314L12.825 29.0457V27.977L13.6942 27.9627L15.5324 29.0172L15.5752 29.0315L15.7319 29.1312C15.7319 29.1312 37.3349 41.4575 37.3919 41.486L38.2184 41.9704C38.2896 41.9419 38.3609 41.9134 38.4464 41.8849C38.4891 41.8564 59.8926 29.8152 59.8926 29.8152L60.1349 29.8295Z" fill="#0A2767"/>
<path d="M60.6223 31.0407L60.5952 31.0564L39.3627 42.9979C39.2701 43.0549 39.1761 43.109 39.0777 43.1575C38.2531 43.5603 37.2888 43.5603 36.4642 43.1575C36.3666 43.1091 36.2715 43.0558 36.1792 42.9979L14.9468 31.0564L14.9212 31.0407C14.5113 30.8185 14.2542 30.3912 14.25 29.925V54.0986C14.2602 55.7112 15.5757 57.0101 17.1882 57C17.1883 57 17.1883 57 17.1884 57H58.3366C59.9492 57.0102 61.2647 55.7113 61.275 54.0988C61.275 54.0987 61.275 54.0987 61.275 54.0986V29.925C61.2744 30.3873 61.025 30.8137 60.6223 31.0407Z" fill="#1490DF"/>
<path opacity="0.1" d="M39.6719 42.8212L39.3541 42.9993C39.262 43.058 39.1669 43.1117 39.0691 43.1604C38.719 43.3322 38.3383 43.4329 37.9491 43.4567L46.0274 53.0099L60.1192 56.4057C60.5054 56.114 60.8125 55.7305 61.0127 55.2899L39.6719 42.8212Z" fill="black"/>
<path opacity="0.05" d="M41.1112 42.0118L39.3541 42.9993C39.262 43.058 39.1669 43.1117 39.0691 43.1604C38.719 43.3322 38.3383 43.4329 37.9491 43.4567L41.7339 53.892L60.1235 56.4014C60.848 55.8575 61.2744 55.0046 61.2749 54.0986V53.7865L41.1112 42.0118Z" fill="black"/>
<path d="M17.2282 57H58.3323C58.9648 57.0032 59.5817 56.8034 60.0922 56.43L36.765 42.7657C36.6669 42.7165 36.5718 42.6618 36.4799 42.6018L14.9625 30.3211H14.9525L14.25 29.925V54.016C14.2484 55.6625 15.5818 56.9984 17.2282 57C17.2282 57 17.2282 57 17.2282 57Z" fill="#28A8EA"/>
<path opacity="0.1" d="M34.2 14.012V44.4072C34.1974 45.4729 33.5495 46.4308 32.5612 46.8298C32.2551 46.9613 31.9254 47.0292 31.5922 47.0293H14.25V12.825H17.1V11.4H31.5923C33.0318 11.4054 34.1969 12.5724 34.2 14.012Z" fill="black"/>
<path opacity="0.2" d="M32.7751 15.437V45.8321C32.7786 46.1764 32.7057 46.5171 32.5613 46.8296C32.1656 47.8051 31.22 48.445 30.1673 48.4498H14.25V12.825H30.1673C30.5808 12.8208 30.9883 12.924 31.35 13.1242C32.2236 13.5643 32.7747 14.4589 32.7751 15.437Z" fill="black"/>
<path opacity="0.2" d="M32.775 15.437V42.9822C32.768 44.4212 31.6062 45.5875 30.1673 45.5999H14.25V12.825H30.1672C30.5807 12.8208 30.9882 12.924 31.35 13.1242C32.2235 13.5643 32.7747 14.4589 32.775 15.437Z" fill="black"/>
<path opacity="0.2" d="M31.35 15.437V42.9822C31.3485 44.4234 30.1835 45.5929 28.7423 45.5999H14.25V12.825H28.7423C30.1833 12.8258 31.3508 13.9946 31.35 15.4356C31.35 15.4361 31.35 15.4365 31.35 15.437Z" fill="black"/>
<path d="M2.61202 12.825H28.738C30.1806 12.825 31.35 13.9944 31.35 15.437V41.5629C31.35 43.0055 30.1806 44.1749 28.738 44.1749H2.61202C1.16943 44.1749 0 43.0055 0 41.5629V15.437C0 13.9944 1.16946 12.825 2.61202 12.825Z" fill="url(#paint1_linear_1279153)"/>
<path d="M8.16379 23.7804C8.80757 22.4088 9.84668 21.2609 11.1478 20.4844C12.5886 19.6594 14.2291 19.2482 15.8887 19.2959C17.4269 19.2625 18.9447 19.6525 20.2763 20.4231C21.5283 21.1697 22.5367 22.2637 23.179 23.5723C23.8785 25.0143 24.2272 26.6012 24.1965 28.2036C24.2304 29.8782 23.8717 31.5375 23.1491 33.0486C22.4915 34.404 21.4511 35.537 20.1566 36.3076C18.7736 37.1018 17.1995 37.502 15.6052 37.4647C14.0341 37.5026 12.4829 37.1082 11.1207 36.3247C9.85783 35.577 8.83682 34.4818 8.17949 33.1697C7.47581 31.7486 7.12304 30.1795 7.15064 28.594C7.12133 26.9336 7.46768 25.2881 8.16379 23.7804ZM11.3444 31.5181C11.6876 32.3853 12.2697 33.1373 13.023 33.687C13.7904 34.2233 14.7092 34.5 15.645 34.4764C16.6417 34.5159 17.6241 34.2298 18.4437 33.6613C19.1875 33.1134 19.7543 32.3593 20.0739 31.4925C20.4312 30.5244 20.6075 29.499 20.594 28.4672C20.6051 27.4256 20.4393 26.3896 20.1038 25.4035C19.8075 24.5131 19.259 23.728 18.5249 23.1434C17.7258 22.5481 16.7461 22.2461 15.7505 22.2884C14.7943 22.2636 13.8549 22.5425 13.0672 23.085C12.3011 23.637 11.708 24.3957 11.3572 25.2723C10.579 27.2818 10.575 29.5087 11.3458 31.521L11.3444 31.5181Z" fill="white"/>
<path d="M45.6 8.54999H58.425V21.375H45.6V8.54999Z" fill="#50D9FF"/>
</g>
<defs>
<linearGradient id="paint0_linear_1279153" x1="37.7625" y1="29.925" x2="37.7625" y2="56.9999" gradientUnits="userSpaceOnUse">
<stop stop-color="#35B8F1"/>
<stop offset="1" stop-color="#28A8EA"/>
</linearGradient>
<linearGradient id="paint1_linear_1279153" x1="5.44613" y1="10.784" x2="25.9038" y2="46.216" gradientUnits="userSpaceOnUse">
<stop stop-color="#1784D9"/>
<stop offset="0.5" stop-color="#107AD5"/>
<stop offset="1" stop-color="#0A63C9"/>
</linearGradient>
<clipPath id="clip0_1279153">
<rect width="61.275" height="57" fill="white"/>
</clipPath>
</defs>
</svg>
