<svg width="62" height="57" viewBox="0 0 62 57" fill="none" xmlns="http://www.w3.org/2000/svg">
<g clip-path="url(#clip0_1279209)">
<path d="M42.74 21.375H58.5675C60.0628 21.375 61.275 22.5872 61.275 24.0825V38.4992C61.275 43.9949 56.8199 48.45 51.3242 48.45H51.2772C45.7815 48.4508 41.3257 43.9963 41.325 38.5006C41.325 38.5002 41.325 38.4997 41.325 38.4992V22.79C41.325 22.0085 41.9585 21.375 42.74 21.375Z" fill="#5059C9"/>
<path d="M53.4375 18.525C56.9791 18.525 59.85 15.654 59.85 12.1125C59.85 8.57096 56.9791 5.69998 53.4375 5.69998C49.896 5.69998 47.025 8.57096 47.025 12.1125C47.025 15.654 49.896 18.525 53.4375 18.525Z" fill="#5059C9"/>
<path d="M33.4875 18.525C38.603 18.525 42.75 14.3781 42.75 9.26251C42.75 4.14697 38.603 0 33.4875 0C28.3719 0 24.225 4.14697 24.225 9.26251C24.225 14.3781 28.3719 18.525 33.4875 18.525Z" fill="#7B83EB"/>
<path d="M45.838 21.375H19.712C18.2345 21.4116 17.0657 22.6377 17.1 24.1153V40.5584C16.8937 49.4251 23.9086 56.783 32.775 57C41.6415 56.783 48.6563 49.4251 48.45 40.5584V24.1153C48.4843 22.6377 47.3155 21.4116 45.838 21.375Z" fill="#7B83EB"/>
<path opacity="0.1" d="M34.2 21.375V44.4173C34.1929 45.4739 33.5526 46.4232 32.5755 46.8255C32.2644 46.9571 31.9301 47.0249 31.5923 47.025H18.354C18.1688 46.5548 17.9978 46.0845 17.8552 45.6C17.3564 43.9649 17.1019 42.265 17.1 40.5555V24.111C17.0657 22.6358 18.2326 21.4116 19.7077 21.375H34.2Z" fill="black"/>
<path opacity="0.2" d="M32.7751 21.375V45.8422C32.7751 46.18 32.7072 46.5144 32.5756 46.8255C32.1733 47.8026 31.224 48.4429 30.1674 48.45H19.0238C18.7815 47.9797 18.5535 47.5095 18.354 47.025C18.1545 46.5405 17.9978 46.0845 17.8552 45.6C17.3564 43.9649 17.1019 42.265 17.1 40.5555V24.111C17.0657 22.6358 18.2326 21.4116 19.7077 21.375H32.7751Z" fill="black"/>
<path opacity="0.2" d="M32.7751 21.375V42.9923C32.7643 44.428 31.6031 45.5892 30.1673 45.6H17.8552C17.3564 43.9649 17.1019 42.265 17.1 40.5555V24.111C17.0657 22.6358 18.2326 21.4116 19.7077 21.375H32.7751Z" fill="black"/>
<path opacity="0.2" d="M31.35 21.375V42.9923C31.3391 44.428 30.1779 45.5892 28.7422 45.6H17.8552C17.3564 43.9649 17.1019 42.265 17.1 40.5555V24.111C17.0657 22.6358 18.2326 21.4116 19.7077 21.375H31.35Z" fill="black"/>
<path opacity="0.1" d="M34.2 14.0078V18.4966C33.9577 18.5108 33.7297 18.5251 33.4875 18.5251C33.2452 18.5251 33.0172 18.5108 32.7749 18.4966C32.2939 18.4646 31.8169 18.3883 31.35 18.2686C28.4643 17.5852 26.0803 15.5614 24.9375 12.8251C24.7408 12.3655 24.5881 11.8884 24.4814 11.4001H31.5922C33.0302 11.4055 34.1945 12.5698 34.2 14.0078Z" fill="black"/>
<path opacity="0.2" d="M32.7751 15.4328V18.4965C32.2941 18.4646 31.8171 18.3883 31.3501 18.2685C28.4644 17.5852 26.0804 15.5614 24.9375 12.8251H30.1673C31.6053 12.8305 32.7696 13.9948 32.7751 15.4328Z" fill="black"/>
<path opacity="0.2" d="M32.7751 15.4328V18.4965C32.2941 18.4646 31.8171 18.3883 31.3501 18.2685C28.4644 17.5852 26.0804 15.5614 24.9375 12.8251H30.1673C31.6053 12.8305 32.7696 13.9948 32.7751 15.4328Z" fill="black"/>
<path opacity="0.2" d="M31.35 15.4328V18.2685C28.4644 17.5851 26.0804 15.5614 24.9375 12.825H28.7423C30.1802 12.8305 31.3445 13.9948 31.35 15.4328Z" fill="black"/>
<path d="M2.61201 12.825H28.738C30.1805 12.825 31.35 13.9945 31.35 15.437V41.563C31.35 43.0056 30.1805 44.175 28.738 44.175H2.61201C1.16943 44.175 0 43.0055 0 41.563V15.437C0 13.9945 1.16945 12.825 2.61201 12.825Z" fill="url(#paint0_linear_1279209)"/>
<path d="M22.5492 22.7686H17.3265V36.9902H13.9992V22.7686H8.80078V20.0098H22.5492V22.7686Z" fill="white"/>
</g>
<defs>
<linearGradient id="paint0_linear_1279209" x1="5.44613" y1="10.784" x2="25.9039" y2="46.216" gradientUnits="userSpaceOnUse">
<stop stop-color="#5A62C3"/>
<stop offset="0.5" stop-color="#4D55BD"/>
<stop offset="1" stop-color="#3940AB"/>
</linearGradient>
<clipPath id="clip0_1279209">
<rect width="61.275" height="57" fill="white"/>
</clipPath>
</defs>
</svg>
