<svg width="213" height="24" viewBox="0 0 213 24" fill="none" xmlns="http://www.w3.org/2000/svg">
<g clip-path="url(#clip0_4674_9717)">
<path d="M25.6959 11.6C25.6974 11.3983 25.5935 11.2105 25.4223 11.105H25.4193L25.4085 11.099L16.5046 5.807C16.4661 5.78093 16.4262 5.7571 16.3851 5.73563C16.0413 5.55752 15.6329 5.55752 15.2891 5.73563C15.2479 5.7571 15.208 5.78093 15.1696 5.807L6.2656 11.099L6.25487 11.105C5.98275 11.2749 5.8993 11.6342 6.06855 11.9074C6.11841 11.9879 6.18706 12.055 6.26862 12.1028L15.1726 17.3948C15.2112 17.4207 15.251 17.4445 15.2921 17.4662C15.6359 17.6443 16.0442 17.6443 16.3881 17.4662C16.4291 17.4445 16.469 17.4207 16.5076 17.3948L25.4115 12.1028C25.5894 11.9987 25.698 11.8067 25.6959 11.6Z" fill="#0A2767"/>
<path d="M7.30359 8.06661H13.1467V13.4444H7.30359V8.06661ZM24.5008 2.6V0.139996C24.5148 -0.475061 24.0299 -0.985262 23.4174 -1H8.25436C7.64176 -0.985262 7.1569 -0.475061 7.17095 0.139996V2.6L16.1347 5L24.5008 2.6Z" fill="#0364B8"/>
<path d="M7.17096 2.59998H13.1468V7.99998H7.17096V2.59998Z" fill="#0078D4"/>
<path d="M19.1226 2.59998H13.1468V7.99998L19.1226 13.4H24.5008V7.99998L19.1226 2.59998Z" fill="#28A8EA"/>
<path d="M13.1468 8H19.1226V13.4H13.1468V8Z" fill="#0078D4"/>
<path d="M13.1468 13.4H19.1226V18.8H13.1468V13.4Z" fill="#0364B8"/>
<path d="M7.30359 13.4444H13.1468V18.3332H7.30359V13.4444Z" fill="#14447D"/>
<path d="M19.1226 13.4H24.5008V18.8H19.1226V13.4Z" fill="#0078D4"/>
<path d="M25.4223 12.0697L25.4109 12.0758L16.507 17.1037C16.4681 17.1277 16.4287 17.1505 16.3874 17.1709C16.2362 17.2433 16.072 17.2841 15.9046 17.2909L15.4182 17.0053C15.3771 16.9846 15.3372 16.9616 15.2987 16.9364L6.27521 11.7656H6.27101L5.97583 11.6V21.7783C5.98044 22.4574 6.53227 23.0042 7.20865 22.9999H24.4823C24.4924 22.9999 24.5014 22.9951 24.5122 22.9951C24.655 22.986 24.7958 22.9564 24.9305 22.9075C24.9886 22.8828 25.0448 22.8535 25.0984 22.8199C25.1384 22.7971 25.2071 22.7473 25.2071 22.7473C25.5133 22.5199 25.6944 22.1607 25.6959 21.7783V11.6C25.6958 11.7946 25.5912 11.9742 25.4223 12.0697Z" fill="url(#paint0_linear_4674_9717)"/>
<path opacity="0.5" d="M25.2179 11.5598V12.1838L15.9076 18.6199L6.26861 11.7697C6.26861 11.7665 6.26593 11.7638 6.26261 11.7638L5.37823 11.2297V10.7798L5.74274 10.7737L6.5136 11.2177L6.53154 11.2238L6.59726 11.2657C6.59726 11.2657 15.6566 16.4558 15.6805 16.4678L16.0271 16.6717C16.0569 16.6597 16.0868 16.6477 16.1227 16.6357C16.1406 16.6237 25.1163 11.5537 25.1163 11.5537L25.2179 11.5598Z" fill="#0A2767"/>
<path d="M25.4223 12.0697L25.4109 12.0764L16.507 17.1044C16.4681 17.1284 16.4287 17.1511 16.3874 17.1716C16.0416 17.3412 15.6373 17.3412 15.2915 17.1716C15.2505 17.1512 15.2107 17.1287 15.1719 17.1044L6.26804 12.0764L6.2573 12.0697C6.08541 11.9762 5.97759 11.7963 5.97583 11.6V21.7783C5.98011 22.4573 6.53177 23.0042 7.20798 23C7.20802 23 7.20802 23 7.20806 23H24.4638C25.14 23.0043 25.6917 22.4574 25.696 21.7784C25.696 21.7784 25.696 21.7784 25.696 21.7783V11.6C25.6957 11.7946 25.5912 11.9742 25.4223 12.0697Z" fill="#1490DF"/>
<path opacity="0.1" d="M16.6366 17.03L16.5033 17.105C16.4647 17.1297 16.4248 17.1523 16.3838 17.1728C16.237 17.2451 16.0773 17.2875 15.9141 17.2975L19.3018 21.3199L25.2113 22.7498C25.3732 22.6269 25.502 22.4655 25.586 22.2799L16.6366 17.03Z" fill="black"/>
<path opacity="0.05" d="M17.2402 16.6892L16.5033 17.105C16.4647 17.1297 16.4248 17.1523 16.3838 17.1728C16.237 17.2452 16.0773 17.2876 15.9141 17.2976L17.5013 21.6914L25.2131 22.748C25.5169 22.519 25.6957 22.1599 25.6959 21.7784V21.647L17.2402 16.6892Z" fill="black"/>
<path d="M7.22475 23H24.462C24.7272 23.0013 24.9859 22.9172 25.2 22.76L15.4176 17.0066C15.3765 16.9859 15.3366 16.9628 15.298 16.9376L6.27462 11.7668H6.27043L5.97583 11.6V21.7436C5.97516 22.4368 6.53433 22.9993 7.22475 23Z" fill="#28A8EA"/>
<path opacity="0.1" d="M14.342 4.89978V17.6978C14.3409 18.1465 14.0692 18.5498 13.6547 18.7178C13.5264 18.7732 13.3881 18.8018 13.2484 18.8018H5.97583V4.39999H7.17099V3.79999H13.2484C13.8521 3.80226 14.3407 4.29363 14.342 4.89978Z" fill="black"/>
<path opacity="0.2" d="M13.7444 5.4998V18.2977C13.7459 18.4427 13.7153 18.5862 13.6548 18.7177C13.4888 19.1285 13.0923 19.3979 12.6508 19.3999H5.97583V4.40002H12.6508C12.8242 4.39825 12.9951 4.4417 13.1468 4.52599C13.5131 4.7113 13.7443 5.08797 13.7444 5.4998Z" fill="black"/>
<path opacity="0.2" d="M13.7444 5.4998V17.0978C13.7414 17.7037 13.2542 18.1948 12.6508 18.2H5.97583V4.40002H12.6508C12.8242 4.39825 12.9951 4.4417 13.1468 4.52599C13.5131 4.7113 13.7443 5.08797 13.7444 5.4998Z" fill="black"/>
<path opacity="0.2" d="M13.1468 5.49981V17.0978C13.1462 17.7046 12.6576 18.197 12.0532 18.2H5.97583V4.40002H12.0532C12.6575 4.40036 13.1471 4.89249 13.1468 5.49922C13.1468 5.49943 13.1468 5.4996 13.1468 5.49981Z" fill="black"/>
<path d="M1.09536 4.40002H12.0514C12.6564 4.40002 13.1468 4.8924 13.1468 5.49981V16.5002C13.1468 17.1076 12.6564 17.6 12.0514 17.6H1.09536C0.490406 17.6 0 17.1076 0 16.5002V5.49981C0 4.8924 0.490419 4.40002 1.09536 4.40002Z" fill="url(#paint1_linear_4674_9717)"/>
<path d="M3.42351 9.01283C3.69349 8.43531 4.12924 7.95198 4.67487 7.62504C5.27908 7.27767 5.96703 7.10453 6.66299 7.12462C7.30804 7.11055 7.94454 7.27476 8.50295 7.59923C9.02799 7.91358 9.45086 8.37422 9.72021 8.9252C10.0136 9.53236 10.1598 10.2005 10.1469 10.8752C10.1611 11.5803 10.0107 12.279 9.70768 12.9152C9.43191 13.4859 8.99561 13.963 8.45276 14.2874C7.87279 14.6218 7.21268 14.7903 6.54411 14.7746C5.88526 14.7906 5.23475 14.6245 4.66351 14.2946C4.13392 13.9798 3.70575 13.5187 3.4301 12.9662C3.13501 12.3679 2.98707 11.7072 2.99864 11.0396C2.98635 10.3405 3.1316 9.64765 3.42351 9.01283ZM4.75732 12.2708C4.90124 12.6359 5.14535 12.9526 5.46125 13.184C5.78306 13.4098 6.16836 13.5263 6.5608 13.5164C6.97877 13.533 7.39074 13.4126 7.73444 13.1732C8.04636 12.9425 8.28405 12.625 8.41808 12.26C8.56791 11.8524 8.64184 11.4207 8.63618 10.9862C8.64084 10.5476 8.57131 10.1114 8.43061 9.69624C8.30636 9.32133 8.07634 8.99076 7.7685 8.74462C7.43339 8.49396 7.02255 8.3668 6.60504 8.38462C6.20405 8.37417 5.81011 8.4916 5.47978 8.72003C5.15851 8.95245 4.9098 9.2719 4.76269 9.64099C4.43634 10.4871 4.43467 11.4247 4.75791 12.272L4.75732 12.2708Z" fill="white"/>
<path d="M19.1226 2.59998H24.5008V7.99998H19.1226V2.59998Z" fill="#50D9FF"/>
</g>
<path d="M50.6371 5.04V19H47.8371V9.92L44.0971 19H41.9771L38.2171 9.92V19H35.4171V5.04H38.5971L43.0371 15.42L47.4771 5.04H50.6371ZM54.8254 6.6C54.3321 6.6 53.9187 6.44667 53.5854 6.14C53.2654 5.82 53.1054 5.42667 53.1054 4.96C53.1054 4.49333 53.2654 4.10667 53.5854 3.8C53.9187 3.48 54.3321 3.32 54.8254 3.32C55.3187 3.32 55.7254 3.48 56.0454 3.8C56.3787 4.10667 56.5454 4.49333 56.5454 4.96C56.5454 5.42667 56.3787 5.82 56.0454 6.14C55.7254 6.44667 55.3187 6.6 54.8254 6.6ZM56.2054 7.92V19H53.4054V7.92H56.2054ZM58.2518 13.46C58.2518 12.3133 58.4851 11.3133 58.9518 10.46C59.4185 9.59333 60.0651 8.92667 60.8918 8.46C61.7185 7.98 62.6651 7.74 63.7318 7.74C65.1051 7.74 66.2385 8.08667 67.1318 8.78C68.0385 9.46 68.6451 10.42 68.9518 11.66H65.9318C65.7718 11.18 65.4985 10.8067 65.1118 10.54C64.7385 10.26 64.2718 10.12 63.7118 10.12C62.9118 10.12 62.2785 10.4133 61.8118 11C61.3451 11.5733 61.1118 12.3933 61.1118 13.46C61.1118 14.5133 61.3451 15.3333 61.8118 15.92C62.2785 16.4933 62.9118 16.78 63.7118 16.78C64.8451 16.78 65.5851 16.2733 65.9318 15.26H68.9518C68.6451 16.46 68.0385 17.4133 67.1318 18.12C66.2251 18.8267 65.0918 19.18 63.7318 19.18C62.6651 19.18 61.7185 18.9467 60.8918 18.48C60.0651 18 59.4185 17.3333 58.9518 16.48C58.4851 15.6133 58.2518 14.6067 58.2518 13.46ZM73.803 9.64C74.163 9.05333 74.6297 8.59333 75.203 8.26C75.7897 7.92667 76.4564 7.76 77.203 7.76V10.7H76.463C75.583 10.7 74.9164 10.9067 74.463 11.32C74.023 11.7333 73.803 12.4533 73.803 13.48V19H71.003V7.92H73.803V9.64ZM84.009 19.18C82.9423 19.18 81.9823 18.9467 81.129 18.48C80.2757 18 79.6023 17.3267 79.109 16.46C78.629 15.5933 78.389 14.5933 78.389 13.46C78.389 12.3267 78.6357 11.3267 79.129 10.46C79.6357 9.59333 80.3223 8.92667 81.189 8.46C82.0557 7.98 83.0223 7.74 84.089 7.74C85.1557 7.74 86.1223 7.98 86.989 8.46C87.8557 8.92667 88.5357 9.59333 89.029 10.46C89.5357 11.3267 89.789 12.3267 89.789 13.46C89.789 14.5933 89.529 15.5933 89.009 16.46C88.5023 17.3267 87.809 18 86.929 18.48C86.0623 18.9467 85.089 19.18 84.009 19.18ZM84.009 16.74C84.5157 16.74 84.989 16.62 85.429 16.38C85.8823 16.1267 86.2423 15.7533 86.509 15.26C86.7757 14.7667 86.909 14.1667 86.909 13.46C86.909 12.4067 86.629 11.6 86.069 11.04C85.5223 10.4667 84.849 10.18 84.049 10.18C83.249 10.18 82.5757 10.4667 82.029 11.04C81.4957 11.6 81.229 12.4067 81.229 13.46C81.229 14.5133 81.489 15.3267 82.009 15.9C82.5423 16.46 83.209 16.74 84.009 16.74ZM96.0829 19.18C95.1762 19.18 94.3629 19.02 93.6429 18.7C92.9229 18.3667 92.3496 17.92 91.9229 17.36C91.5096 16.8 91.2829 16.18 91.2429 15.5H94.0629C94.1162 15.9267 94.3229 16.28 94.6829 16.56C95.0562 16.84 95.5162 16.98 96.0629 16.98C96.5962 16.98 97.0096 16.8733 97.3029 16.66C97.6096 16.4467 97.7629 16.1733 97.7629 15.84C97.7629 15.48 97.5762 15.2133 97.2029 15.04C96.8429 14.8533 96.2629 14.6533 95.4629 14.44C94.6362 14.24 93.9562 14.0333 93.4229 13.82C92.9029 13.6067 92.4496 13.28 92.0629 12.84C91.6896 12.4 91.5029 11.8067 91.5029 11.06C91.5029 10.4467 91.6762 9.88667 92.0229 9.38C92.3829 8.87333 92.8896 8.47333 93.5429 8.18C94.2096 7.88667 94.9896 7.74 95.8829 7.74C97.2029 7.74 98.2562 8.07333 99.0429 8.74C99.8296 9.39333 100.263 10.28 100.343 11.4H97.6629C97.6229 10.96 97.4362 10.6133 97.1029 10.36C96.7829 10.0933 96.3496 9.96 95.8029 9.96C95.2962 9.96 94.9029 10.0533 94.6229 10.24C94.3562 10.4267 94.2229 10.6867 94.2229 11.02C94.2229 11.3933 94.4096 11.68 94.7829 11.88C95.1562 12.0667 95.7362 12.26 96.5229 12.46C97.3229 12.66 97.9829 12.8667 98.5029 13.08C99.0229 13.2933 99.4696 13.6267 99.8429 14.08C100.23 14.52 100.43 15.1067 100.443 15.84C100.443 16.48 100.263 17.0533 99.9029 17.56C99.5562 18.0667 99.0496 18.4667 98.3829 18.76C97.7296 19.04 96.9629 19.18 96.0829 19.18ZM107.661 19.18C106.595 19.18 105.635 18.9467 104.781 18.48C103.928 18 103.255 17.3267 102.761 16.46C102.281 15.5933 102.041 14.5933 102.041 13.46C102.041 12.3267 102.288 11.3267 102.781 10.46C103.288 9.59333 103.975 8.92667 104.841 8.46C105.708 7.98 106.675 7.74 107.741 7.74C108.808 7.74 109.775 7.98 110.641 8.46C111.508 8.92667 112.188 9.59333 112.681 10.46C113.188 11.3267 113.441 12.3267 113.441 13.46C113.441 14.5933 113.181 15.5933 112.661 16.46C112.155 17.3267 111.461 18 110.581 18.48C109.715 18.9467 108.741 19.18 107.661 19.18ZM107.661 16.74C108.168 16.74 108.641 16.62 109.081 16.38C109.535 16.1267 109.895 15.7533 110.161 15.26C110.428 14.7667 110.561 14.1667 110.561 13.46C110.561 12.4067 110.281 11.6 109.721 11.04C109.175 10.4667 108.501 10.18 107.701 10.18C106.901 10.18 106.228 10.4667 105.681 11.04C105.148 11.6 104.881 12.4067 104.881 13.46C104.881 14.5133 105.141 15.3267 105.661 15.9C106.195 16.46 106.861 16.74 107.661 16.74ZM120.575 10.22H118.635V19H115.795V10.22H114.535V7.92H115.795V7.36C115.795 6 116.182 5 116.955 4.36C117.729 3.72 118.895 3.42 120.455 3.46V5.82C119.775 5.80667 119.302 5.92 119.035 6.16C118.769 6.4 118.635 6.83333 118.635 7.46V7.92H120.575V10.22ZM125.65 10.22V15.58C125.65 15.9533 125.736 16.2267 125.91 16.4C126.096 16.56 126.403 16.64 126.83 16.64H128.13V19H126.37C124.01 19 122.83 17.8533 122.83 15.56V10.22H121.51V7.92H122.83V5.18H125.65V7.92H128.13V10.22H125.65ZM141.389 19.14C140.083 19.14 138.883 18.8333 137.789 18.22C136.696 17.6067 135.829 16.76 135.189 15.68C134.549 14.5867 134.229 13.3533 134.229 11.98C134.229 10.62 134.549 9.4 135.189 8.32C135.829 7.22667 136.696 6.37333 137.789 5.76C138.883 5.14667 140.083 4.84 141.389 4.84C142.709 4.84 143.909 5.14667 144.989 5.76C146.083 6.37333 146.943 7.22667 147.569 8.32C148.209 9.4 148.529 10.62 148.529 11.98C148.529 13.3533 148.209 14.5867 147.569 15.68C146.943 16.76 146.083 17.6067 144.989 18.22C143.896 18.8333 142.696 19.14 141.389 19.14ZM141.389 16.64C142.229 16.64 142.969 16.4533 143.609 16.08C144.249 15.6933 144.749 15.1467 145.109 14.44C145.469 13.7333 145.649 12.9133 145.649 11.98C145.649 11.0467 145.469 10.2333 145.109 9.54C144.749 8.83333 144.249 8.29333 143.609 7.92C142.969 7.54667 142.229 7.36 141.389 7.36C140.549 7.36 139.803 7.54667 139.149 7.92C138.509 8.29333 138.009 8.83333 137.649 9.54C137.289 10.2333 137.109 11.0467 137.109 11.98C137.109 12.9133 137.289 13.7333 137.649 14.44C138.009 15.1467 138.509 15.6933 139.149 16.08C139.803 16.4533 140.549 16.64 141.389 16.64ZM161.072 7.92V19H158.252V17.6C157.892 18.08 157.419 18.46 156.832 18.74C156.259 19.0067 155.632 19.14 154.952 19.14C154.086 19.14 153.319 18.96 152.652 18.6C151.986 18.2267 151.459 17.6867 151.072 16.98C150.699 16.26 150.512 15.4067 150.512 14.42V7.92H153.312V14.02C153.312 14.9 153.532 15.58 153.972 16.06C154.412 16.5267 155.012 16.76 155.772 16.76C156.546 16.76 157.152 16.5267 157.592 16.06C158.032 15.58 158.252 14.9 158.252 14.02V7.92H161.072ZM167.095 10.22V15.58C167.095 15.9533 167.182 16.2267 167.355 16.4C167.542 16.56 167.848 16.64 168.275 16.64H169.575V19H167.815C165.455 19 164.275 17.8533 164.275 15.56V10.22H162.955V7.92H164.275V5.18H167.095V7.92H169.575V10.22H167.095ZM174.389 4.2V19H171.589V4.2H174.389ZM182.075 19.18C181.009 19.18 180.049 18.9467 179.195 18.48C178.342 18 177.669 17.3267 177.175 16.46C176.695 15.5933 176.455 14.5933 176.455 13.46C176.455 12.3267 176.702 11.3267 177.195 10.46C177.702 9.59333 178.389 8.92667 179.255 8.46C180.122 7.98 181.089 7.74 182.155 7.74C183.222 7.74 184.189 7.98 185.055 8.46C185.922 8.92667 186.602 9.59333 187.095 10.46C187.602 11.3267 187.855 12.3267 187.855 13.46C187.855 14.5933 187.595 15.5933 187.075 16.46C186.569 17.3267 185.875 18 184.995 18.48C184.129 18.9467 183.155 19.18 182.075 19.18ZM182.075 16.74C182.582 16.74 183.055 16.62 183.495 16.38C183.949 16.1267 184.309 15.7533 184.575 15.26C184.842 14.7667 184.975 14.1667 184.975 13.46C184.975 12.4067 184.695 11.6 184.135 11.04C183.589 10.4667 182.915 10.18 182.115 10.18C181.315 10.18 180.642 10.4667 180.095 11.04C179.562 11.6 179.295 12.4067 179.295 13.46C179.295 14.5133 179.555 15.3267 180.075 15.9C180.609 16.46 181.275 16.74 182.075 16.74ZM194.829 19.18C193.763 19.18 192.803 18.9467 191.949 18.48C191.096 18 190.423 17.3267 189.929 16.46C189.449 15.5933 189.209 14.5933 189.209 13.46C189.209 12.3267 189.456 11.3267 189.949 10.46C190.456 9.59333 191.143 8.92667 192.009 8.46C192.876 7.98 193.843 7.74 194.909 7.74C195.976 7.74 196.943 7.98 197.809 8.46C198.676 8.92667 199.356 9.59333 199.849 10.46C200.356 11.3267 200.609 12.3267 200.609 13.46C200.609 14.5933 200.349 15.5933 199.829 16.46C199.323 17.3267 198.629 18 197.749 18.48C196.883 18.9467 195.909 19.18 194.829 19.18ZM194.829 16.74C195.336 16.74 195.809 16.62 196.249 16.38C196.703 16.1267 197.063 15.7533 197.329 15.26C197.596 14.7667 197.729 14.1667 197.729 13.46C197.729 12.4067 197.449 11.6 196.889 11.04C196.343 10.4667 195.669 10.18 194.869 10.18C194.069 10.18 193.396 10.4667 192.849 11.04C192.316 11.6 192.049 12.4067 192.049 13.46C192.049 14.5133 192.309 15.3267 192.829 15.9C193.363 16.46 194.029 16.74 194.829 16.74ZM209.223 19L205.463 14.28V19H202.663V4.2H205.463V12.62L209.183 7.92H212.823L207.943 13.48L212.863 19H209.223Z" fill="#333333"/>
<defs>
<linearGradient id="paint0_linear_4674_9717" x1="15.8359" y1="11.6" x2="15.8359" y2="22.9999" gradientUnits="userSpaceOnUse">
<stop stop-color="#35B8F1"/>
<stop offset="1" stop-color="#28A8EA"/>
</linearGradient>
<linearGradient id="paint1_linear_4674_9717" x1="2.28386" y1="3.54066" x2="10.915" y2="18.4292" gradientUnits="userSpaceOnUse">
<stop stop-color="#1784D9"/>
<stop offset="0.5" stop-color="#107AD5"/>
<stop offset="1" stop-color="#0A63C9"/>
</linearGradient>
<clipPath id="clip0_4674_9717">
<rect width="26" height="24" fill="white"/>
</clipPath>
</defs>
</svg>
