<?xml version="1.0" encoding="UTF-8" standalone="no"?>
<!-- Created with Inkscape (http://www.inkscape.org/) -->

<svg
   xmlns:dc="http://purl.org/dc/elements/1.1/"
   xmlns:cc="http://creativecommons.org/ns#"
   xmlns:rdf="http://www.w3.org/1999/02/22-rdf-syntax-ns#"
   xmlns:svg="http://www.w3.org/2000/svg"
   xmlns="http://www.w3.org/2000/svg"
   xmlns:sodipodi="http://sodipodi.sourceforge.net/DTD/sodipodi-0.dtd"
   xmlns:inkscape="http://www.inkscape.org/namespaces/inkscape"
   id="svg4147"
   version="1.1"
   inkscape:version="0.91 r13725"
   width="468.75"
   height="468.75"
   viewBox="0 0 468.75 468.75"
   sodipodi:docname="Botframework.svg">
  <metadata
     id="metadata4153">
    <rdf:RDF>
      <cc:Work
         rdf:about="">
        <dc:format>image/svg+xml</dc:format>
        <dc:type
           rdf:resource="http://purl.org/dc/dcmitype/StillImage" />
        <dc:title />
      </cc:Work>
    </rdf:RDF>
  </metadata>
  <defs
     id="defs4151" />
  <sodipodi:namedview
     pagecolor="#ffffff"
     bordercolor="#666666"
     borderopacity="1"
     objecttolerance="10"
     gridtolerance="10"
     guidetolerance="10"
     inkscape:pageopacity="0"
     inkscape:pageshadow="2"
     inkscape:window-width="1920"
     inkscape:window-height="1017"
     id="namedview4149"
     showgrid="false"
     inkscape:zoom="2.0138667"
     inkscape:cx="191.09731"
     inkscape:cy="247.82706"
     inkscape:window-x="2552"
     inkscape:window-y="-8"
     inkscape:window-maximized="1"
     inkscape:current-layer="svg4147" />
  <path
     style="fill:#000000"
     d="M 216.5347,469.08448 C 145.70076,464.23864 78.819385,425.1909 38.743431,365.28359 24.50351,343.99713 11.390428,313.95597 5.6118204,289.38139 -1.4961986,259.15324 -2.3548676,221.40756 3.3831074,191.41083 17.064182,119.8895 64.097051,57.978775 129.44469,25.472338 160.23048,10.158296 190.04759,2.6198409 224.9722,1.3207699 c 40.59674,-1.51005298 75.32693,5.818102 111.5625,23.5399611 25.88303,12.658703 46.81807,27.885343 66.30952,48.228749 52.6012,54.90037 75.15271,130.69308 61.19359,205.66366 -16.12879,86.62322 -81.01168,157.74925 -165.95374,181.9221 -25.51204,7.26023 -54.56006,10.25561 -81.54937,8.40924 z M 206.27832,297.10713 c 2.80507,-2.65292 5.10013,-5.50321 5.10013,-6.33399 0,-0.83076 -12.65625,-14.16147 -28.125,-29.62377 -15.46875,-15.4623 -28.125,-28.75136 -28.125,-29.53125 0,-0.77989 12.65625,-14.06895 28.125,-29.53125 15.46875,-15.4623 28.125,-28.73546 28.125,-29.49591 0,-1.65892 -9.30223,-11.28534 -10.90528,-11.28534 -1.59447,0 -65.32331,65.17765 -66.33877,67.84691 -0.46079,1.21125 -0.56491,3.21074 -0.23135,4.44331 0.59549,2.20055 65.02965,68.42681 66.51589,68.3659 0.41759,-0.0171 3.0543,-2.2017 5.85938,-4.85461 z m 91.207,-29.73118 c 28.84847,-29.52311 32.01813,-33.07017 32.01813,-35.83034 0,-2.6759 -1.68786,-4.79231 -13.34226,-16.72984 -31.5721,-32.33914 -52.79897,-53.51015 -53.65133,-53.51015 -1.50572,0 -10.81891,9.66176 -10.81891,11.22383 0,0.79428 12.65625,14.09512 28.125,29.55742 15.46875,15.4623 28.125,28.75136 28.125,29.53125 0,0.77989 -12.65625,14.06895 -28.125,29.53125 -15.46875,15.4623 -28.125,28.79301 -28.125,29.62377 0,0.83078 2.31421,3.69918 5.14268,6.37423 4.24129,4.01124 5.44862,4.70001 6.88812,3.92961 0.95999,-0.51377 16.15359,-15.67923 33.76357,-33.70103 z m -79.31,-29.15223 c 4.24751,-4.75337 3.08425,-12.82613 -2.24534,-15.58216 -8.60151,-4.44802 -17.67774,2.76742 -14.94681,11.88244 2.3044,7.69142 11.79941,9.73472 17.19215,3.69972 z m 39.79269,1.87323 c 5.96413,-3.63656 6.22447,-12.44592 0.50086,-16.9481 -4.37649,-3.44256 -12.32206,-1.84441 -14.81698,2.98024 -5.0784,9.82055 4.99651,19.65039 14.31612,13.96786 z"
     id="path4753"
     inkscape:connector-curvature="0" />
  <path
     style="opacity:1;fill:#3a96dd;fill-opacity:1"
     d="M 218.59319,469.01214 C 150.66946,464.50971 87.952209,430.42635 46.255053,375.3559 31.891279,356.38531 19.412109,332.18057 11.077585,307.12528 4.3563499,286.91986 1.4311301,270.64877 0.14187655,246.29702 -1.3694321,217.75104 2.42568,188.83066 11.138807,162.4957 39.156195,77.814645 113.91566,15.229464 201.02845,3.5288374 c 16.27381,-2.1858291 41.73722,-2.68876965 57.1086,-1.12798 27.13426,2.7551785 51.61772,9.8303996 77.4792,22.3899076 25.38539,12.328296 43.89703,25.468673 63.30518,44.936801 17.83511,17.890221 30.17079,34.503674 42.06395,56.650894 18.92358,35.23913 28.74371,79.61182 26.52908,119.87289 -2.38277,43.31794 -14.70213,81.46446 -37.68833,116.70076 -37.44119,57.39482 -98.25515,95.74963 -165.37973,104.30351 -14.32566,1.82555 -33.64625,2.56568 -45.85321,1.75652 z m -16.2373,-168.18019 c 3.02995,-2.43538 7.40601,-6.84603 8.4421,-8.50882 l 1.02399,-1.64338 -1.17373,-1.33596 c -3.31017,-3.76767 -9.40019,-10.10173 -27.78162,-28.89489 -21.59194,-22.07558 -27.27316,-28.08368 -27.27316,-28.84234 0,-0.90982 7.11681,-8.37291 34.759,-36.4503 9.14907,-9.29311 17.725,-18.18148 19.05762,-19.75194 l 2.42295,-2.85537 -1.37043,-1.97752 c -1.88834,-2.72488 -8.99306,-9.43397 -9.99028,-9.43397 -1.35896,0 -57.74969,57.27979 -64.94107,65.96495 -1.50205,1.81405 -1.78631,2.536 -1.78631,4.53681 0,2.347 0.0801,2.46661 5.86799,8.76691 14.45513,15.73476 59.64667,61.75358 60.64344,61.75358 0.24618,0 1.19096,-0.5975 2.09951,-1.32776 z m 66.63429,-4.58859 c 8.51074,-8.34305 34.38066,-34.48521 44.26663,-44.73249 10.77198,-11.16566 15.46434,-16.60599 16.17398,-18.75214 0.93946,-2.8412 -0.71511,-5.16429 -12.21963,-17.15685 -15.69882,-16.36478 -54.0385,-54.46442 -54.80757,-54.46442 -0.86472,0 -8.75264,7.69458 -10.06541,9.81869 l -1.00681,1.62905 2.40747,2.83789 c 1.3241,1.56085 8.65929,9.20798 16.30041,16.99363 31.18806,31.77795 37.50072,38.37412 37.50072,39.18488 0,0.6859 -8.28299,9.40192 -29.11149,30.6334 -21.14059,21.54962 -26.99947,27.7929 -26.99947,28.77089 0,0.82655 6.25075,7.52083 8.64012,9.25318 1.06512,0.77224 2.26413,1.40408 2.66445,1.40408 0.40033,0 3.2158,-2.43891 6.2566,-5.41979 z m -55.61995,-54.7041 c 2.97574,-0.82627 6.14405,-4.05936 7.05762,-7.20191 2.17467,-7.48061 -3.07188,-13.66694 -11.03098,-13.00691 -8.57104,0.71078 -12.11723,11.31276 -5.87265,17.55735 2.79708,2.79706 6.10934,3.68904 9.84601,2.65147 z m 44.18639,-1.07645 c 1.11182,-0.61467 2.70176,-2.0865 3.53321,-3.27073 1.32221,-1.88323 1.51172,-2.57284 1.51172,-5.50107 0,-2.85437 -0.21961,-3.70252 -1.48967,-5.75322 -2.17764,-3.51612 -4.93471,-4.87188 -9.30992,-4.57807 -6.07214,0.40776 -9.51438,4.04038 -9.51438,10.04058 0,8.28531 8.04166,13.05821 15.26904,9.06251 z"
     id="path4755"
     inkscape:connector-curvature="0" />
  <path
     style="opacity:1;fill:#ffffff;fill-opacity:1"
     d="m 207.4837,240.97317 c -2.68866,-0.95326 -4.32926,-2.48982 -5.5835,-5.22943 -2.2327,-4.87686 -1.00448,-9.36111 3.48128,-12.71022 1.68639,-1.25907 6.23341,-1.66847 8.86928,-0.79855 2.5002,0.82514 5.18054,3.78043 5.92027,6.52757 2.0053,7.44713 -5.56715,14.73506 -12.68733,12.21063 z"
     id="path4759"
     inkscape:connector-curvature="0" />
  <path
     style="opacity:1;fill:#ffffff;fill-opacity:1"
     d="m 248.64579,240.63222 c -5.43477,-2.46813 -7.576,-8.44021 -4.92189,-13.72757 1.53328,-3.05452 3.95547,-4.76242 7.19573,-5.07377 3.65194,-0.3509 5.81103,0.24071 7.95835,2.18069 5.34692,4.83062 4.30437,13.09872 -2.05099,16.26573 -3.07172,1.5307 -5.37236,1.63051 -8.1812,0.35492 z"
     id="path4761"
     inkscape:connector-curvature="0" />
  <path
     style="opacity:1;fill:#ffffff;fill-opacity:1"
     d=""
     id="path4763"
     inkscape:connector-curvature="0" />
  <path
     style="opacity:1;fill:#ffffff;fill-opacity:1"
     d="m 180.20198,281.73577 c -17.56235,-17.71511 -39.71922,-40.76493 -44.51591,-46.30997 -2.09203,-2.41841 -2.20365,-4.92849 -0.32778,-7.37086 4.38108,-5.70412 64.02428,-66.4477 65.22593,-66.42932 0.87398,0.0134 6.91128,5.76016 8.90583,8.47729 l 1.81917,2.4782 -4.39555,4.80569 c -2.41755,2.64313 -12.33351,12.86086 -22.03546,22.70608 -22.42451,22.75562 -29.7813,30.52422 -29.7813,31.44837 0,1.07116 6.23827,7.71241 28.39674,30.23117 10.83884,11.01508 21.51417,22.043 23.72296,24.50649 3.66207,4.08436 3.96395,4.57631 3.42554,5.58234 -0.70204,1.31177 -8.1941,8.67847 -9.58108,9.42076 -0.85494,0.45755 -3.28876,-1.82308 -20.85909,-19.54624 z"
     id="path4765"
     inkscape:connector-curvature="0" />
  <path
     style="opacity:1;fill:#ffffff;fill-opacity:1"
     d="m 260.31741,299.7575 c -2.56089,-1.86332 -8.14356,-7.87335 -8.14356,-8.76695 0,-1.03198 8.74262,-10.32309 31.44652,-33.41939 11.08643,-11.27804 21.19843,-21.72436 22.47111,-23.21405 l 2.31397,-2.70853 -2.41897,-2.83598 c -1.33043,-1.55978 -12.37792,-13.01163 -24.54998,-25.44855 -24.5675,-25.10207 -29.26265,-30.0752 -29.26265,-30.99516 0,-1.21326 9.02583,-10.73487 10.17592,-10.73487 1.18829,0 60.80911,60.19496 64.60024,65.22233 3.07466,4.07727 2.98878,5.23149 -0.73308,9.85248 -5.65266,7.01823 -62.07938,64.45776 -63.32121,64.45776 -0.35295,0 -1.51319,-0.63409 -2.57831,-1.40909 z"
     id="path4138"
     inkscape:connector-curvature="0" />
</svg>
