<svg width="165" height="24" viewBox="0 0 165 24" fill="none" xmlns="http://www.w3.org/2000/svg">
<g clip-path="url(#clip0_4674_9716)">
<path d="M11.0866 24.0171C7.45985 23.769 4.03553 21.7697 1.98364 18.7025C1.25455 17.6126 0.583162 16.0745 0.287298 14.8163C-0.0766331 13.2686 -0.120597 11.336 0.173187 9.80021C0.873659 6.13831 3.28174 2.96849 6.62754 1.30416C8.20378 0.520079 9.73041 0.13411 11.5186 0.0675974C13.5971 -0.00971733 15.3753 0.365484 17.2306 1.27284C18.5558 1.92097 19.6276 2.70057 20.6256 3.74215C23.3188 6.55305 24.4734 10.4336 23.7587 14.2721C22.9329 18.7072 19.6109 22.3489 15.2619 23.5865C13.9557 23.9583 12.4684 24.1116 11.0866 24.0171ZM10.5614 15.2119C10.705 15.076 10.8226 14.9301 10.8226 14.8876C10.8226 14.845 10.1746 14.1625 9.38255 13.3708C8.59055 12.5791 7.94255 11.8987 7.94255 11.8588C7.94255 11.8189 8.59055 11.1385 9.38255 10.3468C10.1746 9.55515 10.8226 8.87556 10.8226 8.83663C10.8226 8.75169 10.3463 8.25882 10.2642 8.25882C10.1826 8.25882 6.91965 11.5959 6.86766 11.7326C6.84406 11.7946 6.83873 11.897 6.85581 11.9601C6.8863 12.0727 10.1853 15.4635 10.2614 15.4604C10.2828 15.4595 10.4178 15.3477 10.5614 15.2119V15.2119ZM15.2312 13.6896C16.7083 12.178 16.8706 11.9964 16.8706 11.8551C16.8706 11.7181 16.7841 11.6097 16.1874 10.9985C14.5709 9.34277 13.4841 8.25882 13.4405 8.25882C13.3634 8.25882 12.8866 8.7535 12.8866 8.83348C12.8866 8.87415 13.5346 9.55515 14.3266 10.3468C15.1186 11.1385 15.7666 11.8189 15.7666 11.8588C15.7666 11.8987 15.1186 12.5791 14.3266 13.3708C13.5346 14.1625 12.8866 14.845 12.8866 14.8876C12.8866 14.9301 13.005 15.077 13.1499 15.2139C13.367 15.4193 13.4288 15.4546 13.5025 15.4151C13.5517 15.3888 14.3296 14.6123 15.2312 13.6896V13.6896ZM11.1706 12.197C11.388 11.9537 11.3285 11.5403 11.0556 11.3992C10.6152 11.1715 10.1505 11.5409 10.2903 12.0076C10.4083 12.4014 10.8944 12.506 11.1706 12.197V12.197ZM13.2079 12.2929C13.5133 12.1067 13.5266 11.6557 13.2336 11.4252C13.0095 11.2489 12.6027 11.3308 12.475 11.5778C12.2149 12.0806 12.7308 12.5839 13.2079 12.2929Z" fill="black"/>
<path d="M11.192 24.0134C7.71427 23.7829 4.50314 22.0378 2.36825 19.2182C1.63282 18.2469 0.993885 17.0076 0.567157 15.7248C0.223029 14.6903 0.073258 13.8572 0.00724811 12.6104C-0.070131 11.1489 0.124179 9.66813 0.570292 8.31978C2.00478 3.98411 5.83247 0.779744 10.2927 0.180672C11.1259 0.068757 12.4296 0.0430064 13.2166 0.122919C14.6059 0.263984 15.8594 0.626236 17.1836 1.26928C18.4833 1.90049 19.4311 2.57328 20.4248 3.57005C21.3379 4.48603 21.9695 5.33664 22.5785 6.47058C23.5473 8.27482 24.0501 10.5467 23.9367 12.6081C23.8147 14.826 23.184 16.7791 22.0071 18.5832C20.0901 21.5218 16.9764 23.4855 13.5397 23.9235C12.8062 24.017 11.817 24.0549 11.192 24.0134V24.0134ZM10.3606 15.4026C10.5157 15.2779 10.7398 15.0521 10.7929 14.9669L10.8453 14.8828L10.7852 14.8144C10.6157 14.6215 10.3039 14.2972 9.36276 13.335C8.25726 12.2047 7.96638 11.8971 7.96638 11.8583C7.96638 11.8117 8.33076 11.4296 9.74604 9.992C10.2145 9.51619 10.6536 9.06111 10.7218 8.9807L10.8458 8.83451L10.7757 8.73326C10.679 8.59374 10.3152 8.25024 10.2642 8.25024C10.1946 8.25024 7.30739 11.183 6.93919 11.6276C6.86229 11.7205 6.84773 11.7575 6.84773 11.8599C6.84773 11.9801 6.85183 11.9862 7.14817 12.3088C7.88828 13.1144 10.2021 15.4706 10.2531 15.4706C10.2657 15.4706 10.3141 15.44 10.3606 15.4026V15.4026ZM13.7723 15.1677C14.208 14.7405 15.5326 13.402 16.0387 12.8774C16.5903 12.3057 16.8305 12.0271 16.8669 11.9172C16.915 11.7718 16.8302 11.6528 16.2412 11.0388C15.4374 10.2009 13.4744 8.25024 13.4351 8.25024C13.3908 8.25024 12.9869 8.6442 12.9197 8.75296L12.8682 8.83636L12.9914 8.98166C13.0592 9.06158 13.4348 9.45311 13.826 9.85174C15.4228 11.4788 15.746 11.8165 15.746 11.858C15.746 11.8931 15.322 12.3394 14.2555 13.4264C13.1731 14.5298 12.8732 14.8494 12.8732 14.8995C12.8732 14.9418 13.1932 15.2846 13.3155 15.3733C13.3701 15.4128 13.4315 15.4452 13.452 15.4452C13.4725 15.4452 13.6166 15.3203 13.7723 15.1677V15.1677ZM10.9245 12.3668C11.0769 12.3245 11.2391 12.159 11.2859 11.9981C11.3972 11.6151 11.1286 11.2983 10.7211 11.3321C10.2823 11.3685 10.1007 11.9113 10.4204 12.2311C10.5636 12.3743 10.7332 12.4199 10.9245 12.3668V12.3668ZM13.1869 12.3117C13.2438 12.2802 13.3252 12.2049 13.3678 12.1442C13.4355 12.0478 13.4452 12.0125 13.4452 11.8626C13.4452 11.7164 13.434 11.673 13.3689 11.568C13.2574 11.388 13.1163 11.3186 12.8923 11.3336C12.5814 11.3545 12.4051 11.5405 12.4051 11.8477C12.4051 12.2719 12.8169 12.5163 13.1869 12.3117V12.3117Z" fill="#3A96DD"/>
<path d="M10.6232 12.3378C10.4855 12.289 10.4015 12.2103 10.3373 12.0701C10.223 11.8204 10.2859 11.5908 10.5155 11.4193C10.6019 11.3548 10.8347 11.3339 10.9696 11.3784C11.0976 11.4206 11.2349 11.572 11.2728 11.7126C11.3754 12.0939 10.9877 12.4671 10.6232 12.3378Z" fill="white"/>
<path d="M12.7307 12.3204C12.4524 12.194 12.3428 11.8882 12.4787 11.6175C12.5572 11.4611 12.6812 11.3737 12.8471 11.3577C13.0341 11.3398 13.1446 11.3701 13.2546 11.4694C13.5283 11.7167 13.475 12.14 13.1496 12.3022C12.9923 12.3806 12.8745 12.3857 12.7307 12.3204V12.3204Z" fill="white"/>
<path d="M9.22632 14.4248C8.32713 13.5178 7.1927 12.3377 6.94711 12.0538C6.84 11.93 6.83429 11.8014 6.93033 11.6764C7.15464 11.3843 10.2084 8.27427 10.2699 8.27521C10.3146 8.27589 10.6237 8.57013 10.7259 8.70924L10.819 8.83613L10.594 9.08218C10.4702 9.21751 9.96248 9.74066 9.46575 10.2447C8.31761 11.4098 7.94095 11.8076 7.94095 11.8549C7.94095 11.9097 8.26034 12.2498 9.39486 13.4027C9.9498 13.9667 10.4964 14.5313 10.6095 14.6575C10.797 14.8666 10.8124 14.8918 10.7849 14.9433C10.7489 15.0104 10.3653 15.3876 10.2943 15.4256C10.2505 15.449 10.1259 15.3323 9.22632 14.4248V14.4248Z" fill="white"/>
<path d="M13.3283 15.3476C13.1971 15.2522 12.9113 14.9444 12.9113 14.8987C12.9113 14.8459 13.3589 14.3701 14.5214 13.1876C15.089 12.6102 15.6067 12.0753 15.6719 11.9991L15.7903 11.8604L15.6665 11.7152C15.5984 11.6353 15.0328 11.049 14.4095 10.4122C13.1517 9.12699 12.9113 8.87236 12.9113 8.82526C12.9113 8.76314 13.3734 8.27563 13.4323 8.27563C13.4932 8.27563 16.5457 11.3576 16.7398 11.615C16.8972 11.8238 16.8928 11.8829 16.7023 12.1195C16.4129 12.4788 13.5239 15.4197 13.4603 15.4197C13.4422 15.4197 13.3828 15.3872 13.3283 15.3476Z" fill="white"/>
</g>
<path d="M48.6742 5.04V19H45.8742V9.92L42.1342 19H40.0142L36.2542 9.92V19H33.4542V5.04H36.6342L41.0742 15.42L45.5142 5.04H48.6742ZM52.8625 6.6C52.3692 6.6 51.9558 6.44667 51.6225 6.14C51.3025 5.82 51.1425 5.42667 51.1425 4.96C51.1425 4.49333 51.3025 4.10667 51.6225 3.8C51.9558 3.48 52.3692 3.32 52.8625 3.32C53.3558 3.32 53.7625 3.48 54.0825 3.8C54.4158 4.10667 54.5825 4.49333 54.5825 4.96C54.5825 5.42667 54.4158 5.82 54.0825 6.14C53.7625 6.44667 53.3558 6.6 52.8625 6.6ZM54.2425 7.92V19H51.4425V7.92H54.2425ZM56.2889 13.46C56.2889 12.3133 56.5222 11.3133 56.9889 10.46C57.4556 9.59333 58.1022 8.92667 58.9289 8.46C59.7556 7.98 60.7022 7.74 61.7689 7.74C63.1422 7.74 64.2756 8.08667 65.1689 8.78C66.0756 9.46 66.6822 10.42 66.9889 11.66H63.9689C63.8089 11.18 63.5356 10.8067 63.1489 10.54C62.7756 10.26 62.3089 10.12 61.7489 10.12C60.9489 10.12 60.3156 10.4133 59.8489 11C59.3822 11.5733 59.1489 12.3933 59.1489 13.46C59.1489 14.5133 59.3822 15.3333 59.8489 15.92C60.3156 16.4933 60.9489 16.78 61.7489 16.78C62.8822 16.78 63.6222 16.2733 63.9689 15.26H66.9889C66.6822 16.46 66.0756 17.4133 65.1689 18.12C64.2622 18.8267 63.1289 19.18 61.7689 19.18C60.7022 19.18 59.7556 18.9467 58.9289 18.48C58.1022 18 57.4556 17.3333 56.9889 16.48C56.5222 15.6133 56.2889 14.6067 56.2889 13.46ZM71.8402 9.64C72.2002 9.05333 72.6668 8.59333 73.2402 8.26C73.8268 7.92667 74.4935 7.76 75.2402 7.76V10.7H74.5002C73.6202 10.7 72.9535 10.9067 72.5002 11.32C72.0602 11.7333 71.8402 12.4533 71.8402 13.48V19H69.0402V7.92H71.8402V9.64ZM82.0461 19.18C80.9794 19.18 80.0194 18.9467 79.1661 18.48C78.3128 18 77.6394 17.3267 77.1461 16.46C76.6661 15.5933 76.4261 14.5933 76.4261 13.46C76.4261 12.3267 76.6728 11.3267 77.1661 10.46C77.6728 9.59333 78.3594 8.92667 79.2261 8.46C80.0928 7.98 81.0594 7.74 82.1261 7.74C83.1928 7.74 84.1594 7.98 85.0261 8.46C85.8928 8.92667 86.5728 9.59333 87.0661 10.46C87.5728 11.3267 87.8261 12.3267 87.8261 13.46C87.8261 14.5933 87.5661 15.5933 87.0461 16.46C86.5394 17.3267 85.8461 18 84.9661 18.48C84.0994 18.9467 83.1261 19.18 82.0461 19.18ZM82.0461 16.74C82.5528 16.74 83.0261 16.62 83.4661 16.38C83.9194 16.1267 84.2794 15.7533 84.5461 15.26C84.8128 14.7667 84.9461 14.1667 84.9461 13.46C84.9461 12.4067 84.6661 11.6 84.1061 11.04C83.5594 10.4667 82.8861 10.18 82.0861 10.18C81.2861 10.18 80.6128 10.4667 80.0661 11.04C79.5328 11.6 79.2661 12.4067 79.2661 13.46C79.2661 14.5133 79.5261 15.3267 80.0461 15.9C80.5794 16.46 81.2461 16.74 82.0461 16.74ZM94.12 19.18C93.2133 19.18 92.4 19.02 91.68 18.7C90.96 18.3667 90.3867 17.92 89.96 17.36C89.5467 16.8 89.32 16.18 89.28 15.5H92.1C92.1533 15.9267 92.36 16.28 92.72 16.56C93.0933 16.84 93.5533 16.98 94.1 16.98C94.6333 16.98 95.0467 16.8733 95.34 16.66C95.6467 16.4467 95.8 16.1733 95.8 15.84C95.8 15.48 95.6133 15.2133 95.24 15.04C94.88 14.8533 94.3 14.6533 93.5 14.44C92.6733 14.24 91.9933 14.0333 91.46 13.82C90.94 13.6067 90.4867 13.28 90.1 12.84C89.7267 12.4 89.54 11.8067 89.54 11.06C89.54 10.4467 89.7133 9.88667 90.06 9.38C90.42 8.87333 90.9267 8.47333 91.58 8.18C92.2467 7.88667 93.0267 7.74 93.92 7.74C95.24 7.74 96.2933 8.07333 97.08 8.74C97.8667 9.39333 98.3 10.28 98.38 11.4H95.7C95.66 10.96 95.4733 10.6133 95.14 10.36C94.82 10.0933 94.3867 9.96 93.84 9.96C93.3333 9.96 92.94 10.0533 92.66 10.24C92.3933 10.4267 92.26 10.6867 92.26 11.02C92.26 11.3933 92.4467 11.68 92.82 11.88C93.1933 12.0667 93.7733 12.26 94.56 12.46C95.36 12.66 96.02 12.8667 96.54 13.08C97.06 13.2933 97.5067 13.6267 97.88 14.08C98.2667 14.52 98.4667 15.1067 98.48 15.84C98.48 16.48 98.3 17.0533 97.94 17.56C97.5933 18.0667 97.0867 18.4667 96.42 18.76C95.7667 19.04 95 19.18 94.12 19.18ZM105.698 19.18C104.632 19.18 103.672 18.9467 102.818 18.48C101.965 18 101.292 17.3267 100.798 16.46C100.318 15.5933 100.078 14.5933 100.078 13.46C100.078 12.3267 100.325 11.3267 100.818 10.46C101.325 9.59333 102.012 8.92667 102.878 8.46C103.745 7.98 104.712 7.74 105.778 7.74C106.845 7.74 107.812 7.98 108.678 8.46C109.545 8.92667 110.225 9.59333 110.718 10.46C111.225 11.3267 111.478 12.3267 111.478 13.46C111.478 14.5933 111.218 15.5933 110.698 16.46C110.192 17.3267 109.498 18 108.618 18.48C107.752 18.9467 106.778 19.18 105.698 19.18ZM105.698 16.74C106.205 16.74 106.678 16.62 107.118 16.38C107.572 16.1267 107.932 15.7533 108.198 15.26C108.465 14.7667 108.598 14.1667 108.598 13.46C108.598 12.4067 108.318 11.6 107.758 11.04C107.212 10.4667 106.538 10.18 105.738 10.18C104.938 10.18 104.265 10.4667 103.718 11.04C103.185 11.6 102.918 12.4067 102.918 13.46C102.918 14.5133 103.178 15.3267 103.698 15.9C104.232 16.46 104.898 16.74 105.698 16.74ZM118.612 10.22H116.672V19H113.832V10.22H112.572V7.92H113.832V7.36C113.832 6 114.219 5 114.992 4.36C115.766 3.72 116.932 3.42 118.492 3.46V5.82C117.812 5.80667 117.339 5.92 117.072 6.16C116.806 6.4 116.672 6.83333 116.672 7.46V7.92H118.612V10.22ZM123.687 10.22V15.58C123.687 15.9533 123.774 16.2267 123.947 16.4C124.134 16.56 124.44 16.64 124.867 16.64H126.167V19H124.407C122.047 19 120.867 17.8533 120.867 15.56V10.22H119.547V7.92H120.867V5.18H123.687V7.92H126.167V10.22H123.687ZM140.866 11.84C141.653 11.9867 142.3 12.38 142.806 13.02C143.313 13.66 143.566 14.3933 143.566 15.22C143.566 15.9667 143.38 16.6267 143.006 17.2C142.646 17.76 142.12 18.2 141.426 18.52C140.733 18.84 139.913 19 138.966 19H132.946V5.04H138.706C139.653 5.04 140.466 5.19333 141.146 5.5C141.84 5.80667 142.36 6.23333 142.706 6.78C143.066 7.32667 143.246 7.94667 143.246 8.64C143.246 9.45333 143.026 10.1333 142.586 10.68C142.16 11.2267 141.586 11.6133 140.866 11.84ZM135.746 10.8H138.306C138.973 10.8 139.486 10.6533 139.846 10.36C140.206 10.0533 140.386 9.62 140.386 9.06C140.386 8.5 140.206 8.06667 139.846 7.76C139.486 7.45333 138.973 7.3 138.306 7.3H135.746V10.8ZM138.566 16.72C139.246 16.72 139.773 16.56 140.146 16.24C140.533 15.92 140.726 15.4667 140.726 14.88C140.726 14.28 140.526 13.8133 140.126 13.48C139.726 13.1333 139.186 12.96 138.506 12.96H135.746V16.72H138.566ZM150.718 19.18C149.651 19.18 148.691 18.9467 147.838 18.48C146.985 18 146.311 17.3267 145.818 16.46C145.338 15.5933 145.098 14.5933 145.098 13.46C145.098 12.3267 145.345 11.3267 145.838 10.46C146.345 9.59333 147.031 8.92667 147.898 8.46C148.765 7.98 149.731 7.74 150.798 7.74C151.865 7.74 152.831 7.98 153.698 8.46C154.565 8.92667 155.245 9.59333 155.738 10.46C156.245 11.3267 156.498 12.3267 156.498 13.46C156.498 14.5933 156.238 15.5933 155.718 16.46C155.211 17.3267 154.518 18 153.638 18.48C152.771 18.9467 151.798 19.18 150.718 19.18ZM150.718 16.74C151.225 16.74 151.698 16.62 152.138 16.38C152.591 16.1267 152.951 15.7533 153.218 15.26C153.485 14.7667 153.618 14.1667 153.618 13.46C153.618 12.4067 153.338 11.6 152.778 11.04C152.231 10.4667 151.558 10.18 150.758 10.18C149.958 10.18 149.285 10.4667 148.738 11.04C148.205 11.6 147.938 12.4067 147.938 13.46C147.938 14.5133 148.198 15.3267 148.718 15.9C149.251 16.46 149.918 16.74 150.718 16.74ZM161.812 10.22V15.58C161.812 15.9533 161.899 16.2267 162.072 16.4C162.259 16.56 162.565 16.64 162.992 16.64H164.292V19H162.532C160.172 19 158.992 17.8533 158.992 15.56V10.22H157.672V7.92H158.992V5.18H161.812V7.92H164.292V10.22H161.812Z" fill="#333333"/>
<defs>
<clipPath id="clip0_4674_9716">
<rect width="24" height="24" fill="white"/>
</clipPath>
</defs>
</svg>
