<svg width="26" height="24" viewBox="0 0 26 24" fill="none" xmlns="http://www.w3.org/2000/svg">
<path d="M16.1391 11.4L5.97745 9.59998V22.9002C5.97745 23.5076 6.46801 24 7.07314 24H24.6074C25.2125 24 25.7031 23.5076 25.7031 22.9002V18L16.1391 11.4Z" fill="#185C37"/>
<path d="M16.1391 0H7.07314C6.46801 0 5.97745 0.492396 5.97745 1.0998V6L16.1391 12L21.5189 13.8L25.7031 12V6L16.1391 0Z" fill="#21A366"/>
<path d="M5.97745 6H16.1391V12H5.97745V6Z" fill="#107C41"/>
<path opacity="0.1" d="M13.2502 4.79999H5.97745V19.8H13.2502C13.8545 19.798 14.344 19.3068 14.3459 18.7002V5.89978C14.344 5.29321 13.8545 4.80192 13.2502 4.79999Z" fill="black"/>
<path opacity="0.2" d="M12.6525 5.40002H5.97745V20.4H12.6525C13.2568 20.398 13.7462 19.9068 13.7481 19.3002V6.49981C13.7462 5.89325 13.2568 5.402 12.6525 5.40002Z" fill="black"/>
<path opacity="0.2" d="M12.6525 5.40002H5.97745V19.2H12.6525C13.2568 19.198 13.7462 18.7068 13.7481 18.1002V6.49981C13.7462 5.89325 13.2568 5.402 12.6525 5.40002Z" fill="black"/>
<path opacity="0.2" d="M12.0547 5.40002H5.97745V19.2H12.0547C12.659 19.198 13.1485 18.7068 13.1504 18.1002V6.49981C13.1485 5.89325 12.659 5.402 12.0547 5.40002Z" fill="black"/>
<path d="M1.09567 5.40002H12.0547C12.6599 5.40002 13.1504 5.8924 13.1504 6.49981V17.5002C13.1504 18.1076 12.6599 18.6 12.0547 18.6H1.09567C0.490544 18.6 0 18.1076 0 17.5002V6.49981C0 5.8924 0.490544 5.40002 1.09567 5.40002Z" fill="url(#paint0_linear_4633_9917)"/>
<path d="M3.39339 15.5748L5.69828 11.9898L3.58646 8.42456H5.28526L6.43773 10.7046C6.54412 10.9212 6.61704 11.0819 6.6565 11.1881H6.67143C6.74713 11.0153 6.82685 10.8476 6.91051 10.6848L8.14249 8.42578H9.70198L7.53635 11.97L9.757 15.5748H8.09766L6.76646 13.0722C6.70377 12.9657 6.65055 12.8539 6.60748 12.738H6.58777C6.54877 12.8515 6.49702 12.9602 6.43353 13.062L5.06291 15.5748H3.39339Z" fill="white"/>
<path d="M24.6074 0H16.1392V6H25.7031V1.0998C25.7031 0.492396 25.2126 0 24.6074 0Z" fill="#33C481"/>
<path d="M16.1392 12H25.7031V18H16.1392V12Z" fill="#107C41"/>
<defs>
<linearGradient id="paint0_linear_4633_9917" x1="2.28449" y1="4.54066" x2="10.9145" y2="19.4313" gradientUnits="userSpaceOnUse">
<stop stop-color="#18884F"/>
<stop offset="0.5" stop-color="#117E43"/>
<stop offset="1" stop-color="#0B6631"/>
</linearGradient>
</defs>
</svg>
