<svg width="89" height="57" viewBox="0 0 89 57" fill="none" xmlns="http://www.w3.org/2000/svg">
<g clip-path="url(#clip0_1279223)">
<path d="M53.7498 38.4655L72.114 20.9034C68.2994 6.02923 53.1491 -2.93637 38.2749 0.87824C31.5766 2.59604 25.7588 6.74838 21.957 12.5246C22.2413 12.5175 53.7498 38.4655 53.7498 38.4655Z" fill="#0364B8"/>
<path d="M33.9256 15.8308L33.9247 15.8339C30.4157 13.6605 26.3688 12.5117 22.2412 12.5174C22.1458 12.5174 22.0521 12.5234 21.9569 12.5245C9.67941 12.6766 -0.150278 22.7528 0.00173973 35.0304C0.0568462 39.484 1.44842 43.8183 3.99601 47.4716L31.5085 44.0258L52.6018 27.0175L33.9256 15.8308Z" fill="#0078D4"/>
<path d="M72.114 20.9035C71.7103 20.8765 71.3046 20.8579 70.8942 20.8579C68.4305 20.8555 65.9925 21.3587 63.7312 22.3364L63.7307 22.3345L52.6019 27.0176L64.8706 42.1724L86.8038 47.5041C91.537 38.7171 88.2507 27.7569 79.4638 23.0237C77.1933 21.8007 74.6872 21.0778 72.1141 20.9036V20.9035H72.114Z" fill="#1490DF"/>
<path d="M3.99597 47.4717C8.15012 53.4443 14.966 57.0038 22.2412 57H70.894C77.5401 57.0019 83.6506 53.3549 86.8036 47.5043L52.6017 27.0176L3.99597 47.4717Z" fill="#28A8EA"/>
</g>
<defs>
<clipPath id="clip0_1279223">
<rect width="88.9685" height="57" fill="white"/>
</clipPath>
</defs>
</svg>
