<svg width="26" height="24" viewBox="0 0 26 24" fill="none" xmlns="http://www.w3.org/2000/svg">
<g clip-path="url(#clip0_4633_9855)">
<path d="M25.696 11.6C25.6974 11.3983 25.5936 11.2105 25.4223 11.105H25.4193L25.4085 11.099L16.5046 5.807C16.4661 5.78093 16.4262 5.7571 16.3851 5.73563C16.0413 5.55752 15.6329 5.55752 15.2891 5.73563C15.2479 5.7571 15.208 5.78093 15.1696 5.807L6.26562 11.099L6.25488 11.105C5.98276 11.2749 5.89931 11.6342 6.06856 11.9074C6.11843 11.9879 6.18707 12.055 6.26864 12.1028L15.1726 17.3948C15.2112 17.4207 15.2511 17.4445 15.2921 17.4662C15.6359 17.6443 16.0443 17.6443 16.3881 17.4662C16.4291 17.4445 16.469 17.4207 16.5076 17.3948L25.4116 12.1028C25.5894 11.9987 25.698 11.8067 25.696 11.6Z" fill="#0A2767"/>
<path d="M7.30361 8.06661H13.1467V13.4444H7.30361V8.06661ZM24.5008 2.6V0.139996C24.5148 -0.475061 24.03 -0.985262 23.4174 -1H8.25437C7.64178 -0.985262 7.15692 -0.475061 7.17097 0.139996V2.6L16.1347 5L24.5008 2.6Z" fill="#0364B8"/>
<path d="M7.17097 2.59998H13.1468V7.99998H7.17097V2.59998Z" fill="#0078D4"/>
<path d="M19.1226 2.59998H13.1468V7.99998L19.1226 13.4H24.5008V7.99998L19.1226 2.59998Z" fill="#28A8EA"/>
<path d="M13.1468 8H19.1225V13.4H13.1468V8Z" fill="#0078D4"/>
<path d="M13.1468 13.4H19.1225V18.8H13.1468V13.4Z" fill="#0364B8"/>
<path d="M7.3036 13.4444H13.1468V18.3332H7.3036V13.4444Z" fill="#14447D"/>
<path d="M19.1226 13.4H24.5008V18.8H19.1226V13.4Z" fill="#0078D4"/>
<path d="M25.4222 12.0697L25.4109 12.0758L16.507 17.1037C16.4681 17.1277 16.4287 17.1505 16.3874 17.1709C16.2362 17.2433 16.0719 17.2841 15.9046 17.2909L15.4182 17.0053C15.3771 16.9846 15.3371 16.9616 15.2986 16.9364L6.27518 11.7656H6.27098L5.9758 11.6V21.7783C5.98041 22.4574 6.53224 23.0042 7.20862 22.9999H24.4823C24.4924 22.9999 24.5014 22.9951 24.5121 22.9951C24.655 22.986 24.7958 22.9564 24.9304 22.9075C24.9886 22.8828 25.0447 22.8535 25.0983 22.8199C25.1384 22.7971 25.2071 22.7473 25.2071 22.7473C25.5132 22.5199 25.6944 22.1607 25.6959 21.7783V11.6C25.6958 11.7946 25.5912 11.9742 25.4222 12.0697Z" fill="url(#paint0_linear_4633_9855)"/>
<path opacity="0.5" d="M25.2179 11.5598V12.1838L15.9075 18.6199L6.26859 11.7697C6.26859 11.7665 6.26591 11.7638 6.2626 11.7638L5.37822 11.2297V10.7798L5.74272 10.7737L6.51358 11.2177L6.53153 11.2238L6.59724 11.2657C6.59724 11.2657 15.6566 16.4558 15.6805 16.4678L16.0271 16.6717C16.0569 16.6597 16.0868 16.6477 16.1227 16.6357C16.1406 16.6237 25.1162 11.5537 25.1162 11.5537L25.2179 11.5598Z" fill="#0A2767"/>
<path d="M25.4222 12.0697L25.4109 12.0764L16.5069 17.1044C16.4681 17.1284 16.4287 17.1511 16.3874 17.1716C16.0416 17.3412 15.6372 17.3412 15.2914 17.1716C15.2505 17.1512 15.2106 17.1287 15.1719 17.1044L6.26801 12.0764L6.25727 12.0697C6.08538 11.9762 5.97756 11.7963 5.9758 11.6V21.7783C5.98008 22.4573 6.53174 23.0042 7.20795 23C7.20799 23 7.20799 23 7.20803 23H24.4637C25.14 23.0043 25.6916 22.4574 25.696 21.7784C25.696 21.7784 25.696 21.7784 25.696 21.7783V11.6C25.6957 11.7946 25.5911 11.9742 25.4222 12.0697Z" fill="#1490DF"/>
<path opacity="0.1" d="M16.6366 17.03L16.5033 17.105C16.4647 17.1297 16.4248 17.1523 16.3838 17.1728C16.237 17.2451 16.0774 17.2875 15.9141 17.2975L19.3018 21.3199L25.2113 22.7498C25.3732 22.6269 25.502 22.4655 25.586 22.2799L16.6366 17.03Z" fill="black"/>
<path opacity="0.05" d="M17.2402 16.6892L16.5033 17.105C16.4647 17.1297 16.4248 17.1523 16.3838 17.1728C16.237 17.2452 16.0774 17.2876 15.9141 17.2976L17.5013 21.6914L25.2131 22.748C25.5169 22.519 25.6957 22.1599 25.6959 21.7784V21.647L17.2402 16.6892Z" fill="black"/>
<path d="M7.22472 23H24.4619C24.7272 23.0013 24.9859 22.9172 25.1999 22.76L15.4176 17.0066C15.3764 16.9859 15.3366 16.9628 15.298 16.9376L6.27459 11.7668H6.2704L5.9758 11.6V21.7436C5.97513 22.4368 6.5343 22.9993 7.22472 23Z" fill="#28A8EA"/>
<path opacity="0.1" d="M14.3419 4.89978V17.6978C14.3408 18.1465 14.0691 18.5498 13.6547 18.7178C13.5263 18.7732 13.3881 18.8018 13.2483 18.8018H5.9758V4.39999H7.17096V3.79999H13.2484C13.852 3.80226 14.3406 4.29363 14.3419 4.89978Z" fill="black"/>
<path opacity="0.2" d="M13.7444 5.4998V18.2977C13.7459 18.4427 13.7153 18.5862 13.6547 18.7177C13.4888 19.1285 13.0923 19.3979 12.6508 19.3999H5.9758V4.40002H12.6508C12.8242 4.39825 12.9951 4.4417 13.1468 4.52599C13.5131 4.7113 13.7442 5.08797 13.7444 5.4998Z" fill="black"/>
<path opacity="0.2" d="M13.7443 5.4998V17.0978C13.7414 17.7037 13.2542 18.1948 12.6508 18.2H5.9758V4.40002H12.6508C12.8242 4.39825 12.995 4.4417 13.1468 4.52599C13.5131 4.7113 13.7442 5.08797 13.7443 5.4998Z" fill="black"/>
<path opacity="0.2" d="M13.1468 5.49981V17.0978C13.1461 17.7046 12.6576 18.197 12.0532 18.2H5.9758V4.40002H12.0532C12.6575 4.40036 13.1471 4.89249 13.1468 5.49922C13.1468 5.49943 13.1468 5.4996 13.1468 5.49981Z" fill="black"/>
<path d="M1.09536 4.40002H12.0514C12.6564 4.40002 13.1468 4.8924 13.1468 5.49981V16.5002C13.1468 17.1076 12.6564 17.6 12.0514 17.6H1.09536C0.490406 17.6 0 17.1076 0 16.5002V5.49981C0 4.8924 0.490419 4.40002 1.09536 4.40002Z" fill="url(#paint1_linear_4633_9855)"/>
<path d="M3.42353 9.01283C3.6935 8.43531 4.12926 7.95198 4.67489 7.62504C5.27909 7.27767 5.96705 7.10453 6.66301 7.12462C7.30806 7.11055 7.94456 7.27476 8.50297 7.59923C9.028 7.91358 9.45088 8.37422 9.72023 8.9252C10.0136 9.53236 10.1598 10.2005 10.1469 10.8752C10.1611 11.5803 10.0107 12.279 9.70769 12.9152C9.43192 13.4859 8.99563 13.963 8.45277 14.2874C7.8728 14.6218 7.2127 14.7903 6.54412 14.7746C5.88527 14.7906 5.23477 14.6245 4.66352 14.2946C4.13393 13.9798 3.70577 13.5187 3.43011 12.9662C3.13502 12.3679 2.98709 11.7072 2.99866 11.0396C2.98637 10.3405 3.13161 9.64765 3.42353 9.01283ZM4.75733 12.2708C4.90126 12.6359 5.14536 12.9526 5.46126 13.184C5.78308 13.4098 6.16838 13.5263 6.56081 13.5164C6.97878 13.533 7.39076 13.4126 7.73446 13.1732C8.04638 12.9425 8.28407 12.625 8.41809 12.26C8.56793 11.8524 8.64186 11.4207 8.6362 10.9862C8.64085 10.5476 8.57132 10.1114 8.43063 9.69624C8.30638 9.32133 8.07636 8.99076 7.76851 8.74462C7.4334 8.49396 7.02256 8.3668 6.60505 8.38462C6.20407 8.37417 5.81012 8.4916 5.4798 8.72003C5.15853 8.95245 4.90981 9.2719 4.7627 9.64099C4.43636 10.4871 4.43468 11.4247 4.75792 12.272L4.75733 12.2708Z" fill="white"/>
<path d="M19.1226 2.59998H24.5008V7.99998H19.1226V2.59998Z" fill="#50D9FF"/>
</g>
<defs>
<linearGradient id="paint0_linear_4633_9855" x1="15.8359" y1="11.6" x2="15.8359" y2="22.9999" gradientUnits="userSpaceOnUse">
<stop stop-color="#35B8F1"/>
<stop offset="1" stop-color="#28A8EA"/>
</linearGradient>
<linearGradient id="paint1_linear_4633_9855" x1="2.28386" y1="3.54066" x2="10.915" y2="18.4292" gradientUnits="userSpaceOnUse">
<stop stop-color="#1784D9"/>
<stop offset="0.5" stop-color="#107AD5"/>
<stop offset="1" stop-color="#0A63C9"/>
</linearGradient>
<clipPath id="clip0_4633_9855">
<rect width="26" height="24" fill="white"/>
</clipPath>
</defs>
</svg>
