<svg width="185" height="24" viewBox="0 0 185 24" fill="none" xmlns="http://www.w3.org/2000/svg">
<path d="M16.1391 11.4L5.97742 9.59998V22.9002C5.97742 23.5076 6.46798 24 7.07311 24H24.6074C25.2125 24 25.7031 23.5076 25.7031 22.9002V18L16.1391 11.4Z" fill="#185C37"/>
<path d="M16.1391 0H7.07311C6.46798 0 5.97742 0.492396 5.97742 1.0998V6L16.1391 12L21.5188 13.8L25.7031 12V6L16.1391 0Z" fill="#21A366"/>
<path d="M5.97742 6H16.1391V12H5.97742V6Z" fill="#107C41"/>
<path opacity="0.1" d="M13.2502 4.79999H5.97742V19.8H13.2502C13.8545 19.798 14.3439 19.3068 14.3459 18.7002V5.89978C14.3439 5.29321 13.8545 4.80192 13.2502 4.79999Z" fill="black"/>
<path opacity="0.2" d="M12.6525 5.40002H5.97742V20.4H12.6525C13.2567 20.398 13.7462 19.9068 13.7481 19.3002V6.49981C13.7462 5.89325 13.2567 5.402 12.6525 5.40002Z" fill="black"/>
<path opacity="0.2" d="M12.6525 5.40002H5.97742V19.2H12.6525C13.2567 19.198 13.7462 18.7068 13.7481 18.1002V6.49981C13.7462 5.89325 13.2567 5.402 12.6525 5.40002Z" fill="black"/>
<path opacity="0.2" d="M12.0547 5.40002H5.97742V19.2H12.0547C12.659 19.198 13.1484 18.7068 13.1504 18.1002V6.49981C13.1484 5.89325 12.659 5.402 12.0547 5.40002Z" fill="black"/>
<path d="M1.09567 5.40002H12.0547C12.6599 5.40002 13.1504 5.8924 13.1504 6.49981V17.5002C13.1504 18.1076 12.6599 18.6 12.0547 18.6H1.09567C0.490544 18.6 0 18.1076 0 17.5002V6.49981C0 5.8924 0.490544 5.40002 1.09567 5.40002Z" fill="url(#paint0_linear_4674_9718)"/>
<path d="M3.39337 15.5748L5.69826 11.9898L3.58645 8.42456H5.28524L6.43771 10.7046C6.5441 10.9212 6.61703 11.0819 6.65649 11.1881H6.67142C6.74711 11.0153 6.82683 10.8476 6.91049 10.6848L8.14247 8.42578H9.70197L7.53634 11.97L9.75699 15.5748H8.09764L6.76644 13.0722C6.70375 12.9657 6.65053 12.8539 6.60747 12.738H6.58776C6.54876 12.8515 6.49701 12.9602 6.43352 13.062L5.0629 15.5748H3.39337Z" fill="white"/>
<path d="M24.6074 0H16.1392V6H25.7031V1.0998C25.7031 0.492396 25.2126 0 24.6074 0Z" fill="#33C481"/>
<path d="M16.1392 12H25.7031V18H16.1392V12Z" fill="#107C41"/>
<path d="M50.6605 5.04V19H47.8605V9.92L44.1205 19H42.0005L38.2405 9.92V19H35.4405V5.04H38.6205L43.0605 15.42L47.5005 5.04H50.6605ZM54.8488 6.6C54.3555 6.6 53.9422 6.44667 53.6088 6.14C53.2888 5.82 53.1288 5.42667 53.1288 4.96C53.1288 4.49333 53.2888 4.10667 53.6088 3.8C53.9422 3.48 54.3555 3.32 54.8488 3.32C55.3422 3.32 55.7488 3.48 56.0688 3.8C56.4022 4.10667 56.5688 4.49333 56.5688 4.96C56.5688 5.42667 56.4022 5.82 56.0688 6.14C55.7488 6.44667 55.3422 6.6 54.8488 6.6ZM56.2288 7.92V19H53.4288V7.92H56.2288ZM58.2752 13.46C58.2752 12.3133 58.5086 11.3133 58.9752 10.46C59.4419 9.59333 60.0886 8.92667 60.9152 8.46C61.7419 7.98 62.6886 7.74 63.7552 7.74C65.1286 7.74 66.2619 8.08667 67.1552 8.78C68.0619 9.46 68.6686 10.42 68.9752 11.66H65.9552C65.7952 11.18 65.5219 10.8067 65.1352 10.54C64.7619 10.26 64.2952 10.12 63.7352 10.12C62.9352 10.12 62.3019 10.4133 61.8352 11C61.3686 11.5733 61.1352 12.3933 61.1352 13.46C61.1352 14.5133 61.3686 15.3333 61.8352 15.92C62.3019 16.4933 62.9352 16.78 63.7352 16.78C64.8686 16.78 65.6086 16.2733 65.9552 15.26H68.9752C68.6686 16.46 68.0619 17.4133 67.1552 18.12C66.2486 18.8267 65.1152 19.18 63.7552 19.18C62.6886 19.18 61.7419 18.9467 60.9152 18.48C60.0886 18 59.4419 17.3333 58.9752 16.48C58.5086 15.6133 58.2752 14.6067 58.2752 13.46ZM73.8265 9.64C74.1865 9.05333 74.6532 8.59333 75.2265 8.26C75.8132 7.92667 76.4798 7.76 77.2265 7.76V10.7H76.4865C75.6065 10.7 74.9398 10.9067 74.4865 11.32C74.0465 11.7333 73.8265 12.4533 73.8265 13.48V19H71.0265V7.92H73.8265V9.64ZM84.0324 19.18C82.9658 19.18 82.0058 18.9467 81.1524 18.48C80.2991 18 79.6258 17.3267 79.1324 16.46C78.6524 15.5933 78.4124 14.5933 78.4124 13.46C78.4124 12.3267 78.6591 11.3267 79.1524 10.46C79.6591 9.59333 80.3458 8.92667 81.2124 8.46C82.0791 7.98 83.0458 7.74 84.1124 7.74C85.1791 7.74 86.1458 7.98 87.0124 8.46C87.8791 8.92667 88.5591 9.59333 89.0524 10.46C89.5591 11.3267 89.8124 12.3267 89.8124 13.46C89.8124 14.5933 89.5524 15.5933 89.0324 16.46C88.5258 17.3267 87.8324 18 86.9524 18.48C86.0858 18.9467 85.1124 19.18 84.0324 19.18ZM84.0324 16.74C84.5391 16.74 85.0124 16.62 85.4524 16.38C85.9058 16.1267 86.2658 15.7533 86.5324 15.26C86.7991 14.7667 86.9324 14.1667 86.9324 13.46C86.9324 12.4067 86.6524 11.6 86.0924 11.04C85.5458 10.4667 84.8724 10.18 84.0724 10.18C83.2724 10.18 82.5991 10.4667 82.0524 11.04C81.5191 11.6 81.2524 12.4067 81.2524 13.46C81.2524 14.5133 81.5124 15.3267 82.0324 15.9C82.5658 16.46 83.2324 16.74 84.0324 16.74ZM96.1063 19.18C95.1997 19.18 94.3863 19.02 93.6663 18.7C92.9463 18.3667 92.373 17.92 91.9463 17.36C91.533 16.8 91.3063 16.18 91.2663 15.5H94.0863C94.1397 15.9267 94.3463 16.28 94.7063 16.56C95.0797 16.84 95.5397 16.98 96.0863 16.98C96.6197 16.98 97.033 16.8733 97.3263 16.66C97.633 16.4467 97.7863 16.1733 97.7863 15.84C97.7863 15.48 97.5997 15.2133 97.2263 15.04C96.8663 14.8533 96.2863 14.6533 95.4863 14.44C94.6597 14.24 93.9797 14.0333 93.4463 13.82C92.9263 13.6067 92.473 13.28 92.0863 12.84C91.713 12.4 91.5263 11.8067 91.5263 11.06C91.5263 10.4467 91.6997 9.88667 92.0463 9.38C92.4063 8.87333 92.913 8.47333 93.5663 8.18C94.233 7.88667 95.013 7.74 95.9063 7.74C97.2263 7.74 98.2797 8.07333 99.0663 8.74C99.853 9.39333 100.286 10.28 100.366 11.4H97.6863C97.6463 10.96 97.4597 10.6133 97.1263 10.36C96.8063 10.0933 96.373 9.96 95.8263 9.96C95.3197 9.96 94.9263 10.0533 94.6463 10.24C94.3797 10.4267 94.2463 10.6867 94.2463 11.02C94.2463 11.3933 94.433 11.68 94.8063 11.88C95.1797 12.0667 95.7597 12.26 96.5463 12.46C97.3463 12.66 98.0063 12.8667 98.5263 13.08C99.0463 13.2933 99.493 13.6267 99.8663 14.08C100.253 14.52 100.453 15.1067 100.466 15.84C100.466 16.48 100.286 17.0533 99.9263 17.56C99.5797 18.0667 99.073 18.4667 98.4063 18.76C97.753 19.04 96.9863 19.18 96.1063 19.18ZM107.685 19.18C106.618 19.18 105.658 18.9467 104.805 18.48C103.951 18 103.278 17.3267 102.785 16.46C102.305 15.5933 102.065 14.5933 102.065 13.46C102.065 12.3267 102.311 11.3267 102.805 10.46C103.311 9.59333 103.998 8.92667 104.865 8.46C105.731 7.98 106.698 7.74 107.765 7.74C108.831 7.74 109.798 7.98 110.665 8.46C111.531 8.92667 112.211 9.59333 112.705 10.46C113.211 11.3267 113.465 12.3267 113.465 13.46C113.465 14.5933 113.205 15.5933 112.685 16.46C112.178 17.3267 111.485 18 110.605 18.48C109.738 18.9467 108.765 19.18 107.685 19.18ZM107.685 16.74C108.191 16.74 108.665 16.62 109.105 16.38C109.558 16.1267 109.918 15.7533 110.185 15.26C110.451 14.7667 110.585 14.1667 110.585 13.46C110.585 12.4067 110.305 11.6 109.745 11.04C109.198 10.4667 108.525 10.18 107.725 10.18C106.925 10.18 106.251 10.4667 105.705 11.04C105.171 11.6 104.905 12.4067 104.905 13.46C104.905 14.5133 105.165 15.3267 105.685 15.9C106.218 16.46 106.885 16.74 107.685 16.74ZM120.599 10.22H118.659V19H115.819V10.22H114.559V7.92H115.819V7.36C115.819 6 116.205 5 116.979 4.36C117.752 3.72 118.919 3.42 120.479 3.46V5.82C119.799 5.80667 119.325 5.92 119.059 6.16C118.792 6.4 118.659 6.83333 118.659 7.46V7.92H120.599V10.22ZM125.673 10.22V15.58C125.673 15.9533 125.76 16.2267 125.933 16.4C126.12 16.56 126.427 16.64 126.853 16.64H128.153V19H126.393C124.033 19 122.853 17.8533 122.853 15.56V10.22H121.533V7.92H122.853V5.18H125.673V7.92H128.153V10.22H125.673ZM137.733 7.3V10.8H142.433V13.02H137.733V16.72H143.033V19H134.933V5.02H143.033V7.3H137.733ZM151.697 19L149.417 15.56L147.397 19H144.397L148.017 13.44L144.357 7.92H147.517L149.777 11.34L151.817 7.92H154.817L151.177 13.44L154.857 19H151.697ZM155.658 13.46C155.658 12.3133 155.891 11.3133 156.358 10.46C156.825 9.59333 157.471 8.92667 158.298 8.46C159.125 7.98 160.071 7.74 161.138 7.74C162.511 7.74 163.645 8.08667 164.538 8.78C165.445 9.46 166.051 10.42 166.358 11.66H163.338C163.178 11.18 162.905 10.8067 162.518 10.54C162.145 10.26 161.678 10.12 161.118 10.12C160.318 10.12 159.685 10.4133 159.218 11C158.751 11.5733 158.518 12.3933 158.518 13.46C158.518 14.5133 158.751 15.3333 159.218 15.92C159.685 16.4933 160.318 16.78 161.118 16.78C162.251 16.78 162.991 16.2733 163.338 15.26H166.358C166.051 16.46 165.445 17.4133 164.538 18.12C163.631 18.8267 162.498 19.18 161.138 19.18C160.071 19.18 159.125 18.9467 158.298 18.48C157.471 18 156.825 17.3333 156.358 16.48C155.891 15.6133 155.658 14.6067 155.658 13.46ZM178.709 13.22C178.709 13.62 178.683 13.98 178.629 14.3H170.529C170.596 15.1 170.876 15.7267 171.369 16.18C171.863 16.6333 172.469 16.86 173.189 16.86C174.229 16.86 174.969 16.4133 175.409 15.52H178.429C178.109 16.5867 177.496 17.4667 176.589 18.16C175.683 18.84 174.569 19.18 173.249 19.18C172.183 19.18 171.223 18.9467 170.369 18.48C169.529 18 168.869 17.3267 168.389 16.46C167.923 15.5933 167.689 14.5933 167.689 13.46C167.689 12.3133 167.923 11.3067 168.389 10.44C168.856 9.57333 169.509 8.90667 170.349 8.44C171.189 7.97333 172.156 7.74 173.249 7.74C174.303 7.74 175.243 7.96667 176.069 8.42C176.909 8.87333 177.556 9.52 178.009 10.36C178.476 11.1867 178.709 12.14 178.709 13.22ZM175.809 12.42C175.796 11.7 175.536 11.1267 175.029 10.7C174.523 10.26 173.903 10.04 173.169 10.04C172.476 10.04 171.889 10.2533 171.409 10.68C170.943 11.0933 170.656 11.6733 170.549 12.42H175.809ZM183.553 4.2V19H180.753V4.2H183.553Z" fill="#333333"/>
<defs>
<linearGradient id="paint0_linear_4674_9718" x1="2.28449" y1="4.54066" x2="10.9145" y2="19.4313" gradientUnits="userSpaceOnUse">
<stop stop-color="#18884F"/>
<stop offset="0.5" stop-color="#117E43"/>
<stop offset="1" stop-color="#0B6631"/>
</linearGradient>
</defs>
</svg>
