<svg width="203" height="24" viewBox="0 0 203 24" fill="none" xmlns="http://www.w3.org/2000/svg">
<path d="M17.9232 9H24.5606C25.1876 9 25.696 9.5104 25.696 10.14V16.2102C25.696 18.5242 23.8277 20.4 21.523 20.4H21.5033C19.1987 20.4003 17.3301 18.5248 17.3298 16.2108C17.3298 16.2106 17.3298 16.2104 17.3298 16.2102V9.59579C17.3298 9.26674 17.5955 9 17.9232 9Z" fill="#5059C9"/>
<path d="M22.4093 7.8C23.8945 7.8 25.0984 6.59116 25.0984 5.1C25.0984 3.60883 23.8945 2.39999 22.4093 2.39999C20.9241 2.39999 19.7202 3.60883 19.7202 5.1C19.7202 6.59116 20.9241 7.8 22.4093 7.8Z" fill="#5059C9"/>
<path d="M14.0431 7.8C16.1884 7.8 17.9274 6.05394 17.9274 3.9C17.9274 1.74609 16.1884 0 14.0431 0C11.8979 0 10.1589 1.74609 10.1589 3.9C10.1589 6.05394 11.8979 7.8 14.0431 7.8Z" fill="#7B83EB"/>
<path d="M19.2224 9H8.26634C7.64675 9.01541 7.1566 9.53166 7.17099 10.1538V17.0772C7.08448 20.8106 10.0262 23.9086 13.7444 24C17.4626 23.9086 20.4043 20.8106 20.3178 17.0772V10.1538C20.3321 9.53166 19.842 9.01541 19.2224 9Z" fill="#7B83EB"/>
<path opacity="0.1" d="M14.3419 9V18.702C14.339 19.1469 14.0704 19.5466 13.6607 19.716C13.5302 19.7714 13.39 19.8 13.2484 19.8H7.69683C7.61917 19.602 7.54746 19.404 7.48766 19.2C7.27849 18.5115 7.17176 17.7958 7.17096 17.076V10.152C7.15658 9.53086 7.64592 9.01541 8.26452 9H14.3419Z" fill="black"/>
<path opacity="0.2" d="M13.7444 9V19.302C13.7444 19.4442 13.7159 19.585 13.6607 19.716C13.492 20.1274 13.0939 20.397 12.6508 20.4H7.97772C7.87611 20.202 7.7805 20.004 7.69683 19.8C7.61317 19.596 7.54746 19.404 7.48766 19.2C7.27849 18.5115 7.17176 17.7958 7.17096 17.076V10.152C7.15658 9.53086 7.64593 9.01541 8.26452 9H13.7444Z" fill="black"/>
<path opacity="0.2" d="M13.7444 9V18.102C13.7399 18.7065 13.2529 19.1955 12.6508 19.2H7.48766C7.27849 18.5115 7.17176 17.7958 7.17096 17.076V10.152C7.15658 9.53086 7.64593 9.01541 8.26452 9H13.7444Z" fill="black"/>
<path opacity="0.2" d="M13.1468 9V18.102C13.1422 18.7065 12.6552 19.1955 12.0532 19.2H7.48766C7.27849 18.5115 7.17176 17.7958 7.17096 17.076V10.152C7.15658 9.53086 7.64592 9.01541 8.26452 9H13.1468Z" fill="black"/>
<path opacity="0.1" d="M14.342 5.89803V7.78805C14.2404 7.79403 14.1447 7.80005 14.0432 7.80005C13.9416 7.80005 13.8459 7.79403 13.7443 7.78805C13.5426 7.77457 13.3426 7.74245 13.1468 7.69205C11.9367 7.4043 10.9369 6.55218 10.4577 5.40005C10.3752 5.20653 10.3112 5.00565 10.2664 4.80005H13.2484C13.8514 4.80232 14.3397 5.29255 14.342 5.89803Z" fill="black"/>
<path opacity="0.2" d="M13.7444 6.49803V7.78801C13.5427 7.77458 13.3426 7.74245 13.1468 7.69201C11.9367 7.40431 10.9369 6.55218 10.4576 5.40005H12.6508C13.2538 5.40233 13.7421 5.89256 13.7444 6.49803Z" fill="black"/>
<path opacity="0.2" d="M13.7444 6.49803V7.78801C13.5427 7.77458 13.3426 7.74245 13.1468 7.69201C11.9367 7.40431 10.9369 6.55218 10.4576 5.40005H12.6508C13.2538 5.40233 13.7421 5.89256 13.7444 6.49803Z" fill="black"/>
<path opacity="0.2" d="M13.1468 6.49802V7.69199C11.9367 7.40425 10.9369 6.55216 10.4576 5.39999H12.0532C12.6562 5.40231 13.1444 5.89254 13.1468 6.49802Z" fill="black"/>
<path d="M1.09536 5.39999H12.0514C12.6563 5.39999 13.1468 5.89242 13.1468 6.49978V17.5002C13.1468 18.1076 12.6563 18.6 12.0514 18.6H1.09536C0.490406 18.6 0 18.1076 0 17.5002V6.49978C0 5.89242 0.490415 5.39999 1.09536 5.39999Z" fill="url(#paint0_linear_4674_9720)"/>
<path d="M9.45614 9.58677H7.26598V15.5748H5.87066V9.58677H3.69067V8.42517H9.45614V9.58677Z" fill="white"/>
<path d="M50.7055 5.04V19H47.9055V9.92L44.1655 19H42.0455L38.2855 9.92V19H35.4855V5.04H38.6655L43.1055 15.42L47.5455 5.04H50.7055ZM54.8938 6.6C54.4004 6.6 53.9871 6.44667 53.6538 6.14C53.3338 5.82 53.1738 5.42667 53.1738 4.96C53.1738 4.49333 53.3338 4.10667 53.6538 3.8C53.9871 3.48 54.4004 3.32 54.8938 3.32C55.3871 3.32 55.7938 3.48 56.1138 3.8C56.4471 4.10667 56.6138 4.49333 56.6138 4.96C56.6138 5.42667 56.4471 5.82 56.1138 6.14C55.7938 6.44667 55.3871 6.6 54.8938 6.6ZM56.2738 7.92V19H53.4738V7.92H56.2738ZM58.3202 13.46C58.3202 12.3133 58.5535 11.3133 59.0202 10.46C59.4868 9.59333 60.1335 8.92667 60.9602 8.46C61.7868 7.98 62.7335 7.74 63.8002 7.74C65.1735 7.74 66.3068 8.08667 67.2002 8.78C68.1068 9.46 68.7135 10.42 69.0202 11.66H66.0002C65.8402 11.18 65.5668 10.8067 65.1802 10.54C64.8068 10.26 64.3402 10.12 63.7802 10.12C62.9802 10.12 62.3468 10.4133 61.8802 11C61.4135 11.5733 61.1802 12.3933 61.1802 13.46C61.1802 14.5133 61.4135 15.3333 61.8802 15.92C62.3468 16.4933 62.9802 16.78 63.7802 16.78C64.9135 16.78 65.6535 16.2733 66.0002 15.26H69.0202C68.7135 16.46 68.1068 17.4133 67.2002 18.12C66.2935 18.8267 65.1602 19.18 63.8002 19.18C62.7335 19.18 61.7868 18.9467 60.9602 18.48C60.1335 18 59.4868 17.3333 59.0202 16.48C58.5535 15.6133 58.3202 14.6067 58.3202 13.46ZM73.8714 9.64C74.2314 9.05333 74.6981 8.59333 75.2714 8.26C75.8581 7.92667 76.5247 7.76 77.2714 7.76V10.7H76.5314C75.6514 10.7 74.9847 10.9067 74.5314 11.32C74.0914 11.7333 73.8714 12.4533 73.8714 13.48V19H71.0714V7.92H73.8714V9.64ZM84.0773 19.18C83.0107 19.18 82.0507 18.9467 81.1973 18.48C80.344 18 79.6707 17.3267 79.1773 16.46C78.6973 15.5933 78.4573 14.5933 78.4573 13.46C78.4573 12.3267 78.704 11.3267 79.1973 10.46C79.704 9.59333 80.3907 8.92667 81.2573 8.46C82.124 7.98 83.0907 7.74 84.1573 7.74C85.224 7.74 86.1907 7.98 87.0573 8.46C87.924 8.92667 88.604 9.59333 89.0973 10.46C89.604 11.3267 89.8573 12.3267 89.8573 13.46C89.8573 14.5933 89.5973 15.5933 89.0773 16.46C88.5707 17.3267 87.8773 18 86.9973 18.48C86.1307 18.9467 85.1573 19.18 84.0773 19.18ZM84.0773 16.74C84.584 16.74 85.0573 16.62 85.4973 16.38C85.9507 16.1267 86.3107 15.7533 86.5773 15.26C86.844 14.7667 86.9773 14.1667 86.9773 13.46C86.9773 12.4067 86.6973 11.6 86.1373 11.04C85.5907 10.4667 84.9173 10.18 84.1173 10.18C83.3173 10.18 82.644 10.4667 82.0973 11.04C81.564 11.6 81.2973 12.4067 81.2973 13.46C81.2973 14.5133 81.5573 15.3267 82.0773 15.9C82.6107 16.46 83.2773 16.74 84.0773 16.74ZM96.1513 19.18C95.2446 19.18 94.4313 19.02 93.7113 18.7C92.9913 18.3667 92.4179 17.92 91.9913 17.36C91.5779 16.8 91.3513 16.18 91.3113 15.5H94.1313C94.1846 15.9267 94.3913 16.28 94.7513 16.56C95.1246 16.84 95.5846 16.98 96.1313 16.98C96.6646 16.98 97.0779 16.8733 97.3713 16.66C97.6779 16.4467 97.8313 16.1733 97.8313 15.84C97.8313 15.48 97.6446 15.2133 97.2713 15.04C96.9113 14.8533 96.3313 14.6533 95.5312 14.44C94.7046 14.24 94.0246 14.0333 93.4913 13.82C92.9713 13.6067 92.5179 13.28 92.1313 12.84C91.7579 12.4 91.5713 11.8067 91.5713 11.06C91.5713 10.4467 91.7446 9.88667 92.0913 9.38C92.4513 8.87333 92.9579 8.47333 93.6113 8.18C94.2779 7.88667 95.0579 7.74 95.9513 7.74C97.2713 7.74 98.3246 8.07333 99.1113 8.74C99.8979 9.39333 100.331 10.28 100.411 11.4H97.7313C97.6913 10.96 97.5046 10.6133 97.1713 10.36C96.8513 10.0933 96.4179 9.96 95.8713 9.96C95.3646 9.96 94.9713 10.0533 94.6913 10.24C94.4246 10.4267 94.2913 10.6867 94.2913 11.02C94.2913 11.3933 94.4779 11.68 94.8513 11.88C95.2246 12.0667 95.8046 12.26 96.5913 12.46C97.3913 12.66 98.0513 12.8667 98.5713 13.08C99.0913 13.2933 99.5379 13.6267 99.9113 14.08C100.298 14.52 100.498 15.1067 100.511 15.84C100.511 16.48 100.331 17.0533 99.9713 17.56C99.6246 18.0667 99.1179 18.4667 98.4513 18.76C97.7979 19.04 97.0313 19.18 96.1513 19.18ZM107.73 19.18C106.663 19.18 105.703 18.9467 104.85 18.48C103.996 18 103.323 17.3267 102.83 16.46C102.35 15.5933 102.11 14.5933 102.11 13.46C102.11 12.3267 102.356 11.3267 102.85 10.46C103.356 9.59333 104.043 8.92667 104.91 8.46C105.776 7.98 106.743 7.74 107.81 7.74C108.876 7.74 109.843 7.98 110.71 8.46C111.576 8.92667 112.256 9.59333 112.75 10.46C113.256 11.3267 113.51 12.3267 113.51 13.46C113.51 14.5933 113.25 15.5933 112.73 16.46C112.223 17.3267 111.53 18 110.65 18.48C109.783 18.9467 108.81 19.18 107.73 19.18ZM107.73 16.74C108.236 16.74 108.71 16.62 109.15 16.38C109.603 16.1267 109.963 15.7533 110.23 15.26C110.496 14.7667 110.63 14.1667 110.63 13.46C110.63 12.4067 110.35 11.6 109.79 11.04C109.243 10.4667 108.57 10.18 107.77 10.18C106.97 10.18 106.296 10.4667 105.75 11.04C105.216 11.6 104.95 12.4067 104.95 13.46C104.95 14.5133 105.21 15.3267 105.73 15.9C106.263 16.46 106.93 16.74 107.73 16.74ZM120.644 10.22H118.704V19H115.864V10.22H114.604V7.92H115.864V7.36C115.864 6 116.25 5 117.024 4.36C117.797 3.72 118.964 3.42 120.524 3.46V5.82C119.844 5.80667 119.37 5.92 119.104 6.16C118.837 6.4 118.704 6.83333 118.704 7.46V7.92H120.644V10.22ZM125.718 10.22V15.58C125.718 15.9533 125.805 16.2267 125.978 16.4C126.165 16.56 126.471 16.64 126.898 16.64H128.198V19H126.438C124.078 19 122.898 17.8533 122.898 15.56V10.22H121.578V7.92H122.898V5.18H125.718V7.92H128.198V10.22H125.718ZM144.478 5.04V7.3H140.758V19H137.958V7.3H134.238V5.04H144.478ZM156.821 13.22C156.821 13.62 156.794 13.98 156.741 14.3H148.641C148.707 15.1 148.987 15.7267 149.481 16.18C149.974 16.6333 150.581 16.86 151.301 16.86C152.341 16.86 153.081 16.4133 153.521 15.52H156.541C156.221 16.5867 155.607 17.4667 154.701 18.16C153.794 18.84 152.681 19.18 151.361 19.18C150.294 19.18 149.334 18.9467 148.481 18.48C147.641 18 146.981 17.3267 146.501 16.46C146.034 15.5933 145.801 14.5933 145.801 13.46C145.801 12.3133 146.034 11.3067 146.501 10.44C146.967 9.57333 147.621 8.90667 148.461 8.44C149.301 7.97333 150.267 7.74 151.361 7.74C152.414 7.74 153.354 7.96667 154.181 8.42C155.021 8.87333 155.667 9.52 156.121 10.36C156.587 11.1867 156.821 12.14 156.821 13.22ZM153.921 12.42C153.907 11.7 153.647 11.1267 153.141 10.7C152.634 10.26 152.014 10.04 151.281 10.04C150.587 10.04 150.001 10.2533 149.521 10.68C149.054 11.0933 148.767 11.6733 148.661 12.42H153.921ZM158.144 13.42C158.144 12.3 158.364 11.3067 158.804 10.44C159.258 9.57333 159.864 8.90667 160.624 8.44C161.398 7.97333 162.258 7.74 163.204 7.74C164.031 7.74 164.751 7.90667 165.364 8.24C165.991 8.57333 166.491 8.99333 166.864 9.5V7.92H169.684V19H166.864V17.38C166.504 17.9 166.004 18.3333 165.364 18.68C164.738 19.0133 164.011 19.18 163.184 19.18C162.251 19.18 161.398 18.94 160.624 18.46C159.864 17.98 159.258 17.3067 158.804 16.44C158.364 15.56 158.144 14.5533 158.144 13.42ZM166.864 13.46C166.864 12.78 166.731 12.2 166.464 11.72C166.198 11.2267 165.838 10.8533 165.384 10.6C164.931 10.3333 164.444 10.2 163.924 10.2C163.404 10.2 162.924 10.3267 162.484 10.58C162.044 10.8333 161.684 11.2067 161.404 11.7C161.138 12.18 161.004 12.7533 161.004 13.42C161.004 14.0867 161.138 14.6733 161.404 15.18C161.684 15.6733 162.044 16.0533 162.484 16.32C162.938 16.5867 163.418 16.72 163.924 16.72C164.444 16.72 164.931 16.5933 165.384 16.34C165.838 16.0733 166.198 15.7 166.464 15.22C166.731 14.7267 166.864 14.14 166.864 13.46ZM186.179 7.76C187.539 7.76 188.632 8.18 189.459 9.02C190.299 9.84667 190.719 11.0067 190.719 12.5V19H187.919V12.88C187.919 12.0133 187.699 11.3533 187.259 10.9C186.819 10.4333 186.219 10.2 185.459 10.2C184.699 10.2 184.092 10.4333 183.639 10.9C183.199 11.3533 182.979 12.0133 182.979 12.88V19H180.179V12.88C180.179 12.0133 179.959 11.3533 179.519 10.9C179.079 10.4333 178.479 10.2 177.719 10.2C176.946 10.2 176.332 10.4333 175.879 10.9C175.439 11.3533 175.219 12.0133 175.219 12.88V19H172.419V7.92H175.219V9.26C175.579 8.79333 176.039 8.42667 176.599 8.16C177.172 7.89333 177.799 7.76 178.479 7.76C179.346 7.76 180.119 7.94667 180.799 8.32C181.479 8.68 182.006 9.2 182.379 9.88C182.739 9.24 183.259 8.72667 183.939 8.34C184.632 7.95333 185.379 7.76 186.179 7.76ZM197.616 19.18C196.709 19.18 195.896 19.02 195.176 18.7C194.456 18.3667 193.883 17.92 193.456 17.36C193.043 16.8 192.816 16.18 192.776 15.5H195.596C195.649 15.9267 195.856 16.28 196.216 16.56C196.589 16.84 197.049 16.98 197.596 16.98C198.129 16.98 198.543 16.8733 198.836 16.66C199.143 16.4467 199.296 16.1733 199.296 15.84C199.296 15.48 199.109 15.2133 198.736 15.04C198.376 14.8533 197.796 14.6533 196.996 14.44C196.169 14.24 195.489 14.0333 194.956 13.82C194.436 13.6067 193.983 13.28 193.596 12.84C193.223 12.4 193.036 11.8067 193.036 11.06C193.036 10.4467 193.209 9.88667 193.556 9.38C193.916 8.87333 194.423 8.47333 195.076 8.18C195.743 7.88667 196.523 7.74 197.416 7.74C198.736 7.74 199.789 8.07333 200.576 8.74C201.363 9.39333 201.796 10.28 201.876 11.4H199.196C199.156 10.96 198.969 10.6133 198.636 10.36C198.316 10.0933 197.883 9.96 197.336 9.96C196.829 9.96 196.436 10.0533 196.156 10.24C195.889 10.4267 195.756 10.6867 195.756 11.02C195.756 11.3933 195.943 11.68 196.316 11.88C196.689 12.0667 197.269 12.26 198.056 12.46C198.856 12.66 199.516 12.8667 200.036 13.08C200.556 13.2933 201.003 13.6267 201.376 14.08C201.763 14.52 201.963 15.1067 201.976 15.84C201.976 16.48 201.796 17.0533 201.436 17.56C201.089 18.0667 200.583 18.4667 199.916 18.76C199.263 19.04 198.496 19.18 197.616 19.18Z" fill="#333333"/>
<defs>
<linearGradient id="paint0_linear_4674_9720" x1="2.28386" y1="4.54063" x2="10.915" y2="19.4292" gradientUnits="userSpaceOnUse">
<stop stop-color="#5A62C3"/>
<stop offset="0.5" stop-color="#4D55BD"/>
<stop offset="1" stop-color="#3940AB"/>
</linearGradient>
</defs>
</svg>
