<svg width="24" height="24" viewBox="0 0 24 24" fill="none" xmlns="http://www.w3.org/2000/svg">
<g clip-path="url(#clip0_4633_9805)">
<path d="M11.0866 24.0171C7.45988 23.769 4.03556 21.7697 1.98367 18.7025C1.25458 17.6126 0.583193 16.0745 0.287328 14.8163C-0.0766026 13.2686 -0.120566 11.336 0.173218 9.80021C0.873689 6.13831 3.28177 2.96849 6.62757 1.30416C8.20381 0.520079 9.73044 0.13411 11.5186 0.0675974C13.5971 -0.00971733 15.3753 0.365484 17.2306 1.27284C18.5558 1.92097 19.6277 2.70057 20.6256 3.74215C23.3188 6.55305 24.4735 10.4336 23.7587 14.2721C22.933 18.7072 19.6109 22.3489 15.2619 23.5865C13.9557 23.9583 12.4684 24.1116 11.0866 24.0171ZM10.5615 15.2119C10.7051 15.076 10.8226 14.9301 10.8226 14.8876C10.8226 14.845 10.1746 14.1625 9.38258 13.3708C8.59058 12.5791 7.94258 11.8987 7.94258 11.8588C7.94258 11.8189 8.59058 11.1385 9.38258 10.3468C10.1746 9.55515 10.8226 8.87556 10.8226 8.83663C10.8226 8.75169 10.3463 8.25882 10.2642 8.25882C10.1826 8.25882 6.91968 11.5959 6.86769 11.7326C6.84409 11.7946 6.83876 11.897 6.85584 11.9601C6.88633 12.0727 10.1854 15.4635 10.2615 15.4604C10.2828 15.4595 10.4178 15.3477 10.5615 15.2119ZM15.2313 13.6896C16.7083 12.178 16.8706 11.9964 16.8706 11.8551C16.8706 11.7181 16.7842 11.6097 16.1875 10.9985C14.571 9.34277 13.4842 8.25882 13.4405 8.25882C13.3634 8.25882 12.8866 8.7535 12.8866 8.83348C12.8866 8.87415 13.5346 9.55515 14.3266 10.3468C15.1186 11.1385 15.7666 11.8189 15.7666 11.8588C15.7666 11.8987 15.1186 12.5791 14.3266 13.3708C13.5346 14.1625 12.8866 14.845 12.8866 14.8876C12.8866 14.9301 13.0051 15.077 13.1499 15.2139C13.367 15.4193 13.4289 15.4546 13.5026 15.4151C13.5517 15.3888 14.3296 14.6123 15.2313 13.6896ZM11.1706 12.197C11.3881 11.9537 11.3285 11.5403 11.0556 11.3992C10.6152 11.1715 10.1505 11.5409 10.2903 12.0076C10.4083 12.4014 10.8945 12.506 11.1706 12.197ZM13.208 12.2929C13.5133 12.1067 13.5267 11.6557 13.2336 11.4252C13.0095 11.2489 12.6027 11.3308 12.475 11.5778C12.215 12.0806 12.7308 12.5839 13.208 12.2929Z" fill="black"/>
<path d="M11.192 24.0134C7.71428 23.7829 4.50316 22.0378 2.36826 19.2182C1.63283 18.2469 0.9939 17.0077 0.567172 15.7248C0.223045 14.6903 0.0732732 13.8572 0.00726337 12.6104C-0.0701157 11.1489 0.124194 9.66813 0.570307 8.31978C2.0048 3.98411 5.83249 0.779744 10.2927 0.180672C11.1259 0.068757 12.4296 0.0430064 13.2166 0.122919C14.6059 0.263984 15.8595 0.626236 17.1836 1.26928C18.4833 1.90049 19.4311 2.57328 20.4248 3.57005C21.338 4.48603 21.9695 5.33664 22.5785 6.47058C23.5474 8.27482 24.0501 10.5467 23.9368 12.6081C23.8148 14.826 23.184 16.7791 22.0071 18.5832C20.0901 21.5218 16.9764 23.4855 13.5397 23.9235C12.8062 24.017 11.817 24.0549 11.192 24.0134ZM10.3606 15.4026C10.5158 15.2779 10.7398 15.0521 10.7929 14.9669L10.8453 14.8828L10.7852 14.8144C10.6157 14.6215 10.3039 14.2972 9.36278 13.335C8.25727 12.2047 7.96639 11.8971 7.96639 11.8583C7.96639 11.8117 8.33077 11.4296 9.74605 9.992C10.2145 9.51619 10.6536 9.06111 10.7218 8.9807L10.8459 8.83451L10.7757 8.73326C10.679 8.59374 10.3153 8.25024 10.2642 8.25024C10.1946 8.25024 7.30741 11.183 6.93921 11.6276C6.8623 11.7205 6.84775 11.7575 6.84775 11.8599C6.84775 11.9801 6.85185 11.9862 7.14819 12.3088C7.88829 13.1144 10.2021 15.4706 10.2531 15.4706C10.2657 15.4706 10.3141 15.44 10.3606 15.4026ZM13.7723 15.1677C14.2081 14.7405 15.5326 13.402 16.0388 12.8774C16.5903 12.3057 16.8305 12.0271 16.8669 11.9172C16.915 11.7718 16.8303 11.6528 16.2412 11.0388C15.4374 10.2009 13.4745 8.25024 13.4351 8.25024C13.3908 8.25024 12.9869 8.6442 12.9197 8.75296L12.8682 8.83636L12.9914 8.98166C13.0592 9.06158 13.4348 9.45311 13.826 9.85174C15.4229 11.4788 15.7461 11.8165 15.7461 11.858C15.7461 11.8931 15.322 12.3394 14.2555 13.4264C13.1732 14.5298 12.8732 14.8494 12.8732 14.8995C12.8732 14.9418 13.1932 15.2846 13.3155 15.3733C13.3701 15.4128 13.4315 15.4452 13.452 15.4452C13.4725 15.4452 13.6166 15.3203 13.7723 15.1677ZM10.9246 12.3668C11.0769 12.3245 11.2391 12.159 11.2859 11.9981C11.3973 11.6151 11.1286 11.2983 10.7211 11.3321C10.2823 11.3685 10.1007 11.9113 10.4204 12.2311C10.5637 12.3743 10.7332 12.4199 10.9246 12.3668ZM13.1869 12.3117C13.2438 12.2802 13.3252 12.2049 13.3678 12.1442C13.4355 12.0478 13.4452 12.0125 13.4452 11.8626C13.4452 11.7164 13.434 11.673 13.3689 11.568C13.2574 11.388 13.1163 11.3186 12.8923 11.3336C12.5814 11.3545 12.4051 11.5405 12.4051 11.8477C12.4051 12.2719 12.8169 12.5163 13.1869 12.3117Z" fill="#3A96DD"/>
<path d="M10.6232 12.3378C10.4855 12.289 10.4015 12.2103 10.3373 12.0701C10.223 11.8204 10.2859 11.5908 10.5155 11.4193C10.6019 11.3548 10.8347 11.3339 10.9697 11.3784C11.0977 11.4206 11.2349 11.572 11.2728 11.7126C11.3754 12.0939 10.9877 12.4671 10.6232 12.3378Z" fill="white"/>
<path d="M12.7307 12.3204C12.4524 12.194 12.3428 11.8882 12.4787 11.6175C12.5572 11.4611 12.6812 11.3737 12.8471 11.3577C13.0341 11.3398 13.1446 11.3701 13.2545 11.4694C13.5283 11.7167 13.4749 12.14 13.1495 12.3022C12.9923 12.3806 12.8745 12.3857 12.7307 12.3204Z" fill="white"/>
<path d="M9.22634 14.4248C8.32715 13.5178 7.19272 12.3377 6.94713 12.0538C6.84002 11.93 6.8343 11.8014 6.93035 11.6764C7.15466 11.3843 10.2084 8.27427 10.2699 8.27521C10.3147 8.27589 10.6238 8.57013 10.7259 8.70924L10.819 8.83613L10.594 9.08218C10.4702 9.21751 9.9625 9.74066 9.46576 10.2447C8.31763 11.4098 7.94096 11.8076 7.94096 11.8549C7.94096 11.9097 8.26036 12.2498 9.39487 13.4027C9.94982 13.9667 10.4964 14.5313 10.6095 14.6575C10.797 14.8666 10.8124 14.8918 10.7849 14.9433C10.7489 15.0104 10.3653 15.3876 10.2943 15.4256C10.2505 15.449 10.1259 15.3323 9.22634 14.4248Z" fill="white"/>
<path d="M13.3283 15.3476C13.1971 15.2522 12.9113 14.9444 12.9113 14.8987C12.9113 14.8459 13.3589 14.3701 14.5214 13.1876C15.089 12.6102 15.6067 12.0753 15.6719 11.9991L15.7903 11.8604L15.6665 11.7152C15.5984 11.6353 15.0328 11.049 14.4095 10.4122C13.1517 9.12699 12.9113 8.87236 12.9113 8.82526C12.9113 8.76314 13.3734 8.27563 13.4323 8.27563C13.4932 8.27563 16.5457 11.3576 16.7398 11.615C16.8972 11.8238 16.8928 11.8829 16.7023 12.1195C16.4129 12.4788 13.5239 15.4197 13.4603 15.4197C13.4422 15.4197 13.3828 15.3872 13.3283 15.3476Z" fill="white"/>
</g>
<defs>
<clipPath id="clip0_4633_9805">
<rect width="24" height="24" fill="white"/>
</clipPath>
</defs>
</svg>
