<svg width="62" height="57" viewBox="0 0 62 57" fill="none" xmlns="http://www.w3.org/2000/svg">
<g clip-path="url(#clip0_1279178)">
<path d="M38.4856 27.075L14.2539 22.8V54.388C14.2539 55.8306 15.4237 57 16.8667 57H58.6792C60.1222 57 61.292 55.8306 61.292 54.388V42.75L38.4856 27.075Z" fill="#185C37"/>
<path d="M38.4856 0H16.8667C15.4237 0 14.2539 1.16944 14.2539 2.61202V14.25L38.4856 28.5L51.3142 32.775L61.292 28.5V14.25L38.4856 0Z" fill="#21A366"/>
<path d="M14.2539 14.25H38.4856V28.5H14.2539V14.25Z" fill="#107C41"/>
<path opacity="0.1" d="M31.5967 11.4H14.2539V47.025H31.5967C33.0377 47.0203 34.2048 45.8536 34.2094 44.4129V14.012C34.2048 12.5714 33.0377 11.4046 31.5967 11.4Z" fill="black"/>
<path opacity="0.2" d="M30.1713 12.825H14.2539V48.45H30.1713C31.6123 48.4453 32.7794 47.2786 32.784 45.838V15.437C32.7794 13.9964 31.6123 12.8297 30.1713 12.825Z" fill="black"/>
<path opacity="0.2" d="M30.1713 12.825H14.2539V45.6H30.1713C31.6123 45.5953 32.7794 44.4286 32.784 42.988V15.437C32.7794 13.9964 31.6123 12.8297 30.1713 12.825Z" fill="black"/>
<path opacity="0.2" d="M28.7459 12.825H14.2539V45.6H28.7459C30.1869 45.5953 31.354 44.4286 31.3587 42.988V15.437C31.354 13.9964 30.1869 12.8297 28.7459 12.825Z" fill="black"/>
<path d="M2.61274 12.825H28.7459C30.1889 12.825 31.3587 13.9944 31.3587 15.437V41.5629C31.3587 43.0055 30.1889 44.175 28.7459 44.175H2.61274C1.16976 44.175 0 43.0055 0 41.563V15.437C0 13.9944 1.16976 12.825 2.61274 12.825Z" fill="url(#paint0_linear_1279178)"/>
<path d="M8.09192 36.9902L13.5882 28.4758L8.55233 20.0084H12.6033L15.3515 25.4234C15.6052 25.9378 15.7791 26.3197 15.8732 26.5719H15.9088C16.0893 26.1615 16.2794 25.763 16.4789 25.3764L19.4167 20.0113H23.1355L17.9713 28.4288L23.2667 36.9901H19.3098L16.1354 31.0465C15.9859 30.7936 15.859 30.528 15.7563 30.2528H15.7093C15.6163 30.5224 15.4929 30.7805 15.3415 31.0223L12.0731 36.9902H8.09192Z" fill="white"/>
<path d="M58.6793 0H38.4857V14.25H61.292V2.61202C61.292 1.16944 60.1223 0 58.6793 0Z" fill="#33C481"/>
<path d="M38.4857 28.5H61.292V42.75H38.4857V28.5Z" fill="#107C41"/>
</g>
<defs>
<linearGradient id="paint0_linear_1279178" x1="5.44764" y1="10.784" x2="25.9026" y2="46.2209" gradientUnits="userSpaceOnUse">
<stop stop-color="#18884F"/>
<stop offset="0.5" stop-color="#117E43"/>
<stop offset="1" stop-color="#0B6631"/>
</linearGradient>
<clipPath id="clip0_1279178">
<rect width="61.292" height="57" fill="white"/>
</clipPath>
</defs>
</svg>
