<svg width="26" height="24" viewBox="0 0 26 24" fill="none" xmlns="http://www.w3.org/2000/svg">
<path d="M17.9232 9H24.5606C25.1876 9 25.696 9.5104 25.696 10.14V16.2102C25.696 18.5242 23.8277 20.4 21.523 20.4H21.5033C19.1987 20.4003 17.3301 18.5248 17.3298 16.2108C17.3298 16.2106 17.3298 16.2104 17.3298 16.2102V9.59579C17.3298 9.26674 17.5955 9 17.9232 9Z" fill="#5059C9"/>
<path d="M22.4093 7.8C23.8945 7.8 25.0984 6.59116 25.0984 5.1C25.0984 3.60883 23.8945 2.39999 22.4093 2.39999C20.9241 2.39999 19.7202 3.60883 19.7202 5.1C19.7202 6.59116 20.9241 7.8 22.4093 7.8Z" fill="#5059C9"/>
<path d="M14.0431 7.8C16.1884 7.8 17.9274 6.05394 17.9274 3.9C17.9274 1.74609 16.1884 0 14.0431 0C11.8979 0 10.1589 1.74609 10.1589 3.9C10.1589 6.05394 11.8979 7.8 14.0431 7.8Z" fill="#7B83EB"/>
<path d="M19.2224 9H8.26633C7.64673 9.01541 7.15659 9.53166 7.17097 10.1538V17.0772C7.08446 20.8106 10.0262 23.9086 13.7444 24C17.4626 23.9086 20.4043 20.8106 20.3177 17.0772V10.1538C20.3321 9.53166 19.842 9.01541 19.2224 9Z" fill="#7B83EB"/>
<path opacity="0.1" d="M14.3419 9V18.702C14.339 19.1469 14.0704 19.5466 13.6607 19.716C13.5302 19.7714 13.39 19.8 13.2484 19.8H7.69683C7.61917 19.602 7.54746 19.404 7.48766 19.2C7.27849 18.5115 7.17176 17.7958 7.17096 17.076V10.152C7.15658 9.53086 7.64592 9.01541 8.26452 9H14.3419Z" fill="black"/>
<path opacity="0.2" d="M13.7444 9V19.302C13.7444 19.4442 13.7159 19.585 13.6607 19.716C13.492 20.1274 13.0939 20.397 12.6508 20.4H7.97772C7.87611 20.202 7.7805 20.004 7.69683 19.8C7.61317 19.596 7.54746 19.404 7.48766 19.2C7.27849 18.5115 7.17176 17.7958 7.17096 17.076V10.152C7.15658 9.53086 7.64593 9.01541 8.26452 9H13.7444Z" fill="black"/>
<path opacity="0.2" d="M13.7444 9V18.102C13.7399 18.7065 13.2529 19.1955 12.6508 19.2H7.48766C7.27849 18.5115 7.17176 17.7958 7.17096 17.076V10.152C7.15658 9.53086 7.64593 9.01541 8.26452 9H13.7444Z" fill="black"/>
<path opacity="0.2" d="M13.1468 9V18.102C13.1422 18.7065 12.6552 19.1955 12.0532 19.2H7.48766C7.27849 18.5115 7.17176 17.7958 7.17096 17.076V10.152C7.15658 9.53086 7.64592 9.01541 8.26452 9H13.1468Z" fill="black"/>
<path opacity="0.1" d="M14.3419 5.89803V7.78805C14.2403 7.79403 14.1447 7.80005 14.0431 7.80005C13.9415 7.80005 13.8459 7.79403 13.7443 7.78805C13.5426 7.77457 13.3426 7.74245 13.1468 7.69205C11.9366 7.4043 10.9369 6.55218 10.4577 5.40005C10.3752 5.20653 10.3111 5.00565 10.2664 4.80005H13.2483C13.8514 4.80232 14.3396 5.29255 14.3419 5.89803Z" fill="black"/>
<path opacity="0.2" d="M13.7444 6.49803V7.78801C13.5427 7.77458 13.3426 7.74245 13.1468 7.69201C11.9367 7.40431 10.9369 6.55218 10.4577 5.40005H12.6508C13.2538 5.40233 13.7421 5.89256 13.7444 6.49803Z" fill="black"/>
<path opacity="0.2" d="M13.7444 6.49803V7.78801C13.5427 7.77458 13.3426 7.74245 13.1468 7.69201C11.9367 7.40431 10.9369 6.55218 10.4577 5.40005H12.6508C13.2538 5.40233 13.7421 5.89256 13.7444 6.49803Z" fill="black"/>
<path opacity="0.2" d="M13.1468 6.49802V7.69199C11.9367 7.40425 10.9369 6.55216 10.4577 5.39999H12.0532C12.6562 5.40231 13.1445 5.89254 13.1468 6.49802Z" fill="black"/>
<path d="M1.09536 5.39999H12.0514C12.6563 5.39999 13.1468 5.89242 13.1468 6.49978V17.5002C13.1468 18.1076 12.6563 18.6 12.0514 18.6H1.09536C0.490406 18.6 0 18.1076 0 17.5002V6.49978C0 5.89242 0.490415 5.39999 1.09536 5.39999Z" fill="url(#paint0_linear_4633_9821)"/>
<path d="M9.45611 9.58677H7.26595V15.5748H5.87063V9.58677H3.69064V8.42517H9.45611V9.58677Z" fill="white"/>
<defs>
<linearGradient id="paint0_linear_4633_9821" x1="2.28386" y1="4.54063" x2="10.915" y2="19.4292" gradientUnits="userSpaceOnUse">
<stop stop-color="#5A62C3"/>
<stop offset="0.5" stop-color="#4D55BD"/>
<stop offset="1" stop-color="#3940AB"/>
</linearGradient>
</defs>
</svg>
