<?xml version="1.0" encoding="utf-8"?>
<svg version="1.1" id="layer" xmlns="http://www.w3.org/2000/svg" xmlns:xlink="http://www.w3.org/1999/xlink" x="0px" y="0px"
	 viewBox="0 0 652 652" style="enable-background:new 0 0 652 652;" xml:space="preserve">
<style type="text/css">
	.st0{fill:#ED1C24;}
</style>
<g>
	<path class="st0" d="M167.5,331.8h21.7l-11.5-18.5l-21.1,33.4h-9.6l25.6-40.1c1.1-1.6,3-2.6,5-2.6c2,0,3.9,1,4.9,2.5l25.7,40.2
		h-9.6l-4.5-7.5h-22L167.5,331.8 M267.1,339.3v-34.9H259v38.3c0,1,0.4,2.1,1.2,2.8c0.8,0.8,1.8,1.2,3,1.2h37.1l4.8-7.5L267.1,339.3
		 M132.5,333c7.9,0,14.3-6.4,14.3-14.3c0-7.9-6.4-14.3-14.3-14.3H96.9v42.3h8.1v-34.8H132c3.8,0,6.8,3.1,6.8,6.8
		c0,3.8-3.1,6.9-6.8,6.9l-22.9,0l24.3,21.2h11.8L128.8,333H132.5 M46.8,346.8h24.6c11.7,0,21.1-9.5,21.1-21.1
		c0-11.7-9.4-21.2-21.1-21.2H46.8c-11.7,0-21.2,9.5-21.2,21.2C25.7,337.3,35.2,346.8,46.8,346.8 M70.9,339.3H47.4
		c-7.6,0-13.7-6.1-13.7-13.7c0-7.6,6.1-13.7,13.7-13.7h23.5c7.6,0,13.7,6.1,13.7,13.7C84.6,333.2,78.5,339.3,70.9,339.3
		 M225.4,346.8h25.1l4.8-7.4H226c-7.6,0-13.7-6.1-13.7-13.7c0-7.6,6.1-13.7,13.7-13.7h23.9l4.8-7.5h-29.2
		c-11.7,0-21.2,9.5-21.2,21.2C204.2,337.3,213.7,346.8,225.4,346.8 M324.9,339.3c-6.3,0-11.6-4.2-13.2-10h34.8l4.8-7.5h-39.6
		c1.6-5.8,6.9-10,13.2-10h23.9l4.8-7.5h-29.2c-11.7,0-21.2,9.5-21.2,21.2c0,11.7,9.5,21.1,21.2,21.1h25.1l4.8-7.4L324.9,339.3
		 M357.9,309c0-2.1,1.7-3.7,3.8-3.7c2.1,0,3.7,1.7,3.7,3.7c0,2.1-1.6,3.7-3.7,3.7C359.6,312.7,357.9,311,357.9,309 M361.7,313.7
		c2.6,0,4.7-2.1,4.7-4.7c0-2.6-2.1-4.8-4.7-4.8c-2.7,0-4.8,2.1-4.8,4.8C356.9,311.6,359.1,313.7,361.7,313.7 M361.2,306.1
		c0.7,0,1,0,1.4,0.1c0.9,0.3,1,1.2,1,1.5c0,0.1,0,0.2-0.1,0.4c0,0.2-0.2,0.6-0.7,0.9c-0.1,0-0.1,0.1-0.2,0.1l1.2,2.2h-1.2l-1.1-2.1
		H361v2.1h-1.1v-5.3H361.2 M361.6,308.6c0.3,0,0.7,0,0.9-0.3c0.1-0.1,0.2-0.3,0.2-0.4c0-0.3-0.2-0.5-0.4-0.7c-0.3-0.1-0.5-0.1-1-0.1
		H361v1.6L361.6,308.6"/>
	<g>
		<polygon points="409.8,338.6 397,311.8 397,311.7 385.9,311.7 385.9,346.9 393.3,346.9 393.3,318.5 406.5,346.8 406.5,346.9 
			417.1,346.9 417.1,311.7 409.8,311.7 		"/>
		<polygon points="432.4,331.7 447.3,331.7 447.3,325.7 432.4,325.7 432.4,317.7 448.3,317.7 448.3,311.7 424.6,311.7 424.6,346.9 
			448.8,346.9 448.8,340.8 432.4,340.8 		"/>
		<polygon points="452.5,311.7 452.5,317.8 462.9,317.8 462.9,346.9 470.7,346.9 470.7,317.8 481.1,317.8 481.1,311.7 		"/>
		<g>
			<path d="M490.1,336.6c0.1,2.4,0.4,6.9,8.4,6.9c7.2,0,8.2-4.5,8.2-6.2c0-3.9-3.1-4.7-8-5.9c-5.3-1.3-7.7-1.9-9.5-3.1
				c-2.8-1.9-3.6-4.5-3.6-6.9c0-7.1,6.7-10.2,13.3-10.2c2.3,0,7,0.4,9.8,3.4c1.9,2.1,2,4.5,2.1,5.9h-5c-0.2-4.3-3.9-5.3-7.3-5.3
				c-4.8,0-7.7,2.2-7.7,5.6c0,3.1,2,4.2,6.3,5.2c8.3,2.1,9.2,2.3,11.3,3.7c3.2,2.1,3.5,5.5,3.5,6.9c0,6.2-4.8,10.9-13.8,10.9
				c-2.7,0-8.1-0.4-10.8-4c-2-2.6-2-5.4-2-7H490.1L490.1,336.6z"/>
			<path d="M524.1,311.9v21.6c0,3.7,0.8,5.3,1.5,6.3c2.2,2.9,5.5,3.4,8,3.4c9.4,0,9.4-7.4,9.4-9.9v-21.4h4.7v21.5
				c0,1.9,0,5.8-2.9,9.3c-3.4,4.3-8.7,4.8-11.2,4.8c-3.3,0-9.1-0.9-12.3-5.6c-1.1-1.5-2-3.6-2-8.8v-21.2H524.1z"/>
			<path d="M557.7,311.9h4.8v34.8h-4.8V311.9z"/>
			<path d="M581.2,346.8V316h-11.7v-4.1h28.1v4.1H586v30.7H581.2z"/>
			<path d="M603.4,311.9h21.9v4.1h-17v10.9h16.2v4.1h-16.2v11.6h17.4v4.2h-22.3V311.9z"/>
		</g>
	</g>
</g>
</svg>
