<svg width="339" height="114" viewBox="0 0 309 94" xmlns="http://www.w3.org/2000/svg"><g fill="none" fill-rule="evenodd"><path d="M3.592 61.606h9.783L25.21 86.453V61.606h6.288v31.572h-9.303L9.967 66.977v26.201H3.592V61.606zm35.023 0H59.75v5.151H45.383v7.512h13.452v5.151H45.383v8.517h14.85v5.242H38.615V61.605zm34.623 5.239h-9.39v-5.238h25.593v5.238h-9.39v26.334h-6.813V66.845zm24.447 17.121c.087 2.184.348 6.243 7.6 6.243 6.548 0 7.38-4.059 7.38-5.634 0-3.537-2.839-4.236-7.249-5.325-4.806-1.182-6.945-1.707-8.559-2.796-2.577-1.749-3.276-4.107-3.276-6.2 0-6.42 6.07-9.217 12.01-9.217 2.093 0 6.332.351 8.864 3.102 1.746 1.92 1.833 4.06 1.92 5.373h-4.542c-.216-3.933-3.537-4.806-6.636-4.806-4.368 0-6.987 1.965-6.987 5.11 0 2.795 1.833 3.755 5.676 4.673 7.512 1.92 8.343 2.094 10.176 3.318 2.925 1.923 3.144 4.977 3.144 6.288 0 5.59-4.368 9.825-12.447 9.825-2.4 0-7.293-.39-9.78-3.579-1.794-2.313-1.836-4.848-1.836-6.375h4.542zm30.791-22.318v19.524c0 3.36.744 4.758 1.398 5.673 1.965 2.622 5.022 3.105 7.206 3.105 8.514 0 8.514-6.684 8.514-8.955V61.648h4.236v19.437c0 1.7-.042 5.238-2.577 8.382-3.099 3.885-7.902 4.368-10.173 4.368-2.97 0-8.21-.831-11.136-5.022-.963-1.398-1.836-3.231-1.836-7.95V61.648h4.368zm30.422 31.534V61.65h4.368v31.533h-4.368zm21.26-.002V65.361H169.59v-3.714h25.46v3.714h-10.568V93.18h-4.323zm20.076-31.532h19.782v3.71h-15.414v9.829h14.673v3.669h-14.673v10.479h15.762v3.846h-20.13V61.648z" fill="#000"/><path d="M303.954 4.095c.294 0 .603-.03.78-.312.13-.105.147-.246.147-.402 0-.27-.153-.48-.369-.594-.252-.099-.44-.099-.897-.099h-.252v1.407h.591m-.339-2.18c.645 0 .942.03 1.275.122.84.276.915 1.074.915 1.35 0 .063-.024.222-.05.396-.043.19-.142.582-.595.84-.057.033-.087.063-.186.111l1.107 1.998h-1.077l-.99-1.857h-.65v1.857h-.964V1.914h1.215m.414 6.846a4.271 4.271 0 004.284-4.284c0-2.379-1.91-4.323-4.284-4.323a4.31 4.31 0 00-4.31 4.323c0 2.38 1.91 4.284 4.31 4.284m-3.402-4.302a3.385 3.385 0 013.402-3.387 3.372 3.372 0 013.381 3.387 3.37 3.37 0 01-3.38 3.375 3.382 3.382 0 01-3.403-3.375m-29.87 27.462c-5.674 0-10.456-3.807-11.932-9.015h31.464l4.338-6.75h-35.802a12.382 12.382 0 0111.931-9.018h21.603L296.676.37h-26.412c-10.566 0-19.137 8.571-19.137 19.161 0 10.575 8.571 19.131 19.137 19.131h22.722l4.317-6.74h-26.547m-90.042 6.74h22.722l4.302-6.74h-26.52c-6.873 0-12.41-5.56-12.41-12.39 0-6.865 5.537-12.394 12.41-12.394h21.585L207.156.37h-26.442c-10.58 0-19.179 8.571-19.179 19.161 0 10.575 8.598 19.131 19.18 19.131m-139.813-6.74H19.644c-6.84 0-12.384-5.56-12.384-12.39 0-6.865 5.544-12.394 12.384-12.394h21.258A12.376 12.376 0 0153.304 19.53c0 6.831-5.538 12.39-12.402 12.39m-21.747 6.741h22.257c10.587 0 19.113-8.556 19.113-19.13C60.525 8.94 52 .368 41.412.368H19.155C8.58.37 0 8.94 0 19.53c0 10.575 8.58 19.131 19.155 19.131m77.511-12.399c7.167 0 12.933-5.802 12.933-12.95 0-7.15-5.766-12.943-12.933-12.943H64.452v38.292h7.362V7.137h24.363c3.417 0 6.19 2.76 6.19 6.174 0 3.411-2.773 6.22-6.19 6.22l-20.763-.019 21.99 19.15h10.683l-14.769-12.4h3.348m121.8 5.637V.37h-7.377V35c0 .941.4 1.868 1.09 2.537a3.728 3.728 0 002.684 1.125h33.543l4.371-6.762h-34.31m-90.118-6.74h19.641L137.613 8.411l-19.05 30.25h-8.7l23.19-36.3C134.043.891 135.744 0 137.601 0c1.815 0 3.486.861 4.476 2.295l23.262 36.366h-8.679l-4.089-6.762h-19.887l-4.335-6.74" fill="red"/></g></svg>