<svg width="57" height="57" viewBox="0 0 57 57" fill="none" xmlns="http://www.w3.org/2000/svg">
<path d="M28.1701 56.3402C43.728 56.3402 56.3402 43.7281 56.3402 28.1701C56.3402 12.6122 43.728 0 28.1701 0C12.6122 0 0 12.6122 0 28.1701C0 43.7281 12.6122 56.3402 28.1701 56.3402Z" fill="#03032D"/>
<path d="M12.9302 37.13L37.4705 12.5888L37.5941 12.7124L13.0537 37.2536L12.9302 37.13Z" fill="white"/>
<path d="M14.9739 39.1516L39.5142 14.6105L39.6378 14.734L15.0974 39.2752L14.9739 39.1516Z" fill="white"/>
<path d="M17.0425 41.1978L41.5828 16.6566L41.7064 16.7802L17.1661 41.3214L17.0425 41.1978Z" fill="white"/>
<path d="M19.0618 43.244L43.6021 18.7028L43.7257 18.8264L19.1853 43.3676L19.0618 43.244Z" fill="white"/>
<path d="M21.1304 45.2903L45.6707 20.7492L45.7943 20.8727L21.2539 45.4139L21.1304 45.2903Z" fill="white"/>
<path d="M23.1743 47.3614L47.7146 22.8202L47.8382 22.9438L23.2979 47.485L23.1743 47.3614Z" fill="white"/>
<path d="M25.2183 49.3827L49.7586 24.8415L49.8822 24.9651L25.3418 49.5063L25.2183 49.3827Z" fill="white"/>
<path d="M27.262 51.4539L51.8023 26.9127L51.9258 27.0363L27.3855 51.5775L27.262 51.4539Z" fill="white"/>
<path d="M4.75439 28.945L29.2947 4.4038L29.4183 4.52736L4.87797 29.0685L4.75439 28.945Z" fill="white"/>
<path d="M6.79858 30.9665L31.3389 6.42531L31.4625 6.54888L6.92215 31.0901L6.79858 30.9665Z" fill="white"/>
<path d="M8.84253 33.0376L33.3828 8.4964L33.5064 8.61996L8.9661 33.1611L8.84253 33.0376Z" fill="white"/>
<path d="M10.8862 35.059L35.4265 10.5178L35.5501 10.6413L11.0098 35.1825L10.8862 35.059Z" fill="white"/>
<path d="M19.0774 12.7039L19.201 12.5804L43.7421 37.1207L43.6186 37.2443L19.0774 12.7039Z" fill="white"/>
<path d="M17.031 14.7726L17.1546 14.649L41.6957 39.1893L41.5722 39.3129L17.031 14.7726Z" fill="white"/>
<path d="M14.9849 16.7918L15.1084 16.6683L39.6496 41.2086L39.526 41.3322L14.9849 16.7918Z" fill="white"/>
<path d="M12.9385 18.8604L13.062 18.7369L37.6032 43.2772L37.4797 43.4008L12.9385 18.8604Z" fill="white"/>
<path d="M10.8923 20.8796L11.0159 20.756L35.5571 45.2964L35.4335 45.4199L10.8923 20.8796Z" fill="white"/>
<path d="M8.84595 22.9485L8.96951 22.8249L33.5107 47.3652L33.3871 47.4888L8.84595 22.9485Z" fill="white"/>
<path d="M6.7998 24.9673L6.92337 24.8437L31.4646 49.384L31.341 49.5076L6.7998 24.9673Z" fill="white"/>
<path d="M4.75342 27.0359L4.87698 26.9123L29.4182 51.4526L29.2946 51.5762L4.75342 27.0359Z" fill="white"/>
<path d="M27.2625 4.52878L27.386 4.40521L51.9272 28.9455L51.8036 29.0691L27.2625 4.52878Z" fill="white"/>
<path d="M25.1914 6.57263L25.315 6.44906L49.8562 30.9894L49.7326 31.113L25.1914 6.57263Z" fill="white"/>
<path d="M23.1699 8.61652L23.2935 8.49295L47.8347 33.0333L47.7111 33.1568L23.1699 8.61652Z" fill="white"/>
<path d="M21.1233 10.6849L21.2469 10.5613L45.788 35.1016L45.6645 35.2252L21.1233 10.6849Z" fill="white"/>
<path fill-rule="evenodd" clip-rule="evenodd" d="M52.286 27.9954C52.286 41.4107 41.4108 52.286 27.9954 52.286C14.5801 52.286 3.70483 41.4107 3.70483 27.9954C3.70483 14.58 14.5801 3.70474 27.9954 3.70474C41.4108 3.70474 52.286 14.58 52.286 27.9954ZM45.296 27.9954C45.296 37.5502 37.5503 45.2959 27.9954 45.2959C18.4406 45.2959 10.6949 37.5502 10.6949 27.9954C10.6949 18.4405 18.4406 10.6948 27.9954 10.6948C37.5503 10.6948 45.296 18.4405 45.296 27.9954Z" fill="#03032D"/>
<path d="M28.1701 54.7325C13.5258 54.7325 1.60767 42.8144 1.60767 28.1701C1.60767 13.5259 13.5258 1.60773 28.1701 1.60773C42.8143 1.60773 54.7324 13.5259 54.7324 28.1701C54.7324 42.8144 42.8143 54.7325 28.1701 54.7325ZM28.1701 2.72614C14.1549 2.72614 2.72608 14.155 2.72608 28.1701C2.72608 42.1853 14.1549 53.6141 28.1701 53.6141C42.1852 53.6141 53.614 42.1853 53.614 28.1701C53.614 14.155 42.1852 2.72614 28.1701 2.72614Z" fill="white"/>
<path d="M15.0636 8.87743C15.3432 8.80753 15.6228 8.80753 15.9024 8.84248C16.182 8.91239 16.3917 9.01724 16.6364 9.15704C16.8461 9.29684 17.0558 9.50654 17.2306 9.71625C17.4403 9.99585 17.5801 10.2755 17.65 10.5551C17.7199 10.8347 17.7548 11.1143 17.6849 11.3589C17.65 11.6385 17.5451 11.8832 17.4053 12.0929C17.2655 12.3375 17.0558 12.5472 16.8112 12.722C16.5665 12.8967 16.2869 13.0365 16.0422 13.1064C15.7626 13.1763 15.518 13.2113 15.2384 13.1763C14.9588 13.1414 14.7141 13.0365 14.4695 12.8967C14.2248 12.722 14.0151 12.5123 13.8054 12.2676C13.6307 12.023 13.4909 11.7434 13.421 11.4987C13.3511 11.2191 13.3161 10.9745 13.386 10.6949C13.421 10.4153 13.5258 10.1706 13.6656 9.9609C13.8054 9.71625 14.0151 9.50654 14.2598 9.33179C14.4695 9.08714 14.7491 8.94734 15.0636 8.87743ZM14.5394 10.3803C14.5044 10.4852 14.4695 10.625 14.5044 10.7298C14.5394 10.8347 14.5394 10.9745 14.6093 11.1143C14.6792 11.2191 14.7491 11.3589 14.819 11.4638C14.8889 11.5686 14.9937 11.6735 15.0986 11.7783C15.2034 11.8832 15.3083 11.9531 15.4131 11.988C15.518 12.0579 15.6578 12.0579 15.7626 12.0579C15.9024 12.0579 16.0073 11.988 16.1471 11.9181C16.3568 11.7434 16.4616 11.5337 16.4616 11.289C16.4267 11.0444 16.3218 10.7648 16.1121 10.4852C16.0422 10.3803 15.9374 10.2755 15.8325 10.1706C15.7277 10.0658 15.6228 9.99585 15.518 9.9609C15.4131 9.92595 15.2733 9.891 15.1685 9.891C15.0636 9.891 14.9238 9.9609 14.819 10.0308C14.6792 10.1706 14.5743 10.2755 14.5394 10.3803ZM19.9567 10.5551L20.0266 6.2212L21.3198 5.80179L24.011 9.19199L22.7527 9.6114L22.4382 9.15704L21.18 9.57645L21.2149 10.1357L19.9567 10.5551ZM21.0402 7.16486L21.1101 8.66773L21.9139 8.38813L21.0402 7.16486ZM25.8284 4.82317L27.1565 4.78822L27.1915 7.23476C27.1915 7.33961 27.1915 7.44446 27.2264 7.54932C27.2264 7.61922 27.2614 7.72407 27.3313 7.79397C27.3662 7.86387 27.4361 7.89882 27.541 7.93377C27.6109 7.96872 27.7507 8.00367 27.8555 7.96872C28.0652 7.96872 28.24 7.89882 28.3448 7.75902C28.4497 7.61922 28.4846 7.44446 28.4846 7.19981L28.4497 4.75327L29.7778 4.71832L29.8127 7.02506C29.8127 7.68912 29.6729 8.14347 29.3584 8.45803C29.0438 8.77258 28.5545 8.91239 27.8905 8.94734C27.5759 8.94734 27.2963 8.91238 27.0517 8.87743C26.807 8.80753 26.5973 8.70268 26.4225 8.56288C26.2478 8.42308 26.1429 8.21337 26.0381 8.00367C25.9332 7.75902 25.8983 7.47941 25.8983 7.12991L25.8284 4.82317ZM32.9932 5.20763L36.5582 6.25615L36.2436 7.26971L35.0903 6.92021L34.2515 9.78615L32.9583 9.40169L33.7971 6.53575L32.6437 6.18624L32.9932 5.20763ZM37.2922 11.0094L39.5639 7.61922L40.6824 8.35318L39.9134 9.50654L40.962 10.2056L41.7309 9.05219L42.8493 9.78615L40.5775 13.1763L39.4591 12.4424L40.3329 11.1492L39.2843 10.4502L38.4106 11.7434L37.2922 11.0094Z" fill="white"/>
<path d="M19.9219 38.4805V35.2651L22.8577 32.6088C27.8207 28.1002 30.2672 25.5488 30.3371 22.8926C30.3371 21.0402 29.2187 19.5723 26.5974 19.5723C24.6402 19.5723 22.9276 20.5509 21.7393 21.4596L20.2364 17.65C21.949 16.3568 24.6052 15.3083 27.7158 15.3083C32.8885 15.3083 35.7195 18.3141 35.7195 22.4732C35.7195 26.2828 32.9584 29.3584 29.6381 32.2943L27.5411 34.0418V34.1117H36.1389V38.4805H19.9219Z" fill="white" stroke="#03032D" stroke-width="6" stroke-miterlimit="10"/>
<path d="M19.9219 38.4805V35.2651L22.8577 32.6088C27.8207 28.1002 30.2672 25.5488 30.3371 22.8926C30.3371 21.0402 29.2187 19.5723 26.5974 19.5723C24.6402 19.5723 22.9276 20.5509 21.7393 21.4596L20.2364 17.65C21.949 16.3568 24.6052 15.3083 27.7158 15.3083C32.8885 15.3083 35.7195 18.3141 35.7195 22.4732C35.7195 26.2828 32.9584 29.3584 29.6381 32.2943L27.5411 34.0418V34.1117H36.1389V38.4805H19.9219ZM41.2766 47.4628C40.997 47.5327 40.7174 47.5327 40.4378 47.4978C40.1582 47.4279 39.9485 47.323 39.7039 47.1832C39.4942 47.0434 39.2845 46.8337 39.1097 46.624C38.9 46.3444 38.7602 46.0648 38.6903 45.7852C38.6204 45.5056 38.5854 45.226 38.6553 44.9813C38.6903 44.7017 38.7952 44.4571 38.935 44.2474C39.0748 44.0027 39.2845 43.793 39.5291 43.6182C39.7738 43.4435 40.0534 43.3037 40.298 43.2338C40.5776 43.1639 40.8223 43.1289 41.1019 43.1639C41.3815 43.1988 41.6261 43.3037 41.8708 43.4435C42.1154 43.6182 42.3252 43.8279 42.5349 44.0726C42.7096 44.3173 42.8494 44.5969 42.9193 44.8415C42.9892 45.1211 43.0242 45.3658 42.9543 45.6454C42.8844 45.925 42.8145 46.1696 42.6747 46.3793C42.5349 46.624 42.3252 46.8337 42.0805 47.0084C41.8708 47.2531 41.5562 47.3929 41.2766 47.4628ZM41.8009 45.9599C41.8358 45.8551 41.8708 45.7153 41.8358 45.6104C41.8358 45.4706 41.8009 45.3658 41.731 45.226C41.6611 45.1211 41.5912 44.9813 41.5213 44.8765C41.4514 44.7716 41.3465 44.6668 41.2417 44.5619C41.1368 44.4571 41.032 44.3872 40.9271 44.3522C40.8223 44.2823 40.6825 44.2823 40.5776 44.2823C40.4378 44.2823 40.333 44.3522 40.1932 44.4221C39.9835 44.5969 39.8786 44.8066 39.8786 45.0512C39.9136 45.2959 40.0184 45.5755 40.2281 45.8551C40.298 45.9599 40.4029 46.0648 40.5077 46.1696C40.6126 46.2745 40.7174 46.3444 40.8223 46.3793C40.9271 46.4143 41.0669 46.4492 41.1718 46.4492C41.2766 46.4492 41.4164 46.3793 41.5213 46.3094C41.6611 46.1696 41.7659 46.0648 41.8009 45.9599ZM36.3836 45.7852L36.3137 50.119L35.0205 50.5384L32.3293 47.1482L33.5875 46.7288L33.9021 47.1832L35.1603 46.7638L35.1253 46.2046L36.3836 45.7852ZM35.3001 49.1754L35.2302 47.6725L34.4263 47.9521L35.3001 49.1754ZM30.5119 51.5171L29.1838 51.552L29.1488 49.1055C29.1488 49.0006 29.1488 48.8958 29.1139 48.7909C29.1139 48.721 29.0789 48.6162 29.009 48.5463C28.9741 48.4764 28.9042 48.4414 28.7993 48.4065C28.7294 48.3715 28.5896 48.3366 28.4847 48.3715C28.275 48.3715 28.1003 48.4414 27.9954 48.5812C27.8906 48.721 27.8556 48.8958 27.8556 49.1404L27.8906 51.587L26.5625 51.6219L26.5275 49.3152C26.5275 48.6511 26.6673 48.1968 26.9819 47.8822C27.2964 47.5676 27.7857 47.4278 28.4498 47.3929C28.7643 47.3929 29.044 47.4278 29.2886 47.4628C29.5333 47.5327 29.743 47.6376 29.9177 47.7774C30.0925 47.9172 30.1973 48.1269 30.3022 48.3366C30.407 48.5812 30.442 48.8608 30.442 49.2103L30.5119 51.5171ZM23.347 51.1326L19.7821 50.0841L20.0966 49.0705L21.25 49.42L22.0888 46.5541L23.382 46.9385L22.5432 49.8045L23.6965 50.154L23.347 51.1326ZM19.0481 45.3308L16.7763 48.721L15.6579 47.9871L16.4268 46.8337L15.3783 46.1347L14.6094 47.288L13.491 46.5541L15.7628 43.1639L16.8812 43.8978L16.0074 45.191L17.0559 45.89L17.9297 44.5969L19.0481 45.3308Z" fill="white"/>
</svg>
