<svg height="29" viewBox="0 0 30 29" width="30" xmlns="http://www.w3.org/2000/svg"><path d="m13.314 0c4.585 0 11.513 1.412 14.738 4.65.817.821 1.886 2.429 1.886 4.784 0 4.187-3.36 10.611-7.07 14.337-1.918 1.926-4.969 4.443-9.073 4.443-4.012 0-7.076-2.736-7.963-3.627-3.398-3.412-5.832-8.591-5.832-13.42 0-3.047.865-5.712 3.072-7.927 2.044-2.052 5.566-3.24 10.242-3.24zm5.675 16.698c1.548-1.555 1.965-3.47 1.965-4.524 0-.764-.2-1.885-1.152-2.84-1.46-1.466-3.077-1.88-4.836-1.88-2.228 0-3.725.707-4.722 1.709-.782.785-1.458 1.992-1.458 3.707 0 1.714.91 3.37 1.902 4.365.916.92 2.356 1.601 3.806 1.601s2.947-.583 4.495-2.138z" fill="#5952ff"/></svg>

