<svg width="117" height="24" viewBox="0 0 117 24" fill="none" xmlns="http://www.w3.org/2000/svg">
<path d="M114.083 5.02799L111.443 12.516C110.963 13.86 110.723 14.628 110.279 15.924H110.231C109.883 14.808 109.571 13.908 109.114 12.588L106.546 5.01599H103.473L108.79 18.912C108.67 19.212 108.55 19.524 108.418 19.848C107.974 20.928 106.918 21.636 105.754 21.636H104.433V24H105.79C107.986 24 109.967 22.668 110.783 20.616C112.475 16.38 115.356 9.16799 117 5.02799H114.083Z" fill="#06AC38"/>
<path d="M40.3522 16.248C40.3522 21.276 38.0478 24 33.3908 24C29.9221 24 27.8337 22.176 27.0895 19.428H29.8981C30.3782 20.7 31.3744 21.84 33.4388 21.84C36.6195 21.84 37.7477 19.86 37.7477 16.092C37.7237 16.092 37.7237 16.068 37.6997 16.068C37.0156 17.256 35.4792 18.312 33.0427 18.312C29.1299 18.312 26.6334 15.48 26.6334 11.508C26.6334 7.38001 29.334 4.59601 33.0667 4.59601C35.4792 4.59601 36.9315 5.62801 37.7237 6.76801C37.6997 6.48001 37.6997 6.18001 37.6997 5.89201V5.01601H40.3522V16.248ZM29.55 11.484C29.55 14.184 31.0623 16.116 33.6549 16.116C35.9833 16.116 37.7837 14.472 37.7837 11.4C37.7837 8.67601 36.1994 6.85201 33.6549 6.85201C31.1103 6.85201 29.55 8.67601 29.55 11.484Z" fill="#06AC38"/>
<path d="M44.7331 12.672C44.8412 15.108 46.4015 17.04 49.102 17.04C51.0104 17.04 51.9346 16.14 52.6428 14.952H55.3193C54.5272 17.46 52.3307 19.26 48.994 19.26C44.7091 19.26 42.0326 16.38 42.0326 12.036C42.0326 7.69199 44.8172 4.63199 48.994 4.63199C53.5189 4.63199 55.6074 8.07599 55.6074 11.808V12.684H44.7331V12.672ZM52.8228 10.56C52.5828 8.36399 51.2025 6.80399 48.934 6.80399C46.7616 6.80399 45.0932 8.23199 44.8292 10.56H52.8228Z" fill="#06AC38"/>
<path d="M59.8923 5.02799V6.80399C60.3363 5.50799 61.6926 4.69199 63.2529 4.69199C63.601 4.69199 63.7571 4.71599 63.9371 4.73999V7.17599C63.697 7.12799 63.301 7.09199 63.0129 7.09199C60.5044 7.09199 60.0243 8.93999 60.0243 11.724V18.924H57.3477V7.52399C57.3477 6.64799 57.3477 5.87999 57.3237 5.03999H59.8923V5.02799Z" fill="#06AC38"/>
<path d="M91.4228 16.932C90.7026 18.12 89.3583 19.26 87.0059 19.26C83.7772 19.26 82.1929 17.28 82.1929 13.68V5.02802H84.8574V12.672C84.8574 15.396 85.7576 17.04 87.93 17.04C90.7866 17.04 91.2907 14.448 91.2907 11.4V5.02802H93.9673V16.824C93.9673 17.544 93.9673 18.228 93.9913 18.912H91.4228V16.932Z" fill="#06AC38"/>
<path d="M99.9805 5.02801H102.573V7.09201H99.9805V15.432C99.9805 16.752 100.641 17.148 101.673 17.148C101.853 17.148 102.177 17.124 102.333 17.1V19.08C101.937 19.128 101.649 19.188 101.301 19.188C98.8403 19.188 97.28 18.372 97.28 15.588V7.09201H95.1915V5.02801H97.28V1.272H99.9805V5.02801Z" fill="#06AC38"/>
<path d="M2.772 13.872H0V18.912H2.772V13.872Z" fill="#06AC38"/>
<path d="M10.4421 0.924C8.95384 0.132 7.92163 0 5.48513 0H0V11.472H2.77257H3.13264H5.46112C7.63357 11.472 9.2539 11.34 10.6822 10.392C12.2425 9.36 13.0467 7.644 13.0467 5.664C13.0467 3.516 12.0505 1.8 10.4421 0.924ZM6.09725 9.072H2.77257V2.46L5.90521 2.436C8.7618 2.4 10.1901 3.408 10.1901 5.688C10.1901 8.136 8.42573 9.072 6.09725 9.072Z" fill="#06AC38"/>
<path d="M65.5695 0H70.2024C77.1398 0.048 80.4765 3.432 80.5005 9.504C80.5245 14.676 77.848 18.852 70.6585 18.924H65.5815V0H65.5695ZM68.378 16.56H69.9984C75.0274 16.56 77.6559 14.64 77.6559 9.492C77.6439 4.968 75.0394 2.376 70.2624 2.376C69.3382 2.376 68.378 2.4 68.378 2.4V16.56Z" fill="#06AC38"/>
<path d="M22.7687 18.924C22.6846 18.372 22.6846 18.024 22.6366 17.016C21.5804 18.528 20.1761 19.188 17.9557 19.188C15.0391 19.188 12.9266 17.76 12.9266 15.168C12.9266 12.18 15.7832 11.196 19.492 10.692C20.4162 10.56 21.4484 10.452 22.3486 10.38C22.3486 7.632 20.8243 6.804 19.2279 6.804C17.6316 6.804 16.4674 7.92 16.4674 9.384H13.8748C13.8748 6.564 16.0953 4.668 19.2879 4.668C22.4806 4.668 24.9411 5.988 24.9411 11.076V13.776C24.9411 16.02 25.0491 17.664 25.2892 18.936H22.7687V18.924ZM15.8072 15.132C15.8072 16.428 16.8634 17.244 18.5558 17.244C21.0403 17.244 22.3726 15.732 22.3726 13.032C22.3726 12.684 22.3726 12.444 22.3966 12.288C17.8717 12.756 15.8072 13.2 15.8072 15.132Z" fill="#06AC38"/>
</svg>
