<svg width="46" height="57" viewBox="0 0 46 57" fill="none" xmlns="http://www.w3.org/2000/svg">
<path d="M27.2555 0C20.8404 0 17.1421 2.87454 15.3718 4.78505C15.1439 3.06734 14.0221 0.91144 9.60517 0.91144H0V10.8146H3.9262C4.57472 10.8146 4.78506 11.0074 4.78506 11.6734V57H16.178V38.7537C17.9659 40.3838 21.3487 42.5923 26.6771 42.5923C37.7897 42.5923 45.607 33.8985 45.607 21.3137C45.6596 8.58856 38.2279 0 27.2555 0ZM24.9419 32.7768C18.8072 32.7768 16.0378 26.9576 16.0378 21.524C16.0378 13.0055 20.7177 9.99078 25.1172 9.99078C30.4982 9.99078 34.1439 14.548 34.1439 21.4364C34.0913 29.3063 29.464 32.7592 24.9419 32.7768Z" fill="#203232"/>
</svg>
