<svg id="Layer_1" data-name="Layer 1" xmlns="http://www.w3.org/2000/svg" viewBox="0 0 72 68.44"><defs><style>.cls-1{fill:#ff5200;}</style></defs><title>Procore_Logo_Graphicmark_FC_Black_RGB</title><g id="PROCORE_GRAPHICMARK" data-name="PROCORE GRAPHICMARK"><path d="M91.6,81.17,84.46,93.49H59.54L47.09,72,59.54,50.51H84.46L91.6,62.83H108V51.74a13.52,13.52,0,0,0-14-14H50a13.52,13.52,0,0,0-14,14V92.26a13.52,13.52,0,0,0,14,14H94a13.52,13.52,0,0,0,14-14V81.17Z" transform="translate(-36 -37.78)"/><polygon class="cls-1" points="29.25 22.57 22.5 34.22 29.25 45.87 42.75 45.87 49.51 34.22 42.75 22.57 29.25 22.57"/></g></svg>