<svg version="1.0" id="katman_1" xmlns="http://www.w3.org/2000/svg" xmlns:xlink="http://www.w3.org/1999/xlink" x="0px" y="0px"
     viewBox="0 0 609.2 373.5" style="enable-background:new 0 0 609.2 373.5;" xml:space="preserve">
<style type="text/css">
    .st0{fill:#2CA01C;}
    .st1{fill:#FFFFFF;}
</style>
<path d="M565.6,213c0-1-1-1.4-1.9-1.4H562v5h0.9v-2h0.7l1.1,2h1.1l-1.3-2.2c0.6-0.1,1.1-0.7,1.1-1.3V213z M562.9,213.8v-1.4h0.8
    c0.5,0,1,0.1,1,0.7c0,0.6-0.6,0.7-1.1,0.7L562.9,213.8z M563.7,209.8c-2.4,0.1-4.4,2.1-4.3,4.5s2.1,4.4,4.5,4.3
    c2.4-0.1,4.4-2.1,4.3-4.5c0-2.4-2-4.4-4.4-4.4C563.8,209.7,563.7,209.7,563.7,209.8L563.7,209.8z M563.7,217.8
    c-2.1,0-3.8-1.7-3.8-3.8s1.7-3.8,3.8-3.8c2.1,0,3.8,1.7,3.8,3.8c0,0,0,0.1,0,0.1c0,2.1-1.7,3.8-3.8,3.8V217.8z M277.7,210.5
    c-6.5,0-9.8-5.9-9.8-11.5s3.6-11.2,9.5-11.2c2.8,0,6.3,1.4,7.7,3.4l6.8-6.9c-3.9-3.7-9.1-5.8-14.5-5.6c-12,0-20.7,8.6-20.7,20.4
    c0,12,8.6,20.5,21,20.5c5.8,0,11.2-1.7,14.4-5.2l-6.7-7.2C283.4,209.3,280.6,210.5,277.7,210.5z M239.2,218.5H250v-38.7h-10.7
    L239.2,218.5z M219.7,201c0,4.5-3,9.4-8.4,9.4c-4.3,0-6.6-3-6.6-9.3v-21.2H194v24c0,8,4,15.8,14.7,15.8c5,0,9.2-4,11.3-7h0.2v5.9
    h10.2v-38.8h-10.7V201z M174.7,184.7h-0.2c-1.5-1.7-5.6-6-12.2-6c-10.9,0-19.3,8.5-19.3,20.3c0,12,7.8,20.6,18.8,20.6
    c4.8-0.1,9.2-2.2,12.4-5.8h0.2v23.7H185v-57.7h-10.2L174.7,184.7z M164.4,210.5c-6.6,0-10.4-5.8-10.4-11.5c0-5.5,3.4-11.3,10.4-11.3
    c6.3,0,10.2,6,10.2,11.4C174.6,204.5,170.8,210.5,164.4,210.5z M407.7,178.7c-12.1,0-21,8.5-21,20.3c0,12.2,9,20.7,21,20.7
    s21-8.6,21-20.7C428.7,187.2,419.9,178.7,407.7,178.7z M407.7,210.5c-7,0-10.1-6-10.1-11.5s3.2-11.3,10.1-11.3S418,193.5,418,199
    S414.8,210.5,407.7,210.5L407.7,210.5z M541.3,194.7c-5.5-1.3-7.5-2-7.5-4.3c0-3,4-3.7,5.7-3.7c3.3,0,7,2,8.5,3.8l6.3-6
    c-3-3.6-8.7-5.7-14.7-5.7c-7.8,0-15.9,3.9-15.9,12.5c0,7.5,5.9,9.7,11.6,11.1c6,1.4,8.2,2.4,8.2,4.9c0,3.5-4,4.1-5.5,4.1
    c-3.7-0.2-7.2-1.8-9.7-4.6l-6.5,6.6c3.5,4,9.6,6.3,15.8,6.3c10.5,0,16.7-5,16.7-13.2C554.3,198.7,546.7,196,541.3,194.7L541.3,194.7
    z M521,179.8h-13.8l-13.8,16h-0.2v-37.3h-10.7v60h10.7v-19h0.2l14.3,19h14l-16.6-21.1L521,179.8z M362.6,178.8c-5,0-8.5,2-12,5.2
    h-0.1v-25.5h-10.7v60H350V213h0.2c2.7,4.1,7.2,6.5,12.1,6.5c11,0,19.4-8.6,19.4-20.5c0-11.8-8.2-20.3-19.1-20.3V178.8z M360.5,210.5
    c-6.5,0-10.3-5.8-10.3-11.4c0-5.6,4-11.4,10.3-11.4c6.9,0,10.3,5.8,10.3,11.3C370.8,204.7,367.1,210.5,360.5,210.5z M335.8,179.8
    H322l-13.8,16H308v-37.3h-10.7v60H308v-19h0.2l14.3,19h14L320,197.4L335.8,179.8z M454.6,178.8c-12.2,0-21,8.5-21,20.2
    c0,12.2,9,20.7,21,20.7s21-8.6,21-20.7c0-11.8-8.9-20.3-21-20.3V178.8z M454.6,210.5c-7,0-10.2-6-10.2-11.5s3.2-11.3,10.2-11.3
    s10.1,5.8,10.1,11.3S461.5,210.5,454.6,210.5z"/>
<circle class="st0" cx="86" cy="181" r="45"/>
<path class="st1" d="M53.5,181c0,9.7,7.8,17.5,17.5,17.5h2.5V192H71c-6.1,0-11-4.9-11-11s4.9-11,11-11h6v34c0,3.6,2.9,6.5,6.5,6.5
    l0,0v-47H71C61.3,163.5,53.5,171.3,53.5,181z M101,163.5h-2.5v6.5h2.5c6.1,0,11,4.9,11,11s-4.9,11-11,11h-6v-34
    c0-3.6-2.9-6.5-6.5-6.5v47H101c9.7,0,17.5-7.8,17.5-17.5S110.7,163.5,101,163.5z"/>
<path d="M187,146.3c1.7,0,3-1.3,3-3c0-1.7-1.3-3-3-3s-3,1.3-3,3C184,145,185.3,146.3,187,146.3z M169.3,148.3c-2.5,0-4.9,1.4-6,3.7
    h-0.2v-3.2h-4.6v19.7h4.9v-10.8c0-2.6,1.5-5.3,4.6-5.3c3.1,0,3.7,2.9,3.7,5.2v11h4.9v-12.5c0-4-2.1-8-7.3-8V148.3z M148.5,168.5h5
    v-19.7h-5V168.5z M238,146.2c1.7,0,3-1.3,3-3c0-1.7-1.3-3-3-3s-3,1.3-3,3C235,144.9,236.3,146.2,238,146.2z M230,148.8v4.4h5.5v15.3
    h5v-15.3h5.5v-4.4H230z M221.6,168.5h5v-19.7h-5V168.5z M179.1,153.2h5.5v15.3h5v-15.3h5.5v-4.4h-16V153.2z M211.7,159.7
    c0,2.6-1.5,5.3-4.6,5.3s-3.7-3-3.7-5.3v-10.9h-5v12.3c0,4,2.2,8,7.3,8c2.6,0,4.9-1.4,6.1-3.7h0.1v3.2h4.7v-19.8h-5L211.7,159.7
    L211.7,159.7z"/>
</svg>

