<svg viewBox="141.137 302.931 505.589 505.597" width="505.589" height="505.597" xmlns="http://www.w3.org/2000/svg">
  <defs>
    <clipPath clipPathUnits="userSpaceOnUse" id="clipPath18">
      <path d="M 0,858.897 H 612.288 V 0 H 0 Z" id="path16"/>
    </clipPath>
  </defs>
  <g id="g10" transform="matrix(1.333333, 0, 0, -1.333333, 0, 1145.196045)">
    <g id="g12">
      <g id="g14" clip-path="url(#clipPath18)">
        <g id="g20" transform="translate(105.853,442.0996)">
          <path d="m 0,0 c 0,104.714 84.894,189.599 189.599,189.599 104.714,0 189.593,-84.885 189.593,-189.599 0,-104.708 -84.879,-189.599 -189.593,-189.599 C 84.894,-189.599 0,-104.708 0,0" style="fill:#2ca44a;fill-opacity:1;fill-rule:nonzero;stroke:none" id="path22"/>
        </g>
        <g id="g24" transform="translate(158.498,442.1055)">
          <path d="m 0,0 c 0,-40.724 33.012,-73.725 73.736,-73.725 h 10.532 v 27.376 H 73.736 c -25.553,0 -46.349,20.793 -46.349,46.349 0,25.553 20.796,46.349 46.349,46.349 H 99.048 V -96.905 c 0,-15.127 12.255,-27.381 27.388,-27.381 V 73.73 h -52.7 C 33.012,73.73 0,40.724 0,0 M 200.172,73.719 H 189.637 V 46.334 h 10.535 c 25.557,0 46.349,-20.792 46.349,-46.346 0,-25.555 -20.792,-46.348 -46.349,-46.348 H 174.863 V 96.89 c 0,15.128 -12.269,27.39 -27.391,27.39 V -73.735 h 52.7 c 40.719,0 73.736,33.003 73.736,73.723 0,40.724 -33.017,73.731 -73.736,73.731" style="fill:#ffffff;fill-opacity:1;fill-rule:nonzero;stroke:none" id="path26"/>
        </g>
      </g>
    </g>
  </g>
</svg>
