<svg xmlns="http://www.w3.org/2000/svg" xmlns:xlink="http://www.w3.org/1999/xlink" width="359px" height="158px" viewBox="0 0 359 158"><!-- Generator: Sketch 40.3 (33839) - http://www.bohemiancoding.com/sketch --><title>logotype-05b-qblogo</title><desc>Created with Sketch.</desc><defs></defs><g id="Page-1" stroke="none" stroke-width="1" fill="none" fill-rule="evenodd"><g id="Logos" transform="translate(-377.000000, -1481.000000)"><g id="logotype-05b-qblogo" transform="translate(377.000000, 1481.000000)"><path d="M336.299523,121.687731 C331.657885,120.584527 330.021448,119.990882 330.021448,118.118294 C330.021448,115.536864 333.306144,114.970967 334.793123,114.970967 C337.592291,114.970967 340.753705,116.635023 341.942613,118.214992 L347.2623,113.133695 C344.801734,110.057001 339.965041,108.263453 334.858141,108.263453 C328.330126,108.263453 321.475329,111.533545 321.475329,118.838067 C321.475329,125.110018 326.411661,127.002786 331.242443,128.155601 C336.333299,129.335323 338.150436,130.198883 338.150436,132.241323 C338.150436,135.251591 334.719661,135.743492 333.539197,135.743492 C330.588882,135.743492 327.168239,134.060937 325.324081,131.880596 L319.848181,137.408388 C322.839871,140.712114 327.960281,142.699899 333.210727,142.699899 C342.028741,142.699899 347.2623,138.513274 347.2623,131.605636 C347.2623,124.996502 340.857566,122.774958 336.299523,121.687731 L336.299523,121.687731 Z M183.712331,134.951405 C178.271052,134.951405 175.019288,130.117319 175.019288,125.443838 C175.019288,120.809035 178.342825,115.806779 183.712331,115.806779 C189.549632,115.806779 192.452661,120.73504 192.452661,125.313505 C192.452661,130.103025 189.290403,134.951405 183.712331,134.951405 L183.712331,134.951405 Z M185.48556,108.263453 C181.359848,108.263453 178.320871,110.059523 175.451618,112.737652 L175.281894,112.737652 L175.281894,91.2537625 L166.262914,91.2537625 L166.262914,141.70937 L174.888406,141.70937 L174.888406,137.111566 L175.02351,137.111566 C177.057656,140.43295 181.098085,142.625063 185.288816,142.625063 C194.600801,142.625063 201.659097,135.344926 201.659097,125.313505 C201.659097,115.434279 194.683552,108.263453 185.48556,108.263453 L185.48556,108.263453 Z M162.869292,109.179146 L151.236066,109.179146 L139.58933,122.677419 L139.389208,122.677419 L139.389208,91.2537625 L130.368539,91.2537625 L130.368539,141.70937 L139.389208,141.70937 L139.389208,125.664983 L139.590174,125.664983 L151.672618,141.70937 L163.543119,141.70937 L149.49999,123.931977 L162.869292,109.179146 L162.869292,109.179146 Z M263.163963,134.951405 C257.281065,134.951405 254.601801,129.955875 254.601801,125.313505 C254.601801,120.73504 257.281065,115.806779 263.163963,115.806779 C269.046017,115.806779 271.724437,120.73504 271.724437,125.313505 C271.724437,129.955875 269.046017,134.951405 263.163963,134.951405 L263.163963,134.951405 Z M263.163963,108.263453 C252.899501,108.263453 245.451095,115.434279 245.451095,125.313505 C245.451095,135.537482 253.065847,142.712512 263.163963,142.712512 C273.261235,142.712512 280.875987,135.468532 280.875987,125.313505 C280.875987,115.434279 273.426737,108.263453 263.163963,108.263453 L263.163963,108.263453 Z M319.246972,109.179146 L307.613746,109.179146 L295.967009,122.677419 L295.766888,122.677419 L295.766888,91.2537625 L286.746219,91.2537625 L286.746219,141.70937 L295.766888,141.70937 L295.766888,125.664983 L295.967009,125.664983 L308.050298,141.70937 L319.920799,141.70937 L305.87767,123.931977 L319.246972,109.179146 L319.246972,109.179146 Z M223.526387,134.951405 C217.643489,134.951405 214.964224,129.955875 214.964224,125.313505 C214.964224,120.73504 217.643489,115.806779 223.526387,115.806779 C229.40844,115.806779 232.087705,120.73504 232.087705,125.313505 C232.087705,129.955875 229.40844,134.951405 223.526387,134.951405 L223.526387,134.951405 Z M223.526387,108.263453 C213.261924,108.263453 205.813519,115.434279 205.813519,125.313505 C205.813519,135.537482 213.42827,142.712512 223.526387,142.712512 C233.623659,142.712512 241.23841,135.468532 241.23841,125.313505 C241.23841,115.434279 233.78916,108.263453 223.526387,108.263453 L223.526387,108.263453 Z M18.0598199,134.951405 C12.4825928,134.951405 9.31104628,130.103025 9.31104628,125.313505 C9.31104628,120.73504 12.2225193,115.806779 18.0598199,115.806779 C23.429326,115.806779 26.7520192,120.809035 26.7520192,125.443838 C26.7520192,130.117319 23.5010995,134.951405 18.0598199,134.951405 L18.0598199,134.951405 Z M26.817882,113.309434 L26.6186048,113.309434 C25.3435688,111.906044 21.8916832,108.263453 16.2857466,108.263453 C7.08859938,108.263453 0.00159451381,115.434279 0.00159451381,125.313505 C0.00159451381,135.344926 6.5414316,142.625063 15.8534165,142.625063 C20.0813009,142.625063 24.0524893,140.39427 26.3551537,137.799386 L26.4894124,137.799386 L26.4894124,157.727691 L35.5092368,157.727691 L35.5092368,109.179146 L26.817882,109.179146 L26.817882,113.309434 L26.817882,113.309434 Z M81.195213,141.70937 L90.2150374,141.70937 L90.2150374,109.179146 L81.195213,109.179146 L81.195213,141.70937 L81.195213,141.70937 Z M64.7928456,127.014558 C64.7928456,130.837093 62.2900597,134.951405 57.6264676,134.951405 C54.0318793,134.951405 52.1117257,132.397723 52.1117257,127.145732 L52.1117257,109.179146 L43.0919014,109.179146 L43.0919014,129.368957 C43.0919014,136.086561 46.4576587,142.625063 55.4597508,142.625063 C59.704523,142.625063 63.2602692,139.297793 65.0520748,136.841651 L65.1871779,136.841651 L65.1871779,141.70937 L73.81267,141.70937 L73.81267,109.179146 L64.7928456,109.179146 L64.7928456,127.014558 L64.7928456,127.014558 Z M113.709476,134.951405 C108.217533,134.951405 105.448762,130.065186 105.448762,125.340412 C105.448762,120.616479 108.453119,115.937952 113.446025,115.937952 C115.784154,115.937952 118.74038,117.105062 119.899734,118.747255 L125.714236,112.978978 C122.899868,110.02673 118.414443,108.263453 113.446025,108.263453 C103.334398,108.263453 95.996608,115.489776 95.996608,125.443838 C95.996608,135.560185 103.252492,142.625063 113.642769,142.625063 C118.587544,142.625063 123.156564,141.184676 125.865382,138.28372 L120.210471,132.241323 C118.904192,133.824657 116.16582,134.951405 113.709476,134.951405 L113.709476,134.951405 Z" id="Fill-1" fill="#000000"></path><path d="M354.527303,137.765752 L354.527303,136.568372 L355.218018,136.568372 C355.614039,136.568372 356.059035,136.68357 356.059035,137.142677 C356.059035,137.650555 355.565064,137.765752 355.136956,137.765752 L354.527303,137.765752 Z M356.815613,137.158654 C356.815613,136.257255 356.042147,135.929321 355.250949,135.929321 L353.769881,135.929321 L353.769881,140.126878 L354.527303,140.126878 L354.527303,138.372851 L355.071093,138.372851 L356.059035,140.126878 L356.98027,140.126878 L355.844559,138.290447 C356.437324,138.159273 356.815613,137.765752 356.815613,137.158654 L356.815613,137.158654 Z M355.234906,141.193084 C353.490386,141.193084 352.073492,139.76615 352.073492,138.044917 C352.073492,136.306025 353.490386,134.895908 355.234906,134.895908 C356.98027,134.895908 358.39632,136.306025 358.39632,138.044917 C358.39632,139.76615 356.98027,141.193084 355.234906,141.193084 L355.234906,141.193084 Z M355.234906,134.322444 C353.160228,134.322444 351.481571,135.978932 351.481571,138.044917 C351.481571,140.110902 353.160228,141.733755 355.234906,141.733755 C357.309584,141.733755 358.989085,140.110902 358.989085,138.044917 C358.989085,135.978932 357.309584,134.322444 355.234906,134.322444 L355.234906,134.322444 Z" id="Fill-3" fill="#000000"></path><path d="M135.634016,38.7061032 C135.634016,17.8074502 152.646881,0.867550589 173.631778,0.867550589 C194.61752,0.867550589 211.629541,17.8074502 211.629541,38.7061032 C211.629541,59.6030745 194.61752,76.5446558 173.631778,76.5446558 C152.646881,76.5446558 135.634016,59.6030745 135.634016,38.7061032" id="Fill-5" fill="#2CA01C"></path><path d="M186.301414,23.9921195 L184.190428,23.9921195 L184.190428,29.4576882 L186.301414,29.4576882 C191.422668,29.4576882 195.589756,33.6073162 195.589756,38.7071122 C195.589756,43.8069082 191.422668,47.9565362 186.301414,47.9565362 L181.228291,47.9565362 L181.228291,19.3674076 C181.228291,16.3487319 178.771102,13.9018388 175.739725,13.9018388 L175.739725,53.4221049 L186.301414,53.4221049 C194.462489,53.4221049 201.078322,46.8339925 201.078322,38.7071122 C201.078322,30.580232 194.462489,23.9921195 186.301414,23.9921195 M146.185066,38.7045896 C146.185066,46.8314699 152.800898,53.4195823 160.961973,53.4195823 L163.07296,53.4195823 L163.07296,47.9540136 L160.961973,47.9540136 C155.840719,47.9540136 151.673631,43.8052265 151.673631,38.7045896 C151.673631,33.6047936 155.840719,29.4551657 160.961973,29.4551657 L166.035097,29.4551657 L166.035097,58.0442943 C166.035097,61.0629699 168.492285,63.509863 171.523662,63.509863 L171.523662,23.989597 L160.961973,23.989597 C152.800898,23.989597 146.185066,30.5785503 146.185066,38.7045896" id="Fill-7" fill="#FFFFFF"></path><path d="M50.950683,99.7985485 L54.0664995,99.7985485 L54.0664995,87.3858215 L50.950683,87.3858215 L50.950683,99.7985485 Z M56.2492598,87.3782538 L56.2492598,90.1278553 L59.7442096,90.1278553 L59.7442096,99.7985485 L62.8600261,99.7985485 L62.8600261,90.1278553 L66.3541314,90.1278553 L66.3541314,87.3782538 L56.2492598,87.3782538 Z M44.6438988,94.2127373 C44.6438988,95.8675433 43.7083095,97.5744825 41.7358034,97.5744825 C39.7362767,97.5744825 39.3985189,95.7388922 39.3985189,94.2640295 L39.3985189,87.3858215 L36.2827023,87.3858215 L36.2827023,95.1435657 C36.2827023,97.6787487 37.6320451,100.160117 40.8787428,100.160117 C42.7220565,100.160117 44.2031248,99.0485043 44.7477594,97.8073998 L44.8001119,97.8073998 L44.8001119,99.7985485 L47.7597154,99.7985485 L47.7597154,87.3858215 L44.6438988,87.3858215 L44.6438988,94.2127373 Z M24.0085807,90.1278553 L27.5026861,90.1278553 L27.5026861,99.7985485 L30.6185026,99.7985485 L30.6185026,90.1278553 L34.1126079,90.1278553 L34.1126079,87.3782538 L24.0085807,87.3782538 L24.0085807,90.1278553 Z M29.0605943,85.7604455 C30.1008886,85.7604455 30.9435945,84.9204296 30.9435945,83.885335 C30.9435945,82.8502404 30.1008886,82.0102245 29.0605943,82.0102245 C28.0211444,82.0102245 27.1775941,82.8502404 27.1775941,83.885335 C27.1775941,84.9204296 28.0211444,85.7604455 29.0605943,85.7604455 L29.0605943,85.7604455 Z M61.3021178,85.7604455 C62.3415677,85.7604455 63.1842737,84.9204296 63.1842737,83.885335 C63.1842737,82.8502404 62.3415677,82.0102245 61.3021178,82.0102245 C60.2618235,82.0102245 59.4191176,82.8502404 59.4191176,83.885335 C59.4191176,84.9204296 60.2618235,85.7604455 61.3021178,85.7604455 L61.3021178,85.7604455 Z M4.63478833,99.7985485 L7.75060484,99.7985485 L7.75060484,87.3858215 L4.63478833,87.3858215 L4.63478833,99.7985485 Z M17.8242338,87.0234123 C15.9809202,87.0234123 14.5006962,88.1358657 13.9560616,89.3769703 L13.9037091,89.3769703 L13.9037091,87.3858215 L10.9441057,87.3858215 L10.9441057,99.7985485 L14.0590778,99.7985485 L14.0590778,92.9707919 C14.0590778,91.3168267 14.9946671,89.6090467 16.9680176,89.6090467 C18.9675443,89.6090467 19.3053022,91.4463187 19.3053022,92.9194996 L19.3053022,99.7985485 L22.4211187,99.7985485 L22.4211187,92.0408044 C22.4211187,89.5064622 21.0709315,87.0234123 17.8242338,87.0234123 L17.8242338,87.0234123 Z" id="Fill-9" fill="#000000"></path></g></g></g></svg> 

