<svg width="119" height="24" viewBox="0 0 119 24" fill="none" xmlns="http://www.w3.org/2000/svg">
<path d="M118.443 16.6829C118.443 16.4677 118.229 16.3817 118.036 16.3817H117.672V17.4576H117.865V17.0272H118.015L118.25 17.4576H118.486L118.207 16.9842C118.336 16.9627 118.443 16.8336 118.443 16.7044V16.6829ZM117.865 16.8551V16.5538H118.036C118.143 16.5538 118.25 16.5753 118.25 16.7044C118.25 16.8336 118.122 16.8551 118.015 16.8551H117.865ZM118.036 15.9943C117.523 16.0158 117.094 16.4462 117.116 16.9627C117.137 17.4791 117.565 17.9095 118.079 17.888C118.593 17.8665 119.021 17.4361 118.999 16.9196C118.999 16.4032 118.571 15.9728 118.058 15.9728C118.058 15.9728 118.036 15.9728 118.036 15.9943ZM118.036 17.7158C117.587 17.7158 117.223 17.35 117.223 16.8981C117.223 16.4462 117.587 16.0804 118.036 16.0804C118.486 16.0804 118.849 16.4462 118.849 16.8981V16.9196C118.849 17.3715 118.486 17.7374 118.036 17.7374V17.7158ZM56.8278 16.145C55.4367 16.145 54.7305 14.8753 54.7305 13.6703C54.7305 12.4652 55.5009 11.2601 56.7636 11.2601C57.3629 11.2601 58.1119 11.5614 58.4115 11.9918L59.8668 10.507C59.0322 9.71077 57.9193 9.25887 56.7636 9.30191C54.1954 9.30191 52.3335 11.1525 52.3335 13.6918C52.3335 16.2741 54.1741 18.1032 56.8278 18.1032C58.0691 18.1032 59.2248 17.7374 59.9097 16.9842L58.4757 15.4348C58.0477 15.8867 57.4485 16.145 56.8278 16.145ZM48.5883 17.8665H50.8996V9.53862H48.6097L48.5883 17.8665ZM44.415 14.1006C44.415 15.069 43.7729 16.1234 42.6172 16.1234C41.697 16.1234 41.2047 15.4779 41.2047 14.1222V9.56014H38.9148V14.7247C38.9148 16.4462 39.7708 18.1247 42.0608 18.1247C43.1309 18.1247 44.0297 17.2639 44.4792 16.6184H44.522V17.888H46.7049V9.53862H44.415V14.1006ZM34.7843 10.5931H34.7415C34.4205 10.2272 33.543 9.30191 32.1305 9.30191C29.7977 9.30191 28 11.131 28 13.6703C28 16.2525 29.6693 18.1032 32.0235 18.1032C33.0508 18.0817 33.9924 17.6298 34.6773 16.8551H34.7201V21.9551H36.9886V9.53862H34.8057L34.7843 10.5931ZM32.5799 16.145C31.1674 16.145 30.3542 14.8969 30.3542 13.6703C30.3542 12.4867 31.0818 11.2386 32.5799 11.2386C33.9282 11.2386 34.7629 12.5298 34.7629 13.6918C34.7629 14.8538 33.9496 16.145 32.5799 16.145ZM84.6498 9.30191C82.0602 9.30191 80.1555 11.131 80.1555 13.6703C80.1555 16.2956 82.0816 18.1247 84.6498 18.1247C87.218 18.1247 89.1441 16.2741 89.1441 13.6703C89.1441 11.131 87.2608 9.30191 84.6498 9.30191ZM84.6498 16.145C83.1517 16.145 82.4882 14.8538 82.4882 13.6703C82.4882 12.4867 83.1731 11.2386 84.6498 11.2386C86.1265 11.2386 86.8542 12.4867 86.8542 13.6703C86.8542 14.8538 86.1693 16.145 84.6498 16.145ZM113.242 12.745C112.065 12.4652 111.637 12.3146 111.637 11.8196C111.637 11.1741 112.493 11.0234 112.857 11.0234C113.563 11.0234 114.355 11.4538 114.676 11.8412L116.024 10.55C115.382 9.77533 114.162 9.32343 112.878 9.32343C111.209 9.32343 109.476 10.1627 109.476 12.0133C109.476 13.6272 110.738 14.1006 111.958 14.4019C113.242 14.7032 113.713 14.9184 113.713 15.4563C113.713 16.2095 112.857 16.3386 112.536 16.3386C111.744 16.2956 110.995 15.9513 110.46 15.3488L109.069 16.769C109.818 17.6298 111.123 18.1247 112.45 18.1247C114.698 18.1247 116.024 17.0487 116.024 15.2842C116.024 13.6057 114.398 13.0247 113.242 12.745ZM108.898 9.53862H105.944L102.991 12.9817H102.948V4.95508H100.658V17.8665H102.948V13.7779H102.991L106.051 17.8665H109.048L105.495 13.326L108.898 9.53862ZM74.9977 9.32343C73.9276 9.32343 73.1786 9.75381 72.4295 10.4424H72.4081V4.95508H70.1182V17.8665H72.3011V16.6829H72.3439C72.9218 17.5652 73.8848 18.0817 74.9335 18.0817C77.2877 18.0817 79.0854 16.231 79.0854 13.6703C79.0854 11.131 77.3305 9.30191 74.9977 9.30191V9.32343ZM74.5483 16.145C73.1572 16.145 72.3439 14.8969 72.3439 13.6918C72.3439 12.4867 73.2 11.2386 74.5483 11.2386C76.025 11.2386 76.7526 12.4867 76.7526 13.6703C76.7526 14.8969 75.9608 16.145 74.5483 16.145ZM69.2621 9.53862H66.3087L63.3553 12.9817H63.3125V4.95508H61.0225V17.8665H63.3125V13.7779H63.3553L66.4157 17.8665H69.4119L65.8807 13.326L69.2621 9.53862ZM94.6871 9.32343C92.0761 9.32343 90.1928 11.1525 90.1928 13.6703C90.1928 16.2956 92.1189 18.1247 94.6871 18.1247C97.2553 18.1247 99.1814 16.2741 99.1814 13.6703C99.1814 11.131 97.2767 9.30191 94.6871 9.30191V9.32343ZM94.6871 16.145C93.189 16.145 92.5042 14.8538 92.5042 13.6703C92.5042 12.4867 93.189 11.2386 94.6871 11.2386C96.1852 11.2386 96.8487 12.4867 96.8487 13.6703C96.8487 14.8538 96.1638 16.145 94.6871 16.145Z" fill="black"/>
<path d="M0 12C0 5.3725 5.37307 0 12 0C18.6275 0 23.9996 5.3725 23.9996 12C23.9996 18.6271 18.6275 24 12 24C5.37307 24 0 18.6271 0 12Z" fill="#2CA44A"/>
<path d="M3.33191 12.0003C3.33191 14.5778 5.42129 16.6664 7.99877 16.6664H8.66536V14.9338H7.99877C6.38148 14.9338 5.06527 13.6177 5.06527 12.0003C5.06527 10.383 6.38148 9.06677 7.99877 9.06677H9.6008V18.1335C9.6008 19.0909 10.3764 19.8665 11.3342 19.8665V7.33379H7.99877C5.42129 7.33379 3.33191 9.42279 3.33191 12.0003ZM16.0011 7.33449H15.3343V9.06773H16.0011C17.6186 9.06773 18.9346 10.3837 18.9346 12.001C18.9346 13.6184 17.6186 14.9345 16.0011 14.9345H14.3992V5.86796C14.3992 4.91049 13.6227 4.13441 12.6656 4.13441V16.6671H16.0011C18.5783 16.6671 20.6679 14.5783 20.6679 12.001C20.6679 9.42355 18.5783 7.33449 16.0011 7.33449Z" fill="white"/>
<path d="M37.4808 2.26644C37.8469 2.26644 38.1269 1.99654 38.1269 1.6436C38.1269 1.29066 37.8469 1.02076 37.4808 1.02076C37.1146 1.02076 36.8346 1.29066 36.8346 1.6436C36.8346 1.99654 37.1146 2.26644 37.4808 2.26644ZM33.6685 2.68166C33.13 2.68166 32.6131 2.97232 32.3762 3.44983H32.3331V2.78547H31.3423V6.87543H32.3977V4.63322C32.3977 4.09342 32.7208 3.53287 33.3885 3.53287C34.0562 3.53287 34.1854 4.13495 34.1854 4.61246V6.89619H35.2408V4.30104C35.2408 3.47059 34.7885 2.64014 33.6685 2.64014V2.68166ZM29.1885 6.87543H30.2654V2.78547H29.1885V6.87543ZM48.4654 2.24567C48.8316 2.24567 49.1116 1.97578 49.1116 1.62284C49.1116 1.2699 48.8316 1 48.4654 1C48.0992 1 47.8192 1.2699 47.8192 1.62284C47.8192 1.97578 48.0992 2.24567 48.4654 2.24567ZM46.7423 2.78547V3.69896H47.9269V6.87543H49.0039V3.69896H50.1885V2.78547H46.7423ZM44.9331 6.87543H46.01V2.78547H44.9331V6.87543ZM35.7792 3.69896H36.9639V6.87543H38.0408V3.69896H39.2254V2.78547H35.7792V3.69896ZM42.8008 5.04844C42.8008 5.58823 42.4777 6.14879 41.81 6.14879C41.1423 6.14879 41.0131 5.52595 41.0131 5.04844V2.78547H39.9362V5.3391C39.9362 6.16955 40.41 7 41.5085 7C42.0685 7 42.5639 6.70934 42.8223 6.23183H42.8439V6.89619H43.8562V2.78547H42.7792L42.8008 5.04844Z" fill="black"/>
</svg>
