<svg width="24" height="24" viewBox="0 0 24 24" fill="none" xmlns="http://www.w3.org/2000/svg">
<path d="M0 12C0 5.3725 5.37307 0 12 0C18.6275 0 23.9996 5.3725 23.9996 12C23.9996 18.6271 18.6275 24 12 24C5.37307 24 0 18.6271 0 12Z" fill="#2CA44A"/>
<path d="M3.33191 12.0003C3.33191 14.5778 5.42129 16.6664 7.99877 16.6664H8.66536V14.9338H7.99877C6.38148 14.9338 5.06527 13.6177 5.06527 12.0003C5.06527 10.383 6.38148 9.06677 7.99877 9.06677H9.6008V18.1335C9.6008 19.0909 10.3764 19.8665 11.3342 19.8665V7.33379H7.99877C5.42129 7.33379 3.33191 9.42279 3.33191 12.0003ZM16.0011 7.33449H15.3343V9.06773H16.0011C17.6186 9.06773 18.9346 10.3837 18.9346 12.001C18.9346 13.6184 17.6186 14.9345 16.0011 14.9345H14.3992V5.86796C14.3992 4.91049 13.6227 4.13441 12.6656 4.13441V16.6671H16.0011C18.5783 16.6671 20.6679 14.5783 20.6679 12.001C20.6679 9.42355 18.5783 7.33449 16.0011 7.33449Z" fill="white"/>
</svg>
