<svg width="63" height="24" viewBox="0 0 63 24" fill="none" xmlns="http://www.w3.org/2000/svg">
<path d="M56.8657 9.9849C57.6233 9.9849 58.2375 9.36785 58.2375 8.60668C58.2375 7.84551 57.6233 7.22845 56.8657 7.22845C56.108 7.22845 55.4938 7.84551 55.4938 8.60668C55.4938 9.36785 56.108 9.9849 56.8657 9.9849Z" fill="#FF4500"/>
<path d="M37.2718 14.4834C37.9448 14.4834 38.333 13.9764 38.3072 13.4822C38.2999 13.2945 38.2783 13.1076 38.2425 12.9231C37.8283 11.129 36.379 9.80265 34.6576 9.80265C32.6129 9.80265 30.9563 11.6619 30.9563 13.9502C30.9563 16.2385 32.6129 18.0977 34.6576 18.0977C35.939 18.0977 36.8578 17.6298 37.5179 16.8887C37.8413 16.5247 37.7767 15.9656 37.3883 15.6924C37.0648 15.4714 36.6637 15.5495 36.366 15.7964C36.0813 16.0436 35.5378 16.5375 34.6576 16.5375C33.6224 16.5375 32.7424 15.6403 32.5482 14.4572H37.2718V14.4834ZM34.6448 11.376C35.5764 11.376 36.379 12.104 36.6767 13.1051H32.6129C32.9106 12.0911 33.7129 11.376 34.6448 11.376ZM31.034 10.6218C31.034 10.2318 30.7494 9.9197 30.387 9.85475C29.261 9.68583 28.1998 10.1017 27.5916 10.869V10.7648C27.5916 10.2837 27.2032 9.98489 26.8151 9.98489C26.6094 9.98547 26.4122 10.0678 26.2667 10.2139C26.1212 10.3601 26.0392 10.5581 26.0386 10.7648V17.1356C26.0386 17.5517 26.349 17.9157 26.7632 17.9417C27.2163 17.9676 27.5916 17.6167 27.5916 17.1616V13.8722C27.5916 12.4161 28.6786 11.2199 30.1798 11.3891H30.3352C30.7233 11.3629 31.034 11.0248 31.034 10.6218ZM57.6419 11.454C57.6414 11.2473 57.5594 11.0493 57.414 10.9031C57.2685 10.7569 57.0714 10.6745 56.8657 10.6739C56.6599 10.6745 56.4627 10.7568 56.3172 10.903C56.1717 11.0492 56.0897 11.2473 56.0891 11.454V17.1616C56.0897 17.3683 56.1717 17.5664 56.3172 17.7125C56.4627 17.8587 56.6599 17.9411 56.8657 17.9417C57.0714 17.941 57.2685 17.8586 57.414 17.7125C57.5594 17.5663 57.6414 17.3682 57.6419 17.1616V11.454ZM46.098 7.13754C46.0974 6.93082 46.0154 6.73273 45.8699 6.58655C45.7244 6.44037 45.5273 6.358 45.3215 6.35742C45.1158 6.35806 44.9186 6.44047 44.7732 6.58664C44.6277 6.7328 44.5458 6.93086 44.5452 7.13754V10.6089C44.0145 10.0758 43.3545 9.81573 42.5649 9.81573C40.5202 9.81573 38.8637 11.675 38.8637 13.9633C38.8637 16.2515 40.5202 18.1108 42.5649 18.1108C43.3545 18.1108 44.0275 17.8377 44.558 17.3045C44.6226 17.6688 44.9464 17.9417 45.3215 17.9417C45.5273 17.9411 45.7244 17.8587 45.8699 17.7125C46.0154 17.5664 46.0974 17.3683 46.098 17.1616V7.13754ZM42.5779 16.5634C41.3872 16.5634 40.4295 15.4065 40.4295 13.9633C40.4295 12.5332 41.3872 11.3629 42.5779 11.3629C43.7687 11.3629 44.7264 12.5201 44.7264 13.9633C44.7264 15.4065 43.7556 16.5634 42.5779 16.5634ZM54.1996 7.13754C54.199 6.93082 54.117 6.73273 53.9715 6.58655C53.826 6.44037 53.6288 6.358 53.423 6.35742C53.2173 6.358 53.0201 6.44037 52.8746 6.58655C52.7291 6.73273 52.6471 6.93082 52.6465 7.13754V10.6089C52.116 10.0758 51.456 9.81573 50.6665 9.81573C48.6218 9.81573 46.9652 11.675 46.9652 13.9633C46.9652 16.2515 48.6218 18.1108 50.6665 18.1108C51.456 18.1108 52.1288 17.8377 52.6595 17.3045C52.7242 17.6688 53.0477 17.9417 53.423 17.9417C53.6288 17.9411 53.826 17.8587 53.9715 17.7125C54.117 17.5664 54.199 17.3683 54.1996 17.1616V7.13754ZM50.6665 16.5634C49.4757 16.5634 48.5183 15.4065 48.5183 13.9633C48.5183 12.5332 49.4757 11.3629 50.6665 11.3629C51.8572 11.3629 52.8149 12.5201 52.8149 13.9633C52.8149 15.4065 51.8572 16.5634 50.6665 16.5634ZM61.5762 17.1746V11.376H62.2623C62.6246 11.376 62.9481 11.1028 62.9739 10.7258C63 10.3227 62.6765 9.98489 62.2881 9.98489H61.5762V8.89263C61.5762 8.47652 61.2657 8.11251 60.8515 8.08658C60.3985 8.06065 60.0234 8.41157 60.0234 8.8667V9.99774H59.3762C59.0138 9.99774 58.6903 10.2709 58.6645 10.648C58.6385 11.051 58.9622 11.3891 59.3503 11.3891H60.0104V17.1877C60.011 17.3944 60.093 17.5924 60.2385 17.7386C60.384 17.8847 60.5812 17.967 60.7869 17.9676C61.2399 17.9417 61.5762 17.6036 61.5762 17.1746Z" fill="#222222"/>
<path d="M10.8451 22.8952C16.8347 22.8952 21.6902 18.0173 21.6902 12C21.6902 5.98275 16.8347 1.1048 10.8451 1.1048C4.85551 1.1048 0 5.98275 0 12C0 18.0173 4.85551 22.8952 10.8451 22.8952Z" fill="#FF4500"/>
<path d="M18.0794 12C18.0797 11.7916 18.039 11.5853 17.9598 11.3927C17.8806 11.2001 17.7643 11.0251 17.6176 10.8778C17.4709 10.7304 17.2968 10.6136 17.1051 10.534C16.9134 10.4544 16.708 10.4136 16.5005 10.4139C16.0736 10.4139 15.6852 10.5828 15.4005 10.8559C14.3135 10.0758 12.8251 9.56879 11.1686 9.50384L11.8932 6.09741L14.2486 6.6044C14.2623 6.89969 14.3903 7.17791 14.6055 7.37957C14.8206 7.58122 15.1058 7.69031 15.3999 7.68351C15.6941 7.6767 15.9739 7.55454 16.1796 7.34315C16.3853 7.13175 16.5005 6.8479 16.5005 6.5523C16.5003 6.25239 16.3817 5.96482 16.1706 5.75275C15.9595 5.54068 15.6732 5.42146 15.3747 5.42126C15.1639 5.42182 14.9575 5.48184 14.779 5.59448C14.6006 5.70713 14.4571 5.86787 14.3652 6.0584L11.7381 5.4993C11.6605 5.48621 11.5828 5.4993 11.5309 5.53832C11.4663 5.57734 11.4274 5.64229 11.4146 5.72032L10.6121 9.51669C8.92971 9.56879 7.4155 10.0758 6.31548 10.869C6.01923 10.5847 5.62514 10.4263 5.21546 10.4269C5.00804 10.4267 4.8026 10.4675 4.61092 10.5471C4.41923 10.6267 4.24507 10.7435 4.0984 10.8909C3.95173 11.0382 3.83544 11.2132 3.7562 11.4058C3.67696 11.5983 3.63631 11.8047 3.6366 12.0131C3.6366 12.6631 4.02474 13.2091 4.56848 13.4563C4.54207 13.6153 4.52908 13.7762 4.52964 13.9373C4.52964 16.3814 7.36388 18.3708 10.8581 18.3708C14.3524 18.3708 17.1866 16.3945 17.1866 13.9373C17.1866 13.7813 17.1736 13.6121 17.1478 13.4563C17.4256 13.3287 17.6611 13.1236 17.8263 12.8655C17.9914 12.6073 18.0793 12.3069 18.0794 12ZM7.23433 13.1311C7.23453 12.8311 7.35323 12.5435 7.56438 12.3314C7.77552 12.1193 8.06183 12.0001 8.3604 12C8.98158 12 9.48624 12.507 9.48624 13.1311C9.48624 13.7551 8.98158 14.2623 8.3604 14.2623C7.73899 14.2752 7.23433 13.7551 7.23433 13.1311ZM13.537 16.1345C12.7605 16.9146 11.2851 16.9667 10.8581 16.9667C10.4181 16.9667 8.94274 16.9015 8.179 16.1345C8.15139 16.1074 8.12945 16.075 8.11447 16.0393C8.09949 16.0036 8.09178 15.9652 8.09178 15.9264C8.09178 15.8876 8.09949 15.8493 8.11447 15.8135C8.12945 15.7778 8.15139 15.7454 8.179 15.7184C8.20596 15.6906 8.23817 15.6686 8.27374 15.6535C8.3093 15.6385 8.34751 15.6307 8.3861 15.6307C8.42469 15.6307 8.46289 15.6385 8.49845 15.6535C8.53402 15.6686 8.56623 15.6906 8.59319 15.7184C9.08507 16.2125 10.1204 16.3814 10.8581 16.3814C11.5958 16.3814 12.644 16.2125 13.1228 15.7184C13.1498 15.6906 13.182 15.6686 13.2175 15.6535C13.2531 15.6385 13.2913 15.6307 13.3299 15.6307C13.3685 15.6307 13.4067 15.6385 13.4423 15.6535C13.4778 15.6686 13.51 15.6906 13.537 15.7184C13.5871 15.776 13.6146 15.8499 13.6146 15.9264C13.6146 16.0029 13.5871 16.0768 13.537 16.1345ZM13.3298 14.2752C12.7086 14.2752 12.204 13.7682 12.204 13.1441C12.204 12.5201 12.7086 12.0131 13.3298 12.0131C13.6284 12.0132 13.9147 12.1324 14.1258 12.3445C14.337 12.5566 14.4557 12.8442 14.4559 13.1441C14.4559 13.7551 13.9512 14.2752 13.3298 14.2752Z" fill="white"/>
</svg>
