<svg width="24" height="24" viewBox="0 0 24 24" fill="none" xmlns="http://www.w3.org/2000/svg">
<path d="M11.986 23.9162C18.5749 23.9162 23.9162 18.5749 23.9162 11.986C23.9162 5.39713 18.5749 0.0557861 11.986 0.0557861C5.39713 0.0557861 0.0557861 5.39713 0.0557861 11.986C0.0557861 18.5749 5.39713 23.9162 11.986 23.9162Z" fill="#FF4500"/>
<path d="M19.9395 11.9861C19.9395 11.0233 19.1581 10.2419 18.1953 10.2419C17.7209 10.2419 17.3023 10.4233 16.9953 10.7302C15.8093 9.87907 14.1628 9.32093 12.3488 9.25117L13.1441 5.52558L15.7255 6.06977C15.7535 6.72558 16.2976 7.25582 16.9674 7.25582C17.6511 7.25582 18.2093 6.69768 18.2093 6.01396C18.2093 5.33023 17.6511 4.77209 16.9674 4.77209C16.479 4.77209 16.0604 5.05116 15.8651 5.46977L12.9767 4.85582C12.893 4.84186 12.8093 4.85582 12.7395 4.89768C12.6697 4.93954 12.6279 5.0093 12.6 5.09302L11.7209 9.25117C9.86508 9.30698 8.20461 9.85117 7.00461 10.7302C6.69763 10.4372 6.26508 10.2419 5.80461 10.2419C4.84182 10.2419 4.06042 11.0233 4.06042 11.9861C4.06042 12.6977 4.47903 13.2977 5.09298 13.5767C5.06508 13.7442 5.05112 13.9256 5.05112 14.107C5.05112 16.7861 8.16275 18.9488 12.0139 18.9488C15.8651 18.9488 18.9767 16.7861 18.9767 14.107C18.9767 13.9256 18.9628 13.7581 18.9348 13.5907C19.5069 13.3116 19.9395 12.6977 19.9395 11.9861ZM8.00926 13.2279C8.00926 12.5442 8.5674 11.9861 9.25112 11.9861C9.93485 11.9861 10.493 12.5442 10.493 13.2279C10.493 13.9116 9.93485 14.4698 9.25112 14.4698C8.5674 14.4698 8.00926 13.9116 8.00926 13.2279ZM14.9441 16.507C14.093 17.3581 12.4744 17.414 12 17.414C11.5255 17.414 9.89298 17.3442 9.05578 16.507C8.93019 16.3814 8.93019 16.1721 9.05578 16.0465C9.18136 15.9209 9.39066 15.9209 9.51624 16.0465C10.0465 16.5767 11.1907 16.7721 12.0139 16.7721C12.8372 16.7721 13.9674 16.5767 14.5116 16.0465C14.6372 15.9209 14.8465 15.9209 14.9721 16.0465C15.0697 16.1861 15.0697 16.3814 14.9441 16.507ZM14.7209 14.4698C14.0372 14.4698 13.479 13.9116 13.479 13.2279C13.479 12.5442 14.0372 11.9861 14.7209 11.9861C15.4046 11.9861 15.9628 12.5442 15.9628 13.2279C15.9628 13.9116 15.4046 14.4698 14.7209 14.4698Z" fill="white"/>
</svg>
