<svg width="172px" height="172px" viewBox="0 0 172 172" version="1.1" xmlns="http://www.w3.org/2000/svg" xmlns:xlink="http://www.w3.org/1999/xlink">
    <g id="Page-1" stroke="none" stroke-width="1" fill="none" fill-rule="evenodd">
        <g id="Reddit_Mark_OnWhite" transform="translate(-85.000000, -85.000000)">
            <g id="Artwork" transform="translate(85.000000, 85.000000)">
                <g id="Group">
                    <circle id="Oval" fill="#FF4500" cx="85.9" cy="85.9" r="85.5"></circle>
                    <path d="M142.9,85.9 C142.9,79 137.3,73.4 130.4,73.4 C127,73.4 124,74.7 121.8,76.9 C113.3,70.8 101.5,66.8 88.5,66.3 L94.2,39.6 L112.7,43.5 C112.9,48.2 116.8,52 121.6,52 C126.5,52 130.5,48 130.5,43.1 C130.5,38.2 126.5,34.2 121.6,34.2 C118.1,34.2 115.1,36.2 113.7,39.2 L93,34.8 C92.4,34.7 91.8,34.8 91.3,35.1 C90.8,35.4 90.5,35.9 90.3,36.5 L84,66.3 C70.7,66.7 58.8,70.6 50.2,76.9 C48,74.8 44.9,73.4 41.6,73.4 C34.7,73.4 29.1,79 29.1,85.9 C29.1,91 32.1,95.3 36.5,97.3 C36.3,98.5 36.2,99.8 36.2,101.1 C36.2,120.3 58.5,135.8 86.1,135.8 C113.7,135.8 136,120.3 136,101.1 C136,99.8 135.9,98.6 135.7,97.4 C139.8,95.4 142.9,91 142.9,85.9 Z M57.4,94.8 C57.4,89.9 61.4,85.9 66.3,85.9 C71.2,85.9 75.2,89.9 75.2,94.8 C75.2,99.7 71.2,103.7 66.3,103.7 C61.4,103.7 57.4,99.7 57.4,94.8 Z M107.1,118.3 C101,124.4 89.4,124.8 86,124.8 C82.6,124.8 70.9,124.3 64.9,118.3 C64,117.4 64,115.9 64.9,115 C65.8,114.1 67.3,114.1 68.2,115 C72,118.8 80.2,120.2 86.1,120.2 C92,120.2 100.1,118.8 104,115 C104.9,114.1 106.4,114.1 107.3,115 C108,116 108,117.4 107.1,118.3 Z M105.5,103.7 C100.6,103.7 96.6,99.7 96.6,94.8 C96.6,89.9 100.6,85.9 105.5,85.9 C110.4,85.9 114.4,89.9 114.4,94.8 C114.4,99.7 110.4,103.7 105.5,103.7 Z" id="Shape" fill="#FFFFFF" fill-rule="nonzero"></path>
                </g>
            </g>
        </g>
    </g>
</svg>
