<svg xmlns="http://www.w3.org/2000/svg" width="21" height="24" viewBox="0 0 21 24" fill="none">
<path fill-rule="evenodd" clip-rule="evenodd" d="M17.7188 4.64062L13.8281 12.0469L17.7188 19.4531L19.3125 18.5625V5.53125L17.7188 4.64062Z" fill="#E25444"/>
<path fill-rule="evenodd" clip-rule="evenodd" d="M17.7188 4.64062L9.9375 5.53125L5.97656 12.0469L9.9375 18.5625L17.7188 19.4531V4.64062Z" fill="#7B1D13"/>
<path fill-rule="evenodd" clip-rule="evenodd" d="M2.01562 4.64062L0.75 5.20312V18.8906L2.01562 19.4531L9.9375 12.0469L2.01562 4.64062Z" fill="#58150D"/>
<path fill-rule="evenodd" clip-rule="evenodd" d="M1.99866 4.625L9.94805 6.83333V17.4583L1.99866 19.4583V4.625Z" fill="#E25444"/>
<path fill-rule="evenodd" clip-rule="evenodd" d="M9.95216 8.00003L6.57678 7.45834L9.95216 3.625L13.3192 7.45834L9.95216 8.00003Z" fill="#58150D"/>
<path fill-rule="evenodd" clip-rule="evenodd" d="M13.3192 7.45834L9.94799 8.00833L6.57678 7.45834V3.625" fill="#58150D"/>
<path fill-rule="evenodd" clip-rule="evenodd" d="M9.95216 16.0417L6.57678 16.6668L9.95216 19.9584L13.3192 16.6668L9.95216 16.0417Z" fill="#58150D"/>
<path fill-rule="evenodd" clip-rule="evenodd" d="M9.9375 0.75L6.5625 2.53125V7.45312L9.948 6.50002L9.9375 0.75Z" fill="#7B1D13"/>
<path fill-rule="evenodd" clip-rule="evenodd" d="M9.94799 9.20825L6.57678 9.57495V14.4892L9.94799 14.8749V9.20825Z" fill="#7B1D13"/>
<path fill-rule="evenodd" clip-rule="evenodd" d="M9.94799 17.5001L6.57678 16.6548V21.4859L9.94799 23.2501V17.5001Z" fill="#7B1D13"/>
<path fill-rule="evenodd" clip-rule="evenodd" d="M13.3192 16.6548L9.948 17.5003V23.2501L13.3192 21.4859V16.6548Z" fill="#E25444"/>
<path fill-rule="evenodd" clip-rule="evenodd" d="M9.948 9.20825L13.3192 9.57495V14.4892L9.948 14.8749V9.20825Z" fill="#E25444"/>
<path fill-rule="evenodd" clip-rule="evenodd" d="M9.9375 0.75L13.3125 2.53125V7.45312L9.9375 6.51562V0.75Z" fill="#E25444"/>
</svg>