<svg width="147" height="24" viewBox="0 0 147 24" fill="none" xmlns="http://www.w3.org/2000/svg">
<g clip-path="url(#clip0_4674_9724)">
<path d="M14.1488 2.61834C15.2453 1.46621 16.7719 0.751638 18.4603 0.751638C20.7047 0.751638 22.6628 2.01365 23.7056 3.88715C24.6118 3.47888 25.6149 3.25175 26.6702 3.25175C30.7182 3.25175 34 6.58998 34 10.7077C34 14.8258 30.7182 18.1641 26.6702 18.1641C26.1853 18.1643 25.7017 18.1157 25.2264 18.019C24.3081 19.6707 22.5582 20.7868 20.5497 20.7868C19.7089 20.7868 18.9136 20.5909 18.2055 20.2427C17.2746 22.4507 15.1058 23.9989 12.5781 23.9989C9.94574 23.9989 7.70232 22.3193 6.84119 19.9638C6.46487 20.0444 6.07498 20.0864 5.67491 20.0864C2.54081 20.0864 0 17.4979 0 14.3043C0 12.1641 1.14157 10.2954 2.83769 9.2957C2.4885 8.48548 2.29427 7.5912 2.29427 6.651C2.29427 2.97825 5.25112 0.000991821 8.89814 0.000991821C11.0394 0.000991821 12.9423 1.02761 14.1488 2.61834Z" fill="#00A1E0"/>
<path d="M4.92461 12.4457C4.90331 12.5019 4.93237 12.5137 4.93914 12.5234C5.00306 12.5703 5.068 12.604 5.13338 12.6416C5.48015 12.8272 5.80759 12.8814 6.15 12.8814C6.84743 12.8814 7.28041 12.5073 7.28041 11.9051V11.8934C7.28041 11.3366 6.79175 11.1344 6.33307 10.9884L6.27351 10.9688C5.92769 10.8555 5.62935 10.7579 5.62935 10.5283V10.5161C5.62935 10.3198 5.80371 10.1752 6.07397 10.1752C6.37425 10.1752 6.73073 10.2758 6.96028 10.4038C6.96028 10.4038 7.0276 10.4477 7.05231 10.3818C7.06586 10.3466 7.18212 10.0311 7.19423 9.99693C7.2073 9.9598 7.18406 9.93245 7.16034 9.91779C6.89831 9.75711 6.53602 9.64722 6.16117 9.64722L6.09143 9.6477C5.45309 9.6477 5.00752 10.0365 5.00752 10.5937V10.6055C5.00752 11.193 5.4991 11.3834 5.95972 11.5163L6.03381 11.5393C6.36945 11.6433 6.65861 11.7326 6.65861 11.971V11.9827C6.65861 12.2006 6.47071 12.3627 6.1675 12.3627C6.04981 12.3627 5.67445 12.3602 5.26907 12.1019C5.22013 12.073 5.19157 12.0521 5.1538 12.0291C5.13395 12.0164 5.08406 11.9944 5.06228 12.0608L4.92461 12.4457V12.4457ZM15.1347 12.4457C15.1134 12.5019 15.1425 12.5137 15.1493 12.5234C15.2132 12.5703 15.2781 12.604 15.3435 12.6416C15.6902 12.8272 16.0177 12.8814 16.3601 12.8814C17.0575 12.8814 17.4905 12.5073 17.4905 11.9051V11.8934C17.4905 11.3366 17.0018 11.1344 16.5432 10.9884L16.4836 10.9688C16.1378 10.8555 15.8394 10.7579 15.8394 10.5283V10.5161C15.8394 10.3198 16.0138 10.1752 16.284 10.1752C16.5843 10.1752 16.9408 10.2758 17.1704 10.4038C17.1704 10.4038 17.2377 10.4477 17.2624 10.3818C17.2759 10.3466 17.3922 10.0311 17.4043 9.99693C17.4174 9.9598 17.3941 9.93245 17.3704 9.91779C17.1084 9.75711 16.7461 9.64722 16.3712 9.64722L16.3014 9.6477C15.6631 9.6477 15.2175 10.0365 15.2175 10.5937V10.6055C15.2175 11.193 15.7091 11.3834 16.1697 11.5163L16.2438 11.5393C16.5795 11.6433 16.8691 11.7326 16.8691 11.971V11.9827C16.8691 12.2006 16.6807 12.3627 16.3775 12.3627C16.2599 12.3627 15.8845 12.3602 15.4791 12.1019C15.4302 12.073 15.4011 12.053 15.3644 12.0291C15.3517 12.0208 15.2926 11.9978 15.2723 12.0608L15.1347 12.4457V12.4457ZM22.1049 11.2662C22.1049 11.6066 22.042 11.8747 21.918 12.0642C21.7954 12.2518 21.6099 12.3431 21.3513 12.3431C21.0922 12.3431 20.9077 12.2522 20.7871 12.0642C20.665 11.8752 20.6031 11.6066 20.6031 11.2662C20.6031 10.9263 20.665 10.6586 20.7871 10.4711C20.9077 10.2855 21.0922 10.1951 21.3513 10.1951C21.61 10.1951 21.7954 10.2855 21.9185 10.4711C22.042 10.6586 22.1049 10.9262 22.1049 11.2662V11.2662ZM22.6871 10.6352C22.6299 10.4403 22.5408 10.2684 22.4222 10.1253C22.3035 9.9817 22.1534 9.86645 21.9751 9.78244C21.7974 9.69894 21.5872 9.65645 21.3513 9.65645C21.115 9.65645 20.9048 9.69894 20.727 9.78244C20.5488 9.86645 20.3987 9.98173 20.2795 10.1253C20.1613 10.2689 20.0722 10.4408 20.0146 10.6352C19.9579 10.829 19.9293 11.041 19.9293 11.2662C19.9293 11.4913 19.9579 11.7038 20.0146 11.8972C20.0722 12.0916 20.1609 12.2635 20.28 12.4071C20.3987 12.5507 20.5493 12.6654 20.7271 12.747C20.9053 12.8285 21.115 12.87 21.3514 12.87C21.5872 12.87 21.7969 12.8285 21.9751 12.747C22.1529 12.6654 22.3035 12.5506 22.4222 12.4071C22.5409 12.2639 22.63 12.092 22.6871 11.8972C22.7443 11.7033 22.7729 11.4908 22.7729 11.2662C22.7729 11.0415 22.7442 10.829 22.6871 10.6352V10.6352ZM27.4677 12.2522C27.4484 12.195 27.3937 12.2165 27.3937 12.2165C27.3089 12.2493 27.2188 12.2795 27.1229 12.2947C27.0255 12.3098 26.9185 12.3176 26.8037 12.3176C26.5219 12.3176 26.2981 12.2331 26.1378 12.0661C25.977 11.8991 25.8869 11.629 25.8879 11.2637C25.8888 10.9311 25.9682 10.681 26.1112 10.4906C26.2531 10.3011 26.4691 10.2038 26.7573 10.2038C26.9975 10.2038 27.1806 10.2317 27.3723 10.2927C27.3723 10.2927 27.4183 10.3127 27.4401 10.2522C27.491 10.1096 27.5287 10.0075 27.583 9.85073C27.5985 9.80629 27.5607 9.78724 27.5472 9.78185C27.4716 9.75206 27.2934 9.70374 27.1587 9.68322C27.0328 9.66369 26.8856 9.65343 26.7219 9.65343C26.4772 9.65343 26.2593 9.69544 26.0729 9.77945C25.8869 9.86295 25.729 9.97819 25.604 10.1218C25.4791 10.2654 25.3842 10.4373 25.3207 10.6317C25.2578 10.8255 25.2258 11.0385 25.2258 11.2637C25.2258 11.7506 25.3561 12.1442 25.6133 12.4324C25.8709 12.7215 26.2579 12.8685 26.7626 12.8685C27.0609 12.8685 27.367 12.8075 27.5869 12.7201C27.5869 12.7201 27.6291 12.6995 27.6107 12.6502L27.4677 12.2522V12.2522ZM28.4864 10.9401C28.514 10.7511 28.5658 10.5938 28.6457 10.4712C28.7663 10.2851 28.9503 10.1831 29.209 10.1831C29.4677 10.1831 29.6386 10.2856 29.7611 10.4712C29.8425 10.5938 29.8779 10.7579 29.8919 10.9401H28.4864ZM30.4464 10.5244C30.3971 10.3364 30.2745 10.1464 30.1941 10.0595C30.0672 9.92174 29.9432 9.82554 29.8202 9.7718C29.6594 9.70244 29.4666 9.65655 29.2555 9.65655C29.0095 9.65655 28.7862 9.69808 28.605 9.78402C28.4234 9.86999 28.2709 9.98722 28.1512 10.1333C28.0316 10.2788 27.9415 10.4521 27.8843 10.649C27.8267 10.8448 27.7976 11.0583 27.7976 11.2834C27.7976 11.5125 27.8277 11.7259 27.8873 11.9178C27.9473 12.1112 28.0432 12.2817 28.173 12.4228C28.3023 12.5649 28.4689 12.6763 28.6685 12.7539C28.8666 12.8311 29.1073 12.8711 29.3838 12.8706C29.9529 12.8687 30.2527 12.7407 30.3762 12.6718C30.398 12.6597 30.4189 12.6382 30.3927 12.5766L30.2638 12.2127C30.2445 12.1586 30.1898 12.1786 30.1898 12.1786C30.0488 12.2313 29.8483 12.3261 29.3809 12.3251C29.0753 12.3246 28.8486 12.2338 28.7067 12.0916C28.5609 11.9461 28.4897 11.7322 28.4771 11.4304L30.4479 11.4323C30.4479 11.4323 30.4997 11.4314 30.505 11.3805C30.507 11.3591 30.5729 10.9723 30.4464 10.5244V10.5244ZM12.7036 10.9401C12.7317 10.7511 12.7831 10.5938 12.863 10.4712C12.9835 10.2851 13.1676 10.1831 13.4262 10.1831C13.6848 10.1831 13.8558 10.2856 13.9788 10.4712C14.0597 10.5938 14.0951 10.7579 14.1091 10.9401H12.7036V10.9401ZM14.6632 10.5244C14.6138 10.3364 14.4918 10.1464 14.4114 10.0595C14.2845 9.92174 14.1605 9.82554 14.0375 9.7718C13.8767 9.70244 13.6839 9.65655 13.4727 9.65655C13.2272 9.65655 13.0034 9.69808 12.8223 9.78402C12.6407 9.86999 12.4881 9.98722 12.3685 10.1333C12.2489 10.2788 12.1588 10.4521 12.1016 10.649C12.0445 10.8448 12.0149 11.0583 12.0149 11.2834C12.0149 11.5125 12.045 11.7259 12.1046 11.9178C12.1646 12.1112 12.2605 12.2817 12.3903 12.4228C12.5196 12.5649 12.6862 12.6763 12.8858 12.7539C13.0839 12.8311 13.3246 12.8711 13.6011 12.8706C14.1702 12.8687 14.47 12.7407 14.5935 12.6718C14.6153 12.6597 14.6361 12.6382 14.61 12.5766L14.4817 12.2127C14.4618 12.1586 14.4071 12.1786 14.4071 12.1786C14.2661 12.2313 14.0661 12.3261 13.5978 12.3251C13.2926 12.3246 13.066 12.2338 12.9241 12.0916C12.7783 11.9461 12.7071 11.7322 12.6945 11.4304L14.6652 11.4323C14.6652 11.4323 14.717 11.4314 14.7223 11.3805C14.7242 11.3591 14.7901 10.9723 14.6632 10.5244V10.5244ZM8.44389 12.2413C8.36687 12.1792 8.35622 12.1636 8.33008 12.1236C8.29132 12.0625 8.27148 11.9756 8.27148 11.8652C8.27148 11.6904 8.32862 11.5649 8.4473 11.4804C8.44587 11.4809 8.61682 11.3314 9.01879 11.3368C9.30114 11.3407 9.55347 11.3827 9.55347 11.3827V12.2862H9.55394C9.55394 12.2862 9.30356 12.3404 9.02169 12.3575C8.62066 12.3819 8.44243 12.2408 8.44389 12.2413V12.2413ZM9.228 10.845C9.14809 10.8391 9.04442 10.8357 8.92044 10.8357C8.75142 10.8357 8.5882 10.8572 8.43515 10.8987C8.28114 10.9402 8.14262 11.0052 8.02347 11.0911C7.9045 11.1767 7.80672 11.2889 7.73772 11.4188C7.66799 11.5497 7.63263 11.704 7.63263 11.8769C7.63263 12.0527 7.66264 12.2056 7.72271 12.3307C7.78278 12.4562 7.86947 12.5607 7.97987 12.6413C8.08933 12.7219 8.22448 12.7809 8.38137 12.8166C8.53589 12.8523 8.7112 12.8703 8.90301 12.8703C9.10497 12.8703 9.30645 12.8537 9.50163 12.82C9.69488 12.7868 9.9322 12.7384 9.99805 12.7233C10.0442 12.7121 10.0903 12.7002 10.1361 12.6877C10.185 12.6755 10.1812 12.6227 10.1812 12.6227L10.1802 10.8054C10.1802 10.4068 10.0746 10.1114 9.86682 9.92823C9.65999 9.74558 9.35536 9.65322 8.96162 9.65322C8.81388 9.65322 8.57608 9.67378 8.43368 9.70257C8.43368 9.70257 8.00312 9.78659 7.82584 9.92627C7.82584 9.92627 7.78711 9.95071 7.80841 10.0054L7.94792 10.3834C7.96534 10.4323 8.01234 10.4157 8.01234 10.4157C8.01234 10.4157 8.02735 10.4098 8.04481 10.3995C8.42405 10.1915 8.90352 10.1978 8.90352 10.1978C9.11664 10.1978 9.28034 10.2408 9.39075 10.3263C9.49826 10.4093 9.55299 10.5348 9.55299 10.7995V10.8835C9.38347 10.8591 9.228 10.845 9.228 10.845V10.845ZM25.1228 9.82101C25.1378 9.77605 25.1064 9.75457 25.0933 9.7497C25.0599 9.73652 24.8923 9.70086 24.763 9.69255C24.5155 9.67742 24.378 9.71943 24.2549 9.77509C24.1329 9.83076 23.9973 9.92061 23.9217 10.0227V9.78096C23.9217 9.74726 23.898 9.72039 23.865 9.72039H23.3599C23.3269 9.72039 23.3032 9.74722 23.3032 9.78096V12.745C23.3032 12.7782 23.3303 12.8056 23.3633 12.8056H23.881C23.8969 12.8055 23.912 12.7991 23.9232 12.7877C23.9344 12.7763 23.9406 12.761 23.9406 12.745V11.2642C23.9406 11.0654 23.9624 10.8672 24.006 10.7426C24.0486 10.6195 24.1067 10.5209 24.1784 10.4501C24.2506 10.3797 24.3324 10.3304 24.422 10.3026C24.5135 10.2742 24.6148 10.265 24.6865 10.265C24.7896 10.265 24.903 10.2918 24.903 10.2918C24.9407 10.2962 24.962 10.2728 24.9746 10.2381C25.0085 10.1473 25.1044 9.8752 25.1228 9.82101" fill="white"/>
<path d="M20.263 8.44726C20.2001 8.42773 20.1429 8.41452 20.0683 8.40038C19.9927 8.38672 19.9027 8.37985 19.8005 8.37985C19.444 8.37985 19.1631 8.48144 18.966 8.68166C18.7698 8.88096 18.6366 9.18425 18.5698 9.58328L18.5455 9.71758H18.0981C18.0981 9.71758 18.0438 9.71562 18.0322 9.77524L17.9591 10.1889C17.9537 10.228 17.9707 10.2529 18.023 10.2529H18.4584L18.0167 12.7398C17.9823 12.9401 17.9426 13.1047 17.8985 13.2297C17.8554 13.3528 17.8133 13.445 17.761 13.5124C17.7106 13.5769 17.6631 13.6248 17.5808 13.6526C17.513 13.6756 17.4345 13.6863 17.3488 13.6863C17.3013 13.6863 17.2379 13.6785 17.1909 13.6687C17.1444 13.6594 17.1197 13.6492 17.0843 13.634C17.0843 13.634 17.0335 13.6145 17.0131 13.6658C16.9971 13.7083 16.8809 14.0301 16.8669 14.0697C16.8533 14.1092 16.8727 14.14 16.8973 14.1493C16.9555 14.1698 16.9986 14.1835 17.0775 14.2025C17.187 14.2284 17.2795 14.2299 17.3662 14.2299C17.5473 14.2299 17.7129 14.204 17.85 14.1542C17.9876 14.1039 18.1077 14.0164 18.2142 13.8983C18.329 13.7703 18.4012 13.6365 18.47 13.4533C18.5383 13.2726 18.5969 13.048 18.6434 12.7862L19.0875 10.2529H19.7365C19.7365 10.2529 19.7912 10.2548 19.8024 10.1948L19.876 9.78159C19.8808 9.74205 19.8644 9.71761 19.8115 9.71761H19.1814C19.1848 9.70347 19.2134 9.47974 19.2856 9.26929C19.3166 9.17992 19.3747 9.10713 19.4236 9.05729C19.4721 9.00846 19.5278 8.97379 19.5888 8.95375C19.6513 8.93323 19.7225 8.92348 19.8005 8.92348C19.8596 8.92348 19.9181 8.93031 19.9622 8.93958C20.0232 8.95279 20.047 8.95962 20.063 8.96453C20.1274 8.98406 20.1361 8.96501 20.1487 8.93378L20.2994 8.51669C20.3148 8.47166 20.2766 8.45261 20.263 8.44726V8.44726ZM11.4591 12.7452C11.4591 12.7784 11.4354 12.8053 11.4025 12.8053H10.8799C10.8469 12.8053 10.8237 12.7784 10.8237 12.7452V8.50392C10.8237 8.47073 10.8469 8.44386 10.8799 8.44386H11.4025C11.4354 8.44386 11.4591 8.47073 11.4591 8.50392V12.7452Z" fill="white"/>
</g>
<path d="M46.3699 19.14C45.3966 19.14 44.5166 18.9733 43.7299 18.64C42.9566 18.3067 42.3433 17.8267 41.8899 17.2C41.4366 16.5733 41.2033 15.8333 41.1899 14.98H44.1899C44.2299 15.5533 44.4299 16.0067 44.7899 16.34C45.1633 16.6733 45.6699 16.84 46.3099 16.84C46.9633 16.84 47.4766 16.6867 47.8499 16.38C48.2233 16.06 48.4099 15.6467 48.4099 15.14C48.4099 14.7267 48.2833 14.3867 48.0299 14.12C47.7766 13.8533 47.4566 13.6467 47.0699 13.5C46.6966 13.34 46.1766 13.1667 45.5099 12.98C44.6033 12.7133 43.8633 12.4533 43.2899 12.2C42.7299 11.9333 42.2433 11.54 41.8299 11.02C41.4299 10.4867 41.2299 9.78 41.2299 8.9C41.2299 8.07333 41.4366 7.35333 41.8499 6.74C42.2633 6.12667 42.8433 5.66 43.5899 5.34C44.3366 5.00667 45.1899 4.84 46.1499 4.84C47.5899 4.84 48.7566 5.19333 49.6499 5.9C50.5566 6.59333 51.0566 7.56667 51.1499 8.82H48.0699C48.0433 8.34 47.8366 7.94667 47.4499 7.64C47.0766 7.32 46.5766 7.16 45.9499 7.16C45.4033 7.16 44.9633 7.3 44.6299 7.58C44.3099 7.86 44.1499 8.26667 44.1499 8.8C44.1499 9.17333 44.2699 9.48667 44.5099 9.74C44.7633 9.98 45.0699 10.18 45.4299 10.34C45.8033 10.4867 46.3233 10.66 46.9899 10.86C47.8966 11.1267 48.6366 11.3933 49.2099 11.66C49.7833 11.9267 50.2766 12.3267 50.6899 12.86C51.1033 13.3933 51.3099 14.0933 51.3099 14.96C51.3099 15.7067 51.1166 16.4 50.7299 17.04C50.3433 17.68 49.7766 18.1933 49.0299 18.58C48.2833 18.9533 47.3966 19.14 46.3699 19.14ZM53.0174 13.42C53.0174 12.3 53.2374 11.3067 53.6774 10.44C54.1308 9.57333 54.7374 8.90667 55.4974 8.44C56.2708 7.97333 57.1308 7.74 58.0774 7.74C58.9041 7.74 59.6241 7.90667 60.2374 8.24C60.8641 8.57333 61.3641 8.99333 61.7374 9.5V7.92H64.5574V19H61.7374V17.38C61.3774 17.9 60.8774 18.3333 60.2374 18.68C59.6108 19.0133 58.8841 19.18 58.0574 19.18C57.1241 19.18 56.2708 18.94 55.4974 18.46C54.7374 17.98 54.1308 17.3067 53.6774 16.44C53.2374 15.56 53.0174 14.5533 53.0174 13.42ZM61.7374 13.46C61.7374 12.78 61.6041 12.2 61.3374 11.72C61.0708 11.2267 60.7108 10.8533 60.2574 10.6C59.8041 10.3333 59.3174 10.2 58.7974 10.2C58.2774 10.2 57.7974 10.3267 57.3574 10.58C56.9174 10.8333 56.5574 11.2067 56.2774 11.7C56.0108 12.18 55.8774 12.7533 55.8774 13.42C55.8774 14.0867 56.0108 14.6733 56.2774 15.18C56.5574 15.6733 56.9174 16.0533 57.3574 16.32C57.8108 16.5867 58.2908 16.72 58.7974 16.72C59.3174 16.72 59.8041 16.5933 60.2574 16.34C60.7108 16.0733 61.0708 15.7 61.3374 15.22C61.6041 14.7267 61.7374 14.14 61.7374 13.46ZM70.0921 4.2V19H67.2921V4.2H70.0921ZM83.1585 13.22C83.1585 13.62 83.1318 13.98 83.0785 14.3H74.9785C75.0452 15.1 75.3252 15.7267 75.8185 16.18C76.3118 16.6333 76.9185 16.86 77.6385 16.86C78.6785 16.86 79.4185 16.4133 79.8585 15.52H82.8785C82.5585 16.5867 81.9452 17.4667 81.0385 18.16C80.1318 18.84 79.0185 19.18 77.6985 19.18C76.6318 19.18 75.6718 18.9467 74.8185 18.48C73.9785 18 73.3185 17.3267 72.8385 16.46C72.3718 15.5933 72.1385 14.5933 72.1385 13.46C72.1385 12.3133 72.3718 11.3067 72.8385 10.44C73.3052 9.57333 73.9585 8.90667 74.7985 8.44C75.6385 7.97333 76.6052 7.74 77.6985 7.74C78.7518 7.74 79.6918 7.96667 80.5185 8.42C81.3585 8.87333 82.0052 9.52 82.4585 10.36C82.9252 11.1867 83.1585 12.14 83.1585 13.22ZM80.2585 12.42C80.2452 11.7 79.9852 11.1267 79.4785 10.7C78.9718 10.26 78.3518 10.04 77.6185 10.04C76.9252 10.04 76.3385 10.2533 75.8585 10.68C75.3918 11.0933 75.1052 11.6733 74.9985 12.42H80.2585ZM89.4423 19.18C88.5356 19.18 87.7223 19.02 87.0023 18.7C86.2823 18.3667 85.7089 17.92 85.2823 17.36C84.8689 16.8 84.6423 16.18 84.6023 15.5H87.4223C87.4756 15.9267 87.6823 16.28 88.0423 16.56C88.4156 16.84 88.8756 16.98 89.4223 16.98C89.9556 16.98 90.3689 16.8733 90.6623 16.66C90.9689 16.4467 91.1223 16.1733 91.1223 15.84C91.1223 15.48 90.9356 15.2133 90.5623 15.04C90.2023 14.8533 89.6223 14.6533 88.8223 14.44C87.9956 14.24 87.3156 14.0333 86.7823 13.82C86.2623 13.6067 85.8089 13.28 85.4223 12.84C85.0489 12.4 84.8623 11.8067 84.8623 11.06C84.8623 10.4467 85.0356 9.88667 85.3823 9.38C85.7423 8.87333 86.2489 8.47333 86.9023 8.18C87.5689 7.88667 88.3489 7.74 89.2423 7.74C90.5623 7.74 91.6156 8.07333 92.4023 8.74C93.1889 9.39333 93.6223 10.28 93.7023 11.4H91.0223C90.9823 10.96 90.7956 10.6133 90.4623 10.36C90.1423 10.0933 89.7089 9.96 89.1623 9.96C88.6556 9.96 88.2623 10.0533 87.9823 10.24C87.7156 10.4267 87.5823 10.6867 87.5823 11.02C87.5823 11.3933 87.7689 11.68 88.1423 11.88C88.5156 12.0667 89.0956 12.26 89.8823 12.46C90.6823 12.66 91.3423 12.8667 91.8623 13.08C92.3823 13.2933 92.8289 13.6267 93.2023 14.08C93.5889 14.52 93.7889 15.1067 93.8023 15.84C93.8023 16.48 93.6223 17.0533 93.2623 17.56C92.9156 18.0667 92.4089 18.4667 91.7423 18.76C91.0889 19.04 90.3223 19.18 89.4423 19.18ZM101.181 10.22H99.2407V19H96.4007V10.22H95.1407V7.92H96.4007V7.36C96.4007 6 96.7874 5 97.5607 4.36C98.334 3.72 99.5007 3.42 101.061 3.46V5.82C100.381 5.80667 99.9074 5.92 99.6407 6.16C99.374 6.4 99.2407 6.83333 99.2407 7.46V7.92H101.181V10.22ZM107.915 19.18C106.849 19.18 105.889 18.9467 105.035 18.48C104.182 18 103.509 17.3267 103.015 16.46C102.535 15.5933 102.295 14.5933 102.295 13.46C102.295 12.3267 102.542 11.3267 103.035 10.46C103.542 9.59333 104.229 8.92667 105.095 8.46C105.962 7.98 106.929 7.74 107.995 7.74C109.062 7.74 110.029 7.98 110.895 8.46C111.762 8.92667 112.442 9.59333 112.935 10.46C113.442 11.3267 113.695 12.3267 113.695 13.46C113.695 14.5933 113.435 15.5933 112.915 16.46C112.409 17.3267 111.715 18 110.835 18.48C109.969 18.9467 108.995 19.18 107.915 19.18ZM107.915 16.74C108.422 16.74 108.895 16.62 109.335 16.38C109.789 16.1267 110.149 15.7533 110.415 15.26C110.682 14.7667 110.815 14.1667 110.815 13.46C110.815 12.4067 110.535 11.6 109.975 11.04C109.429 10.4667 108.755 10.18 107.955 10.18C107.155 10.18 106.482 10.4667 105.935 11.04C105.402 11.6 105.135 12.4067 105.135 13.46C105.135 14.5133 105.395 15.3267 105.915 15.9C106.449 16.46 107.115 16.74 107.915 16.74ZM118.549 9.64C118.909 9.05333 119.376 8.59333 119.949 8.26C120.536 7.92667 121.202 7.76 121.949 7.76V10.7H121.209C120.329 10.7 119.662 10.9067 119.209 11.32C118.769 11.7333 118.549 12.4533 118.549 13.48V19H115.749V7.92H118.549V9.64ZM123.115 13.46C123.115 12.3133 123.348 11.3133 123.815 10.46C124.282 9.59333 124.928 8.92667 125.755 8.46C126.582 7.98 127.528 7.74 128.595 7.74C129.968 7.74 131.102 8.08667 131.995 8.78C132.902 9.46 133.508 10.42 133.815 11.66H130.795C130.635 11.18 130.362 10.8067 129.975 10.54C129.602 10.26 129.135 10.12 128.575 10.12C127.775 10.12 127.142 10.4133 126.675 11C126.208 11.5733 125.975 12.3933 125.975 13.46C125.975 14.5133 126.208 15.3333 126.675 15.92C127.142 16.4933 127.775 16.78 128.575 16.78C129.708 16.78 130.448 16.2733 130.795 15.26H133.815C133.508 16.46 132.902 17.4133 131.995 18.12C131.088 18.8267 129.955 19.18 128.595 19.18C127.528 19.18 126.582 18.9467 125.755 18.48C124.928 18 124.282 17.3333 123.815 16.48C123.348 15.6133 123.115 14.6067 123.115 13.46ZM146.166 13.22C146.166 13.62 146.14 13.98 146.086 14.3H137.986C138.053 15.1 138.333 15.7267 138.826 16.18C139.32 16.6333 139.926 16.86 140.646 16.86C141.686 16.86 142.426 16.4133 142.866 15.52H145.886C145.566 16.5867 144.953 17.4667 144.046 18.16C143.14 18.84 142.026 19.18 140.706 19.18C139.64 19.18 138.68 18.9467 137.826 18.48C136.986 18 136.326 17.3267 135.846 16.46C135.38 15.5933 135.146 14.5933 135.146 13.46C135.146 12.3133 135.38 11.3067 135.846 10.44C136.313 9.57333 136.966 8.90667 137.806 8.44C138.646 7.97333 139.613 7.74 140.706 7.74C141.76 7.74 142.7 7.96667 143.526 8.42C144.366 8.87333 145.013 9.52 145.466 10.36C145.933 11.1867 146.166 12.14 146.166 13.22ZM143.266 12.42C143.253 11.7 142.993 11.1267 142.486 10.7C141.98 10.26 141.36 10.04 140.626 10.04C139.933 10.04 139.346 10.2533 138.866 10.68C138.4 11.0933 138.113 11.6733 138.006 12.42H143.266Z" fill="#333333"/>
<defs>
<clipPath id="clip0_4674_9724">
<rect width="34" height="24" fill="white"/>
</clipPath>
</defs>
</svg>
