<svg width="34" height="24" viewBox="0 0 34 24" fill="none" xmlns="http://www.w3.org/2000/svg">
<g clip-path="url(#clip0_4633_10085)">
<path d="M14.1488 2.61834C15.2453 1.46621 16.7719 0.751638 18.4603 0.751638C20.7047 0.751638 22.6628 2.01365 23.7056 3.88715C24.6118 3.47888 25.6149 3.25175 26.6702 3.25175C30.7182 3.25175 34 6.58998 34 10.7077C34 14.8258 30.7182 18.1641 26.6702 18.1641C26.1853 18.1643 25.7017 18.1157 25.2264 18.019C24.3081 19.6707 22.5582 20.7868 20.5497 20.7868C19.7089 20.7868 18.9136 20.5909 18.2055 20.2427C17.2746 22.4507 15.1058 23.9989 12.5781 23.9989C9.94574 23.9989 7.70232 22.3193 6.84119 19.9638C6.46487 20.0444 6.07498 20.0864 5.67491 20.0864C2.54081 20.0864 0 17.4979 0 14.3043C0 12.1641 1.14157 10.2954 2.83769 9.2957C2.4885 8.48548 2.29427 7.5912 2.29427 6.651C2.29427 2.97825 5.25112 0.000991821 8.89814 0.000991821C11.0394 0.000991821 12.9423 1.02761 14.1488 2.61834Z" fill="#00A1E0"/>
<path d="M4.9246 12.4457C4.90329 12.5019 4.93236 12.5137 4.93913 12.5234C5.00304 12.5703 5.06798 12.604 5.13336 12.6416C5.48013 12.8272 5.80757 12.8814 6.14999 12.8814C6.84741 12.8814 7.28039 12.5073 7.28039 11.9051V11.8934C7.28039 11.3366 6.79173 11.1344 6.33306 10.9884L6.2735 10.9688C5.92768 10.8555 5.62934 10.7579 5.62934 10.5283V10.5161C5.62934 10.3198 5.80369 10.1752 6.07396 10.1752C6.37424 10.1752 6.73071 10.2758 6.96027 10.4038C6.96027 10.4038 7.02759 10.4477 7.0523 10.3818C7.06584 10.3466 7.1821 10.0311 7.19422 9.99693C7.20729 9.9598 7.18404 9.93245 7.16032 9.91779C6.89829 9.75711 6.536 9.64722 6.16115 9.64722L6.09142 9.6477C5.45308 9.6477 5.0075 10.0365 5.0075 10.5937V10.6055C5.0075 11.193 5.49909 11.3834 5.9597 11.5163L6.0338 11.5393C6.36944 11.6433 6.65859 11.7326 6.65859 11.971V11.9827C6.65859 12.2006 6.47069 12.3627 6.16748 12.3627C6.04979 12.3627 5.67443 12.3602 5.26905 12.1019C5.22011 12.073 5.19156 12.0521 5.15378 12.0291C5.13394 12.0164 5.08405 11.9944 5.06226 12.0608L4.9246 12.4457ZM15.1347 12.4457C15.1134 12.5019 15.1425 12.5137 15.1492 12.5234C15.2132 12.5703 15.2781 12.604 15.3434 12.6416C15.6902 12.8272 16.0177 12.8814 16.3601 12.8814C17.0575 12.8814 17.4905 12.5073 17.4905 11.9051V11.8934C17.4905 11.3366 17.0018 11.1344 16.5431 10.9884L16.4836 10.9688C16.1378 10.8555 15.8394 10.7579 15.8394 10.5283V10.5161C15.8394 10.3198 16.0137 10.1752 16.284 10.1752C16.5843 10.1752 16.9408 10.2758 17.1704 10.4038C17.1704 10.4038 17.2377 10.4477 17.2623 10.3818C17.2759 10.3466 17.3922 10.0311 17.4043 9.99693C17.4174 9.9598 17.3941 9.93245 17.3704 9.91779C17.1083 9.75711 16.7461 9.64722 16.3712 9.64722L16.3014 9.6477C15.6631 9.6477 15.2175 10.0365 15.2175 10.5937V10.6055C15.2175 11.193 15.7091 11.3834 16.1697 11.5163L16.2438 11.5393C16.5795 11.6433 16.8691 11.7326 16.8691 11.971V11.9827C16.8691 12.2006 16.6807 12.3627 16.3775 12.3627C16.2598 12.3627 15.8845 12.3602 15.4791 12.1019C15.4302 12.073 15.4011 12.053 15.3643 12.0291C15.3517 12.0208 15.2926 11.9978 15.2723 12.0608L15.1347 12.4457ZM22.1049 11.2662C22.1049 11.6066 22.0419 11.8747 21.918 12.0642C21.7954 12.2518 21.6099 12.3431 21.3513 12.3431C21.0922 12.3431 20.9077 12.2522 20.7871 12.0642C20.665 11.8752 20.6031 11.6066 20.6031 11.2662C20.6031 10.9263 20.665 10.6586 20.7871 10.4711C20.9077 10.2855 21.0922 10.1951 21.3513 10.1951C21.6099 10.1951 21.7954 10.2855 21.9185 10.4711C22.042 10.6586 22.1049 10.9262 22.1049 11.2662ZM22.6871 10.6352C22.6299 10.4403 22.5408 10.2684 22.4222 10.1253C22.3035 9.9817 22.1534 9.86645 21.9751 9.78244C21.7973 9.69894 21.5872 9.65645 21.3513 9.65645C21.115 9.65645 20.9048 9.69894 20.727 9.78244C20.5488 9.86645 20.3986 9.98173 20.2795 10.1253C20.1613 10.2689 20.0722 10.4408 20.0146 10.6352C19.9579 10.829 19.9293 11.041 19.9293 11.2662C19.9293 11.4913 19.9579 11.7038 20.0146 11.8972C20.0722 12.0916 20.1608 12.2635 20.28 12.4071C20.3986 12.5507 20.5493 12.6654 20.727 12.747C20.9052 12.8285 21.115 12.87 21.3514 12.87C21.5872 12.87 21.7969 12.8285 21.9751 12.747C22.1529 12.6654 22.3035 12.5506 22.4222 12.4071C22.5408 12.2639 22.6299 12.092 22.6871 11.8972C22.7443 11.7033 22.7729 11.4908 22.7729 11.2662C22.7729 11.0415 22.7442 10.829 22.6871 10.6352ZM27.4677 12.2522C27.4484 12.195 27.3936 12.2165 27.3936 12.2165C27.3089 12.2493 27.2188 12.2795 27.1229 12.2947C27.0255 12.3098 26.9185 12.3176 26.8037 12.3176C26.5219 12.3176 26.2981 12.2331 26.1378 12.0661C25.977 11.8991 25.8869 11.629 25.8878 11.2637C25.8888 10.9311 25.9682 10.681 26.1111 10.4906C26.2531 10.3011 26.4691 10.2038 26.7572 10.2038C26.9975 10.2038 27.1806 10.2317 27.3723 10.2927C27.3723 10.2927 27.4183 10.3127 27.4401 10.2522C27.4909 10.1096 27.5287 10.0075 27.583 9.85073C27.5985 9.80629 27.5607 9.78724 27.5471 9.78185C27.4716 9.75206 27.2933 9.70374 27.1587 9.68322C27.0328 9.66369 26.8855 9.65343 26.7218 9.65343C26.4772 9.65343 26.2593 9.69544 26.0729 9.77945C25.8869 9.86295 25.729 9.97819 25.604 10.1218C25.4791 10.2654 25.3841 10.4373 25.3207 10.6317C25.2577 10.8255 25.2258 11.0385 25.2258 11.2637C25.2258 11.7506 25.3561 12.1442 25.6133 12.4324C25.8709 12.7215 26.2579 12.8685 26.7626 12.8685C27.0609 12.8685 27.367 12.8075 27.5869 12.7201C27.5869 12.7201 27.6291 12.6995 27.6106 12.6502L27.4677 12.2522ZM28.4863 10.9401C28.5139 10.7511 28.5658 10.5938 28.6457 10.4712C28.7663 10.2851 28.9503 10.1831 29.209 10.1831C29.4676 10.1831 29.6386 10.2856 29.7611 10.4712C29.8425 10.5938 29.8778 10.7579 29.8919 10.9401H28.4863ZM30.4464 10.5244C30.397 10.3364 30.2745 10.1464 30.1941 10.0595C30.0672 9.92174 29.9432 9.82554 29.8202 9.7718C29.6594 9.70244 29.4666 9.65655 29.2555 9.65655C29.0094 9.65655 28.7861 9.69808 28.605 9.78402C28.4234 9.86999 28.2709 9.98722 28.1512 10.1333C28.0315 10.2788 27.9415 10.4521 27.8843 10.649C27.8267 10.8448 27.7976 11.0583 27.7976 11.2834C27.7976 11.5125 27.8277 11.7259 27.8872 11.9178C27.9473 12.1112 28.0432 12.2817 28.173 12.4228C28.3023 12.5649 28.4689 12.6763 28.6685 12.7539C28.8666 12.8311 29.1073 12.8711 29.3838 12.8706C29.9529 12.8687 30.2527 12.7407 30.3762 12.6718C30.398 12.6597 30.4189 12.6382 30.3926 12.5766L30.2638 12.2127C30.2445 12.1586 30.1897 12.1786 30.1897 12.1786C30.0488 12.2313 29.8483 12.3261 29.3809 12.3251C29.0753 12.3246 28.8486 12.2338 28.7067 12.0916C28.5609 11.9461 28.4897 11.7322 28.4771 11.4304L30.4478 11.4323C30.4478 11.4323 30.4996 11.4314 30.505 11.3805C30.507 11.3591 30.5729 10.9723 30.4464 10.5244ZM12.7036 10.9401C12.7317 10.7511 12.783 10.5938 12.8629 10.4712C12.9835 10.2851 13.1676 10.1831 13.4262 10.1831C13.6848 10.1831 13.8558 10.2856 13.9788 10.4712C14.0597 10.5938 14.095 10.7579 14.1091 10.9401H12.7036ZM14.6632 10.5244C14.6138 10.3364 14.4917 10.1464 14.4114 10.0595C14.2844 9.92174 14.1605 9.82554 14.0375 9.7718C13.8766 9.70244 13.6839 9.65655 13.4727 9.65655C13.2272 9.65655 13.0034 9.69808 12.8223 9.78402C12.6407 9.86999 12.4881 9.98722 12.3685 10.1333C12.2488 10.2788 12.1588 10.4521 12.1016 10.649C12.0445 10.8448 12.0149 11.0583 12.0149 11.2834C12.0149 11.5125 12.0449 11.7259 12.1045 11.9178C12.1646 12.1112 12.2605 12.2817 12.3903 12.4228C12.5196 12.5649 12.6862 12.6763 12.8858 12.7539C13.0839 12.8311 13.3246 12.8711 13.6011 12.8706C14.1702 12.8687 14.47 12.7407 14.5935 12.6718C14.6153 12.6597 14.6361 12.6382 14.61 12.5766L14.4816 12.2127C14.4618 12.1586 14.4071 12.1786 14.4071 12.1786C14.2661 12.2313 14.0661 12.3261 13.5977 12.3251C13.2926 12.3246 13.066 12.2338 12.924 12.0916C12.7782 11.9461 12.7071 11.7322 12.6944 11.4304L14.6652 11.4323C14.6652 11.4323 14.717 11.4314 14.7223 11.3805C14.7242 11.3591 14.7901 10.9723 14.6632 10.5244ZM8.44388 12.2413C8.36686 12.1792 8.35621 12.1636 8.33007 12.1236C8.2913 12.0625 8.27146 11.9756 8.27146 11.8652C8.27146 11.6904 8.3286 11.5649 8.44728 11.4804C8.44585 11.4809 8.6168 11.3314 9.01878 11.3368C9.30112 11.3407 9.55345 11.3827 9.55345 11.3827V12.2862H9.55393C9.55393 12.2862 9.30354 12.3404 9.02167 12.3575C8.62065 12.3819 8.44241 12.2408 8.44388 12.2413ZM9.22799 10.845C9.14807 10.8391 9.04441 10.8357 8.92042 10.8357C8.75141 10.8357 8.58818 10.8572 8.43513 10.8987C8.28113 10.9402 8.14261 11.0052 8.02346 11.0911C7.90448 11.1767 7.8067 11.2889 7.73771 11.4188C7.66797 11.5497 7.63261 11.704 7.63261 11.8769C7.63261 12.0527 7.66263 12.2056 7.7227 12.3307C7.78277 12.4562 7.86945 12.5607 7.97986 12.6413C8.08931 12.7219 8.22446 12.7809 8.38136 12.8166C8.53587 12.8523 8.71118 12.8703 8.903 12.8703C9.10495 12.8703 9.30643 12.8537 9.50162 12.82C9.69486 12.7868 9.93218 12.7384 9.99804 12.7233C10.0442 12.7121 10.0902 12.7002 10.1361 12.6877C10.185 12.6755 10.1811 12.6227 10.1811 12.6227L10.1802 10.8054C10.1802 10.4068 10.0746 10.1114 9.8668 9.92823C9.65998 9.74558 9.35534 9.65322 8.9616 9.65322C8.81386 9.65322 8.57606 9.67378 8.43367 9.70257C8.43367 9.70257 8.0031 9.78659 7.82582 9.92627C7.82582 9.92627 7.78709 9.95071 7.8084 10.0054L7.9479 10.3834C7.96533 10.4323 8.01233 10.4157 8.01233 10.4157C8.01233 10.4157 8.02734 10.4098 8.0448 10.3995C8.42404 10.1915 8.90351 10.1978 8.90351 10.1978C9.11663 10.1978 9.28033 10.2408 9.39074 10.3263C9.49825 10.4093 9.55298 10.5348 9.55298 10.7995V10.8835C9.38345 10.8591 9.22799 10.845 9.22799 10.845ZM25.1228 9.82101C25.1378 9.77605 25.1064 9.75457 25.0933 9.7497C25.0599 9.73652 24.8923 9.70086 24.763 9.69255C24.5155 9.67742 24.378 9.71943 24.2549 9.77509C24.1328 9.83076 23.9973 9.92061 23.9217 10.0227V9.78096C23.9217 9.74726 23.8979 9.72039 23.865 9.72039H23.3598C23.3269 9.72039 23.3032 9.74722 23.3032 9.78096V12.745C23.3032 12.7782 23.3303 12.8056 23.3632 12.8056H23.881C23.8969 12.8055 23.912 12.7991 23.9232 12.7877C23.9344 12.7763 23.9406 12.761 23.9406 12.745V11.2642C23.9406 11.0654 23.9624 10.8672 24.006 10.7426C24.0486 10.6195 24.1067 10.5209 24.1784 10.4501C24.2505 10.3797 24.3324 10.3304 24.422 10.3026C24.5135 10.2742 24.6147 10.265 24.6864 10.265C24.7896 10.265 24.9029 10.2918 24.9029 10.2918C24.9407 10.2962 24.962 10.2728 24.9746 10.2381C25.0085 10.1473 25.1044 9.8752 25.1228 9.82101Z" fill="white"/>
<path d="M20.263 8.44726C20.2001 8.42773 20.1429 8.41452 20.0683 8.40038C19.9927 8.38672 19.9027 8.37985 19.8005 8.37985C19.444 8.37985 19.1631 8.48144 18.966 8.68166C18.7698 8.88096 18.6366 9.18425 18.5698 9.58328L18.5455 9.71758H18.0981C18.0981 9.71758 18.0438 9.71562 18.0322 9.77524L17.9591 10.1889C17.9537 10.228 17.9707 10.2529 18.023 10.2529H18.4584L18.0167 12.7398C17.9823 12.9401 17.9426 13.1047 17.8985 13.2297C17.8554 13.3528 17.8133 13.445 17.761 13.5124C17.7106 13.5769 17.6631 13.6248 17.5808 13.6526C17.513 13.6756 17.4345 13.6863 17.3488 13.6863C17.3013 13.6863 17.2379 13.6785 17.1909 13.6687C17.1444 13.6594 17.1197 13.6492 17.0843 13.634C17.0843 13.634 17.0335 13.6145 17.0131 13.6658C16.9971 13.7083 16.8809 14.0301 16.8669 14.0697C16.8533 14.1092 16.8727 14.14 16.8973 14.1493C16.9555 14.1698 16.9986 14.1835 17.0775 14.2025C17.187 14.2284 17.2795 14.2299 17.3662 14.2299C17.5473 14.2299 17.7129 14.204 17.85 14.1542C17.9876 14.1039 18.1077 14.0164 18.2142 13.8983C18.329 13.7703 18.4012 13.6365 18.47 13.4533C18.5383 13.2726 18.5969 13.048 18.6434 12.7862L19.0875 10.2529H19.7365C19.7365 10.2529 19.7912 10.2548 19.8024 10.1948L19.876 9.78159C19.8808 9.74205 19.8644 9.71761 19.8115 9.71761H19.1814C19.1848 9.70347 19.2134 9.47974 19.2856 9.26929C19.3166 9.17992 19.3747 9.10713 19.4236 9.05729C19.4721 9.00846 19.5278 8.97379 19.5888 8.95375C19.6513 8.93323 19.7225 8.92348 19.8005 8.92348C19.8596 8.92348 19.9181 8.93031 19.9622 8.93958C20.0232 8.95279 20.047 8.95962 20.063 8.96453C20.1274 8.98406 20.1361 8.96501 20.1487 8.93378L20.2994 8.51669C20.3148 8.47166 20.2766 8.45261 20.263 8.44726ZM11.4591 12.7452C11.4591 12.7784 11.4354 12.8053 11.4025 12.8053H10.8799C10.8469 12.8053 10.8237 12.7784 10.8237 12.7452V8.50392C10.8237 8.47073 10.8469 8.44386 10.8799 8.44386H11.4025C11.4354 8.44386 11.4591 8.47073 11.4591 8.50392V12.7452Z" fill="white"/>
</g>
<defs>
<clipPath id="clip0_4633_10085">
<rect width="34" height="24" fill="white"/>
</clipPath>
</defs>
</svg>
