<svg width="109" height="24" viewBox="0 0 109 24" fill="none" xmlns="http://www.w3.org/2000/svg">
<g clip-path="url(#clip0_4633_10057)">
<path d="M15.805 1.2327C15.5786 0.85662 15.2589 0.5455 14.877 0.329527C14.495 0.113554 14.0637 6.10352e-05 13.625 6.10352e-05C13.1863 6.10352e-05 12.7551 0.113554 12.3731 0.329527C11.9912 0.5455 11.6715 0.85662 11.445 1.2327L7.85894 7.37997C10.5986 8.74889 12.9328 10.8112 14.6298 13.3622C16.3268 15.9132 17.3275 18.864 17.5327 21.9218H15.0148C14.81 19.3007 13.9249 16.7786 12.4471 14.605C10.9693 12.4314 8.95004 10.6817 6.58909 9.52906L3.27004 15.2727C4.59729 15.8684 5.75359 16.7886 6.6326 17.9486C7.51161 19.1085 8.08512 20.4711 8.30039 21.9109H2.51794C2.44936 21.906 2.38307 21.8842 2.32504 21.8473C2.26701 21.8104 2.21908 21.7596 2.18555 21.6995C2.15203 21.6394 2.13397 21.572 2.13301 21.5032C2.13204 21.4344 2.14821 21.3664 2.18004 21.3054L3.78234 18.5781C3.23948 18.1248 2.61907 17.7737 1.95114 17.5418L0.365189 20.2691C0.200084 20.5525 0.0928987 20.8659 0.0498602 21.1912C0.00682167 21.5164 0.0287879 21.847 0.114483 22.1637C0.200178 22.4803 0.347893 22.7768 0.549047 23.0359C0.750202 23.2949 1.00078 23.5114 1.28624 23.6727C1.66234 23.8848 2.08625 23.9974 2.51794 24H10.4368C10.5839 22.1836 10.2598 20.3601 9.49592 18.7059C8.73206 17.0517 7.55433 15.623 6.07679 14.5582L7.33574 12.3763C9.20042 13.6581 10.6989 15.4044 11.6833 17.4428C12.6678 19.4812 13.1041 21.7413 12.9492 24H19.6582C19.8144 20.5783 19.0707 17.1756 17.5012 14.1317C15.9318 11.0879 13.5917 8.50961 10.7147 6.65452L13.2599 2.29088C13.3166 2.19578 13.4086 2.12694 13.5157 2.09936C13.6229 2.07178 13.7366 2.08768 13.8321 2.14361C14.121 2.30179 24.8902 21.1091 25.0918 21.3272C25.1274 21.391 25.1454 21.463 25.1442 21.536C25.143 21.609 25.1226 21.6804 25.085 21.7429C25.0474 21.8054 24.9939 21.8569 24.9301 21.8922C24.8662 21.9274 24.7942 21.9452 24.7212 21.9436H22.127C22.1597 22.6381 22.1597 23.3309 22.127 24.0218H24.7321C25.0629 24.024 25.3909 23.9604 25.697 23.8349C26.0031 23.7094 26.2813 23.5243 26.5155 23.2905C26.7496 23.0566 26.9351 22.7786 27.0612 22.4725C27.1873 22.1664 27.2515 21.8383 27.25 21.5072C27.2504 21.0699 27.1337 20.6405 26.9121 20.2636L15.805 1.2327ZM67.7544 15.4254L59.7102 5.02906H57.7046V18.9654H59.7375V8.28542L68.0106 18.9654H69.7873V5.02906H67.7544V15.4254ZM47.4968 12.84H54.7071V11.0291H47.4913V6.83452H55.6282V5.02361H45.4203V18.9654H55.7317V17.1545H47.4913L47.4968 12.84ZM39.0166 11.0727C36.2098 10.3963 35.425 9.86179 35.425 8.56361C35.425 7.39633 36.4551 6.60542 37.992 6.60542C39.3916 6.64645 40.7416 7.13376 41.8451 7.99633L42.9351 6.4527C41.5381 5.3566 39.8049 4.7784 38.0301 4.81633C35.2724 4.81633 33.3486 6.4527 33.3486 8.78179C33.3486 11.2909 34.9836 12.1582 37.9593 12.8836C40.608 13.4945 41.42 14.0618 41.42 15.3327C41.42 16.6036 40.33 17.3891 38.646 17.3891C36.9694 17.3814 35.3561 16.7472 34.1225 15.6109L32.8962 17.0781C34.4764 18.437 36.4918 19.1823 38.5751 19.1782C41.5617 19.1782 43.4801 17.5691 43.4801 15.0818C43.4638 12.9763 42.2212 11.8472 39.0166 11.0727ZM106.657 5.02906L102.465 11.5745L98.3017 5.02906H95.871L101.37 13.4563V18.9709H103.463V13.3909L109 5.02906H106.657ZM71.4332 6.91633H75.9949V18.9709H78.0876V6.91633H82.6493V5.02906H71.4387L71.4332 6.91633ZM92.3285 13.5272C94.4322 12.9436 95.5985 11.4709 95.5985 9.36542C95.5985 6.68724 93.642 5.00179 90.4864 5.00179H84.2952V18.96H86.3662V13.9527H89.8815L93.413 18.9709H95.8328L92.0178 13.6145L92.3285 13.5272ZM86.3608 12.1636V6.8727H90.2684C92.3067 6.8727 93.473 7.83815 93.473 9.5127C93.473 11.1872 92.225 12.1636 90.2902 12.1636H86.3608Z" fill="#362D59"/>
</g>
<defs>
<clipPath id="clip0_4633_10057">
<rect width="109" height="24" fill="white"/>
</clipPath>
</defs>
</svg>
