<svg width="27" height="24" viewBox="0 0 27 24" fill="none" xmlns="http://www.w3.org/2000/svg">
<g clip-path="url(#clip0_4633_10063)">
<path d="M15.66 1.2327C15.4357 0.856619 15.1189 0.5455 14.7404 0.329527C14.362 0.113554 13.9347 6.10352e-05 13.5 6.10352e-05C13.0653 6.10352e-05 12.638 0.113554 12.2596 0.329527C11.8811 0.5455 11.5643 0.856619 11.34 1.2327L7.78679 7.37997C10.5013 8.74889 12.8141 10.8112 14.4955 13.3622C16.1769 15.9132 17.1685 18.864 17.3718 21.9218H14.877C14.6741 19.3007 13.7971 16.7786 12.3329 14.605C10.8686 12.4314 8.86788 10.6817 6.52859 9.52906L3.23999 15.2727C4.55507 15.8684 5.70076 16.7886 6.57171 17.9486C7.44265 19.1085 8.0109 20.4711 8.22419 21.9109H2.49479C2.42685 21.906 2.36116 21.8841 2.30367 21.8472C2.24617 21.8104 2.19867 21.7596 2.16546 21.6995C2.13224 21.6394 2.11435 21.572 2.11339 21.5032C2.11244 21.4344 2.12845 21.3664 2.15999 21.3054L3.74759 18.5781C3.20972 18.1248 2.59499 17.7737 1.93319 17.5418L0.361795 20.2691C0.198204 20.5525 0.0920022 20.8659 0.0493585 21.1912C0.00671486 21.5164 0.0284796 21.847 0.113388 22.1637C0.198297 22.4803 0.344657 22.7768 0.543966 23.0359C0.743275 23.2949 0.991559 23.5114 1.27439 23.6727C1.64705 23.8848 2.06707 23.9974 2.49479 24H10.341C10.4867 22.1836 10.1656 20.3601 9.40875 18.7059C8.65191 17.0517 7.48498 15.623 6.02099 14.5581L7.26839 12.3763C9.11597 13.6581 10.6007 15.4044 11.5761 17.4428C12.5515 19.4812 12.9838 21.7412 12.8304 24H19.4778C19.6326 20.5783 18.8957 17.1756 17.3406 14.1317C15.7856 11.0879 13.467 8.50961 10.6164 6.65451L13.1382 2.29088C13.1944 2.19578 13.2855 2.12694 13.3917 2.09936C13.4979 2.07178 13.6106 2.08768 13.7052 2.14361C13.9914 2.30179 24.6618 21.109 24.8616 21.3272C24.8968 21.391 24.9147 21.463 24.9135 21.536C24.9123 21.609 24.8921 21.6803 24.8548 21.7429C24.8175 21.8054 24.7646 21.8569 24.7013 21.8922C24.638 21.9274 24.5666 21.9452 24.4944 21.9436H21.924C21.9564 22.6381 21.9564 23.3309 21.924 24.0218H24.5052C24.833 24.0239 25.1579 23.9604 25.4612 23.8349C25.7645 23.7094 26.0401 23.5243 26.2722 23.2904C26.5042 23.0566 26.688 22.7786 26.8129 22.4725C26.9378 22.1664 27.0014 21.8383 27 21.5072C27.0003 21.0699 26.8847 20.6405 26.6652 20.2636L15.66 1.2327Z" fill="#362D59"/>
</g>
<defs>
<clipPath id="clip0_4633_10063">
<rect width="27" height="24" fill="white"/>
</clipPath>
</defs>
</svg>
