<svg width="20" height="20" viewBox="0 0 20 20" fill="none" xmlns="http://www.w3.org/2000/svg">
<path fill-rule="evenodd" clip-rule="evenodd" d="M7.31825 0C6.21488 0.000815494 5.32192 0.896228 5.32273 1.99959C5.32192 3.10296 6.2157 3.99837 7.31906 3.99918H9.31539V2.00041C9.31621 0.897044 8.42243 0.00163099 7.31825 0C7.31906 0 7.31906 0 7.31825 0V0ZM7.31825 5.33333H1.99633C0.892969 5.33415 -0.000813266 6.22956 2.22865e-06 7.33293C-0.00162876 8.43629 0.892153 9.3317 1.99552 9.33333H7.31825C8.42161 9.33252 9.31539 8.4371 9.31458 7.33374C9.31539 6.22956 8.42161 5.33415 7.31825 5.33333Z" fill="#36C5F0"/>
<path fill-rule="evenodd" clip-rule="evenodd" d="M19.96 7.33293C19.9608 6.22956 19.0671 5.33415 17.9637 5.33333C16.8603 5.33415 15.9665 6.22956 15.9674 7.33293V9.33333H17.9637C19.0671 9.33252 19.9608 8.4371 19.96 7.33293ZM14.6373 7.33293V1.99959C14.6381 0.897044 13.7451 0.00163099 12.6418 0C11.5384 0.000815494 10.6446 0.896228 10.6454 1.99959V7.33293C10.6438 8.43629 11.5376 9.3317 12.641 9.33333C13.7443 9.33252 14.6381 8.4371 14.6373 7.33293Z" fill="#2EB67D"/>
<path fill-rule="evenodd" clip-rule="evenodd" d="M12.6411 20C13.7444 19.9992 14.6382 19.1038 14.6374 18.0005C14.6382 16.8971 13.7444 16.0017 12.6411 16.0009H10.6447V18.0005C10.6439 19.103 11.5377 19.9984 12.6411 20ZM12.6411 14.6659H17.9638C19.0672 14.6651 19.961 13.7697 19.9602 12.6663C19.9618 11.5629 19.068 10.6675 17.9646 10.6659H12.6419C11.5385 10.6667 10.6447 11.5621 10.6455 12.6655C10.6447 13.7697 11.5377 14.6651 12.6411 14.6659Z" fill="#ECB22E"/>
<path fill-rule="evenodd" clip-rule="evenodd" d="M6.15928e-05 12.6662C-0.000753902 13.7696 0.893028 14.665 1.99639 14.6658C3.09976 14.665 3.99354 13.7696 3.99272 12.6662V10.6666H1.99639C0.893028 10.6674 -0.000753902 11.5629 6.15928e-05 12.6662ZM5.32279 12.6662V17.9996C5.32116 19.103 6.21494 19.9984 7.31831 20C8.42167 19.9992 9.31545 19.1038 9.31464 18.0004V12.6679C9.31627 11.5645 8.42249 10.6691 7.31912 10.6674C6.21494 10.6674 5.32198 11.5629 5.32279 12.6662C5.32279 12.6662 5.32279 12.667 5.32279 12.6662Z" fill="#E01E5A"/>
</svg>
