<svg width="24" height="25" viewBox="0 0 24 25" fill="none" xmlns="http://www.w3.org/2000/svg">
<path d="M5.06005 15.1726C5.06005 16.5675 3.93357 17.6949 2.53979 17.6949C1.14601 17.6949 0.0195312 16.5675 0.0195312 15.1726C0.0195312 13.7778 1.14601 12.6504 2.53979 12.6504H5.06005V15.1726Z" fill="#E01E5A"/>
<path d="M6.3208 15.1726C6.3208 13.7778 7.44728 12.6504 8.84106 12.6504C10.2348 12.6504 11.3613 13.7778 11.3613 15.1726V21.4782C11.3613 22.8731 10.2348 24.0005 8.84106 24.0005C7.44728 24.0005 6.3208 22.8731 6.3208 21.4782V15.1726Z" fill="#E01E5A"/>
<path d="M8.84057 5.04449C7.44679 5.04449 6.32031 3.91712 6.32031 2.52224C6.32031 1.12737 7.44679 0 8.84057 0C10.2343 0 11.3608 1.12737 11.3608 2.52224V5.04449H8.84057Z" fill="#36C5F0"/>
<path d="M8.84 6.32422C10.2338 6.32422 11.3603 7.45159 11.3603 8.84646C11.3603 10.2413 10.2338 11.3687 8.84 11.3687H2.52026C1.12648 11.3687 0 10.2413 0 8.84646C0 7.45159 1.12648 6.32422 2.52026 6.32422H8.84Z" fill="#36C5F0"/>
<path d="M18.9404 8.84646C18.9404 7.45159 20.0669 6.32422 21.4607 6.32422C22.8545 6.32422 23.9809 7.45159 23.9809 8.84646C23.9809 10.2413 22.8545 11.3687 21.4607 11.3687H18.9404V8.84646Z" fill="#2EB67D"/>
<path d="M17.6797 8.84696C17.6797 10.2418 16.5532 11.3692 15.1594 11.3692C13.7656 11.3692 12.6392 10.2418 12.6392 8.84696V2.52224C12.6392 1.12737 13.7656 0 15.1594 0C16.5532 0 17.6797 1.12737 17.6797 2.52224V8.84696Z" fill="#2EB67D"/>
<path d="M15.1594 18.957C16.5532 18.957 17.6797 20.0844 17.6797 21.4793C17.6797 22.8742 16.5532 24.0015 15.1594 24.0015C13.7656 24.0015 12.6392 22.8742 12.6392 21.4793V18.957H15.1594Z" fill="#ECB22E"/>
<path d="M15.1594 17.6949C13.7656 17.6949 12.6392 16.5675 12.6392 15.1726C12.6392 13.7778 13.7656 12.6504 15.1594 12.6504H21.4792C22.8729 12.6504 23.9994 13.7778 23.9994 15.1726C23.9994 16.5675 22.8729 17.6949 21.4792 17.6949H15.1594Z" fill="#ECB22E"/>
</svg>
