<svg width="94" height="25" viewBox="0 0 94 25" fill="none" xmlns="http://www.w3.org/2000/svg">
<path d="M30 18.2855L31.1754 15.5711C32.4455 16.5136 34.1327 17.0037 35.801 17.0037C37.0332 17.0037 37.8105 16.5324 37.8105 15.8161C37.7915 13.818 30.436 15.3826 30.3791 10.3684C30.3602 7.82369 32.6351 5.86328 35.8578 5.86328C37.7725 5.86328 39.6872 6.33453 41.0522 7.40899L39.9526 10.1799C38.7014 9.38825 37.1469 8.82274 35.6683 8.82274C34.6635 8.82274 34 9.294 34 9.8972C34.019 11.8576 41.4313 10.7832 41.5071 15.5711C41.5071 18.1724 39.2891 20.0008 36.1043 20.0008C33.7725 20.0008 31.6303 19.4542 30 18.2855Z" fill="black"/>
<path d="M75.0996 14.5909C74.5119 15.6088 73.4124 16.3062 72.1422 16.3062C70.2654 16.3062 68.7489 14.7982 68.7489 12.9321C68.7489 11.0659 70.2654 9.5579 72.1422 9.5579C73.4124 9.5579 74.5119 10.2553 75.0996 11.2733L78.3413 9.4825C77.128 7.33359 74.7963 5.86328 72.1422 5.86328C68.218 5.86328 65.0332 9.0301 65.0332 12.9321C65.0332 16.834 68.218 20.0008 72.1422 20.0008C74.8152 20.0008 77.128 18.5494 78.3413 16.3816L75.0996 14.5909Z" fill="black"/>
<path d="M47.1947 0H43.1372V19.736H47.1947V0Z" fill="black"/>
<path d="M79.9336 0V19.736H83.9905V13.8171L88.8057 19.736H94L87.8767 12.705L93.545 6.14512H88.5782L83.9905 11.5928V0H79.9336Z" fill="black"/>
<path d="M59.2514 14.6286C58.6637 15.5899 57.4504 16.3062 56.0855 16.3062C54.2087 16.3062 52.6921 14.7982 52.6921 12.9321C52.6921 11.0659 54.2087 9.5579 56.0855 9.5579C57.4504 9.5579 58.6637 10.3119 59.2514 11.2921V14.6286ZM59.2514 6.14603V7.74829C58.5879 6.63613 56.9386 5.86328 55.2134 5.86328C51.6494 5.86328 48.8438 8.99239 48.8438 12.9132C48.8438 16.834 51.6494 20.0008 55.2134 20.0008C56.9386 20.0008 58.5879 19.228 59.2514 18.1158V19.7181H63.3083V6.14603H59.2514Z" fill="black"/>
<path d="M5.06005 15.1726C5.06005 16.5675 3.93357 17.6949 2.53979 17.6949C1.14601 17.6949 0.0195312 16.5675 0.0195312 15.1726C0.0195312 13.7778 1.14601 12.6504 2.53979 12.6504H5.06005V15.1726Z" fill="#E01E5A"/>
<path d="M6.3208 15.1726C6.3208 13.7778 7.44728 12.6504 8.84106 12.6504C10.2348 12.6504 11.3613 13.7778 11.3613 15.1726V21.4782C11.3613 22.8731 10.2348 24.0005 8.84106 24.0005C7.44728 24.0005 6.3208 22.8731 6.3208 21.4782V15.1726Z" fill="#E01E5A"/>
<path d="M8.84057 5.04449C7.44679 5.04449 6.32031 3.91712 6.32031 2.52224C6.32031 1.12737 7.44679 0 8.84057 0C10.2343 0 11.3608 1.12737 11.3608 2.52224V5.04449H8.84057Z" fill="#36C5F0"/>
<path d="M8.84 6.32422C10.2338 6.32422 11.3603 7.45159 11.3603 8.84646C11.3603 10.2413 10.2338 11.3687 8.84 11.3687H2.52026C1.12648 11.3687 0 10.2413 0 8.84646C0 7.45159 1.12648 6.32422 2.52026 6.32422H8.84Z" fill="#36C5F0"/>
<path d="M18.9404 8.84646C18.9404 7.45159 20.0669 6.32422 21.4607 6.32422C22.8545 6.32422 23.9809 7.45159 23.9809 8.84646C23.9809 10.2413 22.8545 11.3687 21.4607 11.3687H18.9404V8.84646Z" fill="#2EB67D"/>
<path d="M17.6797 8.84696C17.6797 10.2418 16.5532 11.3692 15.1594 11.3692C13.7656 11.3692 12.6392 10.2418 12.6392 8.84696V2.52224C12.6392 1.12737 13.7656 0 15.1594 0C16.5532 0 17.6797 1.12737 17.6797 2.52224V8.84696Z" fill="#2EB67D"/>
<path d="M15.1594 18.957C16.5532 18.957 17.6797 20.0844 17.6797 21.4793C17.6797 22.8742 16.5532 24.0015 15.1594 24.0015C13.7656 24.0015 12.6392 22.8742 12.6392 21.4793V18.957H15.1594Z" fill="#ECB22E"/>
<path d="M15.1594 17.6949C13.7656 17.6949 12.6392 16.5675 12.6392 15.1726C12.6392 13.7778 13.7656 12.6504 15.1594 12.6504H21.4792C22.8729 12.6504 23.9994 13.7778 23.9994 15.1726C23.9994 16.5675 22.8729 17.6949 21.4792 17.6949H15.1594Z" fill="#ECB22E"/>
</svg>
