<svg width="163" height="24" viewBox="0 0 163 24" fill="none" xmlns="http://www.w3.org/2000/svg">
<path d="M32.3653 15.2987L30.4092 15.1331C28.8739 15.015 28.2797 14.423 28.2797 13.4285C28.2797 12.245 29.2207 11.5106 31.0036 11.5106C32.2666 11.5106 33.3807 11.7951 34.2483 12.4343L35.4123 11.3214C34.3216 10.4692 32.7623 10.067 31.0292 10.067C28.4291 10.067 26.547 11.3443 26.547 13.4759C26.547 15.3935 27.8102 16.4115 30.1873 16.601L32.193 16.7666C33.6043 16.8852 34.2235 17.4532 34.2235 18.4712C34.2235 19.8445 32.9853 20.5306 30.9788 20.5306C29.468 20.5306 28.1557 20.1518 27.1888 19.181L26 20.3176C27.3374 21.5486 28.9469 21.9985 31.0023 21.9985C33.9489 21.9985 35.9549 20.6951 35.9549 18.4475C35.9549 16.2687 34.4937 15.4879 32.3639 15.2981L32.3653 15.2987ZM47.6106 10.0665C45.6559 10.0665 44.4246 10.4348 43.3456 11.7408C43.3309 11.7588 44.5154 12.8597 44.5154 12.8597C45.2333 11.8892 46.0256 11.5344 47.5855 11.5344C49.8143 11.5344 50.7059 12.3865 50.7059 14.0909V15.2035H47.0419C44.318 15.2035 42.8325 16.5296 42.8325 18.5663C42.8039 19.4394 43.1326 20.2888 43.7486 20.9339C44.5165 21.6917 45.5068 21.9993 47.1905 21.9993C48.8248 21.9993 49.7164 21.6917 50.7078 20.7443V21.8569H52.4907V13.9491C52.4907 11.416 50.882 10.067 47.6125 10.067L47.6106 10.0665ZM50.707 17.7381C50.707 18.7092 50.5087 19.3721 50.0878 19.7506C49.3202 20.461 48.4041 20.5327 47.3641 20.5327C45.4326 20.5327 44.5655 19.8932 44.5655 18.5436C44.5655 17.1941 45.4571 16.4842 47.29 16.4842H50.707V17.7381ZM59.4728 11.5831C60.6365 11.5831 61.3541 11.9144 62.2708 12.885C62.2708 12.885 63.4645 11.7758 63.4547 11.7659C62.2046 10.4872 61.1434 10.068 59.4739 10.068C56.4031 10.068 54.0752 12.0565 54.0752 16.0338C54.0752 20.011 56.4026 22.0001 59.4739 22.0001C61.1576 22.0001 62.2223 21.5736 63.4853 20.2717L62.2719 19.1589C61.3558 20.1297 60.6376 20.4847 59.4739 20.4847C58.359 20.5273 57.2971 20.0285 56.651 19.1589C56.0814 18.4013 55.8586 17.5017 55.8586 16.0338C55.8586 14.5659 56.0814 13.6662 56.651 12.9087C57.297 12.0389 58.359 11.5402 59.4739 11.5831H59.4728ZM74.7429 10.1926H72.5202L66.9961 15.3333L67.0045 5.00006H65.221V21.8569H67.0042L66.9958 17.6054L69.1583 15.5307L73.2449 21.8569H75.4486L70.3934 14.3492L74.7429 10.1926ZM82.9809 9.90588C81.154 9.90588 79.9197 10.5865 79.16 11.3579C78.0446 12.4697 77.7599 13.8083 77.7599 15.9412C77.7599 18.0966 78.0446 19.4344 79.16 20.5473C79.9197 21.3186 81.1535 21.9995 82.9809 21.9995C84.8082 21.9995 86.0663 21.3186 86.8254 20.5473C87.9408 19.4354 88.2258 18.0968 88.2258 15.9412C88.2258 13.8086 87.9408 12.4697 86.8254 11.3579C86.0663 10.5865 84.8077 9.90588 82.9809 9.90588ZM84.4287 18.8228C84.0419 19.18 83.518 19.3687 82.9809 19.3442C82.4508 19.3687 81.9343 19.1796 81.557 18.8228C80.916 18.2102 80.8451 17.1667 80.8451 15.9412C80.8451 14.7158 80.916 13.6952 81.557 13.0826C81.9343 12.7257 82.4508 12.5366 82.9809 12.5612C83.518 12.5366 84.042 12.7253 84.4287 13.0826C85.0692 13.6952 85.1406 14.716 85.1406 15.9412C85.1406 17.1665 85.0692 18.2092 84.4287 18.8228ZM96.4408 10.0414L93.9492 17.3471L91.4336 10.0409H88.1819L92.7389 21.8622H95.1593L99.6917 10.0409L96.4408 10.0414ZM104.94 9.90536C101.737 9.90536 99.5535 12.0834 99.5535 15.9407C99.5535 20.7284 102.354 21.999 105.273 21.999C107.504 21.999 108.714 21.3408 109.972 20.138L108.097 18.3914C107.314 19.1404 106.649 19.5032 105.297 19.5032C103.564 19.5032 102.591 18.3914 102.591 16.8703H110.328V15.5552C110.328 12.3104 108.382 9.90536 104.94 9.90536ZM102.591 14.8516C102.596 14.414 102.693 13.9819 102.876 13.581C103.265 12.8307 104.065 12.356 104.941 12.356C105.817 12.356 106.617 12.8307 107.006 13.581C107.189 13.982 107.285 14.4141 107.29 14.8516H102.591ZM114.879 11.1759V10.0414H111.864V21.8627H114.95V14.7384C114.95 13.2408 115.994 12.5599 116.943 12.5599C117.569 12.5392 118.17 12.7957 118.571 13.2549L120.907 11.0172C120.052 10.2002 119.198 9.90536 117.988 9.90536C116.811 9.89203 115.682 10.3533 114.879 11.1759H114.879ZM121.864 8.80918V21.8507H124.949V12.5302H127.227V10.2841H124.949V8.99088C124.949 8.31023 125.305 7.92442 126.04 7.92442H127.226V5.42889H125.47C122.954 5.42889 121.863 7.13037 121.863 8.80918H121.864ZM139.928 9.90405C138.101 9.90405 136.866 10.5847 136.107 11.3561C134.992 12.4679 134.707 13.8065 134.707 15.9394C134.707 18.0948 134.992 19.4326 136.107 20.5454C136.866 21.3168 138.101 21.9977 139.928 21.9977C141.755 21.9977 143.013 21.3168 143.772 20.5454C144.888 19.4336 145.173 18.095 145.173 15.9394C145.173 13.8068 144.888 12.4679 143.772 11.3561C143.013 10.5847 141.755 9.90405 139.928 9.90405ZM141.376 18.821C140.989 19.1782 140.465 19.3669 139.928 19.3424C139.398 19.3669 138.881 19.1778 138.504 18.821C137.863 18.2084 137.792 17.1649 137.792 15.9394C137.792 14.7139 137.863 13.6934 138.504 13.0808C138.881 12.7239 139.398 12.5348 139.928 12.5594C140.465 12.5348 140.989 12.7235 141.376 13.0808C142.016 13.6934 142.088 14.7142 142.088 15.9394C142.088 17.1646 142.016 18.2074 141.376 18.821ZM159.748 10.0401L157.755 17.3471L155.216 10.0414H152.962L150.446 17.3471L148.452 10.0409H145.177L148.975 21.8622H151.514L154.101 14.4431L156.687 21.8622H159.227L163 10.0409L159.748 10.0401ZM131.778 18.3004V5.42889H128.694V18.4819C128.694 20.1609 129.762 21.8627 132.301 21.8627H134.057V19.3666H132.871C132.088 19.3666 131.78 19.0038 131.78 18.3004H131.778ZM40.8996 12.0411L42.5481 10.465H39.1726V6.63299H37.3896V18.7319C37.3896 20.4599 38.4296 21.8569 40.5097 21.8569H41.7721V20.389H40.8314C39.6925 20.389 39.1726 19.7496 39.1726 18.6844V12.0411H40.8996Z" fill="#1E1B1D"/>
<path fill-rule="evenodd" clip-rule="evenodd" d="M16.871 15.4688H18.9799V23.9979H0V15.4688H2.10887V21.8657H16.871V15.4688Z" fill="#BBBBBB"/>
<path d="M4.40717 14.8365L14.7646 17.0376L15.2 14.9441L4.84255 12.742L4.40717 14.8365ZM5.77774 9.82194L15.3723 14.3401L16.2661 12.3999L6.67133 7.88176L5.77774 9.82194ZM8.43262 5.06249L16.5667 11.9112L17.9214 10.2664L9.78729 3.41792L8.43262 5.06249ZM13.6831 6.10352e-05L11.9845 1.27749L18.3012 9.86478L19.9998 8.58755L13.6831 6.10352e-05ZM4.21777 19.7349H14.7621V17.6026H4.21777V19.7349Z" fill="#F58025"/>
</svg>
