<svg width="90" height="24" viewBox="0 0 90 24" fill="none" xmlns="http://www.w3.org/2000/svg">
<path fill-rule="evenodd" clip-rule="evenodd" d="M73.8049 17.9864C72.5285 18.5133 71.5212 20.3341 69.9894 21.369C69.8945 21.4332 69.7995 21.4653 69.7361 21.4653C69.6095 21.4653 69.4512 21.3369 69.4512 20.7593C69.4512 18.7701 70.0844 17.8075 70.6227 16.3958C72.4908 11.4867 75.6886 7.28348 78.5382 2.69517C78.7599 2.34221 78.8865 1.95724 78.8865 1.54007C78.8865 1.18721 78.7599 0.898357 78.6016 0.545496C78.475 0.256644 77.905 0 77.2717 0C76.9235 0 76.6069 0.0321059 76.1953 0.0321059C74.7072 0.0321059 74.3905 2.24599 74.0422 2.82349C71.6676 6.89841 68.9446 11.9359 67.5515 15.4973C67.2459 16.2957 66.9159 17.0942 66.6652 17.9136C65.2884 18.3176 64.257 20.2792 62.6438 21.369C62.5489 21.4332 62.4538 21.4653 62.3905 21.4653C62.2638 21.4653 62.1056 21.3369 62.1056 20.7593C62.1056 18.7701 62.7388 17.8075 63.277 16.3958C65.1451 11.4867 68.343 7.28348 71.1925 2.69517C71.4142 2.34221 71.5409 1.95724 71.5409 1.54007C71.5409 1.18721 71.4142 0.898357 71.2559 0.545496C71.1293 0.256644 70.5593 0 69.9261 0C69.5778 0 69.2612 0.0321059 68.8496 0.0321059C67.3615 0.0321059 67.0449 2.24599 66.6966 2.82349C64.3219 6.89841 61.5989 11.9359 60.2058 15.4973C60.095 15.7868 59.9811 16.0762 59.8689 16.3667C59.8329 16.3862 59.7975 16.4066 59.7625 16.4279C58.1477 17.3904 56.7862 19.0909 54.8233 20.246C54.4433 20.4706 53.2718 21.3048 52.3219 21.3048C52.1002 21.3048 51.9103 21.2407 51.7202 21.1444C51.4354 21.0161 51.1504 20.4065 51.1504 20.2139C51.1504 20.0535 51.182 20.0215 51.4987 19.8289C54.285 18.1284 56.5646 15.6898 58.5277 13.2513C59.2559 12.353 60.2058 10.5883 60.2058 9.30483C60.2058 8.47058 59.9208 7.50812 58.9393 7.15505C58.2427 6.89841 57.4511 6.77009 56.818 6.77009C55.1399 6.77009 53.905 7.54012 53.2084 8.27815C52.4993 9.04525 51.8134 9.83301 51.176 10.6485C50.5102 10.066 49.5709 9.81822 48.6807 9.81822C47.6359 9.81822 45.6728 11.1337 44.6596 11.9038C44.5013 12.0321 44.4063 12.0962 44.343 12.0962C44.3114 12.0962 44.2797 12.0642 44.2797 12C44.2797 11.9679 44.343 11.6791 44.343 11.1658C44.343 10.7166 44.248 10.1391 43.8365 9.43315C43.7415 9.27272 43.1715 8.91976 42.4749 8.91976C41.6201 8.91976 40.8285 9.33694 40.8285 9.78611C40.8285 10.107 41.1134 10.2353 41.1134 10.524C41.1134 10.6845 40.9868 11.4224 40.7969 12.1283C40.2586 14.1819 39.5936 16.2032 38.8971 18.2246C38.5171 19.3476 37.2506 20.3424 37.2506 21.5616C37.2506 21.9465 37.504 22.4599 37.8523 22.845C38.4222 23.4867 38.7705 23.7113 39.277 23.7113C39.4987 23.7113 39.7519 23.6471 39.9736 23.4546C40.4485 23.0374 40.7018 22.6204 40.8285 22.0428C41.6517 18.2567 44.0263 15.6898 46.6543 13.9893C47.5409 13.4117 48.7441 12.8021 48.9024 12.8021C49.0647 12.8021 49.3186 12.8781 49.5744 12.952C48.8398 14.1663 48.2446 15.4468 47.8575 16.8128C47.7309 17.262 47.6676 17.6792 47.6676 18.1284C47.6676 18.8663 47.8258 19.6364 48.0792 20.3744C48.4275 21.4011 48.9974 22.2995 49.7889 22.7166C51.2454 23.4867 52.2902 23.9038 53.2401 23.9038C53.7784 23.9038 54.19 23.8076 54.6333 23.5508C56.7143 22.3577 57.9902 21.4524 58.9115 20.6484C58.9368 21.4636 59.0954 21.9152 59.6676 22.5241C60.2375 23.1337 61.124 23.6791 62.2955 23.9359C62.4854 23.968 62.6755 24 62.8654 24C64.2058 24 65.4957 22.896 66.4904 21.8016C66.6055 22.0404 66.7729 22.2684 67.0132 22.5241C67.5832 23.1337 68.4697 23.6791 69.6412 23.9359C69.8311 23.968 70.0211 24 70.2111 24C71.7812 24 73.2821 22.4851 74.3202 21.2453C74.6662 21.9704 75.6331 22.6875 76.7968 23.2621C77.1134 23.4225 77.4934 23.5187 77.8417 23.5187C79.2031 23.5187 80.1847 22.3957 80.9446 21.5616C82.9077 19.3797 83.9842 16.6845 84.8074 13.2834C84.8707 13.0268 84.9657 12.9305 85.0924 12.9305C85.409 12.9305 85.8205 12.9305 86.2639 12.8664C87.1187 12.738 87.7836 12.4492 88.5752 12.3209C89.0501 12.2246 88.9868 12.0642 89.4301 11.9038C89.7467 11.7755 90 11.647 90 11.3262C90 10.7808 89.0185 10.2032 87.5304 10.2032C86.3588 10.2032 85.6622 10.2994 85.1873 10.2994C84.4591 10.2994 84.2691 10.0749 83.7942 8.82354C83.7942 8.82354 84.2691 10.0749 83.7942 8.82354C83.6992 8.5669 83.6043 8.43848 83.3192 8.18183C82.6543 7.60433 81.8311 7.4118 81.1662 7.4118C79.5831 7.4118 78.2216 9.04818 77.2717 10.4278C77.0502 10.7487 76.7335 11.0053 76.5119 11.3583C75.2076 13.3409 73.9589 15.5766 73.8049 17.9864ZM33.3245 7.05884C34.1161 7.05884 34.5593 6.99462 34.6544 6.99462C34.7493 6.99462 34.8127 7.02673 34.8127 7.12305C34.8127 7.18716 34.781 7.28348 34.5593 7.76476C32.6279 11.9679 31.2982 16.2353 30.1266 20.9519C30.0949 21.0803 30 21.5616 30 22.0429C30 22.492 30.1266 22.9733 30.5699 23.23C31.4248 23.7434 32.1214 23.968 32.5963 23.968C33.293 23.968 33.6412 23.5187 33.6412 22.7808C33.6412 22.1391 33.6728 21.4653 33.7678 20.9519C34.6543 16.2352 35.9841 12.5455 38.0422 8.69522C39.0237 6.8663 39.1504 6.77009 39.1504 6.60966C39.1504 6.54545 39.1187 6.44923 39.0554 6.35291C40.3219 6.06426 41.8417 5.87163 43.2348 5.87163C43.3931 5.87163 44.0263 6.09627 44.1213 6.19248C44.343 6.41712 44.5646 6.64176 44.9446 6.64176C45.2613 6.64176 45.7995 6.41712 45.9894 6.2888C46.4327 5.96794 46.6544 5.61498 46.6544 5.03748C46.6544 4.49199 44.6596 3.14435 43.2665 3.14435C41.5567 3.14435 40.0053 3.36899 38.5488 3.65784C37.9156 3.78606 35.6358 4.13902 33.9894 4.13902C32.4063 4.13902 32.5013 3.91449 31.8364 3.91449C31.4565 3.91449 31.2665 4.10692 31.1082 4.26735C30.9499 4.42777 30.8549 5.06949 30.8549 5.64709C30.8549 5.93584 30.8549 6.16048 31.0132 6.35301C31.4882 6.93051 32.4064 7.05884 33.3245 7.05884C32.4064 7.05884 33.3245 7.05884 33.3245 7.05884ZM56.7863 9.65769C56.7863 9.94654 56.6914 10.1391 56.3114 10.7487C55.9314 11.3584 56.0897 11.3584 55.6148 12C54.6966 13.2513 53.5567 14.5026 52.0686 15.8824C51.657 16.2674 51.5937 16.2674 51.5303 16.2674C51.4987 16.2674 51.4354 16.2353 51.4354 16.1712C51.4354 16.0749 51.467 15.9466 51.7836 15.2728C52.7652 13.1872 53.9684 11.8075 55.2981 10.4599C56.0264 9.7219 56.4697 9.46526 56.628 9.46526C56.7229 9.46526 56.7863 9.49736 56.7863 9.65769C56.7863 9.49736 56.7863 9.65769 56.7863 9.65769ZM81.1346 10.492C81.1662 10.492 81.1979 10.524 81.2295 10.5883C81.2612 10.6845 81.3245 10.7807 81.4829 10.9091C81.6095 11.0053 81.6095 11.4546 81.6095 11.8075C81.6095 14.9198 79.8681 17.4867 78.1583 20.0856C77.7783 20.6631 77.5567 20.7594 77.3668 20.7594C77.2085 20.7594 76.9551 20.3423 76.8602 20.0856C76.7335 19.7327 76.7019 19.3156 76.7019 19.1552C76.7019 16.6525 79.0448 12.9305 80.5963 10.877C80.8496 10.524 81.0396 10.492 81.1346 10.492C81.0396 10.492 81.1346 10.492 81.1346 10.492Z" fill="#0079BF"/>
<path d="M21 0H3C1.34315 0 0 1.34315 0 3V21C0 22.6569 1.34315 24 3 24H21C22.6569 24 24 22.6569 24 21V3C24 1.34315 22.6569 0 21 0Z" fill="url(#paint0_linear_4633_10152)"/>
<path d="M19.4399 3.11945H14.9999C14.2046 3.11945 13.5599 3.76416 13.5599 4.55945V12.1794C13.5599 12.9747 14.2046 13.6194 14.9999 13.6194H19.4399C20.2352 13.6194 20.8799 12.9747 20.8799 12.1794V4.55945C20.8799 3.76416 20.2352 3.11945 19.4399 3.11945Z" fill="white"/>
<path d="M8.99999 3.11945H4.56C3.76471 3.11945 3.12 3.76416 3.12 4.55945V18.1794C3.12 18.9747 3.76471 19.6194 4.56 19.6194H8.99999C9.79529 19.6194 10.44 18.9747 10.44 18.1794V4.55945C10.44 3.76416 9.79529 3.11945 8.99999 3.11945Z" fill="white"/>
<defs>
<linearGradient id="paint0_linear_4633_10152" x1="12" y1="0" x2="12" y2="24" gradientUnits="userSpaceOnUse">
<stop stop-color="#0079BF"/>
<stop offset="1" stop-color="#0079BF"/>
</linearGradient>
</defs>
</svg>
