<svg width="24" height="24" viewBox="0 0 24 24" fill="none" xmlns="http://www.w3.org/2000/svg">
<path d="M21.6563 0H2.34375C1.04933 0 0 1.04933 0 2.34375V21.6563C0 22.9507 1.04933 24 2.34375 24H21.6563C22.9507 24 24 22.9507 24 21.6563V2.34375C24 1.04933 22.9507 0 21.6563 0Z" fill="url(#paint0_linear_4633_10116)"/>
<path d="M19.755 3.12H14.6849C14.0636 3.12 13.5599 3.62368 13.5599 4.24498V12.495C13.5599 13.1163 14.0636 13.62 14.6849 13.62H19.755C20.3763 13.62 20.8799 13.1163 20.8799 12.495V4.24498C20.8799 3.62368 20.3763 3.12 19.755 3.12Z" fill="white"/>
<path d="M9.31506 3.12H4.24504C3.62374 3.12 3.12006 3.62368 3.12006 4.24498V18.495C3.12006 19.1163 3.62374 19.62 4.24504 19.62H9.31506C9.93637 19.62 10.4401 19.1163 10.4401 18.495V4.24498C10.4401 3.62368 9.93637 3.12 9.31506 3.12Z" fill="white"/>
<defs>
<linearGradient id="paint0_linear_4633_10116" x1="12" y1="0" x2="12" y2="24" gradientUnits="userSpaceOnUse">
<stop stop-color="#0091E6"/>
<stop offset="1" stop-color="#0079BF"/>
</linearGradient>
</defs>
</svg>
