<svg width="57" height="57" viewBox="0 0 57 57" fill="none" xmlns="http://www.w3.org/2000/svg">
<path d="M51.4336 0H5.56641C2.49217 0 0 2.49217 0 5.56641V51.4336C0 54.5078 2.49217 57 5.56641 57H51.4336C54.5078 57 57 54.5078 57 51.4336V5.56641C57 2.49217 54.5078 0 51.4336 0Z" fill="url(#paint0_linear_133399)"/>
<path d="M46.918 7.40997H34.8767C33.4011 7.40997 32.2048 8.60621 32.2048 10.0818V29.6756C32.2048 31.1512 33.4011 32.3475 34.8767 32.3475H46.918C48.3936 32.3475 49.5898 31.1512 49.5898 29.6756V10.0818C49.5898 8.60621 48.3936 7.40997 46.918 7.40997Z" fill="white"/>
<path d="M22.1233 7.40997H10.082C8.6064 7.40997 7.41016 8.60621 7.41016 10.0818V43.9256C7.41016 45.4012 8.6064 46.5975 10.082 46.5975H22.1233C23.5989 46.5975 24.7952 45.4012 24.7952 43.9256V10.0818C24.7952 8.60621 23.5989 7.40997 22.1233 7.40997Z" fill="white"/>
<defs>
<linearGradient id="paint0_linear_133399" x1="28.5" y1="0" x2="28.5" y2="57" gradientUnits="userSpaceOnUse">
<stop stop-color="#0091E6"/>
<stop offset="1" stop-color="#0079BF"/>
</linearGradient>
</defs>
</svg>
