<svg width="100" height="24" viewBox="0 0 100 24" fill="none" xmlns="http://www.w3.org/2000/svg">
<path d="M21.4286 0H2.57143C1.15179 0 0 1.15179 0 2.57143V21.4286C0 22.8482 1.15179 24 2.57143 24H21.4286C22.8482 24 24 22.8482 24 21.4286V2.57143C24 1.15179 22.8482 0 21.4286 0ZM18.8089 8.50714C18.8196 8.65714 18.8196 8.8125 18.8196 8.9625C18.8196 13.6071 15.2839 18.9589 8.82321 18.9589C6.83036 18.9589 4.98214 18.3804 3.42857 17.3839C3.7125 17.4161 3.98571 17.4268 4.275 17.4268C5.91964 17.4268 7.43036 16.8696 8.63571 15.9268C7.09286 15.8946 5.79643 14.8821 5.35179 13.4893C5.89286 13.5696 6.38036 13.5696 6.9375 13.425C5.33036 13.0982 4.125 11.6839 4.125 9.975V9.93214C4.59107 10.1946 5.1375 10.3554 5.71071 10.3768C5.2288 10.0562 4.83374 9.62136 4.56079 9.11098C4.28784 8.60059 4.14548 8.03057 4.14643 7.45179C4.14643 6.79821 4.31786 6.19821 4.62321 5.67857C6.35357 7.81071 8.95179 9.20357 11.8661 9.35357C11.3679 6.96964 13.1518 5.03571 15.2946 5.03571C16.3071 5.03571 17.2179 5.45893 17.8607 6.14464C18.6536 5.99464 19.4143 5.7 20.0893 5.29821C19.8268 6.1125 19.275 6.79821 18.5464 7.23214C19.2536 7.15714 19.9393 6.95893 20.5714 6.68571C20.0946 7.3875 19.4946 8.00893 18.8089 8.50714Z" fill="#1B9DF0"/>
<path d="M40.9191 5.04V7.3H37.1991V19H34.3991V7.3H30.6791V5.04H40.9191ZM58.322 7.92L55.082 19H52.062L50.042 11.26L48.022 19H44.982L41.722 7.92H44.562L46.522 16.36L48.642 7.92H51.602L53.682 16.34L55.642 7.92H58.322ZM61.257 6.6C60.7637 6.6 60.3504 6.44667 60.017 6.14C59.697 5.82 59.537 5.42667 59.537 4.96C59.537 4.49333 59.697 4.10667 60.017 3.8C60.3504 3.48 60.7637 3.32 61.257 3.32C61.7504 3.32 62.157 3.48 62.477 3.8C62.8104 4.10667 62.977 4.49333 62.977 4.96C62.977 5.42667 62.8104 5.82 62.477 6.14C62.157 6.44667 61.7504 6.6 61.257 6.6ZM62.637 7.92V19H59.837V7.92H62.637ZM68.6634 10.22V15.58C68.6634 15.9533 68.7501 16.2267 68.9234 16.4C69.1101 16.56 69.4168 16.64 69.8434 16.64H71.1434V19H69.3834C67.0234 19 65.8434 17.8533 65.8434 15.56V10.22H64.5234V7.92H65.8434V5.18H68.6634V7.92H71.1434V10.22H68.6634ZM76.4173 10.22V15.58C76.4173 15.9533 76.504 16.2267 76.6773 16.4C76.864 16.56 77.1707 16.64 77.5973 16.64H78.8973V19H77.1373C74.7773 19 73.5973 17.8533 73.5973 15.56V10.22H72.2773V7.92H73.5973V5.18H76.4173V7.92H78.8973V10.22H76.4173ZM91.2113 13.22C91.2113 13.62 91.1846 13.98 91.1313 14.3H83.0313C83.0979 15.1 83.3779 15.7267 83.8713 16.18C84.3646 16.6333 84.9713 16.86 85.6913 16.86C86.7313 16.86 87.4713 16.4133 87.9113 15.52H90.9313C90.6113 16.5867 89.9979 17.4667 89.0913 18.16C88.1846 18.84 87.0713 19.18 85.7513 19.18C84.6846 19.18 83.7246 18.9467 82.8713 18.48C82.0313 18 81.3713 17.3267 80.8913 16.46C80.4246 15.5933 80.1912 14.5933 80.1912 13.46C80.1912 12.3133 80.4246 11.3067 80.8913 10.44C81.3579 9.57333 82.0113 8.90667 82.8513 8.44C83.6913 7.97333 84.6579 7.74 85.7513 7.74C86.8046 7.74 87.7446 7.96667 88.5713 8.42C89.4113 8.87333 90.0579 9.52 90.5113 10.36C90.9779 11.1867 91.2113 12.14 91.2113 13.22ZM88.3113 12.42C88.2979 11.7 88.0379 11.1267 87.5313 10.7C87.0246 10.26 86.4046 10.04 85.6713 10.04C84.9779 10.04 84.3913 10.2533 83.9113 10.68C83.4446 11.0933 83.1579 11.6733 83.0513 12.42H88.3113ZM96.055 9.64C96.415 9.05333 96.8817 8.59333 97.455 8.26C98.0417 7.92667 98.7083 7.76 99.455 7.76V10.7H98.715C97.835 10.7 97.1683 10.9067 96.715 11.32C96.275 11.7333 96.055 12.4533 96.055 13.48V19H93.255V7.92H96.055V9.64Z" fill="#333333"/>
</svg>
