<svg width="24" height="24" viewBox="0 0 24 24" fill="none" xmlns="http://www.w3.org/2000/svg">
<path d="M21.4286 0H2.57143C1.15179 0 0 1.15179 0 2.57143V21.4286C0 22.8482 1.15179 24 2.57143 24H21.4286C22.8482 24 24 22.8482 24 21.4286V2.57143C24 1.15179 22.8482 0 21.4286 0ZM18.8089 8.50714C18.8196 8.65714 18.8196 8.8125 18.8196 8.9625C18.8196 13.6071 15.2839 18.9589 8.82321 18.9589C6.83036 18.9589 4.98214 18.3804 3.42857 17.3839C3.7125 17.4161 3.98571 17.4268 4.275 17.4268C5.91964 17.4268 7.43036 16.8696 8.63571 15.9268C7.09286 15.8946 5.79643 14.8821 5.35179 13.4893C5.89286 13.5696 6.38036 13.5696 6.9375 13.425C5.33036 13.0982 4.125 11.6839 4.125 9.975V9.93214C4.59107 10.1946 5.1375 10.3554 5.71071 10.3768C5.2288 10.0562 4.83374 9.62136 4.56079 9.11098C4.28784 8.60059 4.14548 8.03057 4.14643 7.45179C4.14643 6.79821 4.31786 6.19821 4.62321 5.67857C6.35357 7.81071 8.95179 9.20357 11.8661 9.35357C11.3679 6.96964 13.1518 5.03571 15.2946 5.03571C16.3071 5.03571 17.2179 5.45893 17.8607 6.14464C18.6536 5.99464 19.4143 5.7 20.0893 5.29821C19.8268 6.1125 19.275 6.79821 18.5464 7.23214C19.2536 7.15714 19.9393 6.95893 20.5714 6.68571C20.0946 7.3875 19.4946 8.00893 18.8089 8.50714Z" fill="#1B9DF0"/>
</svg>
