<svg
   xmlns:dc="http://purl.org/dc/elements/1.1/"
   xmlns:cc="http://creativecommons.org/ns#"
   xmlns:rdf="http://www.w3.org/1999/02/22-rdf-syntax-ns#"
   xmlns:svg="http://www.w3.org/2000/svg"
   xmlns="http://www.w3.org/2000/svg"
   xmlns:sodipodi="http://sodipodi.sourceforge.net/DTD/sodipodi-0.dtd"
   xmlns:inkscape="http://www.inkscape.org/namespaces/inkscape"
   version="1.1"
   id="svg2"
   xml:space="preserve"
   width="830.46667"
   height="830.46667"
   viewBox="0 0 830.46667 830.46667"
   sodipodi:docname="Logo Blue CMYK.eps"><metadata
     id="metadata8"><rdf:RDF><cc:Work
         rdf:about=""><dc:format>image/svg+xml</dc:format><dc:type
           rdf:resource="http://purl.org/dc/dcmitype/StillImage" /></cc:Work></rdf:RDF></metadata><defs
     id="defs6" /><sodipodi:namedview
     pagecolor="#ffffff"
     bordercolor="#666666"
     borderopacity="1"
     objecttolerance="10"
     gridtolerance="10"
     guidetolerance="10"
     inkscape:pageopacity="0"
     inkscape:pageshadow="2"
     inkscape:window-width="640"
     inkscape:window-height="480"
     id="namedview4" /><g
     id="g10"
     inkscape:groupmode="layer"
     inkscape:label="ink_ext_XXXXXX"
     transform="matrix(1.3333333,0,0,-1.3333333,0,830.46667)"><g
       id="g12"
       transform="scale(0.1)"><path
         d="M 3114.14,6228.46 C 1394.04,6228.46 0,4834.1 0,3114.23 0,1394.51 1394.04,0 3114.14,0 c 1719.6,0 3114.32,1394.51 3114.32,3114.23 0,1719.87 -1394.72,3114.23 -3114.32,3114.23"
         style="fill:#43bfee;fill-opacity:1;fill-rule:evenodd;stroke:none"
         id="path14" /><path
         d="m 4844.36,2636.51 c -270.25,0 -490.11,221.67 -490.11,494.12 0,272.77 219.86,494.69 490.11,494.69 269.95,0 489.57,-221.92 489.57,-494.69 0,-272.45 -219.62,-494.12 -489.57,-494.12 z m 0,1199.36 c -385.49,0 -699.1,-316.37 -699.1,-705.24 0,-388.76 313.61,-705.06 699.1,-705.06 385.28,0 698.74,316.3 698.74,705.06 0,388.87 -313.46,705.24 -698.74,705.24 z M 2057.21,2593.53 c 19.11,-19.48 29.65,-45.03 29.65,-72 0,-56.47 -45.63,-102.41 -101.69,-102.41 -27.24,0 -53.27,11.44 -73.3,32.21 l -522.43,526.53 -524.694,-529 c -19.601,-19.05 -44.98,-29.48 -71.535,-29.48 -55.789,0 -101.16,45.84 -101.16,102.15 0,27.9 11.105,53.98 31.273,73.41 l 522.716,528.47 -523.501,527.81 c -19.66,19.74 -30.488,45.69 -30.488,73.03 0,56.33 45.371,102.17 101.16,102.17 26.965,0 52.344,-10.49 71.496,-29.51 l 525.243,-527.88 523.17,526.89 c 19.31,19.66 44.91,30.5 72.05,30.5 56.06,0 101.69,-45.84 101.69,-102.17 0,-27.29 -10.56,-52.75 -29.69,-71.7 l -523.13,-529.56 z m 2034.56,1021.95 c -4.56,0 -22.52,-0.12 -39.24,-2.14 -201.71,-25.17 -221.76,-123.37 -221.76,-358.28 v -725.07 c 0,-56.19 -45.32,-101.9 -100.99,-101.9 -55.34,0 -100.63,45.69 -101,101.86 l -0.33,1178.97 c 0.35,56.96 44.78,101.56 101.16,101.56 43.74,0 82.53,-29.03 95.79,-70.32 69.26,51 151.49,77.89 238.45,77.89 l 28.65,-0.42 c 56.04,0 101.75,-45.9 101.75,-102.33 0,-55.68 -43.1,-97.65 -102.48,-99.82 z m 930.72,-484.85 c 0,-99.08 -79.92,-179.68 -178.13,-179.68 -98.42,0 -178.49,80.6 -178.49,179.68 0,99.04 80.07,179.64 178.49,179.64 98.21,0 178.13,-80.6 178.13,-179.64 z m -2739.71,114.18 c 55.9,221.22 252.89,375.63 479.24,375.63 227.53,0 423.6,-154.02 479.74,-375.63 z m 1133.18,-134.46 c 32.1,39.91 44.16,92.11 33.92,147.14 -41.73,199.4 -149.06,359.14 -310.37,461.92 -110.8,71.09 -240.1,108.65 -373.94,108.65 -147.67,0 -288.27,-44.85 -406.6,-129.71 -184.95,-132.74 -295.36,-349.55 -295.36,-580.04 0,-57.86 7.09,-115.29 21.06,-170.7 71.07,-280.65 310.13,-492.92 594.87,-528.19 27.54,-3.32 55.11,-5.02 81.93,-5.02 57.05,0 112.54,7.33 169.58,22.31 74.16,18 144.81,48.31 210.06,90.06 61.65,40.31 118.41,94.62 178.12,170.38 l 3.91,4.09 c 19.88,25.03 29.12,57.22 25.34,88.28 -3.38,27.8 -16.56,51.81 -37.09,67.56 -19.46,15.13 -42.64,23.47 -65.26,23.47 -22.05,0 -54.44,-8.06 -83.73,-46.59 l -2.3,-3.08 c -9.67,-13.02 -19.68,-26.48 -31.19,-39.84 -39.46,-44.73 -84.81,-81.58 -134.7,-109.5 -71.44,-38.43 -148.61,-58.21 -229.21,-58.8 -253.2,2.8 -408.25,172.87 -468.83,330.82 -9.52,28.43 -16.32,54.39 -20.68,78.46 -0.08,2.45 -0.25,5 -0.41,7.51 l 980.29,0.18 c 68.08,1.46 125.13,26.55 160.59,70.64"
         style="fill:#ffffff;fill-opacity:1;fill-rule:evenodd;stroke:none"
         id="path16" /></g></g></svg>

