<svg width="77" height="24" viewBox="0 0 77 24" fill="none" xmlns="http://www.w3.org/2000/svg">
<path d="M12 23.9542C18.6022 23.9542 23.9543 18.6022 23.9543 12C23.9543 5.39783 18.6022 0.0457304 12 0.0457304C5.39787 0.0457304 0.0457764 5.39783 0.0457764 12C0.0457764 18.6022 5.39787 23.9542 12 23.9542Z" fill="#1AB4D7"/>
<path d="M5.76812 11.9654L7.80821 9.92029C7.87585 9.85136 7.91359 9.76009 7.91359 9.6633C7.91359 9.46158 7.74961 9.29776 7.54788 9.29776C7.44962 9.29776 7.35751 9.33627 7.28804 9.40659C7.28784 9.407 5.24978 11.4439 5.24978 11.4439L3.20241 9.40354C3.13323 9.33534 3.04156 9.29776 2.94436 9.29776C2.74288 9.29776 2.57886 9.46149 2.57886 9.66301C2.57886 9.76131 2.6181 9.85355 2.68854 9.92306L4.72835 11.9626L2.6896 14.0052C2.61794 14.0757 2.57886 14.1682 2.57886 14.2669C2.57886 14.4686 2.74288 14.6322 2.94436 14.6322C3.04172 14.6322 3.13347 14.5944 3.20241 14.5254L5.24661 12.484L7.28304 14.518C7.35527 14.5927 7.44844 14.6324 7.54788 14.6324C7.7494 14.6324 7.91338 14.4686 7.91338 14.2669C7.91338 14.1696 7.87568 14.0782 7.80707 14.0092L5.76812 11.9654Z" fill="white"/>
<path d="M17.8961 11.9648C17.8961 12.3311 18.1939 12.629 18.5607 12.629C18.9265 12.629 19.2245 12.3311 19.2245 11.9648C19.2245 11.5984 18.9265 11.3005 18.5607 11.3005C18.1939 11.3005 17.8961 11.5984 17.8961 11.9648Z" fill="white"/>
<path d="M16.6363 11.9652C16.6363 10.9045 17.4991 10.0415 18.5599 10.0415C19.6202 10.0415 20.4833 10.9045 20.4833 11.9652C20.4833 13.0256 19.6202 13.8882 18.5599 13.8882C17.4991 13.8882 16.6363 13.0256 16.6363 11.9652V11.9652ZM15.8796 11.9652C15.8796 13.4428 17.082 14.6451 18.5599 14.6451C20.0378 14.6451 21.2409 13.4428 21.2409 11.9652C21.2409 10.4873 20.0378 9.28469 18.5599 9.28469C17.082 9.28469 15.8796 10.4873 15.8796 11.9652Z" fill="white"/>
<path d="M15.6893 9.33047L15.5768 9.33015C15.2392 9.33015 14.9136 9.43662 14.6417 9.6462C14.6059 9.48222 14.4593 9.35882 14.2847 9.35882C14.0837 9.35882 13.9227 9.51983 13.9222 9.72119C13.9222 9.72192 13.9235 14.2356 13.9235 14.2356C13.924 14.4366 14.0879 14.5999 14.289 14.5999C14.49 14.5999 14.6539 14.4366 14.6545 14.2351C14.6545 14.2342 14.6546 11.4594 14.6546 11.4594C14.6546 10.5342 14.7392 10.1606 15.5317 10.0615C15.6049 10.0524 15.6846 10.0538 15.6849 10.0538C15.9018 10.0464 16.0559 9.89738 16.0559 9.69598C16.0559 9.49446 15.8914 9.33047 15.6893 9.33047" fill="white"/>
<path d="M8.67076 11.5239C8.67076 11.5139 8.67153 11.5035 8.67202 11.4932C8.88423 10.6543 9.644 10.0335 10.5488 10.0335C11.4646 10.0335 12.2313 10.6695 12.4327 11.5239H8.67076ZM13.1812 11.4549C13.0237 10.7091 12.6154 10.0965 11.9937 9.70311C11.0849 9.12612 9.88476 9.15805 9.00694 9.78229C8.2909 10.2917 7.87756 11.125 7.87756 11.9834C7.87756 12.1986 7.90351 12.4158 7.95752 12.6297C8.2279 13.6933 9.14225 14.4984 10.2324 14.6319C10.5559 14.671 10.8707 14.6523 11.1968 14.5679C11.477 14.4997 11.7481 14.3861 11.9979 14.226C12.2571 14.0593 12.4738 13.8395 12.6835 13.5765C12.6878 13.5716 12.692 13.5673 12.6963 13.5623C12.8419 13.3817 12.8149 13.1249 12.6549 13.0023C12.5199 12.8989 12.2934 12.857 12.1151 13.0852C12.0768 13.1398 12.0341 13.196 11.987 13.2521C11.8453 13.4088 11.6694 13.5605 11.4587 13.6782C11.1906 13.8215 10.885 13.9033 10.5602 13.9051C9.49697 13.8933 8.92804 13.1512 8.72566 12.6214C8.69032 12.5225 8.66307 12.4199 8.64408 12.3143C8.64159 12.2945 8.63976 12.2754 8.63903 12.2578C8.85886 12.2578 12.4544 12.2572 12.4544 12.2572C12.9775 12.2463 13.259 11.8771 13.1812 11.4549Z" fill="white"/>
<path d="M39.7927 19L36.7727 14.3L34.0327 19H30.8727L35.2727 11.96L30.8127 5.04H34.0327L37.0527 9.72L39.7727 5.04H42.9327L38.5527 12.06L43.0127 19H39.7927ZM55.4437 13.22C55.4437 13.62 55.417 13.98 55.3637 14.3H47.2637C47.3303 15.1 47.6103 15.7267 48.1037 16.18C48.597 16.6333 49.2037 16.86 49.9237 16.86C50.9637 16.86 51.7037 16.4133 52.1437 15.52H55.1637C54.8437 16.5867 54.2303 17.4667 53.3237 18.16C52.417 18.84 51.3037 19.18 49.9837 19.18C48.917 19.18 47.957 18.9467 47.1037 18.48C46.2637 18 45.6037 17.3267 45.1237 16.46C44.657 15.5933 44.4237 14.5933 44.4237 13.46C44.4237 12.3133 44.657 11.3067 45.1237 10.44C45.5903 9.57333 46.2437 8.90667 47.0837 8.44C47.9237 7.97333 48.8903 7.74 49.9837 7.74C51.037 7.74 51.977 7.96667 52.8037 8.42C53.6437 8.87333 54.2903 9.52 54.7437 10.36C55.2103 11.1867 55.4437 12.14 55.4437 13.22ZM52.5437 12.42C52.5303 11.7 52.2703 11.1267 51.7637 10.7C51.257 10.26 50.637 10.04 49.9037 10.04C49.2103 10.04 48.6237 10.2533 48.1437 10.68C47.677 11.0933 47.3903 11.6733 47.2837 12.42H52.5437ZM60.2874 9.64C60.6474 9.05333 61.1141 8.59333 61.6874 8.26C62.2741 7.92667 62.9408 7.76 63.6874 7.76V10.7H62.9474C62.0674 10.7 61.4008 10.9067 60.9474 11.32C60.5074 11.7333 60.2874 12.4533 60.2874 13.48V19H57.4874V7.92H60.2874V9.64ZM70.4934 19.18C69.4267 19.18 68.4667 18.9467 67.6134 18.48C66.76 18 66.0867 17.3267 65.5934 16.46C65.1134 15.5933 64.8734 14.5933 64.8734 13.46C64.8734 12.3267 65.12 11.3267 65.6134 10.46C66.12 9.59333 66.8067 8.92667 67.6734 8.46C68.54 7.98 69.5067 7.74 70.5734 7.74C71.64 7.74 72.6067 7.98 73.4734 8.46C74.34 8.92667 75.02 9.59333 75.5134 10.46C76.02 11.3267 76.2734 12.3267 76.2734 13.46C76.2734 14.5933 76.0134 15.5933 75.4934 16.46C74.9867 17.3267 74.2934 18 73.4134 18.48C72.5467 18.9467 71.5734 19.18 70.4934 19.18ZM70.4934 16.74C71 16.74 71.4734 16.62 71.9134 16.38C72.3667 16.1267 72.7267 15.7533 72.9934 15.26C73.26 14.7667 73.3934 14.1667 73.3934 13.46C73.3934 12.4067 73.1134 11.6 72.5534 11.04C72.0067 10.4667 71.3334 10.18 70.5334 10.18C69.7334 10.18 69.06 10.4667 68.5134 11.04C67.98 11.6 67.7134 12.4067 67.7134 13.46C67.7134 14.5133 67.9734 15.3267 68.4934 15.9C69.0267 16.46 69.6934 16.74 70.4934 16.74Z" fill="#333333"/>
</svg>
