<svg width="24" height="24" viewBox="0 0 24 24" fill="none" xmlns="http://www.w3.org/2000/svg">
<path d="M12 23.9542C18.6022 23.9542 23.9543 18.6022 23.9543 12C23.9543 5.39783 18.6022 0.0457306 12 0.0457306C5.39786 0.0457306 0.0457611 5.39783 0.0457611 12C0.0457611 18.6022 5.39786 23.9542 12 23.9542Z" fill="#1AB4D7"/>
<path d="M5.76807 11.9654L7.80817 9.92029C7.8758 9.85136 7.91354 9.76009 7.91354 9.6633C7.91354 9.46158 7.74956 9.29776 7.54784 9.29776C7.44958 9.29776 7.35746 9.33627 7.288 9.40659C7.28779 9.407 5.24973 11.4439 5.24973 11.4439L3.20236 9.40354C3.13319 9.33534 3.04151 9.29776 2.94431 9.29776C2.74283 9.29776 2.57881 9.46149 2.57881 9.66301C2.57881 9.76131 2.61806 9.85355 2.6885 9.92306L4.7283 11.9626L2.68956 14.0052C2.6179 14.0757 2.57881 14.1682 2.57881 14.2669C2.57881 14.4686 2.74283 14.6322 2.94431 14.6322C3.04168 14.6322 3.13343 14.5944 3.20236 14.5254L5.24656 12.484L7.28299 14.518C7.35522 14.5927 7.4484 14.6324 7.54784 14.6324C7.74936 14.6324 7.91334 14.4686 7.91334 14.2669C7.91334 14.1696 7.87564 14.0782 7.80703 14.0092L5.76807 11.9654Z" fill="white"/>
<path d="M17.8961 11.9648C17.8961 12.3311 18.1939 12.629 18.5606 12.629C18.9265 12.629 19.2245 12.3311 19.2245 11.9648C19.2245 11.5984 18.9265 11.3005 18.5606 11.3005C18.1939 11.3005 17.8961 11.5984 17.8961 11.9648Z" fill="white"/>
<path d="M16.6363 11.9652C16.6363 10.9045 17.4991 10.0415 18.5599 10.0415C19.6202 10.0415 20.4833 10.9045 20.4833 11.9652C20.4833 13.0256 19.6202 13.8882 18.5599 13.8882C17.4991 13.8882 16.6363 13.0256 16.6363 11.9652ZM15.8796 11.9652C15.8796 13.4428 17.082 14.6451 18.5599 14.6451C20.0378 14.6451 21.2409 13.4428 21.2409 11.9652C21.2409 10.4873 20.0378 9.28469 18.5599 9.28469C17.082 9.28469 15.8796 10.4873 15.8796 11.9652Z" fill="white"/>
<path d="M15.6893 9.33047L15.5768 9.33015C15.2393 9.33015 14.9137 9.43662 14.6417 9.6462C14.6059 9.48221 14.4593 9.35882 14.2847 9.35882C14.0838 9.35882 13.9227 9.51983 13.9223 9.72119C13.9223 9.72192 13.9235 14.2356 13.9235 14.2356C13.924 14.4366 14.0879 14.5999 14.289 14.5999C14.49 14.5999 14.6539 14.4366 14.6545 14.2351C14.6545 14.2342 14.6546 11.4594 14.6546 11.4594C14.6546 10.5342 14.7392 10.1606 15.5317 10.0615C15.6049 10.0524 15.6846 10.0538 15.6849 10.0538C15.9018 10.0464 16.0559 9.89738 16.0559 9.69598C16.0559 9.49446 15.8914 9.33047 15.6893 9.33047Z" fill="white"/>
<path d="M8.67074 11.5239C8.67074 11.5139 8.67151 11.5035 8.672 11.4932C8.88422 10.6543 9.64398 10.0335 10.5488 10.0335C11.4646 10.0335 12.2313 10.6695 12.4327 11.5239H8.67074ZM13.1812 11.4549C13.0237 10.7091 12.6154 10.0965 11.9937 9.70311C11.0848 9.12612 9.88475 9.15805 9.00692 9.78229C8.29088 10.2917 7.87755 11.125 7.87755 11.9834C7.87755 12.1986 7.9035 12.4158 7.95751 12.6297C8.22788 13.6933 9.14223 14.4984 10.2324 14.6319C10.5558 14.671 10.8707 14.6523 11.1968 14.5679C11.4769 14.4997 11.7481 14.3861 11.9979 14.226C12.2571 14.0593 12.4737 13.8395 12.6835 13.5765C12.6877 13.5716 12.692 13.5673 12.6962 13.5623C12.8418 13.3817 12.8148 13.1249 12.6548 13.0023C12.5199 12.8989 12.2934 12.857 12.1151 13.0852C12.0768 13.1398 12.0341 13.196 11.987 13.2521C11.8453 13.4088 11.6694 13.5605 11.4587 13.6782C11.1905 13.8215 10.885 13.9033 10.5602 13.9051C9.49696 13.8933 8.92802 13.1512 8.72565 12.6214C8.6903 12.5225 8.66305 12.4199 8.64406 12.3143C8.64158 12.2945 8.63975 12.2754 8.63902 12.2578C8.85884 12.2578 12.4544 12.2572 12.4544 12.2572C12.9774 12.2463 13.259 11.8771 13.1812 11.4549Z" fill="white"/>
</svg>
