<svg width="106" height="24" viewBox="0 0 106 24" fill="none" xmlns="http://www.w3.org/2000/svg">
<path d="M33.1023 3.70966C32.9081 2.99259 32.5294 2.33887 32.0037 1.81361C31.4781 1.28835 30.8239 0.909868 30.1064 0.715862C27.4794 0 16.9075 0 16.9075 0C16.9075 0 6.33526 0.0217241 3.70865 0.737586C2.99114 0.931624 2.33702 1.31012 1.81142 1.83538C1.28581 2.36064 0.907072 3.01434 0.712908 3.73138C-0.081678 8.39586 -0.389948 15.503 0.734646 19.9806C0.92881 20.6977 1.30755 21.3514 1.83315 21.8766C2.35876 22.4019 3.01288 22.7804 3.73039 22.9744C6.3572 23.6903 16.9293 23.6903 16.9293 23.6903C16.9293 23.6903 27.5013 23.6903 30.1281 22.9744C30.8456 22.7804 31.4998 22.4019 32.0254 21.8766C32.551 21.3514 32.9297 20.6977 33.1239 19.9806C33.9617 15.3097 34.2201 8.20697 33.1021 3.70986L33.1023 3.70966Z" fill="#FF0000"/>
<path d="M13.5425 16.9216L22.3127 11.8452L13.5425 6.76862V16.9216Z" fill="white"/>
<path d="M101.701 6.87727C102.852 6.87727 103.72 7.09409 104.328 7.50623C104.936 7.91858 105.37 8.56927 105.631 9.45892C105.891 10.3484 106 11.5631 106 13.1251V15.6635H100.42V16.4444L100.507 18.5922C100.572 19.0695 100.681 19.4166 100.855 19.6335C101.029 19.8505 101.311 19.9589 101.68 19.9589C102.179 19.9589 102.526 19.7638 102.7 19.3734C102.895 18.9828 102.982 18.3319 103.004 17.4424L105.891 17.616C105.913 17.7462 105.913 17.9197 105.913 18.1366C105.913 19.5033 105.544 20.5231 104.784 21.1955C104.024 21.868 102.982 22.2151 101.614 22.2151C99.9646 22.2151 98.8141 21.6946 98.1628 20.675C97.5117 19.6552 97.1643 18.0497 97.1643 15.9021V13.277C97.238 9.58906 97.8871 6.88803 101.701 6.87727ZM61.5622 7.15927V18.0282C61.5622 18.6791 61.6272 19.1564 61.7792 19.4384C62.0874 20.0415 62.8864 19.8873 63.3205 19.5902C63.5711 19.4209 63.7732 19.1891 63.9066 18.9178V7.15906H67.228V21.9764H64.6229L64.3408 20.154H64.2758C63.5594 21.5208 62.4955 22.2149 61.0846 22.2149C58.9128 22.2095 58.3814 20.6458 58.2549 19.0577L58.2466 18.9457C58.231 18.7052 58.2218 18.4643 58.2191 18.2233V7.15927H61.562H61.5622ZM78.6903 7.15927V18.0282C78.6903 18.6791 78.7553 19.1564 78.9073 19.4384C79.2157 20.0415 80.0145 19.8873 80.4486 19.5902C80.6992 19.4209 80.9013 19.1891 81.0347 18.9178V7.15906H84.3561V21.9764H81.751L81.4689 20.154H81.4039C80.6875 21.5208 79.6236 22.2149 78.2127 22.2149C76.0409 22.2095 75.5095 20.6458 75.383 19.0577L75.3747 18.9457C75.3591 18.7052 75.3499 18.4643 75.3472 18.2233V7.15927H78.6903ZM51.9234 6.87727C53.0089 6.87727 53.8989 7.09409 54.5503 7.54968C55.2014 8.00527 55.7007 8.69961 56.0047 9.65403C56.3086 10.6086 56.4605 11.8885 56.4605 13.4723V15.6199C56.4605 17.2037 56.3086 18.462 56.0047 19.4164C55.7007 20.3713 55.2231 21.0654 54.5503 21.521C53.8774 21.9548 52.9654 22.1934 51.8367 22.1934C50.6643 22.2151 49.7525 21.9766 49.0797 21.5427C48.4068 21.0871 47.929 20.3928 47.647 19.4384C47.3646 18.4837 47.2344 17.2254 47.2344 15.6418V13.4938C47.2344 11.91 47.3864 10.6084 47.712 9.65382C48.0377 8.67768 48.5368 7.98334 49.2316 7.54968C49.9262 7.11561 50.8162 6.87706 51.9234 6.87706V6.87727ZM89.5663 0.932922V8.74285H89.588C89.8919 8.17885 90.2826 7.72327 90.8254 7.37609C91.3323 7.03549 91.9295 6.8542 92.5403 6.85554C93.3436 6.85554 93.9514 7.07237 94.4073 7.48451C94.8632 7.91858 95.1888 8.59099 95.3841 9.52389C95.5735 10.4276 95.6811 11.6775 95.6878 13.2536L95.688 13.4073V15.7502C95.688 17.9413 95.4058 19.5685 94.8847 20.6098C94.3423 21.6511 93.5173 22.1719 92.3883 22.1719C91.7589 22.1719 91.1944 22.02 90.6735 21.738C90.2127 21.4697 89.8307 21.085 89.5659 20.6224L89.5228 20.5446H89.4578L89.1104 21.9548H86.3534V0.933129H89.5663V0.932922ZM76.2805 1.69223V4.38209H72.9808V21.9764H69.7246V4.3823H66.4032V1.69244H76.2807L76.2805 1.69223ZM40.4829 1.69223L40.485 1.70051C40.5166 1.84141 40.9556 3.7914 41.4384 6.06334L41.4764 6.24334L41.534 6.5154L41.5725 6.69809L41.5918 6.78975L41.6303 6.97347L41.6495 7.06554L41.6878 7.24989L41.7437 7.51947C42.0698 9.09272 42.381 10.6705 42.5671 11.8018H42.654C42.8323 10.787 43.0913 9.4883 43.3675 8.1623L43.4399 7.81596C43.4764 7.64258 43.5128 7.4692 43.5497 7.29623L43.6064 7.02789C43.9814 5.27068 44.3677 3.51589 44.7651 1.76361L44.7713 1.73568L44.7813 1.69223H48.1027L44.2602 15.3815V21.9548H40.9823V15.4031H40.9605L37.1615 1.69203H40.4829V1.69223ZM51.8582 9.17671C51.4023 9.17671 51.0984 9.41547 50.9032 9.91451C50.7078 10.4133 50.621 11.1726 50.621 12.2359V16.8567C50.621 17.9415 50.7078 18.744 50.8815 19.2215C51.0552 19.6986 51.3808 19.9374 51.8582 19.9374C52.3141 19.9374 52.6398 19.6986 52.8352 19.2215C53.0306 18.744 53.1174 17.9415 53.1174 16.8567V12.2357C53.1174 11.1726 53.0304 10.3916 52.8352 9.9143C52.6398 9.41547 52.3141 9.17671 51.8582 9.17671ZM90.1524 9.61078C89.8878 9.85492 89.6996 10.156 89.5876 10.5323L89.5663 10.6086V19.026C89.8354 19.4816 90.2176 19.7853 90.8904 19.8071C91.2378 19.8071 91.5198 19.6769 91.7372 19.4166C91.9542 19.1564 92.1061 18.7223 92.1929 18.1149C92.2763 17.5318 92.3198 16.7286 92.3231 15.7057V13.6459C92.3231 12.4744 92.2796 11.585 92.2146 10.9558C92.1277 10.3266 92.0194 9.87106 91.824 9.61078C91.4461 9.0683 90.63 9.07492 90.1524 9.61078ZM101.636 9.11175C101.267 9.13347 101.007 9.24189 100.855 9.4372C100.681 9.65403 100.572 9.97947 100.507 10.4568C100.443 10.9244 100.422 12.5589 100.42 12.6242V13.6893H102.852V12.75V12.768C102.85 13.0964 102.844 12.5775 102.829 11.9404L102.827 11.8548C102.813 11.2949 102.793 10.6707 102.765 10.4568C102.7 9.95775 102.591 9.61058 102.418 9.41547C102.244 9.22016 101.984 9.11175 101.636 9.11175H101.636Z" fill="#282828"/>
</svg>
