<svg width="107" height="24" viewBox="0 0 107 24" fill="none" xmlns="http://www.w3.org/2000/svg">
<g clip-path="url(#clip0_4633_9717)">
<path fill-rule="evenodd" clip-rule="evenodd" d="M87.1179 7.19698C87.5269 7.9013 87.6607 8.70265 87.7049 9.60353L87.7629 10.8043V19.2008L87.8223 20.4028C87.9409 22.3658 89.3914 23.8173 91.3733 23.9408L92.5713 24V10.8043L92.6306 9.60353C92.6798 8.71273 92.8124 7.89626 93.2277 7.1869C93.6509 6.45931 94.2584 5.85564 94.9893 5.43652C95.7201 5.0174 96.5486 4.79757 97.3915 4.7991C98.2344 4.80063 99.0621 5.02347 99.7914 5.44525C100.521 5.86703 101.126 6.47289 101.547 7.20202C101.956 7.90634 102.083 8.72281 102.132 9.60353L102.192 10.8005V19.2008L102.251 20.4028C102.375 22.3759 103.814 23.8274 105.802 23.9408L107 24V9.60353C107 7.05784 105.987 4.61636 104.184 2.81593C102.381 1.0155 99.9351 0.00352562 97.3846 0.00252332C96.0195 0.00108641 94.6698 0.290434 93.4257 0.851234C92.1816 1.41203 91.0717 2.23138 90.1702 3.25452C89.2683 2.23178 88.1584 1.41264 86.9144 0.851669C85.6704 0.290702 84.3209 0.000794403 82.9559 0.00126311C80.9588 0.00126311 79.1057 0.606051 77.5706 1.65057C76.634 0.607311 74.5385 0.00126311 73.3354 0.00126311V24L74.5385 23.9408C76.5507 23.8085 78.0049 22.3961 78.0832 20.4028L78.1475 19.2008V10.8043L78.2069 9.60353C78.2574 8.69761 78.3836 7.9013 78.7939 7.19194C79.2174 6.4648 79.8247 5.86128 80.555 5.44164C81.2853 5.02201 82.1132 4.80094 82.9559 4.80051C83.7992 4.80069 84.6277 5.0222 85.3582 5.44282C86.0887 5.86344 86.6955 6.46839 87.1179 7.19698ZM4.80832 23.942L6.01135 24H24.0441L23.9848 22.803C23.822 20.8299 22.422 19.3885 20.4388 19.26L19.2358 19.2008H8.4174L22.8411 4.79925L22.7818 3.60353C22.6884 1.61025 21.2291 0.1701 19.2358 0.0604815L18.0328 0.0063029L0 0.00126311L0.0593308 1.20202C0.217126 3.15624 1.63728 4.62789 3.60403 4.74129L4.80832 4.80051H15.6267L1.20303 19.202L1.26236 20.4028C1.38102 22.3809 2.81127 23.8135 4.80832 23.9408V23.942ZM68.6155 3.51407C69.732 4.62829 70.6178 5.95114 71.2221 7.40706C71.8264 8.86298 72.1374 10.4235 72.1374 11.9994C72.1374 13.5753 71.8264 15.1358 71.2221 16.5917C70.6178 18.0476 69.732 19.3705 68.6155 20.4847C66.3596 22.7344 63.3012 23.9982 60.1122 23.9982C56.9233 23.9982 53.8648 22.7344 51.609 20.4847C46.9143 15.7988 46.9143 8.19992 51.609 3.51407C52.7245 2.40023 54.049 1.5166 55.5067 0.913655C56.9643 0.310708 58.5268 0.000248732 60.1047 2.89265e-06C61.6851 -0.00109231 63.2503 0.30882 64.7107 0.912014C66.1711 1.51521 67.4979 2.39985 68.6155 3.51533V3.51407ZM65.2134 6.91222C66.5657 8.26294 67.3253 10.0943 67.3253 12.0038C67.3253 13.9133 66.5657 15.7446 65.2134 17.0953C63.8601 18.445 62.0253 19.2032 60.1122 19.2032C58.1991 19.2032 56.3643 18.445 55.011 17.0953C53.6588 15.7446 52.8992 13.9133 52.8992 12.0038C52.8992 10.0943 53.6588 8.26294 55.011 6.91222C56.3643 5.56253 58.1991 4.80436 60.1122 4.80436C62.0253 4.80436 63.8601 5.56253 65.2134 6.91222ZM34.8726 2.89265e-06C36.4506 0.000414204 38.0131 0.311072 39.4708 0.914237C40.9285 1.5174 42.2529 2.40126 43.3683 3.51533C48.0643 8.19992 48.0643 15.8001 43.3683 20.4847C41.1125 22.7344 38.054 23.9982 34.8651 23.9982C31.6761 23.9982 28.6177 22.7344 26.3618 20.4847C21.6671 15.7988 21.6671 8.19992 26.3618 3.51407C27.4774 2.40023 28.8018 1.5166 30.2595 0.913655C31.7172 0.310708 33.2796 0.000248732 34.8575 2.89265e-06H34.8726ZM39.9663 6.9097C41.3189 8.26048 42.0787 10.0921 42.0787 12.0019C42.0787 13.9117 41.3189 15.7433 39.9663 17.0941C38.613 18.4438 36.7782 19.2019 34.8651 19.2019C32.952 19.2019 31.1172 18.4438 29.7639 17.0941C28.4116 15.7434 27.652 13.912 27.652 12.0025C27.652 10.093 28.4116 8.26168 29.7639 6.91096C31.1172 5.56127 32.952 4.8031 34.8651 4.8031C36.7782 4.8031 38.613 5.56127 39.9663 6.91096V6.9097Z" fill="#2D8CFF"/>
</g>
<defs>
<clipPath id="clip0_4633_9717">
<rect width="107" height="24" fill="white"/>
</clipPath>
</defs>
</svg>
